<?xml version="1.0" encoding="UTF-8" standalone="no"?>
<!DOCTYPE svg PUBLIC "-//W3C//DTD SVG 1.1//EN" "http://www.w3.org/Graphics/SVG/1.1/DTD/svg11.dtd">
<svg version="1.1" viewBox="0,42,196,89" width="196" height="89" xmlns="http://www.w3.org/2000/svg" xmlns:xlink="http://www.w3.org/1999/xlink"><path fill="#2faeb9" fill-rule="evenodd" d="M195.36,46.56 C195.564,46.516,195.587,46.654,195.6,46.8 C188.306,57.787,172.659,58.238,161.04,64.32 C149.558,70.33,141.15,78.899,135.6,90.72 C128.183,77.178,115.36,69.039,96.48,66.96 C96.91,64.526,97.679,62.548,98.88,60.24 C99.758,58.552,101.21,55.557,102.96,55.2 C106.122,54.554,111.466,57.501,114.239,59.04 C123.651,64.264,131.122,73.792,135.599,82.56 C141.157,71.413,147.562,62.996,157.199,56.64 C166.834,50.287,181.435,49.5,195.36,46.56 Z"/><path fill="#fff" fill-rule="evenodd" d="M52.32,65.28 C49.52,65.28,46.72,65.28,43.92,65.28 C42.411,57.538,53.848,57.532,52.32,65.28 Z"/><path fill="#fff" fill-rule="evenodd" d="M77.76,65.28 C74.96,65.28,72.16,65.28,69.36,65.28 C67.851,57.538,79.289,57.532,77.76,65.28 Z"/><path fill-rule="evenodd" d="M56.64,85.44 C69.571,85.385,83.283,83.808,86.64,93.36 C88.366,98.271,86.283,104.608,82.32,106.56 C89.603,108.762,90.58,121.377,85.44,126.72 C79.857,132.523,66.545,130.022,56.4,130.56 C56.56,115.6,56.08,100,56.64,85.44 Z M67.2,95.28 C67.2,97.68,67.2,100.08,67.2,102.48 C69.687,102.327,72.882,102.881,74.64,102 C78.056,97.458,73.373,93.854,67.2,95.28 Z M75.36,112.8 C73.868,111.414,70.438,112.385,67.44,112.079 C67.44,115.119,67.44,118.159,67.44,121.199 C74.961,123.322,79.251,116.413,75.36,112.8 Z"/><path fill-rule="evenodd" d="M34.32,85.68 C33.565,88.685,33.021,91.9,32.4,95.04 C29.12,95.04,25.84,95.04,22.56,95.04 C22.001,106.401,22.479,118.799,22.32,130.56 C18.64,130.56,14.96,130.56,11.28,130.56 C11.28,118.72,11.28,106.88,11.28,95.04 C7.84,95.04,4.4,95.04,0.96,95.04 C1.119,92,0.641,88.321,1.2,85.68 C12.24,85.68,23.28,85.68,34.32,85.68 Z"/><path fill-rule="evenodd" d="M38.16,85.68 C41.84,85.68,45.52,85.68,49.2,85.68 C49.2,100.64,49.2,115.6,49.2,130.56 C45.44,130.56,41.68,130.56,37.92,130.56 C37.92,115.84,37.92,101.121,37.92,86.4 C37.899,86.06,37.88,85.72,38.16,85.68 Z"/><path fill-rule="evenodd" d="M120.48,85.68 C120.049,88.849,119.471,91.871,119.041,95.04 C114.24,95.04,109.44,95.04,104.641,95.04 C104.641,97.44,104.641,99.84,104.641,102.24 C108.242,102.8,112.88,102.321,116.881,102.48 C116.881,105.6,116.881,108.72,116.881,111.84 C112.881,111.84,108.881,111.84,104.881,111.84 C104.881,114.72,104.881,117.6,104.881,120.48 C109.761,121.04,115.68,120.56,120.961,120.72 C120.961,123.999,120.961,127.28,120.961,130.56 C111.841,130.56,102.721,130.56,93.601,130.56 C93.761,115.68,93.281,100.161,93.841,85.68 C102.72,85.68,111.6,85.68,120.48,85.68 Z"/><path fill-rule="evenodd" d="M128.16,87.6 C131.576,88.984,132.824,92.536,134.64,95.52 C136.694,93.093,138.195,88.836,140.88,87.84 C140.88,101.92,140.88,116.001,140.88,130.08 C136.64,130.08,132.4,130.08,128.159,130.08 C128.16,115.919,128.16,101.76,128.16,87.6 Z"/><path fill="#fff" fill-rule="evenodd" d="M74.64,102 C72.881,102.882,69.686,102.327,67.2,102.48 C67.2,100.08,67.2,97.68,67.2,95.28 C73.373,93.854,78.056,97.458,74.64,102 Z"/><path fill="#fff" fill-rule="evenodd" d="M67.44,121.2 C67.44,118.16,67.44,115.12,67.44,112.08 C70.438,112.386,73.868,111.415,75.36,112.801 C79.251,116.413,74.961,123.322,67.44,121.2 Z"/><g><path fill="#2faeb9" d="M2.268,59.609 L2.268,54.693 L4.882,54.693 C4.709,53.451,4.614,52.217,4.597,50.992 C4.597,48.301,5.348,46.221,6.849,44.756 C8.351,43.289,10.49,42.556,13.266,42.556 C15.526,42.556,17.665,43.125,19.684,44.264 L17.407,48.663 C16.165,48.059,15.19,47.758,14.483,47.758 C13.568,47.758,12.848,48.033,12.322,48.586 C11.795,49.138,11.532,49.889,11.532,50.837 L11.532,54.693 L18.416,54.693 L16.604,59.609 L11.583,59.609 L11.583,81.839 L4.701,81.839 L4.701,59.609 L2.268,59.609 Z"/><g><path fill="#2faeb9" d="M20.311,55.767 L26.658,54.071 C27.294,55.219,27.663,56.515,27.767,57.959 C29.681,55.35,31.802,54.054,34.131,54.071 C34.976,54.071,35.856,54.261,36.771,54.64 L34.83,60.903 C34.157,60.592,33.467,60.437,32.76,60.437 C31.173,60.437,29.723,61.194,28.412,62.708 L28.412,81.838 L21.32,81.838 L21.32,63.733 C21.32,60.182,20.984,57.525,20.311,55.767 Z"/><path fill="#2faeb9" d="M36.791,68.537 C36.791,63.879,37.924,60.29,40.192,57.771 C42.39,55.338,45.246,54.122,48.76,54.122 C52.139,54.122,54.739,55.071,56.557,56.969 C58.942,59.402,60.134,63.361,60.134,68.847 L60.134,70.503 L44.528,70.503 L44.528,70.713 C44.528,72.833,45.022,74.475,46.011,75.639 C47,76.804,48.406,77.386,50.229,77.386 C52.647,77.386,54.93,76.467,57.074,74.627 L59.824,78.883 C56.756,81.336,53.352,82.571,49.613,82.588 C45.735,82.588,42.628,81.316,40.293,78.771 C37.958,76.228,36.791,72.816,36.791,68.537 Z M44.632,65.302 L52.81,65.302 L52.81,64.991 C52.81,63.162,52.535,61.8,51.984,60.902 C51.279,59.85,50.238,59.323,48.863,59.323 C47.521,59.323,46.481,59.832,45.741,60.85 C45.001,61.868,44.632,63.317,44.632,65.198 L44.632,65.302 Z"/><path fill="#2faeb9" d="M62.276,68.537 C62.276,63.879,63.409,60.29,65.677,57.771 C67.875,55.338,70.731,54.122,74.245,54.122 C77.624,54.122,80.224,55.071,82.042,56.969 C84.427,59.402,85.619,63.361,85.619,68.847 L85.619,70.503 L70.014,70.503 L70.014,70.713 C70.014,72.833,70.508,74.475,71.497,75.639 C72.486,76.804,73.892,77.386,75.715,77.386 C78.133,77.386,80.416,76.467,82.56,74.627 L85.31,78.883 C82.242,81.336,78.838,82.571,75.099,82.588 C71.221,82.588,68.114,81.316,65.779,78.771 C63.444,76.228,62.276,72.816,62.276,68.537 Z M70.118,65.302 L78.296,65.302 L78.296,64.991 C78.296,63.162,78.021,61.8,77.47,60.902 C76.765,59.85,75.724,59.323,74.349,59.323 C73.007,59.323,71.967,59.832,71.227,60.85 C70.487,61.868,70.118,63.317,70.118,65.198 L70.118,65.302 Z"/></g></g></svg>
