<?xml version="1.0" standalone="no"?>
<!DOCTYPE svg PUBLIC "-//W3C//DTD SVG 1.1//EN" "http://www.w3.org/Graphics/SVG/1.1/DTD/svg11.dtd" >
<svg xmlns="http://www.w3.org/2000/svg" xmlns:xlink="http://www.w3.org/1999/xlink" version="1.1">
<metadata>
Created by FontForge 20150318 at Thu May 21 13:17:15 2015
 By uniteet7
(c) 2014, Robert Jablonski/Cannot Into Space Fonts, all rights reserved.
</metadata>
<defs>
<font id="HussarBold" horiz-adv-x="683" >
  <font-face 
    font-family="HussarBold"
    font-weight="700"
    font-stretch="normal"
    units-per-em="1000"
    panose-1="0 0 8 0 0 0 0 0 0 0"
    ascent="750"
    descent="-250"
    x-height="513"
    cap-height="825"
    bbox="-167 -351 1487 1227"
    underline-thickness="50"
    underline-position="-50"
    unicode-range="U+0020-10FFFD"
  />
<missing-glyph horiz-adv-x="500" 
d="M100 50h300v400h-300v-400zM50 0v500h400v-500h-400z" />
    <glyph glyph-name=".notdef" horiz-adv-x="500" 
d="M100 50h300v400h-300v-400zM50 0v500h400v-500h-400z" />
    <glyph glyph-name=".null" horiz-adv-x="0" 
 />
    <glyph glyph-name="nonmarkingreturn" horiz-adv-x="333" 
 />
    <glyph glyph-name="space" unicode=" " horiz-adv-x="273" 
 />
    <glyph glyph-name="exclam" unicode="!" horiz-adv-x="349" 
d="M174 214q48 0 81.5 -33.5t33.5 -81.5q0 -47 -33.5 -80.5t-81.5 -33.5q-47 0 -80.5 33.5t-33.5 80.5q0 48 33.5 81.5t80.5 33.5zM110 270l-24 590h177l-24 -590h-129z" />
    <glyph glyph-name="quotedbl" unicode="&#x22;" horiz-adv-x="513" 
d="M367 840q34 0 60 -23t26 -52v-4q0 -20 -15.5 -91.5t-31.5 -133.5l-15 -61h-67q-42 240 -42 286v4q0 29 25.5 52t59.5 23zM145 840q34 0 60 -23t26 -52v-4q0 -20 -15.5 -91.5t-31.5 -133.5l-15 -61h-67q-42 240 -42 286v4q0 29 25.5 52t59.5 23z" />
    <glyph glyph-name="numbersign" unicode="#" horiz-adv-x="833" 
d="M434 340l38 146h-108l-38 -146h108zM294 219l-57 -219h-124l57 219h-102l32 121h102l38 146h-107l32 121h107l57 218h124l-57 -218h108l57 218h124l-57 -218h102l-32 -121h-102l-38 -146h107l-32 -121h-107l-57 -219h-124l57 219h-108z" />
    <glyph glyph-name="dollar" unicode="$" horiz-adv-x="672" 
d="M415 963v-141q52 -7 100.5 -25t71.5 -33l23 -14l-73 -144q-9 6 -24.5 15t-58.5 24t-79 15q-47 0 -71 -18.5t-24 -52.5q0 -16 10.5 -30.5t38 -30t46.5 -24t64 -27.5q2 -1 3.5 -1.5t3.5 -1.5q77 -33 132 -89.5t55 -128.5q0 -110 -59.5 -171t-158.5 -78v-145h-108v138
q-48 3 -94 14.5t-77 26.5t-55.5 29.5t-36.5 24.5l-11 10l91 152q12 -10 32 -25t72 -40t92 -25q114 0 114 78q0 17 -8.5 31.5t-29 28t-36.5 22t-51.5 25t-53.5 25.5q-72 36 -112 89.5t-40 115.5q0 89 59.5 153.5t144.5 83.5v144h108z" />
    <glyph glyph-name="percent" unicode="%" horiz-adv-x="981" 
d="M645 182q0 -40 26.5 -66.5t65.5 -26.5q38 0 64 26.5t26 66.5t-25.5 65.5t-64.5 25.5q-41 0 -66.5 -25.5t-25.5 -65.5zM516 182q0 86 61.5 141.5t161.5 55.5q96 0 157.5 -55.5t61.5 -141.5t-63 -141.5t-156 -55.5q-95 0 -159 55.5t-64 141.5zM152 643q0 -40 25.5 -65.5
t66.5 -25.5q39 0 64.5 25.5t25.5 65.5t-26 66.5t-64 26.5q-39 0 -65.5 -26.5t-26.5 -66.5zM791 825l-480 -825h-118l480 825h118zM23 643q0 86 64 141.5t159 55.5q93 0 156 -55.5t63 -141.5t-61.5 -141.5t-157.5 -55.5q-100 0 -161.5 55.5t-61.5 141.5z" />
    <glyph glyph-name="ampersand" unicode="&#x26;" horiz-adv-x="833" 
d="M459 210l-131 129q-3 -1 -9 -3.5t-21 -12t-26 -21t-20.5 -30.5t-9.5 -40q0 -33 28 -51t65 -18q30 0 61 11.5t47 23.5zM410 707q-36 0 -54 -23t-18 -59q0 -21 15 -46.5t30 -40.5l15 -14q92 50 92 101q0 82 -80 82zM29 217q0 37 17 71t48 62t63 49t73 43q-83 104 -83 183
q0 98 68.5 156.5t194.5 58.5q116 0 180.5 -65t64.5 -150q0 -35 -17 -68.5t-40.5 -57t-47.5 -41.5t-41 -27l-17 -9l110 -114q36 16 121 104l116 -114q-56 -64 -117 -113l178 -185h-237l-82 85q-38 -27 -56 -38.5t-53.5 -29.5t-73 -25t-82.5 -7q-39 0 -77 6.5t-76.5 23
t-67.5 41.5t-47.5 66.5t-18.5 94.5z" />
    <glyph glyph-name="quotesingle" unicode="'" horiz-adv-x="291" 
d="M145 840q34 0 60 -23t26 -52v-4q0 -20 -15.5 -91.5t-31.5 -133.5l-15 -61h-67q-42 240 -42 286v4q0 29 25.5 52t59.5 23z" />
    <glyph glyph-name="parenleft" unicode="(" horiz-adv-x="403" 
d="M345 -211l-115 -49q-7 9 -19 25t-42 71t-53 115.5t-42 154.5t-19 191q0 100 19.5 196t47.5 162t55.5 118t46.5 77l20 25l115 -49q-6 -7 -15.5 -20.5t-33.5 -62.5t-43 -105t-34 -148.5t-15 -192.5q0 -95 13 -182t32 -143.5t37.5 -100t31.5 -63.5z" />
    <glyph glyph-name="parenright" unicode=")" horiz-adv-x="403" 
d="M173 -260l-115 49q5 7 13.5 20.5t30.5 61t39 101.5t30.5 142t13.5 183q0 100 -14.5 191.5t-35.5 150.5t-41.5 103t-35.5 64l-14 20l115 49q8 -9 20.5 -26t45 -74.5t57.5 -120.5t45.5 -160t20.5 -197q0 -97 -18 -190t-44 -156.5t-51.5 -113t-43.5 -73.5z" />
    <glyph glyph-name="asterisk" unicode="*" horiz-adv-x="488" 
d="M402 778l26 -80l-114 -41l66 -99l-66 -45l-70 91l-70 -91l-66 45l66 99l-114 41l26 80l114 -35l1 117h86l1 -117z" />
    <glyph glyph-name="plus" unicode="+" horiz-adv-x="633" 
d="M393 158h-153v180h-180v153h180v180h153v-180h180v-153h-180v-180z" />
    <glyph glyph-name="comma" unicode="," horiz-adv-x="349" 
d="M174 214q48 0 81.5 -33.5t33.5 -81.5q0 -148 -168 -287l-51 42q7 6 17.5 18t31 48.5t27.5 73.5q-38 9 -62 37.5t-24 67.5q0 48 33.5 81.5t80.5 33.5z" />
    <glyph glyph-name="hyphen" unicode="-" horiz-adv-x="442" 
d="M60 366h322v-153h-322v153z" />
    <glyph glyph-name="period" unicode="." horiz-adv-x="349" 
d="M174 214q48 0 81.5 -33.5t33.5 -81.5q0 -47 -33.5 -80.5t-81.5 -33.5q-47 0 -80.5 33.5t-33.5 80.5q0 48 33.5 81.5t80.5 33.5z" />
    <glyph glyph-name="slash" unicode="/" horiz-adv-x="611" 
d="M588 860l-412 -980h-153l412 980h153z" />
    <glyph glyph-name="zero" unicode="0" horiz-adv-x="727" 
d="M218 412q0 -131 38 -196.5t108 -65.5q69 0 107 65.5t38 196.5q0 125 -38.5 194t-106.5 69t-107 -69.5t-39 -193.5zM28 412q0 204 97 316t239 112t238.5 -112t96.5 -316q0 -111 -27 -195t-74.5 -133.5t-106 -74t-127.5 -24.5t-127.5 24.5t-106.5 74t-75 133.5t-27 195z
" />
    <glyph glyph-name="one" unicode="1" horiz-adv-x="413" 
d="M29 487v186l235 152h89v-825h-188v575z" />
    <glyph glyph-name="two" unicode="2" horiz-adv-x="753" 
d="M363 681q-40 0 -76.5 -39.5t-53.5 -78.5l-17 -39l-157 76q3 10 10 26t33 57.5t57.5 73t86 57.5t117.5 26q81 0 141.5 -20.5t93.5 -51t53.5 -72t26 -75.5t5.5 -71q0 -54 -30 -113.5t-72.5 -106t-85.5 -85t-73 -59.5l-30 -21h306v-165h-643v47q17 14 46 38.5t102 93.5
t129 129.5t102 129.5t46 112q0 17 -3.5 34t-13.5 41.5t-36 40t-64 15.5z" />
    <glyph glyph-name="three" unicode="3" horiz-adv-x="665" 
d="M205 587l-148 72q2 7 6 19.5t24 43.5t47 55t79 43.5t117 19.5q118 0 194.5 -67.5t76.5 -172.5q0 -98 -73 -155q105 -64 105 -189q0 -118 -86.5 -194.5t-219.5 -76.5q-71 0 -129 21t-90.5 50.5t-54 59.5t-29.5 51l-7 21l174 85q0 -5 1.5 -13.5t10.5 -30.5t22 -38.5
t39.5 -30t61.5 -13.5q53 0 86 29t33 80q0 53 -34.5 87t-84.5 34l-36 -6v123h41q39 0 69 30t30 74q0 39 -30.5 65t-71.5 26q-29 0 -52.5 -10.5t-36 -25.5t-21 -30t-10.5 -25z" />
    <glyph glyph-name="four" unicode="4" horiz-adv-x="666" 
d="M381 574h-2l-147 -235h149v235zM557 339h96v-165h-96v-174h-176v174h-406v56l396 595h186v-486z" />
    <glyph glyph-name="five" unicode="5" horiz-adv-x="641" 
d="M18 164l149 72q28 -94 145 -94q51 0 84.5 34t33.5 86t-32.5 85.5t-78 46.5t-103.5 13q-82 0 -141 -26l69 444h421v-165h-260l-18 -115q3 0 11 0.5t12 0.5q63 0 114.5 -14t97 -45t71 -90t25.5 -141q0 -118 -86.5 -194.5t-219.5 -76.5q-121 0 -194 52.5t-100 126.5z" />
    <glyph glyph-name="six" unicode="6" horiz-adv-x="689" 
d="M219 265q0 -54 35 -89.5t90 -35.5t91 35.5t36 89.5q0 55 -36.5 91.5t-90.5 36.5q-52 0 -88.5 -36.5t-36.5 -91.5zM580 825l-243 -283q21 12 59 12q44 0 89 -18.5t84.5 -53t64.5 -91.5t25 -126q0 -70 -26.5 -125.5t-71 -88t-97.5 -49.5t-111 -17q-139 0 -234 81t-95 199
q0 100 28 164.5t102 164.5l194 231h232z" />
    <glyph glyph-name="seven" unicode="7" horiz-adv-x="688" 
d="M713 825v-55l-436 -770h-222l380 660h-355v165h633z" />
    <glyph glyph-name="eight" unicode="8" horiz-adv-x="687" 
d="M239 252q0 -46 29 -75.5t75 -29.5q45 0 75 29.5t30 75.5t-30.5 75.5t-74.5 29.5q-45 0 -74.5 -29.5t-29.5 -75.5zM435 605q0 40 -25.5 66.5t-65.5 26.5t-66.5 -26.5t-26.5 -66.5t27 -66t66 -26q40 0 65.5 25.5t25.5 66.5zM613 632q0 -125 -106 -187q66 -30 105.5 -86
t39.5 -137q0 -101 -93.5 -169t-214.5 -68q-124 0 -216.5 67.5t-92.5 169.5q0 157 144 223q-109 62 -109 187q0 88 83.5 148t189.5 60q109 0 189.5 -59.5t80.5 -148.5z" />
    <glyph glyph-name="nine" unicode="9" horiz-adv-x="689" 
d="M470 560q0 54 -35 89.5t-90 35.5t-91 -35.5t-36 -89.5q0 -55 36.5 -91.5t90.5 -36.5q52 0 88.5 36.5t36.5 91.5zM109 0l243 283q-21 -12 -59 -12q-44 0 -89 18.5t-84.5 53t-64.5 91.5t-25 126q0 70 26.5 125.5t71 88t97.5 49.5t111 17q139 0 234 -81t95 -199
q0 -100 -28 -164.5t-102 -164.5l-194 -231h-232z" />
    <glyph glyph-name="colon" unicode=":" horiz-adv-x="349" 
d="M174 214q48 0 81.5 -33.5t33.5 -81.5q0 -47 -33.5 -80.5t-81.5 -33.5q-47 0 -80.5 33.5t-33.5 80.5q0 48 33.5 81.5t80.5 33.5zM174 554q48 0 81.5 -33.5t33.5 -81.5q0 -47 -33.5 -80.5t-81.5 -33.5q-47 0 -80.5 33.5t-33.5 80.5q0 48 33.5 81.5t80.5 33.5z" />
    <glyph glyph-name="semicolon" unicode=";" horiz-adv-x="349" 
d="M174 214q-47 0 -80.5 -33.5t-33.5 -81.5q0 -39 24 -67.5t62 -37.5q-7 -37 -26 -72t-34 -52l-16 -16l51 -42q168 139 168 287q0 48 -33.5 81.5t-81.5 33.5zM174 554q48 0 81.5 -33.5t33.5 -81.5q0 -47 -33.5 -80.5t-81.5 -33.5q-47 0 -80.5 33.5t-33.5 80.5
q0 48 33.5 81.5t80.5 33.5z" />
    <glyph glyph-name="less" unicode="&#x3c;" horiz-adv-x="662" 
d="M60 475l547 222v-142l-358 -140l358 -138v-142l-547 222v118z" />
    <glyph glyph-name="equal" unicode="=" horiz-adv-x="633" 
d="M60 371h513v-153h-513v153zM60 611h513v-153h-513v153z" />
    <glyph glyph-name="greater" unicode="&#x3e;" horiz-adv-x="662" 
d="M55 277l358 138l-358 140v142l547 -222v-118l-547 -222v142z" />
    <glyph glyph-name="question" unicode="?" horiz-adv-x="596" 
d="M286 214q48 0 81.5 -33.5t33.5 -81.5q0 -47 -33.5 -80.5t-81.5 -33.5q-47 0 -80.5 33.5t-33.5 80.5q0 48 33.5 81.5t80.5 33.5zM170 580l-147 71q0 4 6 21.5t24 47t45.5 55.5t77.5 45.5t113 19.5q116 0 200 -68t84 -171q0 -127 -169 -199q-23 -10 -29 -27.5t-6 -48.5v-56
h-165v109q0 27 2 42.5t13 34t32 32.5q16 10 43 23.5t40 21.5t24 25.5t11 42.5q0 36 -23.5 59t-57.5 23q-49 0 -78.5 -31.5t-39.5 -71.5z" />
    <glyph glyph-name="at" unicode="@" horiz-adv-x="921" 
d="M388 405q0 -35 22.5 -57.5t58.5 -22.5q34 0 56.5 23t22.5 57q0 35 -23 58.5t-56 23.5q-34 0 -57.5 -23.5t-23.5 -58.5zM718 344q33 0 47.5 22t14.5 76q0 117 -87.5 192t-219.5 75q-127 0 -215.5 -86.5t-88.5 -209.5q0 -121 89 -203.5t215 -82.5q59 0 105.5 17t63.5 34
l18 17l116 -77q-4 -5 -11 -14t-33.5 -32t-58.5 -40.5t-86 -32t-114 -14.5q-122 0 -224.5 53.5t-164 152t-61.5 222.5t61.5 222.5t164 151.5t224.5 53q179 0 302.5 -112t123.5 -286q0 -109 -60 -164t-143 -55q-85 0 -139 46l-9 -13q-49 -54 -126 -54q-82 0 -135.5 58
t-53.5 143q0 86 53.5 144.5t135.5 58.5q76 0 126 -48v37h119v-209q0 -5 2 -12t15 -18.5t34 -11.5z" />
    <glyph glyph-name="A" unicode="A" horiz-adv-x="784" 
d="M485 330l-92 240h-2l-92 -240h186zM479 825l333 -825h-202l-61 165h-314l-61 -165h-202l333 825h174z" />
    <glyph glyph-name="B" unicode="B" horiz-adv-x="666" 
d="M248 145h59q138 0 138 92q0 55 -34.5 79t-103.5 24h-59v-195zM248 502h15q63 0 94 22t31 72q0 84 -125 84h-15v-178zM60 825h256q116 0 185 -49.5t69 -160.5q0 -124 -103 -177q176 -31 176 -208q0 -104 -72 -167t-198 -63h-313v825z" />
    <glyph glyph-name="C" unicode="C" horiz-adv-x="753" 
d="M499 170q43 0 83.5 13t59.5 25l19 13l80 -160q-4 -3 -11 -8t-32.5 -18.5t-54.5 -23.5t-76 -18t-97 -8q-115 0 -218 56.5t-166 155.5t-63 214q0 87 37 167t98.5 137t143.5 91t168 34q80 0 147.5 -19t95.5 -38l28 -19l-80 -160q-7 6 -21 14.5t-56 22.5t-85 14
q-68 0 -122 -22t-85.5 -58t-48 -77.5t-16.5 -84.5q0 -94 70.5 -168.5t201.5 -74.5z" />
    <glyph glyph-name="D" unicode="D" horiz-adv-x="750" 
d="M248 168h29q103 0 168.5 69.5t66.5 174.5q0 105 -65.5 175t-169.5 70h-29v-489zM60 825h239q172 0 294 -117.5t122 -294.5q0 -178 -121.5 -295.5t-294.5 -117.5h-239v825z" />
    <glyph glyph-name="E" unicode="E" horiz-adv-x="580" 
d="M532 825v-165h-284v-164h272v-165h-272v-166h284v-165h-472v825h472z" />
    <glyph glyph-name="F" unicode="F" horiz-adv-x="567" 
d="M537 825v-165h-289v-164h267v-165h-267v-331h-188v825h477z" />
    <glyph glyph-name="G" unicode="G" horiz-adv-x="829" 
d="M806 462v-179q-32 -147 -140 -222.5t-241 -75.5q-167 0 -284.5 125t-117.5 302q0 180 115 304t287 124q201 0 318 -141l-123 -135q-66 106 -184 106q-87 0 -148.5 -75.5t-61.5 -182.5q0 -105 61.5 -179.5t148.5 -74.5q72 0 125.5 43.5t53.5 115.5h-190v145h381z" />
    <glyph glyph-name="H" unicode="H" horiz-adv-x="762" 
d="M248 331v-331h-188v825h188v-329h266v329h188v-825h-188v331h-266z" />
    <glyph glyph-name="I" unicode="I" horiz-adv-x="308" 
d="M248 825v-825h-188v825h188z" />
    <glyph glyph-name="J" unicode="J" horiz-adv-x="469" 
d="M419 825v-592q0 -121 -66.5 -184.5t-190.5 -63.5q-33 0 -65 8t-54 19.5t-39.5 23.5t-25.5 20l-9 8l60 157q59 -56 107 -56q43 0 69 28.5t26 87.5v544h188z" />
    <glyph glyph-name="K" unicode="K" horiz-adv-x="787" 
d="M811 0h-259l-304 350v-350h-188v825h188v-337l283 337h228l-332 -391z" />
    <glyph glyph-name="L" unicode="L" horiz-adv-x="565" 
d="M248 825v-660h284v-165h-472v825h188z" />
    <glyph glyph-name="M" unicode="M" horiz-adv-x="946" 
d="M742 0l-39 489h-5l-169 -484h-112l-169 484h-5l-39 -489h-188l74 825h200l183 -476l183 476h200l74 -825h-188z" />
    <glyph glyph-name="N" unicode="N" horiz-adv-x="826" 
d="M248 512v-512h-188v825h188l328 -512h2v512h188v-825h-188l-328 512h-2z" />
    <glyph glyph-name="O" unicode="O" horiz-adv-x="877" 
d="M226 413q0 -65 20 -118.5t70 -90.5t123 -37q105 0 158.5 72t53.5 174q0 101 -54.5 173.5t-157.5 72.5q-102 0 -157.5 -72.5t-55.5 -173.5zM23 413q0 179 122 303t294 124q173 0 294 -123.5t121 -303.5q0 -181 -119 -304.5t-296 -123.5q-181 0 -298.5 122.5t-117.5 305.5z
" />
    <glyph glyph-name="P" unicode="P" horiz-adv-x="666" 
d="M248 456h53q63 0 103.5 25.5t40.5 83.5q0 59 -40.5 84.5t-103.5 25.5h-53v-219zM60 825h301q126 0 204 -65t78 -189t-79 -194.5t-203 -70.5h-113v-306h-188v825z" />
    <glyph glyph-name="Q" unicode="Q" horiz-adv-x="876" 
d="M226 413q0 -48 11 -89.5t34.5 -75.5t65 -53.5t97.5 -19.5q34 0 59 7q-54 50 -102 112l80 100q56 -62 140 -119q30 57 30 138q0 101 -52 169.5t-155 68.5q-102 0 -155 -69t-53 -169zM896 142l-83 -168q-83 31 -151 79q-99 -68 -228 -68q-181 0 -296 122.5t-115 305.5
q0 180 120 303.5t291 123.5q172 0 291 -123.5t119 -303.5q0 -128 -61 -231q46 -22 113 -40z" />
    <glyph glyph-name="R" unicode="R" horiz-adv-x="716" 
d="M248 459h22q26 0 44 1t41 7t37 17t24 32t10 51t-10 51t-24 32t-37 17t-41 7t-44 1h-22v-216zM60 825h295q119 0 194 -63.5t75 -181.5q0 -91 -45.5 -152.5t-123.5 -86.5l284 -341h-239l-252 326v-326h-188v825z" />
    <glyph glyph-name="S" unicode="S" horiz-adv-x="672" 
d="M364 840q67 0 131 -19.5t95 -38.5l30 -20l-76 -150q-9 6 -25 15.5t-60 25.5t-82 16q-47 0 -72.5 -20t-25.5 -54q0 -17 12 -31.5t41 -31t51 -26.5t68 -30q80 -34 136.5 -92.5t56.5 -132.5q0 -71 -25.5 -124t-70 -83t-98.5 -44.5t-117 -14.5q-54 0 -106 11t-87 27.5
t-63 32.5t-41 27l-13 11l94 158q12 -10 33 -25.5t74.5 -41.5t94.5 -26q119 0 119 81q0 17 -8.5 31.5t-30 29t-38 23t-54 26t-55.5 26.5q-75 37 -116 92.5t-41 119.5q0 111 82 181.5t187 70.5z" />
    <glyph glyph-name="T" unicode="T" horiz-adv-x="596" 
d="M8 660v165h580v-165h-196v-660h-188v660h-196z" />
    <glyph glyph-name="U" unicode="U" horiz-adv-x="793" 
d="M718 825v-532q0 -152 -81.5 -230t-240 -78t-240.5 78t-82 230v532h188v-477q0 -68 15 -107.5t43.5 -55t76 -15.5t76 15.5t43 55t14.5 107.5v477h188z" />
    <glyph glyph-name="V" unicode="V" horiz-adv-x="784" 
d="M318 0l-346 825h212l208 -542l208 542h212l-346 -825h-148z" />
    <glyph glyph-name="W" unicode="W" horiz-adv-x="1121" 
d="M693 0l-132 463l-132 -463h-209l-235 825h209l141 -566h5l150 566h142l150 -566h5l141 566h208l-235 -825h-208z" />
    <glyph glyph-name="X" unicode="X" horiz-adv-x="798" 
d="M832 0h-243l-195 281l-195 -281h-233l312 444l-260 381h224l152 -225l152 225h234l-270 -381z" />
    <glyph glyph-name="Y" unicode="Y" horiz-adv-x="736" 
d="M-30 825h226l172 -264l172 264h226l-304 -455v-370h-188v370z" />
    <glyph glyph-name="Z" unicode="Z" horiz-adv-x="769" 
d="M753 825l-409 -660h382v-165h-710l408 660h-350v165h679z" />
    <glyph glyph-name="bracketleft" unicode="[" horiz-adv-x="442" 
d="M60 860h322v-117h-169v-886h169v-117h-322v1120z" />
    <glyph glyph-name="backslash" unicode="\" horiz-adv-x="665" 
d="M50 860l412 -980h153l-412 980h-153z" />
    <glyph glyph-name="bracketright" unicode="]" horiz-adv-x="442" 
d="M60 -143h169v886h-169v117h322v-1120h-322v117z" />
    <glyph glyph-name="asciicircum" unicode="^" horiz-adv-x="496" 
d="M340 605l-92 109l-92 -109h-161l207 235h92l207 -235h-161z" />
    <glyph glyph-name="underscore" unicode="_" horiz-adv-x="513" 
d="M0 -15h513v-85h-513v85z" />
    <glyph glyph-name="grave" unicode="`" horiz-adv-x="388" 
d="M138 840l203 -176l-56 -77l-238 138z" />
    <glyph glyph-name="a" unicode="a" 
d="M211 256q0 -53 33 -86.5t87 -33.5q52 0 85.5 34t33.5 86q0 53 -34.5 87t-84.5 34q-51 0 -85.5 -34t-34.5 -87zM23 256q0 114 72 193t183 79q102 0 168 -64v49h177v-513h-175v58h-2q-66 -73 -168 -73q-111 0 -183 78.5t-72 192.5z" />
    <glyph glyph-name="b" unicode="b" 
d="M472 256q0 53 -34.5 87t-85.5 34q-50 0 -84.5 -34t-34.5 -87q0 -52 33.5 -86t85.5 -34q54 0 87 33.5t33 86.5zM660 256q0 -114 -72 -192.5t-183 -78.5q-102 0 -168 73h-2v-58h-175v860h177v-396q66 64 168 64q111 0 183 -79t72 -193z" />
    <glyph glyph-name="c" unicode="c" horiz-adv-x="491" 
d="M333 383q-50 0 -86 -37t-36 -89q0 -53 36 -90t86 -37q24 0 45.5 6t31.5 12l9 6l60 -123q-7 -5 -19.5 -12.5t-57 -20.5t-95.5 -13q-113 0 -198.5 79.5t-85.5 190.5q0 112 85.5 192.5t198.5 80.5q51 0 94 -12t61 -24l17 -12l-60 -121q-33 24 -86 24z" />
    <glyph glyph-name="d" unicode="d" 
d="M211 256q0 -53 33 -86.5t87 -33.5q52 0 85.5 34t33.5 86q0 53 -34.5 87t-84.5 34q-51 0 -85.5 -34t-34.5 -87zM23 256q0 114 72 193t183 79q102 0 168 -64v396h177v-860h-175v58h-2q-66 -73 -168 -73q-111 0 -183 78.5t-72 192.5z" />
    <glyph glyph-name="e" unicode="e" horiz-adv-x="603" 
d="M212 330h195q-6 40 -31.5 61.5t-65.5 21.5q-44 0 -70 -23t-28 -60zM579 232h-372q0 -54 35 -80t76 -26q43 0 68 11.5t57 45.5l128 -64q-80 -134 -266 -134q-116 0 -199 79.5t-83 191.5t83 192t199 80q122 0 198.5 -70.5t76.5 -201.5q0 -18 -1 -24z" />
    <glyph glyph-name="f" unicode="f" horiz-adv-x="375" 
d="M90 513v109q1 115 54 184t147 69q40 0 76.5 -11.5t52.5 -23.5l17 -11l-62 -125q-24 14 -53 14q-33 0 -44 -22.5t-11 -78.5v-104h118v-135h-118v-378h-177v378h-74v135h74z" />
    <glyph glyph-name="g" unicode="g" 
d="M211 256q0 -53 33 -86.5t87 -33.5q52 0 85.5 34t33.5 86q0 53 -34.5 87t-84.5 34q-51 0 -85.5 -34t-34.5 -87zM37 -126l145 71q40 -66 139 -66q46 0 85.5 29.5t39.5 90.5v38q-47 -52 -168 -52q-111 0 -183 78.5t-72 192.5t72 193t183 79q99 0 165 -61h3v46h177v-527
q0 -125 -83 -193t-219 -68q-220 0 -284 149z" />
    <glyph glyph-name="h" unicode="h" horiz-adv-x="661" 
d="M60 0v860h177v-401h2q69 69 147 69q38 0 75.5 -10t72 -31t56 -59.5t21.5 -89.5v-338h-177v290q0 40 -25.5 70t-66.5 30q-40 0 -72.5 -31t-32.5 -69v-290h-177z" />
    <glyph glyph-name="i" unicode="i" horiz-adv-x="302" 
d="M60 513v-513h177v513h-177zM151 830q43 0 74 -31t31 -74t-31 -74t-74 -31t-74 31t-31 74t31 74t74 31z" />
    <glyph glyph-name="j" unicode="j" horiz-adv-x="297" 
d="M60 513v-558q0 -70 -49 -70q-10 0 -21 3.5t-18 7.5l-6 4l-55 -143q2 -1 13 -6l16.5 -7.5t18.5 -6.5t25 -6t30 -4t38 -2q50 0 88 17.5t58 47t29.5 62t9.5 69.5v592h-177zM151 830q43 0 74 -31t31 -74t-31 -74t-74 -31t-74 31t-31 74t31 74t74 31z" />
    <glyph glyph-name="k" unicode="k" horiz-adv-x="646" 
d="M646 513l-244 -245l268 -268h-228l-205 205v-205h-177v860h177v-526l179 179h230z" />
    <glyph glyph-name="l" unicode="l" horiz-adv-x="297" 
d="M60 0v860h177v-860h-177z" />
    <glyph glyph-name="m" unicode="m" horiz-adv-x="985" 
d="M60 0v513h177v-54h2q69 69 147 69q56 0 105 -23t74 -71q78 94 170 94q82 0 141 -46t59 -144v-338h-177v290q0 41 -22.5 68.5t-67.5 27.5q-39 0 -59.5 -23.5t-22.5 -56.5v-306h-177v290q0 41 -22.5 68.5t-67.5 27.5q-41 0 -61.5 -25.5t-20.5 -60.5v-300h-177z" />
    <glyph glyph-name="n" unicode="n" horiz-adv-x="661" 
d="M60 0v513h177v-54h2q69 69 147 69q38 0 75.5 -10t72 -31t56 -59.5t21.5 -89.5v-338h-177v290q0 40 -25.5 70t-66.5 30q-40 0 -72.5 -31t-32.5 -69v-290h-177z" />
    <glyph glyph-name="o" unicode="o" horiz-adv-x="661" 
d="M211 256q0 -53 33 -86.5t87 -33.5q52 0 85.5 34t33.5 86q0 53 -34.5 87t-84.5 34q-51 0 -85.5 -34t-34.5 -87zM23 256q0 119 89 195.5t220 76.5q129 0 217.5 -77t88.5 -195t-86.5 -194.5t-219.5 -76.5q-138 0 -223.5 76t-85.5 195z" />
    <glyph glyph-name="p" unicode="p" 
d="M472 257q0 53 -33 86.5t-87 33.5q-52 0 -85.5 -34t-33.5 -86q0 -53 34.5 -87t84.5 -34q51 0 85.5 34t34.5 87zM660 257q0 -114 -72 -193t-183 -79q-102 0 -168 64v-309h-177v773h175v-58h2q66 73 168 73q111 0 183 -78.5t72 -192.5z" />
    <glyph glyph-name="q" unicode="q" 
d="M211 257q0 -53 34.5 -87t85.5 -34q50 0 84.5 34t34.5 87q0 52 -33.5 86t-85.5 34q-54 0 -87 -33.5t-33 -86.5zM23 257q0 114 72 192.5t183 78.5q102 0 168 -73h2v58h175v-773h-177v309q-66 -64 -168 -64q-111 0 -183 79t-72 193z" />
    <glyph glyph-name="r" unicode="r" horiz-adv-x="498" 
d="M60 0v513h177v-74h2q2 4 6.5 10t19.5 21t32 27t44 21.5t55 9.5q29 0 57 -8t41 -16l14 -8l-74 -150q-33 28 -92 28q-32 0 -55 -14t-32.5 -34t-13.5 -34t-4 -22v-270h-177z" />
    <glyph glyph-name="s" unicode="s" horiz-adv-x="492" 
d="M283 528q44 0 87 -10t64 -20l21 -10l-58 -116q-60 32 -114 32q-30 0 -42.5 -6.5t-12.5 -24.5q0 -4 1 -8t4 -7.5t5.5 -6t8.5 -5.5t9.5 -4.5t11.5 -4.5l12 -4.5t13.5 -4.5t14.5 -4q31 -9 54 -20t48.5 -30t39.5 -48t14 -66q0 -175 -243 -175q-55 0 -104.5 17t-71.5 34
l-22 18l72 121q8 -7 21 -16.5t47 -26t59 -16.5q55 0 55 37q0 17 -14 26.5t-47.5 21.5t-52.5 22q-48 25 -76 56.5t-28 83.5q0 78 60.5 121.5t163.5 43.5z" />
    <glyph glyph-name="t" unicode="t" horiz-adv-x="395" 
d="M90 513v191h177v-191h108v-135h-108v-163q0 -71 40 -71q10 0 21 4t17 8l6 4l44 -143q-57 -32 -130 -32q-50 0 -86 17.5t-54.5 47t-26.5 62t-8 69.5v197h-74v135h74z" />
    <glyph glyph-name="u" unicode="u" horiz-adv-x="656" 
d="M227 513v-244q0 -76 23 -108t78 -32t78 32t23 108v244h177v-287q0 -128 -66.5 -184.5t-211.5 -56.5t-211.5 56.5t-66.5 184.5v287h177z" />
    <glyph glyph-name="v" unicode="v" horiz-adv-x="630" 
d="M190 513l125 -279l125 279h210l-275 -513h-120l-275 513h210z" />
    <glyph glyph-name="w" unicode="w" horiz-adv-x="986" 
d="M375 0h-120l-275 513h204l125 -277l123 277h122l123 -277l125 277h204l-275 -513h-120l-118 265z" />
    <glyph glyph-name="x" unicode="x" horiz-adv-x="654" 
d="M654 0h-214l-113 145l-113 -145h-214l219 268l-188 245h207l89 -119l89 119h207l-188 -245z" />
    <glyph glyph-name="y" unicode="y" horiz-adv-x="633" 
d="M449 513h204l-403 -773h-204l177 340l-243 433h204l143 -263z" />
    <glyph glyph-name="z" unicode="z" horiz-adv-x="561" 
d="M556 513l-254 -378h234v-135h-531l254 378h-212v135h509z" />
    <glyph glyph-name="braceleft" unicode="{" horiz-adv-x="446" 
d="M60 253v94q70 0 70 65v267q0 34 7 63.5t24 57.5t49.5 44t78.5 16h97v-128h-40q-27 0 -45 -19t-18 -49v-257q0 -75 -61 -107q61 -32 61 -107v-257q0 -30 18 -49t45 -19h40v-128h-97q-46 0 -78.5 16t-49.5 44t-24 57.5t-7 63.5v267q0 65 -70 65z" />
    <glyph glyph-name="bar" unicode="|" horiz-adv-x="273" 
d="M60 0v860h153v-860h-153z" />
    <glyph glyph-name="braceright" unicode="}" horiz-adv-x="446" 
d="M386 347v-94q-70 0 -70 -65v-267q0 -34 -7 -63.5t-24 -57.5t-49.5 -44t-78.5 -16h-97v128h40q27 0 45 19t18 49v257q0 75 61 107q-61 32 -61 107v257q0 30 -18 49t-45 19h-40v128h97q46 0 78.5 -16t49.5 -44t24 -57.5t7 -63.5v-267q0 -65 70 -65z" />
    <glyph glyph-name="asciitilde" unicode="~" horiz-adv-x="694" 
d="M541 521l93 -81q-3 -6 -8 -15t-22 -32.5t-36 -41.5t-49.5 -33t-61.5 -15q-67 0 -147 53q-48 32 -73 32q-26 0 -47 -19.5t-29 -38.5l-8 -20l-93 81q3 6 8 15t22 32.5t36 41.5t49.5 33t61.5 15t61 -9.5t44 -17.5t44 -27q46 -31 71 -31q26 0 47 19.5t29 39.5z" />
    <glyph glyph-name="exclamdown" unicode="&#xa1;" horiz-adv-x="349" 
d="M86 -260l24 590h129l24 -590h-177zM174 386q-47 0 -80.5 33.5t-33.5 81.5q0 47 33.5 80.5t80.5 33.5q48 0 81.5 -33.5t33.5 -80.5q0 -48 -33.5 -81.5t-81.5 -33.5z" />
    <glyph glyph-name="cent" unicode="&#xa2;" horiz-adv-x="491" 
d="M248 -129v121q-95 20 -160 94t-65 169q0 88 55.5 159t139.5 99v123h108v-109q45 -2 83 -14t54 -23l16 -10l-60 -121q-33 24 -86 24q-50 0 -86 -37t-36 -89q0 -53 36 -90t86 -37q24 0 45.5 6t31.5 12l9 6l60 -123q-43 -32 -123 -43v-117h-108z" />
    <glyph glyph-name="sterling" unicode="&#xa3;" horiz-adv-x="749" 
d="M55 387h102q-52 82 -52 171q0 123 73.5 203t207.5 80q66 0 118 -19.5t80 -47.5t46.5 -56t23.5 -48l6 -19l-158 -77l-2.5 12.5t-10.5 27.5t-20.5 35t-33.5 27.5t-49 12.5q-45 0 -70 -36t-25 -95q0 -24 2.5 -43.5t9 -39t10 -29t14 -32t12.5 -27.5h173v-98h-137q3 -21 3 -46
q0 -21 -7 -41t-14 -30l-7 -10q1 0 57 -16.5t100 -16.5q25 0 42 18t21 36l4 18l137 -68q-1 -6 -3.5 -16t-15 -35.5t-30.5 -45t-53.5 -35.5t-80.5 -16q-66 0 -167 29t-144 29q-18 0 -30 -10.5t-15 -21.5l-2 -11h-115q0 30 17 70t52 74t77 34q16 23 16 58q0 24 -12 53h-150v98z
" />
    <glyph glyph-name="currency" unicode="&#xa4;" horiz-adv-x="895" 
d="M272 412q0 -39 11 -75.5t32 -67t57 -48.5t82 -18t81.5 18t56.5 48t31.5 66.5t10.5 76.5t-11 77t-32.5 67t-57 47.5t-79.5 17.5q-59 0 -101.5 -31t-61.5 -77t-19 -101zM841 121l-85 -97l-96 90q-91 -66 -206 -66q-111 0 -197 57l-85 -91l-97 84l90 97q-65 94 -65 217
q0 104 52 190l-99 92l85 97l99 -92q95 76 217 76q113 0 205 -66l86 92l97 -85l-95 -101q59 -91 59 -203q0 -114 -58 -205z" />
    <glyph glyph-name="yen" unicode="&#xa5;" horiz-adv-x="764" 
d="M75 110v133h213v60h-213v133h169l-260 389h226l172 -264l172 264h226l-260 -389h168v-133h-212v-60h212v-133h-212v-110h-188v110h-213z" />
    <glyph glyph-name="brokenbar" unicode="&#xa6;" horiz-adv-x="273" 
d="M60 0v332h153v-332h-153zM60 528v332h153v-332h-153z" />
    <glyph glyph-name="section" unicode="&#xa7;" horiz-adv-x="640" 
d="M299 378l-24 11q-84 -24 -88 -84q1 -23 24 -45t45.5 -34t62.5 -31q2 -1 8 -3.5t9 -4.5l23 -11q85 22 89 84q-1 23 -24 45t-45.5 34t-62.5 31q-2 1 -8 3.5t-9 4.5zM288 -275q-65 0 -116.5 19.5t-78 48t-44 56.5t-21.5 47l-5 20l160 34q1 -3 3 -8.5t10.5 -18.5t19 -23
t30 -18.5t42.5 -8.5q82 0 82 55q0 15 -9.5 28t-34.5 28t-44.5 25t-61.5 29q-98 46 -147.5 101.5t-49.5 136.5q3 57 38 105t96 75q-46 33 -67.5 74t-21.5 101q0 88 65.5 148.5t192.5 60.5q43 0 80 -10t61 -25.5t43 -35t29.5 -38.5t17 -34.5t8.5 -25.5l2 -10l-160 -34
q0 3 -1 7t-6 15.5t-12.5 20t-24 15.5t-37.5 7q-30 0 -46.5 -15.5t-16.5 -39.5q0 -27 35.5 -50t116.5 -60q98 -46 147.5 -101.5t49.5 -136.5q-3 -57 -38 -105t-96 -75q46 -34 67.5 -75t21.5 -100q0 -36 -13.5 -69.5t-43 -66.5t-87 -53t-135.5 -20z" />
    <glyph glyph-name="dieresis" unicode="&#xa8;" horiz-adv-x="561" 
d="M399 791q38 0 65 -27t27 -65t-27 -65t-65 -27t-65 27t-27 65t27 65t65 27zM162 791q38 0 65 -27t27 -65t-27 -65t-65 -27t-65 27t-27 65t27 65t65 27z" />
    <glyph glyph-name="copyright" unicode="&#xa9;" horiz-adv-x="901" 
d="M490 516q15 0 31.5 -4t26.5 -8l9 -4l43 89q-4 4 -16 11t-44.5 15.5t-70.5 8.5q-86 0 -152 -62.5t-66 -148.5q0 -85 66 -146t152 -61q34 0 67 8t48 16l16 9q-7 16 -22 45t-22 45q-27 -16 -66 -16q-41 0 -69.5 29.5t-28.5 72.5q0 42 28.5 71.5t69.5 29.5zM137 412
q0 -129 92 -221t221 -92q130 0 222 92t92 221q0 130 -92 222t-222 92q-129 0 -221 -92t-92 -222zM23 412q0 177 125.5 302.5t301.5 125.5q177 0 302.5 -125.5t125.5 -302.5q0 -176 -125.5 -301.5t-302.5 -125.5q-176 0 -301.5 125.5t-125.5 301.5z" />
    <glyph glyph-name="ordfeminine" unicode="&#xaa;" horiz-adv-x="512" 
d="M187 671q0 -32 20.5 -53t53.5 -21q32 0 53 21t21 53q0 33 -21.5 54t-52.5 21t-52.5 -21t-21.5 -54zM70 671q0 71 44.5 120t113.5 49q62 0 105 -40v30h109v-317h-108v36h-1q-42 -45 -105 -45q-69 0 -113.5 48.5t-44.5 118.5z" />
    <glyph glyph-name="guillemotleft" unicode="&#xab;" horiz-adv-x="625" 
d="M478 28l-195 250l195 250l93 -73l-138 -177l138 -177zM228 28l-195 250l195 250l93 -73l-138 -177l138 -177z" />
    <glyph glyph-name="logicalnot" unicode="&#xac;" horiz-adv-x="662" 
d="M512 288h-438v85h438h76v-85v-91h-76v91z" />
    <glyph glyph-name="uni00AD" unicode="&#xad;" horiz-adv-x="408" 
d="M75 385h258v-153h-258v153z" />
    <glyph glyph-name="registered" unicode="&#xae;" horiz-adv-x="494" 
d="M225 628h6q37 0 37 27q0 28 -37 28h-6v-55zM178 720h73q30 0 49 -16t19 -45q0 -45 -42 -60l73 -86h-62l-63 82v-82h-47v207zM83 615q0 -67 48 -115t115 -48q69 0 117 47.5t48 115.5t-48 116.5t-117 48.5q-67 0 -115 -48.5t-48 -116.5zM23 615q0 93 65.5 159t157.5 66
q94 0 159.5 -66t65.5 -159q0 -92 -65.5 -157.5t-159.5 -65.5q-92 0 -157.5 65.5t-65.5 157.5z" />
    <glyph glyph-name="macron" unicode="&#xaf;" horiz-adv-x="548" 
d="M70 754h408v-120h-408v120z" />
    <glyph glyph-name="degree" unicode="&#xb0;" horiz-adv-x="372" 
d="M143 772q0 -19 12 -32.5t31 -13.5t31.5 13.5t12.5 32.5t-12.5 32t-31.5 13q-18 0 -30.5 -13t-12.5 -32zM70 772q0 45 33.5 74t82.5 29t82.5 -29t33.5 -74t-32.5 -74t-83.5 -29t-83.5 29t-32.5 74z" />
    <glyph glyph-name="plusminus" unicode="&#xb1;" horiz-adv-x="633" 
d="M60 153h513v-153h-513v153zM393 208h-153v155h-180v153h180v155h153v-155h180v-153h-180v-155z" />
    <glyph glyph-name="twosuperior" unicode="&#xb2;" horiz-adv-x="267" 
d="M152 778q-16 0 -30 -15t-20 -31l-7 -15l-61 30q1 4 3.5 10t13 22t22.5 28.5t33.5 22.5t45.5 10q39 0 66 -11.5t38.5 -30.5t16 -35.5t4.5 -35.5q0 -33 -28.5 -70.5t-56.5 -58.5l-28 -21h119v-64h-251v18q7 6 18 15.5t39.5 36t50.5 50.5t40 50.5t18 43.5q0 51 -46 51z" />
    <glyph glyph-name="threesuperior" unicode="&#xb3;" horiz-adv-x="253" 
d="M81 744l-56 27l2.5 7.5t9 16.5t18 21t30 16.5t44.5 7.5q45 0 74 -26t29 -66q0 -37 -28 -59q40 -24 40 -72q0 -46 -33 -75t-83 -29q-27 0 -49.5 8t-34.5 19.5t-20.5 23t-11.5 19.5l-3 8l67 32q0 -5 2 -13t15 -21.5t34 -13.5t33.5 11t12.5 31t-13 33t-33 13l-13 -2v47h15
q15 0 26.5 11.5t11.5 28.5q0 15 -12 25t-27 10q-18 0 -29.5 -9.5t-14.5 -19.5z" />
    <glyph glyph-name="acute" unicode="&#xb4;" horiz-adv-x="566" 
d="M136 664l203 176l91 -115l-238 -138z" />
    <glyph glyph-name="mu" unicode="&#xb5;" horiz-adv-x="705" 
d="M252 269q0 -76 22.5 -108t78 -32t78.5 32t23 108v244h176v-287q0 -128 -66 -184.5t-212 -56.5q-57 0 -100 8v-126h-178v359v287h178v-244z" />
    <glyph glyph-name="paragraph" unicode="&#xb6;" horiz-adv-x="708" 
d="M545 0v721h-61v-721h-103v306h-96q-117 0 -189.5 78t-72.5 187q0 108 72 181t190 73h363v-825h-103z" />
    <glyph glyph-name="periodcentered" unicode="&#xb7;" horiz-adv-x="372" 
d="M186 455q48 0 81 -33.5t33 -81.5q0 -47 -33.5 -80.5t-80.5 -33.5q-48 0 -81 33.5t-33 80.5q0 48 33 81.5t81 33.5z" />
    <glyph glyph-name="cedilla" unicode="&#xb8;" horiz-adv-x="446" 
d="M269 4l-22 -67q47 0 88 -27t41 -75q0 -53 -37.5 -91t-114.5 -38q-40 0 -78.5 21t-57.5 41l-18 21l72 54q4 -5 11.5 -13t29 -21t41.5 -13q26 0 38 11.5t12 27.5q0 22 -19 33.5t-43 11.5q-16 0 -29 -2t-17 -4l-5 -3l-10 8l48 147z" />
    <glyph glyph-name="onesuperior" unicode="&#xb9;" horiz-adv-x="140" 
d="M9 697v71l88 57h34v-312h-71v217z" />
    <glyph glyph-name="ordmasculine" unicode="&#xba;" horiz-adv-x="521" 
d="M187 671q0 -33 20.5 -53.5t53.5 -20.5q32 0 53 21t21 53q0 33 -21.5 54t-52.5 21t-52.5 -21t-21.5 -54zM70 671q0 73 55.5 121t136.5 48q80 0 134.5 -48t54.5 -121t-53.5 -120t-135.5 -47q-86 0 -139 47t-53 120z" />
    <glyph glyph-name="guillemotright" unicode="&#xbb;" horiz-adv-x="625" 
d="M304 101l138 177l-138 177l93 73l195 -250l-195 -250zM147 528l195 -250l-195 -250l-93 73l138 177l-138 177z" />
    <glyph glyph-name="onequarter" unicode="&#xbc;" horiz-adv-x="876" 
d="M684 334h-1l-85 -137h86v137zM787 197h55v-96h-55v-101h-103v101h-236v33l231 346h108v-283zM699 825l-480 -825h-118l480 825h118zM60 628v109l136 88h52v-480h-109v335z" />
    <glyph glyph-name="onehalf" unicode="&#xbd;" horiz-adv-x="945" 
d="M710 391q-23 0 -44 -22.5t-30 -44.5l-10 -23l-90 43q2 6 6 15t18.5 33t32.5 42t49.5 33t67.5 15q57 0 96.5 -17t57 -45t24 -52.5t6.5 -51.5q0 -31 -17 -65t-41.5 -61t-49.5 -49t-42 -34l-17 -12h176v-95h-369v27q10 8 26.5 22t58.5 53.5t74 74.5t58.5 74.5t26.5 64.5
q0 14 -3 28t-19.5 30.5t-45.5 16.5zM699 825l-480 -825h-118l480 825h118zM60 628v109l136 88h52v-480h-109v335z" />
    <glyph glyph-name="threequarters" unicode="&#xbe;" horiz-adv-x="977" 
d="M785 334h-1l-85 -137h86v137zM888 197h55v-96h-55v-101h-103v101h-236v33l231 346h108v-283zM800 825l-480 -825h-118l480 825h118zM142 685l-84 41q1 4 3.5 11t13.5 24.5t26.5 31t45.5 24.5t67 11q67 0 110 -38t43 -98q0 -56 -41 -88q60 -37 60 -107q0 -67 -49.5 -111
t-124.5 -44q-41 0 -74 12t-51 29t-30.5 34t-16.5 29l-4 12l99 48q0 -3 1 -7.5t6 -17t12 -22t22 -17t35 -7.5q30 0 49 16.5t19 45.5q0 30 -19.5 49t-48.5 19l-20 -3v70h23q22 0 39 17t17 42q0 22 -17.5 37t-40.5 15q-26 0 -43.5 -14.5t-22.5 -28.5z" />
    <glyph glyph-name="questiondown" unicode="&#xbf;" horiz-adv-x="596" 
d="M573 -86l-147 71q-10 -40 -39.5 -71.5t-78.5 -31.5q-34 0 -57.5 23t-23.5 59q0 25 11 42.5t24 25.5t40 21.5t43 23.5q31 20 39 44t8 65v109h-165v-56q0 -21 -1.5 -32t-9.5 -24t-24 -20q-169 -72 -169 -199q0 -103 84 -171t200 -68q63 0 113 19.5t77.5 45.5t45.5 55.5
t24 47t6 21.5zM310 351q-48 0 -81.5 33.5t-33.5 81.5q0 47 33.5 80.5t81.5 33.5q47 0 80.5 -33.5t33.5 -80.5q0 -48 -33.5 -81.5t-80.5 -33.5z" />
    <glyph glyph-name="Agrave" unicode="&#xc0;" horiz-adv-x="784" 
d="M485 330l-92 240h-2l-92 -240h186zM479 825l333 -825h-202l-61 165h-314l-61 -165h-202l333 825h174zM247 1152l203 -176l-56 -77l-238 138z" />
    <glyph glyph-name="Aacute" unicode="&#xc1;" horiz-adv-x="784" 
d="M485 330l-92 240h-2l-92 -240h186zM479 825l333 -825h-202l-61 165h-314l-61 -165h-202l333 825h174zM333 976l203 176l91 -115l-238 -138z" />
    <glyph glyph-name="Acircumflex" unicode="&#xc2;" horiz-adv-x="784" 
d="M485 330l-92 240h-2l-92 -240h186zM479 825l333 -825h-202l-61 165h-314l-61 -165h-202l333 825h174zM171 990l221 162l221 -162l-68 -91l-153 112l-153 -112z" />
    <glyph glyph-name="Atilde" unicode="&#xc3;" horiz-adv-x="784" 
d="M485 330l-92 240h-2l-92 -240h186zM479 825l333 -825h-202l-61 165h-314l-61 -165h-202l333 825h174zM383 954q-40 19 -76 19q-14 0 -25.5 -11.5t-15.5 -23.5l-4 -11h-101q1 7 3.5 18.5t13 41t24 52.5t39 41.5t56.5 18.5q17 0 43 -6.5t44 -13.5l17 -7q40 -19 76 -19
q14 0 25.5 11.5t15.5 23.5l4 11h101q-1 -7 -3.5 -18.5t-13 -41t-24 -52.5t-39 -41.5t-56.5 -18.5q-17 0 -43 6.5t-44 13.5z" />
    <glyph glyph-name="Adieresis" unicode="&#xc4;" horiz-adv-x="784" 
d="M485 330l-92 240h-2l-92 -240h186zM479 825l333 -825h-202l-61 165h-314l-61 -165h-202l333 825h174zM510 1103q38 0 65 -27t27 -65t-27 -65t-65 -27t-65 27t-27 65t27 65t65 27zM273 1103q38 0 65 -27t27 -65t-27 -65t-65 -27t-65 27t-27 65t27 65t65 27z" />
    <glyph glyph-name="Aring" unicode="&#xc5;" horiz-adv-x="784" 
d="M485 330l-92 240h-2l-92 -240h186zM479 825l333 -825h-202l-61 165h-314l-61 -165h-202l333 825h174zM331 1045q0 -27 17 -45.5t44 -18.5q26 0 43.5 18.5t17.5 45.5q0 26 -18 44t-43 18t-43 -18.5t-18 -43.5zM231 1045q0 62 46.5 102t114.5 40q69 0 115 -40t46 -102
q0 -63 -45 -103t-116 -40q-72 0 -116.5 40t-44.5 103z" />
    <glyph glyph-name="AE" unicode="&#xc6;" horiz-adv-x="980" 
d="M460 330v302h-2l-125 -302h127zM267 165l-70 -165h-202l377 825h560v-165h-284v-164h272v-165h-272v-166h284v-165h-472v165h-193z" />
    <glyph glyph-name="Ccedilla" unicode="&#xc7;" horiz-adv-x="753" 
d="M499 170q43 0 83.5 13t59.5 25l19 13l80 -160q-4 -3 -11 -8t-32.5 -18.5t-54.5 -23.5t-76 -18t-97 -8q-33 0 -60 4l-17 -52q47 0 88 -27t41 -75q0 -53 -37.5 -91t-114.5 -38q-40 0 -78.5 21t-57.5 41l-18 21l72 54q4 -5 11.5 -13t29 -21t41.5 -13q26 0 38 11.5t12 27.5
q0 22 -19 33.5t-43 11.5q-16 0 -29 -2t-17 -4l-5 -3l-10 8l41 126q-136 42 -225.5 154t-89.5 252q0 87 37 167t98.5 137t143.5 91t168 34q80 0 147.5 -19t95.5 -38l28 -19l-80 -160q-7 6 -21 14.5t-56 22.5t-85 14q-68 0 -122 -22t-85.5 -58t-48 -77.5t-16.5 -84.5
q0 -94 70.5 -168.5t201.5 -74.5z" />
    <glyph glyph-name="Egrave" unicode="&#xc8;" horiz-adv-x="580" 
d="M532 825v-165h-284v-164h272v-165h-272v-166h284v-165h-472v825h472zM145 1152l203 -176l-56 -77l-238 138z" />
    <glyph glyph-name="Eacute" unicode="&#xc9;" horiz-adv-x="580" 
d="M532 825v-165h-284v-164h272v-165h-272v-166h284v-165h-472v825h472zM172 976l203 176l91 -115l-238 -138z" />
    <glyph glyph-name="Ecircumflex" unicode="&#xca;" horiz-adv-x="580" 
d="M532 825v-165h-284v-164h272v-165h-272v-166h284v-165h-472v825h472zM69 990l221 162l221 -162l-68 -91l-153 112l-153 -112z" />
    <glyph glyph-name="Edieresis" unicode="&#xcb;" horiz-adv-x="580" 
d="M532 825v-165h-284v-164h272v-165h-272v-166h284v-165h-472v825h472zM408 1103q38 0 65 -27t27 -65t-27 -65t-65 -27t-65 27t-27 65t27 65t65 27zM171 1103q38 0 65 -27t27 -65t-27 -65t-65 -27t-65 27t-27 65t27 65t65 27z" />
    <glyph glyph-name="Igrave" unicode="&#xcc;" horiz-adv-x="308" 
d="M248 825v-825h-188v825h188zM9 1152l203 -176l-56 -77l-238 138z" />
    <glyph glyph-name="Iacute" unicode="&#xcd;" horiz-adv-x="308" 
d="M248 825v-825h-188v825h188zM56 976l203 176l91 -115l-238 -138z" />
    <glyph glyph-name="Icircumflex" unicode="&#xce;" horiz-adv-x="308" 
d="M248 825v-825h-188v825h188zM-67 990l221 162l221 -162l-68 -91l-153 112l-153 -112z" />
    <glyph glyph-name="Idieresis" unicode="&#xcf;" horiz-adv-x="308" 
d="M248 825v-825h-188v825h188zM273 1103q38 0 65 -27t27 -65t-27 -65t-65 -27t-65 27t-27 65t27 65t65 27zM36 1103q38 0 65 -27t27 -65t-27 -65t-65 -27t-65 27t-27 65t27 65t65 27z" />
    <glyph glyph-name="Eth" unicode="&#xd0;" horiz-adv-x="776" 
d="M550 413q-1 104 -66.5 174t-168.5 70h-29v-168h109v-153h-109v-168h29q104 0 169.5 70t65.5 175zM16 336v153h82v336h239q173 0 294.5 -117.5t121.5 -295.5q-1 -178 -122.5 -295t-293.5 -117h-239v336h-82z" />
    <glyph glyph-name="Ntilde" unicode="&#xd1;" horiz-adv-x="826" 
d="M248 512v-512h-188v825h188l328 -512h2v512h188v-825h-188l-328 512h-2zM404 954q-40 19 -76 19q-14 0 -25.5 -11.5t-15.5 -23.5l-4 -11h-101q1 7 3.5 18.5t13 41t24 52.5t39 41.5t56.5 18.5q17 0 43 -6.5t43 -13.5l18 -7q40 -19 76 -19q14 0 25.5 11.5t15.5 23.5l4 11
h101q-1 -7 -3.5 -18.5t-13 -41t-24 -52.5t-39 -41.5t-56.5 -18.5q-17 0 -43 6.5t-43 13.5z" />
    <glyph glyph-name="Ograve" unicode="&#xd2;" horiz-adv-x="877" 
d="M226 413q0 -65 20 -118.5t70 -90.5t123 -37q105 0 158.5 72t53.5 174q0 101 -54.5 173.5t-157.5 72.5q-102 0 -157.5 -72.5t-55.5 -173.5zM23 413q0 179 122 303t294 124q173 0 294 -123.5t121 -303.5q0 -181 -119 -304.5t-296 -123.5q-181 0 -298.5 122.5t-117.5 305.5z
M293 1152l203 -176l-56 -77l-238 138z" />
    <glyph glyph-name="Oacute" unicode="&#xd3;" horiz-adv-x="877" 
d="M226 413q0 -65 20 -118.5t70 -90.5t123 -37q105 0 158.5 72t53.5 174q0 101 -54.5 173.5t-157.5 72.5q-102 0 -157.5 -72.5t-55.5 -173.5zM23 413q0 179 122 303t294 124q173 0 294 -123.5t121 -303.5q0 -181 -119 -304.5t-296 -123.5q-181 0 -298.5 122.5t-117.5 305.5z
M340 976l203 176l91 -115l-238 -138z" />
    <glyph glyph-name="Ocircumflex" unicode="&#xd4;" horiz-adv-x="877" 
d="M226 413q0 -65 20 -118.5t70 -90.5t123 -37q105 0 158.5 72t53.5 174q0 101 -54.5 173.5t-157.5 72.5q-102 0 -157.5 -72.5t-55.5 -173.5zM23 413q0 179 122 303t294 124q173 0 294 -123.5t121 -303.5q0 -181 -119 -304.5t-296 -123.5q-181 0 -298.5 122.5t-117.5 305.5z
M217 990l221 162l221 -162l-68 -91l-153 112l-153 -112z" />
    <glyph glyph-name="Otilde" unicode="&#xd5;" horiz-adv-x="877" 
d="M226 413q0 -65 20 -118.5t70 -90.5t123 -37q105 0 158.5 72t53.5 174q0 101 -54.5 173.5t-157.5 72.5q-102 0 -157.5 -72.5t-55.5 -173.5zM23 413q0 179 122 303t294 124q173 0 294 -123.5t121 -303.5q0 -181 -119 -304.5t-296 -123.5q-181 0 -298.5 122.5t-117.5 305.5z
M429 954q-40 19 -76 19q-14 0 -25.5 -11.5t-15.5 -23.5l-4 -11h-101q1 7 3.5 18.5t13 41t24 52.5t39 41.5t56.5 18.5q17 0 43 -6.5t44 -13.5l17 -7q40 -19 76 -19q14 0 25.5 11.5t15.5 23.5l4 11h101q-1 -7 -3.5 -18.5t-13 -41t-24 -52.5t-39 -41.5t-56.5 -18.5
q-17 0 -43 6.5t-44 13.5z" />
    <glyph glyph-name="Odieresis" unicode="&#xd6;" horiz-adv-x="877" 
d="M226 413q0 -65 20 -118.5t70 -90.5t123 -37q105 0 158.5 72t53.5 174q0 101 -54.5 173.5t-157.5 72.5q-102 0 -157.5 -72.5t-55.5 -173.5zM23 413q0 179 122 303t294 124q173 0 294 -123.5t121 -303.5q0 -181 -119 -304.5t-296 -123.5q-181 0 -298.5 122.5t-117.5 305.5z
M557 1103q38 0 65 -27t27 -65t-27 -65t-65 -27t-65 27t-27 65t27 65t65 27zM320 1103q38 0 65 -27t27 -65t-27 -65t-65 -27t-65 27t-27 65t27 65t65 27z" />
    <glyph glyph-name="multiply" unicode="&#xd7;" horiz-adv-x="633" 
d="M577 262l-107 -108l-153 153l-153 -153l-108 109l152 152l-152 153l108 107l152 -152l153 152l108 -108l-153 -153z" />
    <glyph glyph-name="Oslash" unicode="&#xd8;" horiz-adv-x="877" 
d="M651 413q0 67 -25 123l-279 -351q39 -18 92 -18q105 0 158.5 72t53.5 174zM226 413q0 -70 23 -125l279 352q-40 19 -89 19q-102 0 -157.5 -72.5t-55.5 -173.5zM67 59l55 69q-99 118 -99 285q0 179 122 303t294 124q109 0 205 -55l54 68l112 -86l-58 -73
q102 -120 102 -281q0 -181 -119 -304.5t-296 -123.5q-115 0 -209 53l-51 -65z" />
    <glyph glyph-name="Ugrave" unicode="&#xd9;" horiz-adv-x="744" 
d="M506 825v-477q0 -100 -31.5 -139t-102.5 -39t-102.5 39t-31.5 139v477h-188v-532q0 -152 82 -230t240 -78t240 78t82 230v532h-188zM227 1152l203 -176l-56 -77l-238 138z" />
    <glyph glyph-name="Uacute" unicode="&#xda;" horiz-adv-x="744" 
d="M506 825v-477q0 -100 -31.5 -139t-102.5 -39t-102.5 39t-31.5 139v477h-188v-532q0 -152 82 -230t240 -78t240 78t82 230v532h-188zM254 976l203 176l91 -115l-238 -138z" />
    <glyph glyph-name="Ucircumflex" unicode="&#xdb;" horiz-adv-x="744" 
d="M506 825v-477q0 -100 -31.5 -139t-102.5 -39t-102.5 39t-31.5 139v477h-188v-532q0 -152 82 -230t240 -78t240 78t82 230v532h-188zM151 990l221 162l221 -162l-68 -91l-153 112l-153 -112z" />
    <glyph glyph-name="Udieresis" unicode="&#xdc;" horiz-adv-x="744" 
d="M506 825v-477q0 -100 -31.5 -139t-102.5 -39t-102.5 39t-31.5 139v477h-188v-532q0 -152 82 -230t240 -78t240 78t82 230v532h-188zM490 1103q38 0 65 -27t27 -65t-27 -65t-65 -27t-65 27t-27 65t27 65t65 27zM253 1103q38 0 65 -27t27 -65t-27 -65t-65 -27t-65 27
t-27 65t27 65t65 27z" />
    <glyph glyph-name="Yacute" unicode="&#xdd;" horiz-adv-x="736" 
d="M-30 825h226l172 -264l172 264h226l-304 -455v-370h-188v370zM251 976l203 176l91 -115l-238 -138z" />
    <glyph glyph-name="Thorn" unicode="&#xde;" horiz-adv-x="666" 
d="M248 303h53q139 0 139 109q0 110 -139 110h-53v-219zM248 825v-153h113q126 0 204 -65t78 -189t-79 -194.5t-203 -70.5h-113v-153h-188v825h188z" />
    <glyph glyph-name="germandbls" unicode="&#xdf;" horiz-adv-x="656" 
d="M326 -15v162q52 0 85.5 32.5t33.5 84.5q0 57 -31.5 91t-87.5 34v135q45 0 76.5 30t31.5 76q0 45 -24 70.5t-67 25.5q-28 0 -52 -24.5t-24 -65.5v-636h-177v325v135v162q0 110 75 181.5t178 71.5q115 -2 186.5 -71.5t71.5 -173.5q0 -114 -100 -170q132 -61 132 -205
q0 -118 -86.5 -194t-220.5 -76z" />
    <glyph glyph-name="agrave" unicode="&#xe0;" 
d="M211 256q0 53 34.5 87t85.5 34q50 0 84.5 -34t34.5 -87q0 -52 -33.5 -86t-85.5 -34q-54 0 -87 33.5t-33 86.5zM23 256q0 -114 72 -192.5t183 -78.5q102 0 168 73h2v-58h175v513h-177v-49q-66 64 -168 64q-111 0 -183 -79t-72 -193zM196 840l203 -176l-56 -77l-238 138z
" />
    <glyph glyph-name="aacute" unicode="&#xe1;" 
d="M211 256q0 53 34.5 87t85.5 34q50 0 84.5 -34t34.5 -87q0 -52 -33.5 -86t-85.5 -34q-54 0 -87 33.5t-33 86.5zM23 256q0 -114 72 -192.5t183 -78.5q102 0 168 73h2v-58h175v513h-177v-49q-66 64 -168 64q-111 0 -183 -79t-72 -193zM283 664l203 176l91 -115l-238 -138z
" />
    <glyph glyph-name="acircumflex" unicode="&#xe2;" 
d="M211 256q0 53 34.5 87t85.5 34q50 0 84.5 -34t34.5 -87q0 -52 -33.5 -86t-85.5 -34q-54 0 -87 33.5t-33 86.5zM23 256q0 -114 72 -192.5t183 -78.5q102 0 168 73h2v-58h175v513h-177v-49q-66 64 -168 64q-111 0 -183 -79t-72 -193zM120 678l221 162l221 -162l-68 -91
l-153 112l-153 -112z" />
    <glyph glyph-name="atilde" unicode="&#xe3;" 
d="M211 256q0 53 34.5 87t85.5 34q50 0 84.5 -34t34.5 -87q0 -52 -33.5 -86t-85.5 -34q-54 0 -87 33.5t-33 86.5zM23 256q0 -114 72 -192.5t183 -78.5q102 0 168 73h2v-58h175v513h-177v-49q-66 64 -168 64q-111 0 -183 -79t-72 -193zM332 642q-40 19 -76 19
q-14 0 -25.5 -11.5t-15.5 -23.5l-4 -11h-101q1 7 3.5 18.5t13 41t24 52.5t39 41.5t56.5 18.5q17 0 43 -6.5t43 -13.5l18 -7q40 -19 76 -19q14 0 25.5 11.5t15.5 23.5l4 11h101q-1 -7 -3.5 -18.5t-13 -41t-24 -52.5t-39 -41.5t-56.5 -18.5q-17 0 -43 6.5t-43 13.5z" />
    <glyph glyph-name="adieresis" unicode="&#xe4;" 
d="M211 256q0 53 34.5 87t85.5 34q50 0 84.5 -34t34.5 -87q0 -52 -33.5 -86t-85.5 -34q-54 0 -87 33.5t-33 86.5zM23 256q0 -114 72 -192.5t183 -78.5q102 0 168 73h2v-58h175v513h-177v-49q-66 64 -168 64q-111 0 -183 -79t-72 -193zM460 791q38 0 65 -27t27 -65t-27 -65
t-65 -27t-65 27t-27 65t27 65t65 27zM223 791q38 0 65 -27t27 -65t-27 -65t-65 -27t-65 27t-27 65t27 65t65 27z" />
    <glyph glyph-name="aring" unicode="&#xe5;" 
d="M211 256q0 -53 33 -86.5t87 -33.5q52 0 85.5 34t33.5 86q0 53 -34.5 87t-84.5 34q-51 0 -85.5 -34t-34.5 -87zM23 256q0 114 72 193t183 79q102 0 168 -64v49h177v-513h-175v58h-2q-66 -73 -168 -73q-111 0 -183 78.5t-72 192.5zM280 733q0 -27 17 -45.5t44 -18.5
q26 0 43.5 18.5t17.5 45.5q0 26 -18 44t-43 18t-43 -18.5t-18 -43.5zM180 733q0 62 46.5 102t114.5 40q69 0 115 -40t46 -102q0 -63 -45 -103t-116 -40q-72 0 -116.5 40t-44.5 103z" />
    <glyph glyph-name="ae" unicode="&#xe6;" horiz-adv-x="943" 
d="M199 151q0 -27 22 -43.5t57 -16.5q34 0 59.5 18.5t25.5 41.5t-25 39.5t-60 16.5q-36 0 -57.5 -14.5t-21.5 -41.5zM552 330h195q-6 40 -31.5 61.5t-65.5 21.5q-44 0 -70 -23t-28 -60zM112 357l-56 121q7 6 21.5 14t65 22t108.5 14q131 0 212 -64q78 64 182 64
q122 0 198.5 -70.5t76.5 -201.5q0 -18 -1 -24h-372q0 -54 35 -80t76 -26q43 0 68 11.5t57 45.5l128 -64q-80 -134 -266 -134q-129 0 -213 94q-3 -4 -8 -10t-24 -22.5t-42 -29t-62 -22.5t-83 -10q-82 0 -136 41.5t-54 109.5q0 71 49 118t134 47q101 0 157 -39v37
q0 39 -35 63.5t-77 24.5q-41 0 -75.5 -7.5t-49.5 -15.5z" />
    <glyph glyph-name="ccedilla" unicode="&#xe7;" horiz-adv-x="491" 
d="M177 -121l39 121q-83 28 -138 98t-55 157q0 112 85.5 192.5t198.5 80.5q51 0 94 -12t61 -24l17 -12l-60 -121q-33 24 -86 24q-50 0 -86 -37t-36 -89q0 -53 36 -90t86 -37q24 0 45.5 6t31.5 12l9 6l60 -123q-7 -5 -19.5 -12.5t-57 -20.5t-95.5 -13q-12 0 -18 1l-16 -49
q47 0 88 -27t41 -75q0 -53 -37.5 -91t-114.5 -38q-40 0 -78.5 21t-57.5 41l-18 21l72 54q4 -5 11.5 -13t29 -21t41.5 -13q26 0 38 11.5t12 27.5q0 22 -19 33.5t-43 11.5q-16 0 -29 -2t-17 -4l-5 -3z" />
    <glyph glyph-name="egrave" unicode="&#xe8;" horiz-adv-x="603" 
d="M212 330h195q-6 40 -31.5 61.5t-65.5 21.5q-44 0 -70 -23t-28 -60zM579 232h-372q0 -54 35 -80t76 -26q43 0 68 11.5t57 45.5l128 -64q-80 -134 -266 -134q-116 0 -199 79.5t-83 191.5t83 192t199 80q122 0 198.5 -70.5t76.5 -201.5q0 -18 -1 -24zM156 840l203 -176
l-56 -77l-238 138z" />
    <glyph glyph-name="eacute" unicode="&#xe9;" horiz-adv-x="603" 
d="M212 330h195q-6 40 -31.5 61.5t-65.5 21.5q-44 0 -70 -23t-28 -60zM579 232h-372q0 -54 35 -80t76 -26q43 0 68 11.5t57 45.5l128 -64q-80 -134 -266 -134q-116 0 -199 79.5t-83 191.5t83 192t199 80q122 0 198.5 -70.5t76.5 -201.5q0 -18 -1 -24zM243 664l203 176
l91 -115l-238 -138z" />
    <glyph glyph-name="ecircumflex" unicode="&#xea;" horiz-adv-x="603" 
d="M212 330h195q-6 40 -31.5 61.5t-65.5 21.5q-44 0 -70 -23t-28 -60zM579 232h-372q0 -54 35 -80t76 -26q43 0 68 11.5t57 45.5l128 -64q-80 -134 -266 -134q-116 0 -199 79.5t-83 191.5t83 192t199 80q122 0 198.5 -70.5t76.5 -201.5q0 -18 -1 -24zM80 678l221 162
l221 -162l-68 -91l-153 112l-153 -112z" />
    <glyph glyph-name="edieresis" unicode="&#xeb;" horiz-adv-x="603" 
d="M212 330h195q-6 40 -31.5 61.5t-65.5 21.5q-44 0 -70 -23t-28 -60zM579 232h-372q0 -54 35 -80t76 -26q43 0 68 11.5t57 45.5l128 -64q-80 -134 -266 -134q-116 0 -199 79.5t-83 191.5t83 192t199 80q122 0 198.5 -70.5t76.5 -201.5q0 -18 -1 -24zM420 791q38 0 65 -27
t27 -65t-27 -65t-65 -27t-65 27t-27 65t27 65t65 27zM183 791q38 0 65 -27t27 -65t-27 -65t-65 -27t-65 27t-27 65t27 65t65 27z" />
    <glyph glyph-name="igrave" unicode="&#xec;" horiz-adv-x="297" 
d="M60 513v-513h177v513h-177zM4 840l203 -176l-56 -77l-238 138z" />
    <glyph glyph-name="iacute" unicode="&#xed;" horiz-adv-x="297" 
d="M60 513v-513h177v513h-177zM90 664l203 176l91 -115l-238 -138z" />
    <glyph glyph-name="icircumflex" unicode="&#xee;" horiz-adv-x="297" 
d="M60 513v-513h177v513h-177zM-72 678l221 162l221 -162l-68 -91l-153 112l-153 -112z" />
    <glyph glyph-name="idieresis" unicode="&#xef;" horiz-adv-x="297" 
d="M60 513v-513h177v513h-177zM267 791q38 0 65 -27t27 -65t-27 -65t-65 -27t-65 27t-27 65t27 65t65 27zM30 791q38 0 65 -27t27 -65t-27 -65t-65 -27t-65 27t-27 65t27 65t65 27z" />
    <glyph glyph-name="eth" unicode="&#xf0;" horiz-adv-x="684" 
d="M229 256q0 -53 33 -86.5t87 -33.5q52 0 85.5 34t33.5 86v5q-2 51 -36.5 83.5t-82.5 32.5q-51 0 -85.5 -34t-34.5 -87zM41 256q0 79 42 143.5t100.5 96.5t115.5 32q61 0 90 -16q-44 63 -117 115l-83 -82l-77 77l62 62q-28 13 -56 23.5t-42 14.5l-13 3l42 150
q85 -19 188 -72l73 72l76 -78l-52 -52q266 -187 266 -489q0 -118 -86.5 -194.5t-219.5 -76.5q-138 0 -223.5 76t-85.5 195z" />
    <glyph glyph-name="ntilde" unicode="&#xf1;" horiz-adv-x="661" 
d="M237 0v290q0 38 32.5 69t72.5 31q41 0 66.5 -30t25.5 -70v-290h177v338q0 51 -21.5 89.5t-56 59.5t-72 31t-75.5 10q-78 0 -147 -69h-2v54h-177v-513h177zM321 642q-40 19 -76 19q-14 0 -25.5 -11.5t-15.5 -23.5l-4 -11h-101q1 7 3.5 18.5t13 41t24 52.5t39 41.5
t56.5 18.5q17 0 43 -6.5t44 -13.5l17 -7q40 -19 76 -19q14 0 25.5 11.5t15.5 23.5l4 11h101q-1 -7 -3.5 -18.5t-13 -41t-24 -52.5t-39 -41.5t-56.5 -18.5q-17 0 -43 6.5t-44 13.5z" />
    <glyph glyph-name="ograve" unicode="&#xf2;" horiz-adv-x="661" 
d="M211 256q0 53 34.5 87t85.5 34q50 0 84.5 -34t34.5 -87q0 -52 -33.5 -86t-85.5 -34q-54 0 -87 33.5t-33 86.5zM23 256q0 -119 85.5 -195t223.5 -76q133 0 219.5 76.5t86.5 194.5t-88.5 195t-217.5 77q-131 0 -220 -76.5t-89 -195.5zM185 840l203 -176l-56 -77l-238 138z
" />
    <glyph glyph-name="oacute" unicode="&#xf3;" horiz-adv-x="661" 
d="M211 256q0 53 34.5 87t85.5 34q50 0 84.5 -34t34.5 -87q0 -52 -33.5 -86t-85.5 -34q-54 0 -87 33.5t-33 86.5zM23 256q0 -119 85.5 -195t223.5 -76q133 0 219.5 76.5t86.5 194.5t-88.5 195t-217.5 77q-131 0 -220 -76.5t-89 -195.5zM232 664l203 176l91 -115l-238 -138z
" />
    <glyph glyph-name="ocircumflex" unicode="&#xf4;" horiz-adv-x="661" 
d="M211 256q0 53 34.5 87t85.5 34q50 0 84.5 -34t34.5 -87q0 -52 -33.5 -86t-85.5 -34q-54 0 -87 33.5t-33 86.5zM23 256q0 -119 85.5 -195t223.5 -76q133 0 219.5 76.5t86.5 194.5t-88.5 195t-217.5 77q-131 0 -220 -76.5t-89 -195.5zM109 678l221 162l221 -162l-68 -91
l-153 112l-153 -112z" />
    <glyph glyph-name="otilde" unicode="&#xf5;" horiz-adv-x="661" 
d="M211 256q0 53 34.5 87t85.5 34q50 0 84.5 -34t34.5 -87q0 -52 -33.5 -86t-85.5 -34q-54 0 -87 33.5t-33 86.5zM23 256q0 -119 85.5 -195t223.5 -76q133 0 219.5 76.5t86.5 194.5t-88.5 195t-217.5 77q-131 0 -220 -76.5t-89 -195.5zM321 642q-40 19 -76 19
q-14 0 -25.5 -11.5t-15.5 -23.5l-4 -11h-101q1 7 3.5 18.5t13 41t24 52.5t39 41.5t56.5 18.5q17 0 43 -6.5t44 -13.5l17 -7q40 -19 76 -19q14 0 25.5 11.5t15.5 23.5l4 11h101q-1 -7 -3.5 -18.5t-13 -41t-24 -52.5t-39 -41.5t-56.5 -18.5q-17 0 -43 6.5t-44 13.5z" />
    <glyph glyph-name="odieresis" unicode="&#xf6;" horiz-adv-x="661" 
d="M211 256q0 53 34.5 87t85.5 34q50 0 84.5 -34t34.5 -87q0 -52 -33.5 -86t-85.5 -34q-54 0 -87 33.5t-33 86.5zM23 256q0 -119 85.5 -195t223.5 -76q133 0 219.5 76.5t86.5 194.5t-88.5 195t-217.5 77q-131 0 -220 -76.5t-89 -195.5zM449 791q38 0 65 -27t27 -65t-27 -65
t-65 -27t-65 27t-27 65t27 65t65 27zM212 791q38 0 65 -27t27 -65t-27 -65t-65 -27t-65 27t-27 65t27 65t65 27z" />
    <glyph glyph-name="divide" unicode="&#xf7;" horiz-adv-x="633" 
d="M315 271q35 0 58.5 -23.5t23.5 -58.5q0 -33 -24 -56.5t-58 -23.5q-33 0 -56.5 23.5t-23.5 56.5q0 34 23.5 58t56.5 24zM60 491h513v-153h-513v153zM315 720q35 0 58.5 -24t23.5 -58q0 -33 -24 -56.5t-58 -23.5q-33 0 -56.5 23.5t-23.5 56.5q0 34 23.5 58t56.5 24z" />
    <glyph glyph-name="oslash" unicode="&#xf8;" horiz-adv-x="661" 
d="M331 136q52 0 85.5 34t33.5 86q0 23 -8 45l-180 -146q30 -19 69 -19zM211 256q0 -26 7 -46l181 146q-31 21 -68 21q-51 0 -85.5 -34t-34.5 -87zM668 484l-85 -69q55 -68 55 -159q0 -118 -86.5 -194.5t-219.5 -76.5q-124 0 -205 61l-89 -72l-45 54l83 67q-53 69 -53 161
q0 119 89 195.5t220 76.5q116 0 201 -63l90 73z" />
    <glyph glyph-name="ugrave" unicode="&#xf9;" horiz-adv-x="656" 
d="M50 513v-287q0 -128 66.5 -184.5t211.5 -56.5t211.5 56.5t66.5 184.5v287h-177v-244q0 -76 -23 -108t-78 -32t-78 32t-23 108v244h-177zM183 840l203 -176l-56 -77l-238 138z" />
    <glyph glyph-name="uacute" unicode="&#xfa;" horiz-adv-x="656" 
d="M50 513v-287q0 -128 66.5 -184.5t211.5 -56.5t211.5 56.5t66.5 184.5v287h-177v-244q0 -76 -23 -108t-78 -32t-78 32t-23 108v244h-177zM269 664l203 176l91 -115l-238 -138z" />
    <glyph glyph-name="ucircumflex" unicode="&#xfb;" horiz-adv-x="656" 
d="M50 513v-287q0 -128 66.5 -184.5t211.5 -56.5t211.5 56.5t66.5 184.5v287h-177v-244q0 -76 -23 -108t-78 -32t-78 32t-23 108v244h-177zM107 678l221 162l221 -162l-68 -91l-153 112l-153 -112z" />
    <glyph glyph-name="udieresis" unicode="&#xfc;" horiz-adv-x="656" 
d="M50 513v-287q0 -128 66.5 -184.5t211.5 -56.5t211.5 56.5t66.5 184.5v287h-177v-244q0 -76 -23 -108t-78 -32t-78 32t-23 108v244h-177zM446 791q38 0 65 -27t27 -65t-27 -65t-65 -27t-65 27t-27 65t27 65t65 27zM209 791q38 0 65 -27t27 -65t-27 -65t-65 -27t-65 27
t-27 65t27 65t65 27z" />
    <glyph glyph-name="yacute" unicode="&#xfd;" horiz-adv-x="633" 
d="M449 513h204l-403 -773h-204l177 340l-243 433h204l143 -263zM219 664l203 176l91 -115l-238 -138z" />
    <glyph glyph-name="thorn" unicode="&#xfe;" 
d="M472 256q0 53 -34.5 87t-85.5 34q-50 0 -84.5 -34t-34.5 -87q0 -52 33.5 -86t85.5 -34q54 0 87 33.5t33 86.5zM660 256q0 -114 -72 -192.5t-183 -78.5q-102 0 -168 73h-2v-318h-175v1120h177v-396q66 64 168 64q111 0 183 -79t72 -193z" />
    <glyph glyph-name="ydieresis" unicode="&#xff;" horiz-adv-x="633" 
d="M449 513h204l-403 -773h-204l177 340l-243 433h204l143 -263zM435 791q38 0 65 -27t27 -65t-27 -65t-65 -27t-65 27t-27 65t27 65t65 27zM198 791q38 0 65 -27t27 -65t-27 -65t-65 -27t-65 27t-27 65t27 65t65 27z" />
    <glyph glyph-name="Amacron" unicode="&#x100;" horiz-adv-x="784" 
d="M485 330l-92 240h-2l-92 -240h186zM479 825l333 -825h-202l-61 165h-314l-61 -165h-202l333 825h174zM188 1066h408v-120h-408v120z" />
    <glyph glyph-name="amacron" unicode="&#x101;" 
d="M211 256q0 53 34.5 87t85.5 34q50 0 84.5 -34t34.5 -87q0 -52 -33.5 -86t-85.5 -34q-54 0 -87 33.5t-33 86.5zM23 256q0 -114 72 -192.5t183 -78.5q102 0 168 73h2v-58h175v513h-177v-49q-66 64 -168 64q-111 0 -183 -79t-72 -193zM137 754h408v-120h-408v120z" />
    <glyph glyph-name="Abreve" unicode="&#x102;" horiz-adv-x="784" 
d="M485 330l-92 240h-2l-92 -240h186zM479 825l333 -825h-202l-61 165h-314l-61 -165h-202l333 825h174zM497 1152l126 -31q-9 -81 -72 -131t-159 -50t-159 50t-72 131l126 31q0 -4 1.5 -11t8.5 -25t17.5 -31.5t31 -24.5t46.5 -11t46.5 10.5t31 25.5t17.5 30.5t9 26.5z" />
    <glyph glyph-name="abreve" unicode="&#x103;" 
d="M211 256q0 -53 33 -86.5t87 -33.5q52 0 85.5 34t33.5 86q0 53 -34.5 87t-84.5 34q-51 0 -85.5 -34t-34.5 -87zM23 256q0 114 72 193t183 79q102 0 168 -64v49h177v-513h-175v58h-2q-66 -73 -168 -73q-111 0 -183 78.5t-72 192.5zM446 840l126 -31q-9 -81 -72 -131
t-159 -50t-159 50t-72 131l126 31q0 -4 1.5 -11t8.5 -25t17.5 -31.5t31 -24.5t46.5 -11t46.5 10.5t31 25.5t17.5 30.5t8 26.5z" />
    <glyph glyph-name="Aogonek" unicode="&#x104;" horiz-adv-x="784" 
d="M485 330l-92 240h-2l-92 -240h186zM549 -158q0 62 80 158h-19l-61 165h-314l-61 -165h-202l333 825h174l333 -825h-101q-7 -8 -16.5 -21.5t-26 -50.5t-16.5 -68q0 -18 11.5 -28.5t25.5 -10.5t26.5 7.5t18.5 15.5l6 7l72 -54q-2 -3 -5.5 -8t-16 -17t-27.5 -21.5
t-38.5 -17.5t-49.5 -8q-47 0 -86.5 29t-39.5 88z" />
    <glyph glyph-name="aogonek" unicode="&#x105;" 
d="M211 256q0 -53 33 -86.5t87 -33.5q52 0 85.5 34t33.5 86q0 53 -34.5 87t-84.5 34q-51 0 -85.5 -34t-34.5 -87zM368 -158q0 65 80 158v58h-2q-66 -73 -168 -73q-111 0 -183 78.5t-72 192.5t72 193t183 79q102 0 168 -64v49h177v-513h-93q-7 -8 -16.5 -21.5t-26 -50.5
t-16.5 -68q0 -18 11.5 -28.5t25.5 -10.5t26.5 7.5t18.5 15.5l6 7l72 -54q-2 -3 -5.5 -8t-16 -17t-27.5 -21.5t-38.5 -17.5t-49.5 -8q-47 0 -86.5 29t-39.5 88z" />
    <glyph glyph-name="Cacute" unicode="&#x106;" horiz-adv-x="753" 
d="M499 170q-131 0 -201.5 74.5t-70.5 168.5q0 43 16.5 84.5t48 77.5t85.5 58t122 22q43 0 83.5 -12.5t59.5 -25.5l19 -13l80 160q-4 3 -11 8t-32.5 18.5t-54.5 23.5t-76 18t-97 8q-86 0 -168 -34t-143.5 -91t-98.5 -137t-37 -167q0 -115 63 -214t166 -155.5t218 -56.5
q80 0 147.5 19t95.5 38l28 19l-80 160q-7 -6 -21 -14.5t-56 -22.5t-85 -14zM271 976l203 176l91 -115l-238 -138z" />
    <glyph glyph-name="cacute" unicode="&#x107;" horiz-adv-x="491" 
d="M333 383q-50 0 -86 -37t-36 -89q0 -53 36 -90t86 -37q24 0 45.5 6t31.5 12l9 6l60 -123q-7 -5 -19.5 -12.5t-57 -20.5t-95.5 -13q-113 0 -198.5 79.5t-85.5 190.5q0 112 85.5 192.5t198.5 80.5q51 0 94 -12t61 -24l17 -12l-60 -121q-33 24 -86 24zM191 664l203 176
l91 -115l-238 -138z" />
    <glyph glyph-name="Ccircumflex" unicode="&#x108;" horiz-adv-x="811" 
d="M522 170q-67 0 -121 22t-86 58t-48.5 78t-16.5 85t16.5 84.5t48.5 77.5t86 58t121 22q43 0 83.5 -12.5t59.5 -25.5l19 -13l80 160q-3 3 -10.5 8t-33 18.5t-54.5 23.5t-75.5 18t-96.5 8q-87 0 -169 -34t-143 -91t-98.5 -137t-37.5 -167q0 -86 37.5 -165.5t99 -136.5
t143 -90.5t168.5 -33.5q50 0 96 8t76.5 19t53.5 22t34 19l10 8l-80 160q-7 -6 -20.5 -14.5t-56 -22.5t-85.5 -14zM224 976l220 162l222 -162l-68 -91l-154 112l-152 -112z" />
    <glyph glyph-name="ccircumflex" unicode="&#x109;" horiz-adv-x="553" 
d="M355 383q-50 0 -86 -37t-36 -89q0 -53 36 -90t86 -37q24 0 45.5 6t31.5 12l9 6l60 -123q-7 -5 -19.5 -12.5t-57 -20.5t-95.5 -13q-113 0 -198.5 79.5t-85.5 190.5q0 112 85.5 192.5t198.5 80.5q51 0 94 -12t61 -24l17 -12l-60 -121q-33 24 -86 24zM66 658l221 162
l221 -162l-68 -91l-153 112l-153 -112z" />
    <glyph glyph-name="Cdotaccent" unicode="&#x10a;" horiz-adv-x="811" 
d="M522 170q-67 0 -121 22t-86 58t-48.5 78t-16.5 85t16.5 84.5t48.5 77.5t86 58t121 22q43 0 83.5 -12.5t59.5 -25.5l19 -13l80 160q-3 3 -10.5 8t-33 18.5t-54.5 23.5t-75.5 18t-96.5 8q-87 0 -169 -34t-143 -91t-98.5 -137t-37.5 -167q0 -86 37.5 -165.5t99 -136.5
t143 -90.5t168.5 -33.5q50 0 96 8t76.5 19t53.5 22t34 19l10 8l-80 160q-7 -6 -20.5 -14.5t-56 -22.5t-85.5 -14zM441.5 1103q38.5 0 65.5 -27t27 -65t-27 -65t-65.5 -27t-65 27t-26.5 65t26.5 65t65 27z" />
    <glyph glyph-name="cdotaccent" unicode="&#x10b;" horiz-adv-x="552" 
d="M358 383q-50 0 -86 -37t-36 -89q0 -53 36 -90t86 -37q24 0 45.5 6t30.5 12l10 6l60 -123q-7 -5 -19.5 -12.5t-57 -20.5t-95.5 -13q-113 0 -198.5 79.5t-85.5 190.5q0 112 85.5 192.5t198.5 80.5q51 0 94 -12t60 -24l18 -12l-60 -121q-33 24 -86 24zM290 781q38 0 65 -27
t27 -65t-27 -65t-65 -27t-65 27t-27 65t27 65t65 27z" />
    <glyph glyph-name="Ccaron" unicode="&#x10c;" horiz-adv-x="753" 
d="M499 170q-131 0 -201.5 74.5t-70.5 168.5q0 43 16.5 84.5t48 77.5t85.5 58t122 22q43 0 83.5 -12.5t59.5 -25.5l19 -13l80 160q-4 3 -11 8t-32.5 18.5t-54.5 23.5t-76 18t-97 8q-86 0 -168 -34t-143.5 -91t-98.5 -137t-37 -167q0 -115 63 -214t166 -155.5t218 -56.5
q80 0 147.5 19t95.5 38l28 19l-80 160q-7 -6 -21 -14.5t-56 -22.5t-85 -14zM288 1152l153 -112l153 112l68 -91l-221 -162l-221 162z" />
    <glyph glyph-name="ccaron" unicode="&#x10d;" horiz-adv-x="491" 
d="M333 383q-50 0 -86 -37t-36 -89q0 -53 36 -90t86 -37q24 0 45.5 6t31.5 12l9 6l60 -123q-7 -5 -19.5 -12.5t-57 -20.5t-95.5 -13q-113 0 -198.5 79.5t-85.5 190.5q0 112 85.5 192.5t198.5 80.5q51 0 94 -12t61 -24l17 -12l-60 -121q-33 24 -86 24zM104 840l153 -112
l153 112l68 -91l-221 -162l-221 162z" />
    <glyph glyph-name="Dcaron" unicode="&#x10e;" horiz-adv-x="738" 
d="M248 168h29q103 0 168.5 69.5t66.5 174.5q0 105 -65.5 175t-169.5 70h-29v-489zM60 825h239q172 0 294 -117.5t122 -294.5q0 -178 -121.5 -295.5t-294.5 -117.5h-239v825zM207 1152l153 -112l153 112l68 -91l-221 -162l-221 162z" />
    <glyph glyph-name="dcaron" unicode="&#x10f;" 
d="M211 256q0 -53 33 -86.5t87 -33.5q52 0 85.5 34t33.5 86q0 53 -34.5 87t-84.5 34q-51 0 -85.5 -34t-34.5 -87zM756 824q38 0 64 -26t26 -64q0 -114 -130 -221l-40 31q47 45 59 110q-29 7 -48 29t-19 51q0 37 26 63.5t62 26.5zM23 256q0 114 72 193t183 79q102 0 168 -64
v396h177v-860h-175v58h-2q-66 -73 -168 -73q-111 0 -183 78.5t-72 192.5z" />
    <glyph glyph-name="Dcroat" unicode="&#x110;" horiz-adv-x="776" 
d="M286 489h109v-153h-109v-168h29q103 0 168.5 69.5t66.5 174.5q0 105 -65.5 175t-169.5 70h-29v-168zM98 489v336h239q172 0 294 -117.5t122 -294.5q0 -178 -121.5 -295.5t-294.5 -117.5h-239v336h-82v153h82z" />
    <glyph glyph-name="dcroat" unicode="&#x111;" 
d="M211 256q0 -53 33 -86.5t87 -33.5q52 0 85.5 34t33.5 86q0 53 -34.5 87t-84.5 34q-51 0 -85.5 -34t-34.5 -87zM321 742h125v118h177v-118h60v-114h-60v-628h-175v58h-2q-66 -73 -168 -73q-111 0 -183 78.5t-72 192.5t72 193t183 79q102 0 168 -64v164h-125v114z" />
    <glyph glyph-name="Emacron" unicode="&#x112;" horiz-adv-x="580" 
d="M532 825v-165h-284v-164h272v-165h-272v-166h284v-165h-472v825h472zM86 1066h408v-120h-408v120z" />
    <glyph glyph-name="emacron" unicode="&#x113;" horiz-adv-x="603" 
d="M212 330h195q-6 40 -31.5 61.5t-65.5 21.5q-44 0 -70 -23t-28 -60zM579 232h-372q0 -54 35 -80t76 -26q43 0 68 11.5t57 45.5l128 -64q-80 -134 -266 -134q-116 0 -199 79.5t-83 191.5t83 192t199 80q122 0 198.5 -70.5t76.5 -201.5q0 -18 -1 -24zM97 754h408v-120h-408
v120z" />
    <glyph glyph-name="Ebreve" unicode="&#x114;" horiz-adv-x="611" 
d="M541 825v-165h-284v-164h272v-165h-272v-166h284v-165h-472v825h472zM416 1125l126 -31q-9 -81 -72 -131t-159 -50t-159 50t-72 131l126 31q0 -4 1.5 -11t8.5 -25t17.5 -31.5t31 -24.5t46.5 -11q42 0 68 26t31 52z" />
    <glyph glyph-name="ebreve" unicode="&#x115;" horiz-adv-x="682" 
d="M252 330h194q-5 40 -31 61.5t-65 21.5q-45 0 -70.5 -23t-27.5 -60zM618 232h-372q0 -54 35 -80t77 -26q29 0 48.5 5t36.5 16.5t39 35.5l128 -64q-80 -134 -266 -134q-116 0 -199 79.5t-83 191.5t83 192t199 80q80 0 141 -30t98 -92.5t37 -149.5q0 -18 -2 -24zM458 807
l126 -31q-9 -81 -72 -131t-158.5 -50t-158.5 50t-73 131l126 31q1 -4 2.5 -11t8.5 -25t17 -31.5t30.5 -24.5t47 -11t47 10.5t31 26t17 30.5t8.5 25z" />
    <glyph glyph-name="Edotaccent" unicode="&#x116;" horiz-adv-x="580" 
d="M532 825v-165h-284v-164h272v-165h-272v-166h284v-165h-472v825h472zM290 1103q38 0 65 -27t27 -65t-27 -65t-65 -27t-65 27t-27 65t27 65t65 27z" />
    <glyph glyph-name="edotaccent" unicode="&#x117;" horiz-adv-x="603" 
d="M212 330h195q-6 40 -31.5 61.5t-65.5 21.5q-44 0 -70 -23t-28 -60zM579 232h-372q0 -54 35 -80t76 -26q43 0 68 11.5t57 45.5l128 -64q-80 -134 -266 -134q-116 0 -199 79.5t-83 191.5t83 192t199 80q122 0 198.5 -70.5t76.5 -201.5q0 -18 -1 -24zM301 791q38 0 65 -27
t27 -65t-27 -65t-65 -27t-65 27t-27 65t27 65t65 27z" />
    <glyph glyph-name="Eogonek" unicode="&#x118;" horiz-adv-x="580" 
d="M532 825v-165h-284v-164h272v-165h-272v-166h284v-165h-97q-7 -8 -16.5 -21.5t-26 -50.5t-16.5 -68q0 -18 11.5 -28.5t25.5 -10.5t26.5 7.5t18.5 15.5l6 7l72 -54q-2 -3 -5.5 -8t-16 -17t-27.5 -21.5t-38.5 -17.5t-49.5 -8q-47 0 -86.5 29t-39.5 88q0 62 80 158h-293v825
h472z" />
    <glyph glyph-name="eogonek" unicode="&#x119;" horiz-adv-x="603" 
d="M212 330h195q-6 40 -31.5 61.5t-65.5 21.5q-44 0 -70 -23t-28 -60zM579 232h-372q0 -54 35 -80t76 -26q43 0 68 11.5t57 45.5l128 -64q-54 -89 -153 -119q-7 -8 -16.5 -21.5t-26 -50.5t-16.5 -68q0 -18 11.5 -28.5t25.5 -10.5t26.5 7.5t18.5 15.5l6 7l72 -54
q-2 -3 -5.5 -8t-16 -17t-27.5 -21.5t-38.5 -17.5t-49.5 -8q-47 0 -86.5 29t-39.5 88q0 58 68 144q-3 0 -9.5 -0.5t-9.5 -0.5q-116 0 -199 79.5t-83 191.5t83 192t199 80q122 0 198.5 -70.5t76.5 -201.5q0 -18 -1 -24z" />
    <glyph glyph-name="Ecaron" unicode="&#x11a;" horiz-adv-x="580" 
d="M532 825v-165h-284v-164h272v-165h-272v-166h284v-165h-472v825h472zM137 1152l153 -112l153 112l68 -91l-221 -162l-221 162z" />
    <glyph glyph-name="ecaron" unicode="&#x11b;" horiz-adv-x="603" 
d="M212 330h195q-6 40 -31.5 61.5t-65.5 21.5q-44 0 -70 -23t-28 -60zM579 232h-372q0 -54 35 -80t76 -26q43 0 68 11.5t57 45.5l128 -64q-80 -134 -266 -134q-116 0 -199 79.5t-83 191.5t83 192t199 80q122 0 198.5 -70.5t76.5 -201.5q0 -18 -1 -24zM148 840l153 -112
l153 112l68 -91l-221 -162l-221 162z" />
    <glyph glyph-name="Gcircumflex" unicode="&#x11c;" horiz-adv-x="925" 
d="M854 462v-179q-32 -147 -140 -222.5t-241 -75.5q-167 0 -284.5 125t-117.5 302q0 180 115 304t287 124q201 0 318 -141l-123 -135q-66 106 -184 106q-87 0 -148.5 -75.5t-61.5 -182.5q0 -105 61.5 -179.5t148.5 -74.5q72 0 125.5 43.5t53.5 115.5h-190v145h381zM242 974
l220 162l222 -162l-68 -91l-154 112l-152 -112z" />
    <glyph glyph-name="gcircumflex" unicode="&#x11d;" horiz-adv-x="742" 
d="M259 256q0 -53 33 -86.5t87 -33.5q52 0 85.5 34t33.5 86q0 53 -34.5 87t-84.5 34q-51 0 -85.5 -34t-34.5 -87zM85 -126l145 71q40 -66 139 -66q46 0 85.5 29.5t39.5 90.5v38q-47 -52 -168 -52q-111 0 -183 78.5t-72 192.5t72 193t183 79q99 0 165 -61h3v46h177v-527
q0 -125 -83 -193t-219 -68q-220 0 -284 149zM184 688l222 162l220 -162l-68 -91l-152 112l-154 -112z" />
    <glyph glyph-name="Gbreve" unicode="&#x11e;" horiz-adv-x="927" 
d="M855 462v-179q-32 -147 -140 -222.5t-241 -75.5q-167 0 -284.5 125t-117.5 302q0 180 115 304t287 124q201 0 318 -141l-123 -135q-66 106 -184 106q-87 0 -148.5 -75.5t-61.5 -182.5q0 -105 61.5 -179.5t148.5 -74.5q72 0 125.5 43.5t53.5 115.5h-190v145h381zM579 1123
l126 -31q-9 -81 -72 -131t-159 -50t-159 50t-72 131l126 31q0 -4 1.5 -11t8.5 -25t17.5 -31.5t31 -24.5t46.5 -11q42 0 68 26t32 52z" />
    <glyph glyph-name="gbreve" unicode="&#x11f;" horiz-adv-x="743" 
d="M260 256q0 -53 33 -86.5t87 -33.5q34 0 61 15.5t42 42.5t15 62q0 53 -34 87t-84 34q-51 0 -85.5 -34t-34.5 -87zM86 -126l144 71q11 -17 27.5 -31t46 -24.5t66.5 -10.5q20 0 40 6.5t40 19.5t32 37.5t12 56.5v38q-47 -52 -168 -52q-110 0 -182 78.5t-72 192.5t72 193
t182 79q100 0 166 -61h2v46h178v-527q0 -125 -83.5 -193t-218.5 -68q-220 0 -284 149zM480 810l126 -31q-10 -81 -73 -131t-158.5 -50t-158.5 50t-72 131l126 31q0 -4 1.5 -11t8.5 -25t17 -31.5t30.5 -24.5t47 -11t47 10.5t31 25.5t17 30.5t8.5 25.5z" />
    <glyph glyph-name="Gdotaccent" unicode="&#x120;" horiz-adv-x="927" 
d="M855 462v-179q-32 -147 -140 -222.5t-241 -75.5q-167 0 -284.5 125t-117.5 302q0 180 115 304t287 124q201 0 318 -141l-123 -135q-66 106 -184 106q-87 0 -148.5 -75.5t-61.5 -182.5q0 -105 61.5 -179.5t148.5 -74.5q72 0 125.5 43.5t53.5 115.5h-190v145h381z
M469.5 1103q38.5 0 65.5 -27t27 -65t-27 -65t-65.5 -27t-65 27t-26.5 65t26.5 65t65 27z" />
    <glyph glyph-name="gdotaccent" unicode="&#x121;" horiz-adv-x="743" 
d="M260 256q0 -53 33 -86.5t87 -33.5q34 0 61 15.5t42 42.5t15 62q0 53 -34 87t-84 34q-51 0 -85.5 -34t-34.5 -87zM86 -126l144 71q11 -17 27.5 -31t46 -24.5t66.5 -10.5q20 0 40 6.5t40 19.5t32 37.5t12 56.5v38q-47 -52 -168 -52q-110 0 -182 78.5t-72 192.5t72 193
t182 79q100 0 166 -61h2v46h178v-527q0 -125 -83.5 -193t-218.5 -68q-220 0 -284 149zM378 784q38 0 65 -27t27 -65t-27 -65t-65 -27t-65 27t-27 65t27 65t65 27z" />
    <glyph glyph-name="Gcommaaccent" unicode="&#x122;" horiz-adv-x="926" 
d="M462 -40q-37 0 -62.5 -26.5t-25.5 -63.5q0 -20 8.5 -36.5t23.5 -27.5t34 -16q-3 -18 -10 -36t-15.5 -31t-16 -23t-12.5 -15l-4 -5l40 -31q130 107 130 221q0 38 -26.5 64t-63.5 26zM854 462v-179q-16 -76 -55 -134.5t-91.5 -93.5t-112 -52.5t-121.5 -17.5
q-110 0 -202.5 57t-146 155.5t-53.5 214.5q0 117 51.5 215t144 155.5t206.5 57.5q201 0 318 -141l-124 -135q-66 106 -184 106q-87 0 -148.5 -75.5t-61.5 -182.5q0 -105 62 -179.5t148 -74.5q72 0 126 43.5t54 115.5h-190v145h380z" />
    <glyph glyph-name="gcommaaccent" unicode="&#x123;" horiz-adv-x="743" 
d="M260 256q0 -53 33 -86.5t87 -33.5q34 0 61 15.5t42 42.5t15 62q0 53 -34 87t-84 34q-51 0 -85.5 -34t-34.5 -87zM86 -126l144 71q11 -17 27.5 -31t46 -24.5t66.5 -10.5q20 0 40 6.5t40 19.5t32 37.5t12 56.5v38q-47 -52 -168 -52q-110 0 -182 78.5t-72 192.5t72 193
t182 79q100 0 166 -61h2v46h178v-527q0 -125 -83.5 -193t-218.5 -68q-220 0 -284 149zM390 607q-37 0 -63.5 26.5t-26.5 63.5q0 114 130 221l40 -31q-1 -2 -4.5 -5.5t-12 -14.5t-16 -23t-15 -30.5t-10.5 -36.5q29 -7 47.5 -29t18.5 -51q0 -37 -25.5 -63.5t-62.5 -26.5z" />
    <glyph glyph-name="Hcircumflex" unicode="&#x124;" horiz-adv-x="794" 
d="M266 331v-331h-188v825h188v-329h266v329h188v-825h-188v331h-266zM182 976l220 162l222 -162l-68 -91l-154 112l-152 -112z" />
    <glyph glyph-name="hcircumflex" unicode="&#x125;" horiz-adv-x="701" 
d="M75 0v860h177v-401h2q69 69 147 69q38 0 75.5 -10t72 -31t56 -59.5t21.5 -89.5v-338h-177v290q0 40 -25.5 70t-66.5 30q-40 0 -72.5 -31t-32.5 -69v-290h-177zM126 1018l220 162l222 -162l-68 -91l-154 112l-152 -112z" />
    <glyph glyph-name="Hbar" unicode="&#x126;" horiz-adv-x="993" 
d="M372 310v-310h-188v542h-118v176h118v107h188v-107h266v107h188v-107h100v-176h-100v-542h-188v310h-266zM372 542v-67h266v67h-266z" />
    <glyph glyph-name="hbar" unicode="&#x127;" horiz-adv-x="770" 
d="M167 760v100h177v-100h309v-176h-309v-125h2q69 69 147 69q30 0 59.5 -6t60 -20t53.5 -35t37.5 -54.5t14.5 -74.5v-338h-177v290q0 40 -25.5 70t-66.5 30q-40 0 -72.5 -31t-32.5 -69v-290h-177v584h-115v176h115z" />
    <glyph glyph-name="Itilde" unicode="&#x128;" horiz-adv-x="561" 
d="M374 825v-825h-188v825h188zM272 912q-41 19 -76 19q-15 0 -26 -11.5t-15 -23.5l-5 -11h-100q0 4 1 10t6 24t11.5 34t17.5 36t24.5 34t33 24t42.5 10q17 0 43 -6.5t43 -13.5l18 -7q40 -19 76 -19q14 0 25 11.5t15 23.5l4 11h102q-1 -4 -2 -10t-6 -24t-11.5 -34t-17.5 -36
t-24.5 -34t-33 -24t-41.5 -10q-11 0 -26 3t-28 6.5t-25 7.5t-19 7z" />
    <glyph glyph-name="itilde" unicode="&#x129;" horiz-adv-x="564" 
d="M194 513v-513h177v513h-177zM273 605q-40 19 -76 19q-14 0 -25.5 -11.5t-15.5 -22.5l-4 -12h-101q1 7 3.5 18.5t13 41t24 52.5t39 41.5t56.5 18.5q17 0 43 -7t44 -13l17 -7q40 -19 76 -19q14 0 25.5 11.5t15.5 22.5l4 12h101q-1 -7 -3.5 -18.5t-13 -41t-24 -52.5
t-39 -41.5t-56.5 -18.5q-17 0 -43 7t-44 13z" />
    <glyph glyph-name="Imacron" unicode="&#x12a;" horiz-adv-x="308" 
d="M248 825v-825h-188v825h188zM-50 1066h408v-120h-408v120z" />
    <glyph glyph-name="imacron" unicode="&#x12b;" horiz-adv-x="297" 
d="M60 513v-513h177v513h-177zM-55 754h408v-120h-408v120z" />
    <glyph glyph-name="Ibreve" unicode="&#x12c;" horiz-adv-x="556" 
d="M368 825v-825h-188v825h188zM383 1131l126 -31q-9 -81 -72 -131t-159 -50t-159 50t-72 131l126 31q0 -4 1.5 -11t8.5 -25t17.5 -31.5t31 -24.5t46.5 -11q42 0 68 26t32 52z" />
    <glyph glyph-name="ibreve" unicode="&#x12d;" horiz-adv-x="576" 
d="M194 513v-513h177v513h-177zM393 816l126 -31q-9 -81 -72 -131t-159 -50t-159 50t-72 131l126 31q0 -4 1.5 -11t8.5 -25t17.5 -31.5t31 -24.5t46.5 -11t46.5 10.5t31 25.5t17.5 30.5t9 26.5z" />
    <glyph glyph-name="Iogonek" unicode="&#x12e;" horiz-adv-x="308" 
d="M248 825v-825h-53q-7 -8 -16.5 -21.5t-26 -50.5t-16.5 -68q0 -18 11.5 -28.5t25.5 -10.5t26.5 7.5t18.5 15.5l6 7l72 -54q-2 -3 -5.5 -8t-16 -17t-27.5 -21.5t-38.5 -17.5t-49.5 -8q-47 0 -86.5 29t-39.5 88q0 62 80 158h-53v825h188z" />
    <glyph glyph-name="iogonek" unicode="&#x12f;" horiz-adv-x="297" 
d="M29 -158q0 -59 39.5 -88t86.5 -29q41 0 75 18t48 36l14 18l-72 54q-20 -30 -51 -30q-14 0 -25.5 10.5t-11.5 28.5q0 31 15 66t29 54l15 20h46v513h-177v-513h49q-80 -93 -80 -158zM151 830q43 0 74 -31t31 -74t-31 -74t-74 -31t-74 31t-31 74t31 74t74 31z" />
    <glyph glyph-name="Idotaccent" unicode="&#x130;" horiz-adv-x="336" 
d="M262 825v-825h-188v825h188zM168 1115q44 0 74.5 -30.5t30.5 -74.5t-30.5 -74.5t-74.5 -30.5t-74.5 30.5t-30.5 74.5t30.5 74.5t74.5 30.5z" />
    <glyph glyph-name="dotlessi" unicode="&#x131;" horiz-adv-x="269" 
d="M46 0v513h177v-513h-177z" />
    <glyph glyph-name="IJ" unicode="&#x132;" horiz-adv-x="785" 
d="M715 825v-592q0 -121 -66.5 -184.5t-190.5 -63.5q-33 0 -65 8t-54 19.5t-39.5 23.5t-25.5 20l-9 8l60 157q59 -56 107 -56q43 0 69 28.5t26 87.5v544h188zM258 825v-840h-188v840h188z" />
    <glyph glyph-name="ij" unicode="&#x133;" horiz-adv-x="603" 
d="M340 513v-558q0 -70 -49 -70q-10 0 -21 3.5t-18 7.5l-6 4l-55 -143q2 -1 13 -6l16.5 -7.5t18.5 -6.5t25 -6t30 -4t38 -2q50 0 88 17.5t58 47t29.5 62t9.5 69.5v592h-177zM431 830q43 0 74 -31t31 -74t-31 -74t-74 -31t-74 31t-31 74t31 74t74 31zM258 513h-177v-513h177
v513zM67 725q0 43 30.5 74t74.5 31t74.5 -31t30.5 -74t-30.5 -74t-74.5 -31t-74.5 31t-30.5 74z" />
    <glyph glyph-name="Jcircumflex" unicode="&#x134;" horiz-adv-x="681" 
d="M503 825v-592q0 -121 -66.5 -184.5t-190.5 -63.5q-33 0 -65 8t-54.5 19.5t-39.5 23.5t-26 20l-8 8l60 157q2 -2 6.5 -6t17 -13.5t25 -17t28.5 -13.5t30 -6q43 0 69 28.5t26 87.5v544h188zM186 975l221 162l221 -162l-68 -91l-153 112l-153 -112z" />
    <glyph glyph-name="jcircumflex" unicode="&#x135;" horiz-adv-x="565" 
d="M202 513v-558q0 -70 -49 -70q-10 0 -21.5 3.5t-17.5 7.5l-6 4l-55 -143q3 -1 11 -5t13.5 -6.5t14.5 -6t19 -5.5l22.5 -4.5t27.5 -3.5t33 -1q50 0 87.5 17.5t58 47t30 62t9.5 69.5v592h-177zM70 673l221 162l221 -162l-68 -91l-153 112l-153 -112z" />
    <glyph glyph-name="Kcommaaccent" unicode="&#x136;" horiz-adv-x="787" 
d="M392 -40q-36 0 -62 -26.5t-26 -63.5q0 -29 19 -51t48 -29q-5 -29 -20 -56.5t-27 -40.5l-12 -13l40 -31q130 107 130 221q0 38 -26 64t-64 26zM811 0h-259l-304 350v-350h-188v825h188v-337l283 337h228l-332 -391z" />
    <glyph glyph-name="kcommaaccent" unicode="&#x137;" horiz-adv-x="646" 
d="M322 -40q38 0 64 -26t26 -64q0 -114 -130 -221l-40 31q47 45 59 110q-29 7 -48 29t-19 51q0 37 26 63.5t62 26.5zM646 513l-244 -245l268 -268h-228l-205 205v-205h-177v860h177v-526l179 179h230z" />
    <glyph glyph-name="kgreenlandic" unicode="&#x138;" horiz-adv-x="718" 
d="M659 2h-207l-243 280v-280h-150v660h150v-270l226 270h183l-266 -313z" />
    <glyph glyph-name="Lacute" unicode="&#x139;" horiz-adv-x="565" 
d="M248 825v-660h284v-165h-472v825h188zM136 976l203 176l91 -115l-238 -138z" />
    <glyph glyph-name="lacute" unicode="&#x13a;" horiz-adv-x="297" 
d="M60 860v-860h177v860h-177zM60 1011l203 176l91 -115l-238 -138z" />
    <glyph glyph-name="Lcommaaccent" unicode="&#x13b;" horiz-adv-x="565" 
d="M281 -40q-36 0 -62 -26.5t-26 -63.5q0 -29 19 -51t48 -29q-5 -29 -20 -56.5t-27 -40.5l-12 -13l40 -31q130 107 130 221q0 38 -26.5 64t-63.5 26zM248 825v-660h284v-165h-472v825h188z" />
    <glyph glyph-name="lcommaaccent" unicode="&#x13c;" horiz-adv-x="297" 
d="M147 -40q37 0 63.5 -26t26.5 -64q0 -114 -130 -221l-40 31q47 45 59 110q-29 7 -48 29t-19 51q0 37 26 63.5t62 26.5zM60 0v860h177v-860h-177z" />
    <glyph glyph-name="Lcaron" unicode="&#x13d;" horiz-adv-x="565" 
d="M417 824q-36 0 -62 -26.5t-26 -63.5q0 -29 19 -51t48 -29q-5 -29 -20 -56.5t-27 -40.5l-12 -13l40 -31q130 107 130 221q0 38 -26.5 64t-63.5 26zM248 825v-660h284v-165h-472v825h188z" />
    <glyph glyph-name="lcaron" unicode="&#x13e;" horiz-adv-x="297" 
d="M370 824q38 0 64 -26t26 -64q0 -114 -130 -221l-40 31q47 45 59 110q-29 7 -48 29t-19 51q0 37 26 63.5t62 26.5zM60 0v860h177v-860h-177z" />
    <glyph glyph-name="Ldot" unicode="&#x13f;" horiz-adv-x="617" 
d="M260 825v-660h284v-165h-472v825h188zM435 567q38 0 65 -27t27 -65t-27 -65t-65 -27t-65 27t-27 65t27 65t65 27z" />
    <glyph glyph-name="ldot" unicode="&#x140;" horiz-adv-x="545" 
d="M69 860v-860h177v860h-177zM384 567q38 0 65 -27t27 -65t-27 -65t-65 -27t-65 27t-27 65t27 65t65 27z" />
    <glyph glyph-name="Lslash" unicode="&#x141;" horiz-adv-x="568" 
d="M20 250v153l76 59v363h188v-215l105 83v-153l-105 -83v-292h284v-165h-472v309z" />
    <glyph glyph-name="lslash" unicode="&#x142;" horiz-adv-x="369" 
d="M96 0v310l-76 -60v153l76 60v397h177v-258l76 60v-153l-76 -60v-449h-177z" />
    <glyph glyph-name="Nacute" unicode="&#x143;" horiz-adv-x="826" 
d="M248 512v-512h-188v825h188l328 -512h2v512h188v-825h-188l-328 512h-2zM266 976l203 176l91 -115l-238 -138z" />
    <glyph glyph-name="nacute" unicode="&#x144;" horiz-adv-x="661" 
d="M237 0v290q0 38 32.5 69t72.5 31q41 0 66.5 -30t25.5 -70v-290h177v338q0 51 -21.5 89.5t-56 59.5t-72 31t-75.5 10q-78 0 -147 -69h-2v54h-177v-513h177zM271 664l203 176l91 -115l-238 -138z" />
    <glyph glyph-name="Ncommaaccent" unicode="&#x145;" horiz-adv-x="826" 
d="M412 -40q-36 0 -62 -26.5t-26 -63.5q0 -29 19 -51t48 -29q-5 -29 -20 -56.5t-27 -40.5l-12 -13l40 -31q130 107 130 221q0 38 -26 64t-64 26zM248 512v-512h-188v825h188l328 -512h2v512h188v-825h-188l-328 512h-2z" />
    <glyph glyph-name="ncommaaccent" unicode="&#x146;" horiz-adv-x="661" 
d="M329 -40q37 0 63.5 -26t26.5 -64q0 -114 -130 -221l-40 31q47 45 59 110q-29 7 -48 29t-19 51q0 37 26 63.5t62 26.5zM60 0v513h177v-54h2q69 69 147 69q38 0 75.5 -10t72 -31t56 -59.5t21.5 -89.5v-338h-177v290q0 40 -25.5 70t-66.5 30q-40 0 -72.5 -31t-32.5 -69v-290
h-177z" />
    <glyph glyph-name="Ncaron" unicode="&#x147;" horiz-adv-x="826" 
d="M248 512v-512h-188v825h188l328 -512h2v512h188v-825h-188l-328 512h-2zM260 1152l153 -112l153 112l68 -91l-221 -162l-221 162z" />
    <glyph glyph-name="ncaron" unicode="&#x148;" horiz-adv-x="661" 
d="M237 0v290q0 38 32.5 69t72.5 31q41 0 66.5 -30t25.5 -70v-290h177v338q0 51 -21.5 89.5t-56 59.5t-72 31t-75.5 10q-78 0 -147 -69h-2v54h-177v-513h177zM177 840l153 -112l153 112l68 -91l-221 -162l-221 162z" />
    <glyph glyph-name="napostrophe" unicode="&#x149;" horiz-adv-x="751" 
d="M327 0v290q0 25 15 48.5t39.5 37.5t50.5 14q41 0 66.5 -30t25.5 -70v-290h177v338q0 41 -14.5 74.5t-37.5 54.5t-53.5 35t-60.5 20t-59 6q-78 0 -147 -69h-2v54h-177v-513h177zM50 580l152 222l118 -88l-196 -194z" />
    <glyph glyph-name="Eng" unicode="&#x14a;" horiz-adv-x="855" 
d="M262 512v-512h-188v825h188l328 -512h2v512h188v-825v-246l-338 -33l16 110l134 53v116l-328 512h-2z" />
    <glyph glyph-name="eng" unicode="&#x14b;" horiz-adv-x="699" 
d="M74 0v513h177v-54h2q69 69 147 69q38 0 75.5 -10t72 -31t56 -59.5t21.5 -89.5v-338v-240l-330 -39l16 110l134 53l3 116v290q0 40 -25.5 70t-66.5 30q-40 0 -72.5 -31t-32.5 -69v-290h-177z" />
    <glyph glyph-name="Omacron" unicode="&#x14c;" horiz-adv-x="877" 
d="M226 413q0 -65 20 -118.5t70 -90.5t123 -37q105 0 158.5 72t53.5 174q0 101 -54.5 173.5t-157.5 72.5q-102 0 -157.5 -72.5t-55.5 -173.5zM23 413q0 179 122 303t294 124q173 0 294 -123.5t121 -303.5q0 -181 -119 -304.5t-296 -123.5q-181 0 -298.5 122.5t-117.5 305.5z
M234 1066h408v-120h-408v120z" />
    <glyph glyph-name="omacron" unicode="&#x14d;" horiz-adv-x="661" 
d="M211 256q0 53 34.5 87t85.5 34q50 0 84.5 -34t34.5 -87q0 -52 -33.5 -86t-85.5 -34q-54 0 -87 33.5t-33 86.5zM23 256q0 -119 85.5 -195t223.5 -76q133 0 219.5 76.5t86.5 194.5t-88.5 195t-217.5 77q-131 0 -220 -76.5t-89 -195.5zM126 754h408v-120h-408v120z" />
    <glyph glyph-name="Obreve" unicode="&#x14e;" horiz-adv-x="961" 
d="M268 413q0 -65 20 -118.5t70 -90.5t123 -37q105 0 158.5 72t53.5 174q0 101 -54.5 173.5t-157.5 72.5q-102 0 -157.5 -72.5t-55.5 -173.5zM65 413q0 179 122 303t294 124q173 0 294 -123.5t121 -303.5q0 -181 -119 -304.5t-296 -123.5q-181 0 -298.5 122.5t-117.5 305.5z
M585 1116l126 -31q-9 -81 -72 -131t-159 -50t-159 50t-72 131l126 31q0 -4 1.5 -11t8.5 -25t17.5 -31.5t31 -24.5t46.5 -11t46.5 10.5t31 25.5t17.5 30.5t9 26.5z" />
    <glyph glyph-name="obreve" unicode="&#x14f;" horiz-adv-x="744" 
d="M252 256q0 53 35 87t85 34q25 0 47 -9t38 -25t25.5 -38.5t9.5 -48.5q0 -52 -34 -86t-86 -34q-53 0 -86.5 33.5t-33.5 86.5zM64 256q0 -119 86 -195t224 -76q132 0 219 76.5t87 194.5t-88.5 195t-217.5 77q-132 0 -221 -76.5t-89 -195.5zM478 806l126 -31q-9 -81 -72 -131
t-158.5 -50t-158.5 50t-73 131l126 31q1 -4 2.5 -11t8.5 -25t17 -31.5t30.5 -24.5t47 -11t47 10.5t31 25.5t17 30.5t8.5 25.5z" />
    <glyph glyph-name="Ohungarumlaut" unicode="&#x150;" horiz-adv-x="877" 
d="M226 413q0 -65 20 -118.5t70 -90.5t123 -37q105 0 158.5 72t53.5 174q0 101 -54.5 173.5t-157.5 72.5q-102 0 -157.5 -72.5t-55.5 -173.5zM23 413q0 179 122 303t294 124q173 0 294 -123.5t121 -303.5q0 -181 -119 -304.5t-296 -123.5q-181 0 -298.5 122.5t-117.5 305.5z
M442 976l173 196l82 -104l-199 -169zM231 976l173 196l82 -104l-199 -169z" />
    <glyph glyph-name="ohungarumlaut" unicode="&#x151;" horiz-adv-x="661" 
d="M211 256q0 53 34.5 87t85.5 34q50 0 84.5 -34t34.5 -87q0 -52 -33.5 -86t-85.5 -34q-54 0 -87 33.5t-33 86.5zM23 256q0 -119 85.5 -195t223.5 -76q133 0 219.5 76.5t86.5 194.5t-88.5 195t-217.5 77q-131 0 -220 -76.5t-89 -195.5zM334 664l173 196l82 -104l-199 -169z
M123 664l173 196l82 -104l-199 -169z" />
    <glyph glyph-name="OE" unicode="&#x152;" horiz-adv-x="1010" 
d="M490 657h-29q-104 0 -169.5 -70t-65.5 -174q0 -105 65.5 -175t169.5 -70h29v489zM678 660v-164h272v-165h-272v-166h284v-165h-523q-173 0 -294.5 117t-121.5 295t121.5 295.5t294.5 117.5h523v-165h-284z" />
    <glyph glyph-name="oe" unicode="&#x153;" horiz-adv-x="1021" 
d="M208 256q0 -53 33 -86.5t87 -33.5q52 0 85.5 34t33.5 86q0 53 -34.5 87t-84.5 34q-51 0 -85.5 -34t-34.5 -87zM630 330h195q-6 40 -31.5 61.5t-65.5 21.5q-44 0 -70 -23t-28 -60zM997 232h-372q0 -54 35 -80t76 -26q43 0 68 11.5t57 45.5l128 -64q-80 -134 -266 -134
q-53 0 -103.5 20.5t-74.5 40.5l-24 20q-3 -3 -8 -8.5t-24 -19.5t-39.5 -24.5t-54 -19.5t-69.5 -9q-137 0 -220 75.5t-83 195.5q0 119 86 195.5t217 76.5q34 0 67 -8.5t55 -20.5t39 -24t25 -21l8 -8q3 3 9 8.5t25.5 20t41.5 25t56.5 19.5t70.5 9q122 0 198.5 -70.5
t76.5 -201.5q0 -18 -1 -24z" />
    <glyph glyph-name="Racute" unicode="&#x154;" horiz-adv-x="716" 
d="M248 459h22q26 0 44 1t41 7t37 17t24 32t10 51t-10 51t-24 32t-37 17t-41 7t-44 1h-22v-216zM60 825h295q119 0 194 -63.5t75 -181.5q0 -91 -45.5 -152.5t-123.5 -86.5l284 -341h-239l-252 326v-326h-188v825zM211 976l203 176l91 -115l-238 -138z" />
    <glyph glyph-name="racute" unicode="&#x155;" horiz-adv-x="498" 
d="M237 0v270q0 8 4 22t13.5 34t32.5 34t55 14q26 0 49 -7t33 -14l10 -7l74 150q-46 32 -112 32q-28 0 -54.5 -9t-44.5 -22t-31.5 -26.5t-19.5 -22.5l-7 -9h-2v74h-177v-513h177zM150 664l203 176l91 -115l-238 -138z" />
    <glyph glyph-name="Rcommaaccent" unicode="&#x156;" horiz-adv-x="716" 
d="M357 -40q-36 0 -62 -26.5t-26 -63.5q0 -29 19 -51t48 -29q-5 -29 -20 -56.5t-27 -40.5l-12 -13l40 -31q130 107 130 221q0 38 -26.5 64t-63.5 26zM248 459h22q26 0 44 1t41 7t37 17t24 32t10 51t-10 51t-24 32t-37 17t-41 7t-44 1h-22v-216zM60 825h295q119 0 194 -63.5
t75 -181.5q0 -91 -45.5 -152.5t-123.5 -86.5l284 -341h-239l-252 326v-326h-188v825z" />
    <glyph glyph-name="rcommaaccent" unicode="&#x157;" horiz-adv-x="498" 
d="M148 -40q38 0 64 -26t26 -64q0 -114 -130 -221l-40 31q47 45 59 110q-29 7 -48 29t-19 51q0 37 26 63.5t62 26.5zM60 0v513h177v-74h2q2 4 6.5 10t19.5 21t32 27t44 21.5t55 9.5q29 0 57 -8t41 -16l14 -8l-74 -150q-33 28 -92 28q-32 0 -55 -14t-32.5 -34t-13.5 -34
t-4 -22v-270h-177z" />
    <glyph glyph-name="Rcaron" unicode="&#x158;" horiz-adv-x="716" 
d="M248 459h22q26 0 44 1t41 7t37 17t24 32t10 51t-10 51t-24 32t-37 17t-41 7t-44 1h-22v-216zM60 825h295q119 0 194 -63.5t75 -181.5q0 -91 -45.5 -152.5t-123.5 -86.5l284 -341h-239l-252 326v-326h-188v825zM171 1152l153 -112l153 112l68 -91l-221 -162l-221 162z" />
    <glyph glyph-name="rcaron" unicode="&#x159;" horiz-adv-x="498" 
d="M237 0v270q0 8 4 22t13.5 34t32.5 34t55 14q26 0 49 -7t33 -14l10 -7l74 150q-46 32 -112 32q-28 0 -54.5 -9t-44.5 -22t-31.5 -26.5t-19.5 -22.5l-7 -9h-2v74h-177v-513h177zM96 840l153 -112l153 112l68 -91l-221 -162l-221 162z" />
    <glyph glyph-name="Sacute" unicode="&#x15a;" horiz-adv-x="672" 
d="M364 840q67 0 131 -19.5t95 -38.5l30 -20l-76 -150q-9 6 -25 15.5t-60 25.5t-82 16q-47 0 -72.5 -20t-25.5 -54q0 -17 12 -31.5t41 -31t51 -26.5t68 -30q80 -34 136.5 -92.5t56.5 -132.5q0 -71 -25.5 -124t-70 -83t-98.5 -44.5t-117 -14.5q-54 0 -106 11t-87 27.5
t-63 32.5t-41 27l-13 11l94 158q12 -10 33 -25.5t74.5 -41.5t94.5 -26q119 0 119 81q0 17 -8.5 31.5t-30 29t-38 23t-54 26t-55.5 26.5q-75 37 -116 92.5t-41 119.5q0 111 82 181.5t187 70.5zM189 976l203 176l91 -115l-238 -138z" />
    <glyph glyph-name="sacute" unicode="&#x15b;" horiz-adv-x="492" 
d="M283 528q44 0 87 -10t64 -20l21 -10l-58 -116q-60 32 -114 32q-30 0 -42.5 -6.5t-12.5 -24.5q0 -4 1 -8t4 -7.5t5.5 -6t8.5 -5.5t9.5 -4.5t11.5 -4.5l12 -4.5t13.5 -4.5t14.5 -4q31 -9 54 -20t48.5 -30t39.5 -48t14 -66q0 -175 -243 -175q-55 0 -104.5 17t-71.5 34
l-22 18l72 121q8 -7 21 -16.5t47 -26t59 -16.5q55 0 55 37q0 17 -14 26.5t-47.5 21.5t-52.5 22q-48 25 -76 56.5t-28 83.5q0 78 60.5 121.5t163.5 43.5zM139 664l203 176l91 -115l-238 -138z" />
    <glyph glyph-name="Scircumflex" unicode="&#x15c;" horiz-adv-x="719" 
d="M390 840q67 0 131 -19.5t95 -38.5l30 -20l-76 -150q-9 6 -25 15.5t-60 25.5t-82 16q-47 0 -72.5 -20t-25.5 -54q0 -17 12 -31.5t41 -31t51 -26.5t68 -30q80 -34 136.5 -92.5t56.5 -132.5q0 -71 -25.5 -124t-70 -83t-98.5 -44.5t-117 -14.5q-54 0 -106 11t-87 27.5
t-63 32.5t-41 27l-13 11l94 158q12 -10 33 -25.5t74.5 -41.5t94.5 -26q119 0 119 81q0 17 -8.5 31.5t-30 29t-38 23t-54 26t-55.5 26.5q-75 37 -116 92.5t-41 119.5q0 111 82 181.5t187 70.5zM164 975l221 162l221 -162l-68 -91l-153 112l-153 -112z" />
    <glyph glyph-name="scircumflex" unicode="&#x15d;" horiz-adv-x="556" 
d="M316 528q27 0 55 -4t48 -10t36 -12t24 -10l9 -4l-58 -116q-61 32 -114 32q-30 0 -43 -6.5t-13 -24.5q0 -4 1.5 -8t4.5 -7.5t5.5 -6t8 -5.5t9.5 -4.5t11.5 -4.5t12 -4.5t14 -4.5t13.5 -4q31 -9 54.5 -20t49 -30t39 -48t13.5 -66q0 -175 -242 -175q-26 0 -50.5 4t-43.5 10
t-36.5 13.5t-29.5 14.5t-21 13t-13 10l-4 4l72 121q7 -7 20.5 -16.5t47 -26t58.5 -16.5q16 0 26.5 2t20 10.5t9.5 24.5q0 17 -14 26.5t-48 21.5t-52 22q-31 16 -51.5 31.5t-36.5 44t-16 64.5q0 78 60.5 121.5t163.5 43.5zM58 654l222 162l220 -162l-68 -91l-152 112
l-154 -112z" />
    <glyph glyph-name="Scedilla" unicode="&#x15e;" horiz-adv-x="723" 
d="M392 840q67 0 131 -19.5t95 -38.5l30 -20l-76 -150q-9 6 -25 15.5t-60 25.5t-82 16q-47 0 -72.5 -20t-25.5 -54q0 -17 12 -31.5t41 -31t51 -26.5t68 -30q80 -34 136.5 -92.5t56.5 -132.5q0 -71 -25.5 -124t-70 -83t-98.5 -44.5t-117 -14.5q-54 0 -106 11t-87 27.5
t-63 32.5t-41 27l-13 11l94 158q12 -10 33 -25.5t74.5 -41.5t94.5 -26q119 0 119 81q0 17 -8.5 31.5t-30 29t-38 23t-54 26t-55.5 26.5q-75 37 -116 92.5t-41 119.5q0 111 82 181.5t187 70.5zM362 -40q-36 0 -62 -26.5t-26 -63.5q0 -29 19 -51t48 -29q-5 -29 -20 -56.5
t-27 -40.5l-12 -13l40 -31q130 107 130 221q0 38 -26 64t-64 26z" />
    <glyph glyph-name="scedilla" unicode="&#x15f;" horiz-adv-x="546" 
d="M312 528q28 0 56 -4t48 -10t36 -12t24 -10l8 -4l-58 -116q-60 32 -114 32q-29 0 -41.5 -6.5t-12.5 -24.5q0 -4 1 -8t4 -7.5t5.5 -6t8 -5.5t9.5 -4.5t11.5 -4.5t12 -4.5t14 -4.5t14.5 -4q30 -9 53.5 -20t49 -30t39.5 -48t14 -66q0 -175 -244 -175q-34 0 -67.5 7t-56 17
t-40 20.5t-25.5 17.5l-9 7l72 121q8 -7 21.5 -16.5t47 -26t59.5 -16.5q15 0 25.5 2t19.5 10.5t9 24.5q0 17 -13.5 26.5t-47.5 21.5t-53 22q-48 25 -76 56.5t-28 83.5q0 78 61 121.5t163 43.5zM274 -40q-36 0 -62 -26.5t-26 -63.5q0 -29 19 -51t48 -29q-5 -29 -20 -56.5
t-27 -40.5l-12 -13l40 -31q130 107 130 221q0 38 -26 64t-64 26z" />
    <glyph glyph-name="Scaron" unicode="&#x160;" horiz-adv-x="672" 
d="M364 840q67 0 131 -19.5t95 -38.5l30 -20l-76 -150q-9 6 -25 15.5t-60 25.5t-82 16q-47 0 -72.5 -20t-25.5 -54q0 -17 12 -31.5t41 -31t51 -26.5t68 -30q80 -34 136.5 -92.5t56.5 -132.5q0 -71 -25.5 -124t-70 -83t-98.5 -44.5t-117 -14.5q-54 0 -106 11t-87 27.5
t-63 32.5t-41 27l-13 11l94 158q12 -10 33 -25.5t74.5 -41.5t94.5 -26q119 0 119 81q0 17 -8.5 31.5t-30 29t-38 23t-54 26t-55.5 26.5q-75 37 -116 92.5t-41 119.5q0 111 82 181.5t187 70.5zM183 1152l153 -112l153 112l68 -91l-221 -162l-221 162z" />
    <glyph glyph-name="scaron" unicode="&#x161;" horiz-adv-x="492" 
d="M283 528q44 0 87 -10t64 -20l21 -10l-58 -116q-60 32 -114 32q-30 0 -42.5 -6.5t-12.5 -24.5q0 -4 1 -8t4 -7.5t5.5 -6t8.5 -5.5t9.5 -4.5t11.5 -4.5l12 -4.5t13.5 -4.5t14.5 -4q31 -9 54 -20t48.5 -30t39.5 -48t14 -66q0 -175 -243 -175q-55 0 -104.5 17t-71.5 34
l-22 18l72 121q8 -7 21 -16.5t47 -26t59 -16.5q55 0 55 37q0 17 -14 26.5t-47.5 21.5t-52.5 22q-48 25 -76 56.5t-28 83.5q0 78 60.5 121.5t163.5 43.5zM93 840l153 -112l153 112l68 -91l-221 -162l-221 162z" />
    <glyph glyph-name="uni0162" unicode="&#x162;" horiz-adv-x="706" 
d="M63 660v165h580v-165h-196v-660h-188v660h-196zM353 -40q-36 0 -62 -26.5t-26 -63.5q0 -29 19 -51t48 -29q-5 -29 -20 -56.5t-27 -40.5l-12 -13l40 -31q130 107 130 221q0 38 -26.5 64t-63.5 26z" />
    <glyph glyph-name="uni0163" unicode="&#x163;" horiz-adv-x="476" 
d="M122 513v191h178v-191h108v-135h-108v-163q0 -71 40 -71q10 0 21 4t17 8l6 4l44 -143q-7 -4 -18.5 -9t-45.5 -14t-66 -9q-51 0 -87 17.5t-54.5 47t-26.5 62t-8 69.5v197h-74v135h74zM228 -40q-37 0 -62.5 -26.5t-25.5 -63.5q0 -29 18.5 -51t47.5 -29q-5 -29 -19.5 -56.5
t-26.5 -40.5l-12 -13l40 -31q130 107 130 221q0 38 -26.5 64t-63.5 26z" />
    <glyph glyph-name="Tcaron" unicode="&#x164;" horiz-adv-x="922" 
d="M66 660v165h580v-165h-196v-660h-188v660h-196zM766 938q-37 0 -62.5 -26.5t-25.5 -63.5q0 -29 18.5 -51t47.5 -29q-5 -29 -19.5 -56.5t-26.5 -40.5l-12 -13l40 -31q130 107 130 221q0 38 -26.5 64t-63.5 26z" />
    <glyph glyph-name="tcaron" unicode="&#x165;" horiz-adv-x="436" 
d="M90 513v191h177v-191h108v-135h-108v-163q0 -71 40 -71q10 0 21 4t17 8l6 4l44 -143q-57 -32 -130 -32q-50 0 -86 17.5t-54.5 47t-26.5 62t-8 69.5v197h-74v135h74zM476 824q38 0 64 -26t26 -64q0 -114 -130 -221l-40 31q47 45 59 110q-29 7 -48 29t-19 51q0 37 26 63.5
t62 26.5z" />
    <glyph glyph-name="Tbar" unicode="&#x166;" horiz-adv-x="702" 
d="M61 660v165h580v-165h-196v-146h136v-176h-136v-338h-188v338h-127v176h127v146h-196z" />
    <glyph glyph-name="tbar" unicode="&#x167;" horiz-adv-x="485" 
d="M127 546v158h177v-158h108v-135h-108v-61h108v-114h-108v-21q0 -71 40 -71q10 0 21 4t17 8l6 4l44 -143q-57 -32 -130 -32q-50 0 -86 17.5t-54.5 47t-26.5 62t-8 69.5v55h-73v114h73v61h-74v135h74z" />
    <glyph glyph-name="Utilde" unicode="&#x168;" horiz-adv-x="792" 
d="M530 825v-477q0 -100 -31.5 -139t-102.5 -39t-102.5 39t-31.5 139v477h-188v-532q0 -152 82 -230t240 -78t240 78t82 230v532h-188zM387 932q-40 19 -76 19q-14 0 -25.5 -11.5t-15.5 -23.5l-4 -11h-101q1 7 3.5 18.5t13 41t24 52.5t39 41.5t56.5 18.5q17 0 43 -6.5
t44 -13.5l17 -7q40 -19 76 -19q14 0 25.5 11.5t15.5 23.5l4 11h101q-1 -7 -3.5 -18.5t-13 -41t-24 -52.5t-39 -41.5t-56.5 -18.5q-17 0 -43 6.5t-44 13.5z" />
    <glyph glyph-name="utilde" unicode="&#x169;" horiz-adv-x="703" 
d="M74 513v-287q0 -128 66 -184.5t211.5 -56.5t212 56.5t66.5 184.5v287h-178v-244q0 -76 -22.5 -108t-78 -32t-78.5 32t-23 108v244h-176zM344 632q-40 19 -76 19q-14 0 -25 -11.5t-15 -23.5l-4 -11h-102q1 4 2 10t6 24t11.5 34t17.5 36t24.5 34t33 24t41.5 10
q18 0 44 -6.5t43 -13.5l17 -7q41 -19 76 -19q15 0 26 11.5t15 23.5l5 11h100q0 -4 -1 -10t-6 -24t-11.5 -34t-17.5 -36t-24.5 -34t-33 -24t-42.5 -10q-17 0 -43 6.5t-43 13.5z" />
    <glyph glyph-name="Umacron" unicode="&#x16a;" horiz-adv-x="744" 
d="M506 825v-477q0 -100 -31.5 -139t-102.5 -39t-102.5 39t-31.5 139v477h-188v-532q0 -152 82 -230t240 -78t240 78t82 230v532h-188zM168 1066h408v-120h-408v120z" />
    <glyph glyph-name="umacron" unicode="&#x16b;" horiz-adv-x="656" 
d="M50 513v-287q0 -128 66.5 -184.5t211.5 -56.5t211.5 56.5t66.5 184.5v287h-177v-244q0 -76 -23 -108t-78 -32t-78 32t-23 108v244h-177zM124 754h408v-120h-408v120z" />
    <glyph glyph-name="Ubreve" unicode="&#x16c;" horiz-adv-x="792" 
d="M530 825v-477q0 -100 -31.5 -139t-102.5 -39t-102.5 39t-31.5 139v477h-188v-532q0 -152 82 -230t240 -78t240 78t82 230v532h-188zM501 1104l126 -31q-9 -81 -72 -131t-159 -50t-159 50t-72 131l126 31q0 -4 1.5 -11t8.5 -25t17.5 -31.5t31 -24.5t46.5 -11t46.5 10.5
t31 25.5t17.5 30.5t9 26.5z" />
    <glyph glyph-name="ubreve" unicode="&#x16d;" horiz-adv-x="702" 
d="M73 513v-287q0 -128 66.5 -184.5t211.5 -56.5t211.5 56.5t66.5 184.5v287h-177v-244q0 -76 -23 -108t-78 -32t-78 32t-23 108v244h-177zM455 788l126 -31q-9 -81 -72 -131t-159 -50t-159 50t-72 131l126 31q0 -4 1.5 -11t8.5 -25t17.5 -31.5t31 -24.5t46.5 -11t46.5 10.5
t31 25.5t17.5 30.5t9 26.5z" />
    <glyph glyph-name="Uring" unicode="&#x16e;" horiz-adv-x="744" 
d="M694 825v-532q0 -152 -82 -230t-240 -78t-240 78t-82 230v532h188v-477q0 -100 31.5 -139t102.5 -39t102.5 39t31.5 139v477h188zM311 1045q0 -27 17 -45.5t44 -18.5q26 0 43.5 18.5t17.5 45.5q0 26 -18 44t-43 18t-43 -18.5t-18 -43.5zM211 1045q0 62 46.5 102t114.5 40
q69 0 115 -40t46 -102q0 -63 -45 -103t-116 -40q-72 0 -116.5 40t-44.5 103z" />
    <glyph glyph-name="uring" unicode="&#x16f;" horiz-adv-x="656" 
d="M227 513v-244q0 -76 23 -108t78 -32t78 32t23 108v244h177v-287q0 -128 -66.5 -184.5t-211.5 -56.5t-211.5 56.5t-66.5 184.5v287h177zM267 733q0 -27 17 -45.5t44 -18.5q26 0 43.5 18.5t17.5 45.5q0 26 -18 44t-43 18t-43 -18.5t-18 -43.5zM167 733q0 62 46.5 102
t114.5 40q69 0 115 -40t46 -102q0 -63 -45 -103t-116 -40q-72 0 -116.5 40t-44.5 103z" />
    <glyph glyph-name="Uhungarumlaut" unicode="&#x170;" horiz-adv-x="744" 
d="M506 825v-477q0 -100 -31.5 -139t-102.5 -39t-102.5 39t-31.5 139v477h-188v-532q0 -152 82 -230t240 -78t240 78t82 230v532h-188zM376 976l173 196l82 -104l-199 -169zM165 976l173 196l82 -104l-199 -169z" />
    <glyph glyph-name="uhungarumlaut" unicode="&#x171;" horiz-adv-x="656" 
d="M50 513v-287q0 -128 66.5 -184.5t211.5 -56.5t211.5 56.5t66.5 184.5v287h-177v-244q0 -76 -23 -108t-78 -32t-78 32t-23 108v244h-177zM332 664l173 196l82 -104l-199 -169zM121 664l173 196l82 -104l-199 -169z" />
    <glyph glyph-name="Uogonek" unicode="&#x172;" horiz-adv-x="744" 
d="M265 -158q0 58 69 145q-284 18 -284 306v532h188v-477q0 -100 31.5 -139t102.5 -39t102.5 39t31.5 139v477h188v-532q0 -141 -70.5 -218t-206.5 -88q-49 -66 -49 -127q0 -18 11.5 -28.5t25.5 -10.5t26.5 7.5t18.5 15.5l6 7l72 -54q-2 -3 -5.5 -8t-16 -17t-27.5 -21.5
t-38.5 -17.5t-49.5 -8q-47 0 -86.5 29t-39.5 88z" />
    <glyph glyph-name="uogonek" unicode="&#x173;" horiz-adv-x="656" 
d="M221 -158q0 62 69 144q-125 7 -182.5 64t-57.5 176v287h177v-244q0 -76 23 -108t78 -32t78 32t23 108v244h177v-287q0 -118 -56 -175t-178 -65q-48 -68 -48 -126q0 -18 11.5 -28.5t25.5 -10.5t26.5 7.5t18.5 15.5l6 7l72 -54q-2 -3 -5.5 -8t-16 -17t-27.5 -21.5
t-38.5 -17.5t-49.5 -8q-47 0 -86.5 29t-39.5 88z" />
    <glyph glyph-name="Wcircumflex" unicode="&#x174;" horiz-adv-x="1265" 
d="M765 0l-132 463l-132 -463h-209l-235 825h209l141 -566h5l150 566h142l150 -566h5l141 566h208l-235 -825h-208zM407 941l221 162l221 -162l-68 -91l-153 112l-153 -112z" />
    <glyph glyph-name="wcircumflex" unicode="&#x175;" horiz-adv-x="1144" 
d="M454 0h-120l-275 513h204l125 -277l123 277h122l123 -277l125 277h204l-275 -513h-120l-118 265zM342 649l221 162l221 -162l-68 -91l-153 112l-153 -112z" />
    <glyph glyph-name="Ycircumflex" unicode="&#x176;" horiz-adv-x="911" 
d="M58 825h226l172 -264l172 264h226l-304 -455v-370h-188v370zM238 962l220 162l222 -162l-68 -91l-154 112l-152 -112z" />
    <glyph glyph-name="ycircumflex" unicode="&#x177;" horiz-adv-x="794" 
d="M530 513h204l-404 -773h-204l178 340l-244 433h204l144 -263zM176 662l220 162l222 -162l-68 -91l-154 112l-152 -112z" />
    <glyph glyph-name="Ydieresis" unicode="&#x178;" horiz-adv-x="736" 
d="M-30 825h226l172 -264l172 264h226l-304 -455v-370h-188v370zM486 1103q38 0 65 -27t27 -65t-27 -65t-65 -27t-65 27t-27 65t27 65t65 27zM249 1103q38 0 65 -27t27 -65t-27 -65t-65 -27t-65 27t-27 65t27 65t65 27z" />
    <glyph glyph-name="Zacute" unicode="&#x179;" horiz-adv-x="769" 
d="M753 825l-409 -660h382v-165h-710l408 660h-350v165h679zM237 976l203 176l91 -115l-238 -138z" />
    <glyph glyph-name="zacute" unicode="&#x17a;" horiz-adv-x="561" 
d="M556 513l-254 -378h234v-135h-531l254 378h-212v135h509zM190 664l203 176l91 -115l-238 -138z" />
    <glyph glyph-name="Zdotaccent" unicode="&#x17b;" horiz-adv-x="769" 
d="M753 825l-409 -660h382v-165h-710l408 660h-350v165h679zM384 1103q38 0 65 -27t27 -65t-27 -65t-65 -27t-65 27t-27 65t27 65t65 27z" />
    <glyph glyph-name="zdotaccent" unicode="&#x17c;" horiz-adv-x="561" 
d="M556 513l-254 -378h234v-135h-531l254 378h-212v135h509zM280 791q38 0 65 -27t27 -65t-27 -65t-65 -27t-65 27t-27 65t27 65t65 27z" />
    <glyph glyph-name="Zcaron" unicode="&#x17d;" horiz-adv-x="769" 
d="M753 825l-409 -660h382v-165h-710l408 660h-350v165h679zM231 1152l153 -112l153 112l68 -91l-221 -162l-221 162z" />
    <glyph glyph-name="zcaron" unicode="&#x17e;" horiz-adv-x="561" 
d="M556 513l-254 -378h234v-135h-531l254 378h-212v135h509zM128 840l153 -112l153 112l68 -91l-221 -162l-221 162z" />
    <glyph glyph-name="longs" unicode="&#x17f;" horiz-adv-x="643" 
d="M184 740v120h177h231v-120h-231v-740h-177v468h-133v135h133v137z" />
    <glyph glyph-name="uni0180" unicode="&#x180;" 
d="M472 256q0 53 -34.5 87t-85.5 34q-50 0 -84.5 -34t-34.5 -87q0 -52 33.5 -86t85.5 -34q54 0 87 33.5t33 86.5zM660 256q0 -114 -72 -192.5t-183 -78.5q-102 0 -168 73h-2v-58h-175v860h177v-396q66 64 168 64q111 0 183 -79t72 -193z" />
    <glyph glyph-name="uni0181" unicode="&#x181;" horiz-adv-x="753" 
d="M310 145h59q138 0 138 92q0 55 -34.5 79t-103.5 24h-59v-195zM310 502h15q63 0 94 22t31 72q0 84 -125 84h-15v-178zM122 825h256q116 0 185 -49.5t69 -160.5q0 -124 -103 -177q176 -31 176 -208q0 -104 -72 -167t-198 -63h-313v510l-74 125z" />
    <glyph glyph-name="uni0182" unicode="&#x182;" horiz-adv-x="727" 
d="M260 369h53q63 0 103.5 -25.5t40.5 -83.5q0 -59 -40.5 -84.5t-103.5 -25.5h-53v219zM72 0h301q126 0 204 65t78 189t-79 194.5t-203 70.5h-113v221h198v120h-386v-35v-85v-740z" />
    <glyph glyph-name="uni0183" unicode="&#x183;" horiz-adv-x="743" 
d="M484 256q0 -53 -33.5 -86.5t-86.5 -33.5q-52 0 -86 34t-34 86.5t34.5 86.5t85.5 34q50 0 85 -34t35 -87zM672 256q0 114 -72.5 193t-183.5 79q-102 0 -168 -64v276h210v120h-210h-176v-120v-740h174v58h2q30 -33 74 -53t94 -20q111 0 183.5 78.5t72.5 192.5z" />
    <glyph glyph-name="uni0184" unicode="&#x184;" horiz-adv-x="756" 
d="M312 369h54q63 0 103.5 -25.5t40.5 -83.5q0 -59 -40.5 -84.5t-103.5 -25.5h-54v219zM124 0h302q126 0 204 65t78 189t-79 194.5t-203 70.5h-114v306h-188l-76 -190l76 -125v-510z" />
    <glyph glyph-name="uni0185" unicode="&#x185;" horiz-adv-x="772" 
d="M536 256q0 -53 -33 -86.5t-87 -33.5q-52 0 -85.5 34t-33.5 86q0 53 34.5 87t84.5 34q51 0 85.5 -34t34.5 -87zM724 256q0 114 -72 193t-183 79q-102 0 -168 -64v396h-177l-76 -226l76 -123v-511h175v58h2q66 -73 168 -73q111 0 183 78.5t72 192.5z" />
    <glyph glyph-name="uni0186" unicode="&#x186;" horiz-adv-x="820" 
d="M293 655q-43 0 -83.5 -12.5t-59.5 -25.5l-19 -13l-80 160q4 3 11 8t32.5 18.5t54.5 23.5t76 18t97 8q115 0 218 -56.5t166 -155.5t63 -214q0 -87 -37 -167t-98.5 -137t-143.5 -91t-168 -34q-80 0 -147.5 19t-95.5 38l-28 19l80 160q7 -6 21 -14.5t56 -22.5t85 -14
q68 0 122 22t85.5 58t48 77.5t16.5 84.5q0 94 -70.5 168.5t-201.5 74.5z" />
    <glyph glyph-name="uni0189" unicode="&#x189;" horiz-adv-x="776" 
d="M286 489h109v-153h-109v-168h29q103 0 168.5 69.5t66.5 174.5q0 105 -65.5 175t-169.5 70h-29v-168zM98 489v336h239q172 0 294 -117.5t122 -294.5q0 -178 -121.5 -295.5t-294.5 -117.5h-239v336h-82v153h82z" />
    <glyph glyph-name="uni018A" unicode="&#x18a;" horiz-adv-x="847" 
d="M332 168h29q103 0 168.5 69.5t66.5 174.5q0 105 -65.5 175t-169.5 70h-29v-489zM144 825h239q172 0 294 -117.5t122 -294.5q0 -178 -121.5 -295.5t-294.5 -117.5h-239v490l-96 125z" />
    <glyph glyph-name="uni018B" unicode="&#x18b;" horiz-adv-x="728" 
d="M468 369h-54q-63 0 -103.5 -25.5t-40.5 -83.5q0 -59 40.5 -84.5t103.5 -25.5h54v219zM656 0h-302q-126 0 -204 65t-78 189t79 194.5t203 70.5h114v221h-198v120h386v-35v-85v-740z" />
    <glyph glyph-name="uni018C" unicode="&#x18c;" horiz-adv-x="745" 
d="M260 256q0 -53 33.5 -86.5t86.5 -33.5q52 0 86 34t34 86.5t-34.5 86.5t-85.5 34q-50 0 -85 -34t-35 -87zM72 256q0 114 72.5 193t183.5 79q102 0 168 -64v276h-210v120h210h176v-120v-740h-174v58h-2q-30 -33 -74 -53t-94 -20q-111 0 -183.5 78.5t-72.5 192.5z" />
    <glyph glyph-name="uni018E" unicode="&#x18e;" horiz-adv-x="620" 
d="M74 825v-165h284v-164h-272v-165h272v-166h-284v-165h472v825h-472z" />
    <glyph glyph-name="uni018F" unicode="&#x18f;" horiz-adv-x="836" 
d="M530 231h-244q8 -50 40 -77t81 -27q56 0 88 29t35 75zM71 353h465q0 24 -6 44t-17 34.5t-25 25t-30 17t-31 9.5t-30 3q-53 0 -84.5 -14.5t-71.5 -57.5l-160 80q100 168 333 168q71 0 136 -27t112.5 -72.5t75.5 -108t28 -131.5q0 -92 -47.5 -170.5t-128.5 -124t-176 -45.5
q-100 0 -176.5 37.5t-122 115.5t-45.5 187q0 23 1 30z" />
    <glyph glyph-name="uni0190" unicode="&#x190;" horiz-adv-x="727" 
d="M484 587l148 72q-1 4 -3 10.5t-11 25t-21 36t-34 38t-49 35.5t-67.5 25.5t-88.5 10.5q-117 0 -193.5 -67.5t-76.5 -172.5q0 -98 72 -155q-104 -64 -104 -189q0 -118 86.5 -194.5t219.5 -76.5q51 0 96.5 11t76 29t55.5 39.5t39.5 43.5t24.5 40t14 29l4 11l-174 85
q-1 -5 -2.5 -13.5t-10 -30.5t-21.5 -38.5t-40 -30t-61.5 -13.5t-61.5 12.5t-42 37.5t-15 59q0 53 34 87t84 34q9 0 18 -1.5t14 -3.5l4 -1v123h-40q-39 0 -69.5 30t-30.5 74q0 39 31 65t71 26q22 0 40 -5.5t30.5 -14.5t22 -20t15.5 -22t9.5 -20t4.5 -14z" />
    <glyph glyph-name="uni0194" unicode="&#x194;" horiz-adv-x="976" 
d="M678 0h-390h-59h-174l312 444l-260 381h224l152 -225l152 225h234l-270 -381l322 -444h-179h-64zM595 120l-112 161l-112 -161h224z" />
    <glyph glyph-name="uni0195" unicode="&#x195;" horiz-adv-x="1080" 
d="M74 0v860h177v-401h2q69 69 147 69q30 0 60 -6t60 -20t53.5 -35t37.5 -54.5t14 -74.5l1 -90v-112q0 -76 23 -108t78.5 -32t78.5 32t22 108v392h177v-435q1 -128 -65.5 -184.5t-212 -56.5t-212 56.5t-66.5 184.5v194l-1 3q0 40 -25 70t-67 30q-39 0 -72 -31t-33 -69v-290
h-177z" />
    <glyph glyph-name="uni0196" unicode="&#x196;" horiz-adv-x="395" 
d="M54 1008l3 -808v-1q-1 -18 0 -32v-19q3 -67 21.5 -96t69.5 -49q7 -3 20 -3.5t26 -0.5t42.5 0.5t54.5 0.5q12 9 24.5 37.5t18.5 51.5l6 24q-4 6 -37.5 17t-38.5 15q-3 3 -9.5 9t-9.5 9.5t-6.5 8.5t-5 9.5t-1.5 9.5v817h-178z" />
    <glyph glyph-name="uni0197" unicode="&#x197;" horiz-adv-x="636" 
d="M412 350v-350h-188v350h-149v116h149v359h188v-359h149v-116h-149z" />
    <glyph glyph-name="uni019A" unicode="&#x19a;" horiz-adv-x="488" 
d="M156 350h-83v116h83v394h177v-394h82v-116h-82v-350h-177v350z" />
    <glyph glyph-name="uni019C" unicode="&#x19c;" horiz-adv-x="1044" 
d="M253 825l39 -489h5l169 484h112l169 -484h5l39 489h188l-74 -825h-200l-183 476l-183 -476h-200l-74 825h188z" />
    <glyph glyph-name="uni019E" unicode="&#x19e;" horiz-adv-x="699" 
d="M74 0v513h177v-54h2q69 69 147 69q38 0 75.5 -10t72 -31t56 -59.5t21.5 -89.5v-509h-177v290q0 59 -27.5 165t-64.5 106q-40 0 -72.5 -31t-32.5 -69v-290h-177z" />
    <glyph glyph-name="uni019F" unicode="&#x19f;" horiz-adv-x="972" 
d="M70 413q0 89 33.5 168.5t89.5 136t133 89.5t160 33q114 0 209 -56t151 -154.5t56 -216.5q0 -119 -54 -217t-149.5 -154.5t-212.5 -56.5q-119 0 -214.5 56.5t-148.5 154t-53 217.5zM277 363q12 -86 64 -141t145 -55q92 0 144.5 55.5t64.5 140.5h-418zM695 459
q-7 55 -31 99t-70 72.5t-108 28.5q-89 0 -143 -57t-66 -143h418z" />
    <glyph glyph-name="uni01A7" unicode="&#x1a7;" horiz-adv-x="723" 
d="M331 840q-67 0 -131 -19.5t-94 -38.5l-31 -20l76 -150q9 6 25 15.5t60 25.5t82 16q47 0 72.5 -20t25.5 -54q0 -17 -12 -31.5t-41 -31t-51 -26.5t-68 -30q-80 -34 -136.5 -92.5t-56.5 -132.5q0 -71 25.5 -124t70 -83t98.5 -44.5t117 -14.5q54 0 106 11t87 27.5t63 32.5
t41 27l13 11l-94 158q-12 -10 -33 -25.5t-74.5 -41.5t-94.5 -26q-119 0 -119 81q0 17 8.5 31.5t30 29t38 23t54 26t55.5 26.5q75 37 116 92.5t41 119.5q0 111 -82 181.5t-187 70.5z" />
    <glyph glyph-name="uni01A8" unicode="&#x1a8;" horiz-adv-x="547" 
d="M234 528q-44 0 -87 -10t-64 -20l-21 -10l58 -116q60 32 114 32q30 0 42.5 -6.5t12.5 -24.5q0 -4 -1 -8t-4 -7.5t-5.5 -6t-8.5 -5.5t-9.5 -4.5t-11.5 -4.5l-12 -4.5t-13.5 -4.5t-14.5 -4q-31 -9 -54 -20t-48.5 -30t-39.5 -48t-14 -66q0 -175 243 -175q55 0 104.5 17
t71.5 34l22 18l-72 121q-8 -7 -21 -16.5t-47 -26t-59 -16.5q-55 0 -55 37q0 17 14 26.5t47.5 21.5t52.5 22q48 25 76 56.5t28 83.5q0 78 -60.5 121.5t-163.5 43.5z" />
    <glyph glyph-name="uni01A9" unicode="&#x1a9;" horiz-adv-x="643" 
d="M569 655l-293 -35v-5l162 -152v-101l-162 -152v-4l293 -36v-169l-495 67v180l158 164l-158 165v180l495 67v-169z" />
    <glyph glyph-name="uni01B1" unicode="&#x1b1;" horiz-adv-x="1032" 
d="M714 478q0 15 -3 31t-8 30t-11.5 27.5t-13.5 25t-14 21.5t-13.5 17.5t-11.5 13t-8 8.5l-3 3l1 117h331v-117h-122q33 -92 33 -206q0 -115 -48 -218t-132 -166t-182 -63t-182.5 62.5t-133 165.5t-48.5 219q0 114 33 206h-106l1 117h331v-117h-5l1 -1q-2 -2 -5.5 -5
t-13.5 -13t-19.5 -21t-21 -27.5t-19.5 -32.5t-13.5 -36.5t-5.5 -40.5q0 -68 18.5 -122t49 -85.5t66 -48t72.5 -16.5q36 0 71.5 16.5t66.5 48t49.5 85.5t18.5 122z" />
    <glyph glyph-name="uni01B2" unicode="&#x1b2;" horiz-adv-x="790" 
d="M602 675l110 -382q20 -72 2.5 -129.5t-64 -97t-114 -60.5t-146.5 -21q-158 0 -240 78t-82 230v532h188v-477q0 -68 14.5 -107.5t43 -55t76.5 -15.5q36 0 65.5 10t51.5 31t26.5 55t-9.5 82l-110 327h188z" />
    <glyph glyph-name="uni01B4" unicode="&#x1b4;" horiz-adv-x="918" 
d="M663 382l-335 -642h-204l177 340l-243 433h204l143 -263l122 263h333l-68 -133z" />
    <glyph glyph-name="uni01B5" unicode="&#x1b5;" horiz-adv-x="839" 
d="M494 350l-115 -185h382v-165h-710l216 350h-86v116h158l120 194h-350v165h679l-222 -359h101v-116h-173z" />
    <glyph glyph-name="uni01B6" unicode="&#x1b6;" horiz-adv-x="653" 
d="M401 214l-53 -79h234v-135h-531l143 214h-48v86h107l52 78h-212v135h509l-143 -213h51v-86h-109z" />
    <glyph glyph-name="uni01B7" unicode="&#x1b7;" horiz-adv-x="726" 
d="M243 639l-148 201h273q18 0 50 1t48 1t41.5 -2t38.5 -8t31 -17t27 -29t18.5 -43t13 -61t3.5 -82q0 -98 -73 -155q105 -64 105 -189q0 -118 -86.5 -194.5t-219.5 -76.5q-71 0 -129 21t-90.5 50.5t-54 59.5t-29.5 51l-7 21l174 85q0 -5 1.5 -13.5t10.5 -30.5t22 -38.5
t39.5 -30t61.5 -13.5q53 0 86 29t33 80q0 53 -34.5 87t-84.5 34l-36 -6v123h41q39 0 69 30t30 74q0 39 -30.5 65t-71.5 26q-29 0 -52.5 -5t-36 -12.5t-21 -15t-10.5 -12.5z" />
    <glyph glyph-name="uni01B8" unicode="&#x1b8;" horiz-adv-x="727" 
d="M484 639l148 201h-274q-17 0 -51 1h-72.5t-61 -12t-46.5 -36t-29 -72.5t-10 -120.5q0 -98 72 -155q-104 -64 -104 -189q0 -118 86.5 -194.5t219.5 -76.5q51 0 96.5 11t76 29t55.5 39.5t39.5 43.5t24.5 40t14 29l4 11l-174 85q-1 -5 -2.5 -13.5t-10 -30.5t-21.5 -38.5
t-40 -30t-61.5 -13.5t-61.5 12.5t-42 37.5t-15 59q0 53 34 87t84 34q9 0 18 -1.5t14 -3.5l4 -1v123h-40q-39 0 -69.5 30t-30.5 74q0 39 31 65t71 26q22 0 40 -3t30.5 -7t22 -9.5t15.5 -11t9.5 -9.5t4.5 -7z" />
    <glyph glyph-name="uni01B9" unicode="&#x1b9;" horiz-adv-x="637" 
d="M420 557l126 171h-232q-15 0 -38.5 0.5t-36.5 1t-33 -0.5t-31 -4.5t-26 -10t-23 -16.5t-17.5 -25.5t-14 -36.5t-7.5 -49t-3 -63q0 -84 62 -132q-89 -54 -89 -161q0 -100 73.5 -165t186.5 -65q44 0 82.5 9.5t64.5 25t47 33.5t33.5 36.5t21 34t11.5 24.5l3 10l-148 72
q0 -4 -1 -11.5t-8.5 -26t-18.5 -32.5t-34 -25.5t-52 -11.5q-45 0 -73.5 24.5t-28.5 67.5q0 45 29.5 74t72.5 29q7 0 15 -1t11 -3l4 -1v105h-35q-33 0 -58.5 25.5t-25.5 62.5q0 33 26 55.5t61 22.5q25 0 44.5 -4.5t30.5 -11t18 -12.5t9 -11z" />
    <glyph glyph-name="uni01BB" unicode="&#x1bb;" horiz-adv-x="777" 
d="M375 681q-40 0 -76.5 -39.5t-53.5 -78.5l-17 -39l-157 76q3 10 10 26t33 57.5t57.5 73t86 57.5t117.5 26q81 0 141.5 -20.5t93.5 -51t53.5 -72t26 -75.5t5.5 -71q0 -78 -63 -169h72v-116h-175q-29 -27 -60.5 -52t-47.5 -37l-17 -11h306v-165h-643v47q122 101 236 218
h-188v116h291q86 109 86 169q0 17 -3.5 34t-13.5 41.5t-36 40t-64 15.5z" />
    <glyph glyph-name="uni01BC" unicode="&#x1bc;" horiz-adv-x="701" 
d="M50 164l150 72q12 -42 48 -68t96 -26q52 0 85 34t33 86q0 39 -18 68t-49 45.5t-67.5 24t-79.5 7.5q-81 0 -140 -26l68 444h470v-165h-308l-18 -115q3 0 10.5 0.5t11.5 0.5q42 0 78 -6t71.5 -18.5t63.5 -35t50 -53.5t33.5 -76t11.5 -101q0 -118 -86.5 -194.5t-219.5 -76.5
q-63 0 -115 16t-86.5 42.5t-57 56.5t-35.5 64z" />
    <glyph glyph-name="uni01BD" unicode="&#x1bd;" horiz-adv-x="612" 
d="M51 136l127 61q10 -35 40.5 -57.5t82.5 -22.5q43 0 71.5 29t28.5 73q0 34 -15 58.5t-42 38.5t-58 20.5t-67 6.5q-69 0 -120 -22l59 377h358v-140h-221l-15 -98q3 0 9.5 0.5t9.5 0.5q42 0 78.5 -7t71 -24.5t59 -44.5t39 -70.5t14.5 -100.5q0 -100 -73.5 -165t-186.5 -65
q-43 0 -80.5 9t-64.5 24t-48.5 35t-35 40.5t-21.5 43.5z" />
    <glyph glyph-name="uni01BF" unicode="&#x1bf;" horiz-adv-x="611" 
d="M185 705v-445v102l198 121l-198 120v102zM185 705l365 -222l-365 -223v-258h-124v701z" />
    <glyph glyph-name="uni01C0" unicode="&#x1c0;" horiz-adv-x="287" 
d="M75 0v860h137v-860h-137z" />
    <glyph glyph-name="uni01C1" unicode="&#x1c1;" horiz-adv-x="517" 
d="M75 0v860h137v-860h-137zM305 0v860h137v-860h-137z" />
    <glyph glyph-name="uni01C2" unicode="&#x1c2;" horiz-adv-x="512" 
d="M187 445h-113v116h113v299h137v-299h114v-116h-114v-62h114v-116h-114v-267h-137v267h-113v116h113v62z" />
    <glyph glyph-name="uni01C3" unicode="&#x1c3;" horiz-adv-x="359" 
d="M179 214q48 0 81.5 -33.5t33.5 -81.5q0 -47 -33.5 -80.5t-81.5 -33.5q-47 0 -80.5 33.5t-33.5 80.5q0 48 33.5 81.5t80.5 33.5zM115 270l-24 590h177l-24 -590h-129z" />
    <glyph glyph-name="uni01C4" unicode="&#x1c4;" horiz-adv-x="1387" 
d="M249 168h29q103 0 168.5 69.5t66.5 174.5q0 105 -65.5 175t-169.5 70h-29v-489zM61 825h239q172 0 294 -117.5t122 -294.5q0 -178 -121.5 -295.5t-294.5 -117.5h-239v825zM1326 825l-409 -660h382v-165h-710l408 660h-350v165h679zM860 1119l152 -112l154 112l68 -91
l-222 -162l-220 162z" />
    <glyph glyph-name="uni01C5" unicode="&#x1c5;" horiz-adv-x="1241" 
d="M250 168h29q103 0 168.5 69.5t66.5 174.5q0 105 -65.5 175t-169.5 70h-29v-489zM62 825h239q146 0 258.5 -86.5t145.5 -225.5h474l-254 -378h234v-135h-531l254 378h-166q-9 -109 -67 -196t-149.5 -134.5t-198.5 -47.5h-239v825zM779 811l153 -112l153 112l68 -91
l-221 -162l-221 162z" />
    <glyph glyph-name="uni01C6" unicode="&#x1c6;" horiz-adv-x="1192" 
d="M239 256q0 -35 14.5 -62t42 -42.5t63.5 -15.5q34 0 61 15.5t42.5 42.5t15.5 62q0 53 -34.5 87t-84.5 34q-51 0 -85.5 -34t-34.5 -87zM51 256q0 114 72 193t183 79q102 0 168 -64v396h177v-347h475l-254 -378h234v-135h-455h-76h-99v58h-2q-30 -33 -74 -53t-94 -20
q-74 0 -132.5 36.5t-90.5 98t-32 136.5zM767 807l153 -112l153 112l68 -91l-221 -162l-221 162zM651 378v-265l178 265h-178z" />
    <glyph glyph-name="uni01C7" unicode="&#x1c7;" horiz-adv-x="1089" 
d="M262 825v-660h284v-165h-472v825h188zM1014 825v-592q0 -121 -66 -184.5t-190 -63.5q-34 0 -66 8t-54 19.5t-39.5 23.5t-25.5 20l-9 8l60 157q2 -1 4 -3t9 -8t14.5 -11t18 -11.5t20 -11.5t21 -8t21.5 -3q43 0 68.5 28.5t25.5 87.5v544h188z" />
    <glyph glyph-name="uni01C8" unicode="&#x1c8;" horiz-adv-x="833" 
d="M257 825v-660h284v-165h-472v825h188zM568 513v-558q0 -70 -49 -70q-10 0 -21 3.5t-18 7.5l-6 4l-55 -143q2 -1 13 -6l16.5 -7.5t18.5 -6.5t25 -6t30 -4t38 -2q50 0 88 17.5t58 47t29.5 62t9.5 69.5v592h-177zM659 830q43 0 74 -31t31 -74t-31 -74t-74 -31t-74 31t-31 74
t31 74t74 31z" />
    <glyph glyph-name="uni01C9" unicode="&#x1c9;" horiz-adv-x="558" 
d="M69 0v860h177v-860h-177zM293 513v-558q0 -70 -49 -70q-10 0 -21 3.5t-17 7.5l-7 4l-55 -143q2 -1 13 -6l16.5 -7.5t18.5 -6.5t25 -6t30 -4t38 -2q50 0 88 17.5t58 47t29.5 62t9.5 69.5v592h-177zM384 830q44 0 74.5 -31t30.5 -74t-30.5 -74t-74.5 -31t-74.5 31t-30.5 74
t30.5 74t74.5 31z" />
    <glyph glyph-name="uni01CA" unicode="&#x1ca;" horiz-adv-x="1322" 
d="M262 512v-512h-188v825h188l328 -512h2v512h188v-825h-188l-328 512h-2zM1248 825v-592q0 -121 -66.5 -184.5t-191.5 -63.5q-33 0 -65 8t-54 19.5t-39.5 23.5t-25.5 20l-8 8l60 157q6 -6 17 -15.5t39.5 -25t49.5 -15.5q44 0 70 28.5t26 87.5v544h188z" />
    <glyph glyph-name="uni01CB" unicode="&#x1cb;" horiz-adv-x="1085" 
d="M258 512v-512h-188v825h188l328 -512h2v512h188v-825h-188l-328 512h-2zM820 513v-558q0 -70 -50 -70q-9 0 -20.5 3.5t-17.5 7.5l-6 4l-56 -143q3 -1 13.5 -6t16 -7.5t19 -6.5t25 -6t29.5 -4t39 -2q50 0 87.5 17.5t58 47t29.5 62t9 69.5v592h-176zM910.5 830
q43.5 0 74.5 -31t31 -74t-31 -74t-74.5 -31t-74 31t-30.5 74t30.5 74t74 31z" />
    <glyph glyph-name="uni01CC" unicode="&#x1cc;" horiz-adv-x="930" 
d="M68 0v513h176v-54h2q70 69 148 69q29 0 59 -6t60 -20t53.5 -35t37.5 -54.5t14 -74.5v-338h-176v290q0 40 -25.5 70t-66.5 30q-40 0 -73 -31t-33 -69v-290h-176zM666 513v-558q0 -70 -48 -70q-10 0 -21.5 3.5t-17.5 7.5l-7 4l-54 -143q2 -1 12.5 -6t16 -7.5t19 -6.5t25 -6
t29.5 -4t38 -2q51 0 88.5 17.5t58 47t30 62t9.5 69.5v592h-178zM757.5 830q43.5 0 74 -31t30.5 -74t-30.5 -74t-74 -31t-74.5 31t-31 74t31 74t74.5 31z" />
    <glyph glyph-name="uni01CD" unicode="&#x1cd;" horiz-adv-x="943" 
d="M564 330l-92 240h-2l-92 -240h186zM558 825l334 -825h-202l-62 165h-314l-60 -165h-202l332 825h174zM692 1061l-220 -162l-222 162l68 91l154 -112l152 112z" />
    <glyph glyph-name="uni01CE" unicode="&#x1ce;" horiz-adv-x="741" 
d="M258 256q0 53 35 87t85 34q51 0 85.5 -34t34.5 -86.5t-34 -86.5t-86 -34q-53 0 -86.5 33.5t-33.5 86.5zM70 256q0 -114 72.5 -192.5t183.5 -78.5q50 0 94 20t74 53h2v-58h174v513h-176v-49q-66 64 -168 64q-111 0 -183.5 -79t-72.5 -193zM610 749l-222 -162l-220 162
l68 91l152 -112l154 112z" />
    <glyph glyph-name="uni01CF" unicode="&#x1cf;" horiz-adv-x="552" 
d="M363 825v-825h-188v825h188zM123 1147l153 -112l153 112l68 -91l-221 -162l-221 162z" />
    <glyph glyph-name="uni01D1" unicode="&#x1d1;" horiz-adv-x="961" 
d="M268 413q0 -65 20 -118.5t70 -90.5t123 -37q105 0 158.5 72t53.5 174q0 101 -54.5 173.5t-157.5 72.5q-102 0 -157.5 -72.5t-55.5 -173.5zM65 413q0 179 122 303t294 124q173 0 294 -123.5t121 -303.5q0 -181 -119 -304.5t-296 -123.5q-181 0 -298.5 122.5t-117.5 305.5z
M706 1061l-220 -162l-222 162l68 91l154 -112l152 112z" />
    <glyph glyph-name="uni01D2" unicode="&#x1d2;" horiz-adv-x="744" 
d="M252 256q0 -26 9 -48t24.5 -38t38 -25t48.5 -9q52 0 86 34t34 86.5t-34.5 86.5t-85.5 34q-50 0 -85 -34t-35 -87zM64 256q0 119 89 195.5t221 76.5q129 0 217.5 -77t88.5 -195t-87 -194.5t-219 -76.5q-138 0 -224 76t-86 195zM599 749l-221 -162l-221 162l68 91l153 -112
l153 112z" />
    <glyph glyph-name="uni01D3" unicode="&#x1d3;" horiz-adv-x="792" 
d="M718 825v-532q0 -152 -82 -230t-240 -78t-240 78t-82 230v532h188v-477q0 -100 31.5 -139t102.5 -39t102.5 39t31.5 139v477h188zM620 990l-221 -162l-221 162l68 91l153 -112l153 112z" />
    <glyph glyph-name="uni01D4" unicode="&#x1d4;" horiz-adv-x="702" 
d="M250 513v-244q0 -76 23 -108t78 -32t78 32t23 108v244h177v-287q0 -128 -66.5 -184.5t-211.5 -56.5t-211.5 56.5t-66.5 184.5v287h177zM573 705l-221 -162l-221 162l68 91l153 -112l153 112z" />
    <glyph glyph-name="uni01DD" unicode="&#x1dd;" horiz-adv-x="698" 
d="M438 183h-194q2 -20 10.5 -35.5t21 -26t29 -16t35.5 -5.5q30 0 52 11t33.5 29.5t12.5 42.5zM72 281h372q0 54 -35 80t-77 26q-29 0 -48.5 -5t-36.5 -16.5t-39 -35.5l-128 64q80 134 266 134q116 0 199 -79.5t83 -191.5t-83 -192t-199 -80q-122 0 -199 70.5t-77 201.5
q0 18 2 24z" />
    <glyph glyph-name="uni01E4" unicode="&#x1e4;" horiz-adv-x="935" 
d="M809 191q-34 -69 -91.5 -116.5t-123 -68.5t-135.5 -21q-109 0 -201.5 57t-146.5 155.5t-54 214.5q0 117 51.5 215t144 155.5t206.5 57.5q201 0 318 -141l-123 -135q-66 106 -184 106q-87 0 -148.5 -75.5t-61.5 -182.5q0 -105 61.5 -179.5t148.5 -74.5q63 0 112 33h-108
v99h173q2 13 2 27h-190v145h381v-172h38v-99h-69z" />
    <glyph glyph-name="uni01E5" unicode="&#x1e5;" horiz-adv-x="756" 
d="M239 256q0 -35 14.5 -62t42 -42.5t63.5 -15.5q34 0 61 15.5t42.5 42.5t15.5 62q0 53 -34.5 87t-84.5 34q-51 0 -85.5 -34t-34.5 -87zM65 -126l145 71q10 -17 26.5 -31t46.5 -24.5t66 -10.5q50 0 86 30h-134v72h172q1 9 1 18v38q-47 -52 -168 -52q-74 0 -132.5 36.5
t-90.5 98t-32 136.5q0 114 72 193t183 79q99 0 165 -61h3v46h177v-527v-5h54v-72h-64q-24 -89 -102 -136.5t-190 -47.5q-220 0 -284 149z" />
    <glyph glyph-name="uni01F0" unicode="&#x1f0;" horiz-adv-x="559" 
d="M199 513v-558q0 -70 -49 -70q-9 0 -20.5 3.5t-17.5 7.5l-7 4l-55 -143q3 -1 13.5 -6t16 -7.5t19 -6.5t25 -6t29.5 -4t38 -2q51 0 88.5 17.5t57.5 47t29.5 62t9.5 69.5v592h-177zM135 848l153 -112l153 112l68 -91l-221 -162l-221 162z" />
    <glyph glyph-name="uni01F1" unicode="&#x1f1;" horiz-adv-x="1392" 
d="M252 168h28q104 0 169.5 69.5t66.5 174.5q0 105 -66 175t-170 70h-28v-489zM64 825h238q113 0 208 -52.5t151.5 -147.5t56.5 -212q0 -118 -56.5 -213t-151.5 -147.5t-208 -52.5h-238v825zM1328 825l-408 -660h382v-165h-710l408 660h-350v165h678z" />
    <glyph glyph-name="uni01F2" unicode="&#x1f2;" horiz-adv-x="1248" 
d="M254 168h28q104 0 169.5 69.5t66.5 174.5q0 105 -66 175t-170 70h-28v-489zM66 825h238q146 0 259 -86.5t146 -225.5h473l-254 -378h234v-135h-531l254 378h-166q-8 -109 -66 -196t-149.5 -134.5t-199.5 -47.5h-238v825z" />
    <glyph glyph-name="uni01F3" unicode="&#x1f3;" horiz-adv-x="1176" 
d="M238 256q0 -53 33.5 -86.5t86.5 -33.5q52 0 86 34t34 86.5t-34.5 86.5t-85.5 34q-50 0 -85 -34t-35 -87zM50 256q0 114 72.5 193t183.5 79q102 0 168 -64v396h176v-347h476l-254 -378h234v-135h-456h-76h-98v58h-2q-30 -33 -74 -53t-94 -20q-74 0 -132.5 36.5t-91 98
t-32.5 136.5zM650 378v-265l178 265h-178z" />
    <glyph glyph-name="uni01F6" unicode="&#x1f6;" horiz-adv-x="1247" 
d="M263 331v-331h-188v825h188v-329h265v43h1v286h188v-735q5 -82 37 -117.5t96 -35.5q70 0 102 43t32 145v414h188v-489q0 -298 -322 -298q-167 0 -244.5 55.5t-77.5 201.5v322h-265z" />
    <glyph glyph-name="uni01F7" unicode="&#x1f7;" horiz-adv-x="697" 
d="M206 827v-524l1 120l233 143l-233 141zM206 827l430 -261l-430 -263v-303h-146v825z" />
    <glyph glyph-name="uni01F8" unicode="&#x1f8;" horiz-adv-x="856" 
d="M263 512v-512h-188v825h188l328 -512h2v512h188v-825h-188l-328 512h-2zM575 976l-203 176l-91 -115l238 -138z" />
    <glyph glyph-name="uni01F9" unicode="&#x1f9;" horiz-adv-x="699" 
d="M251 0v290q0 38 32.5 69t72.5 31q41 0 66.5 -30t25.5 -70v-290h177v338q0 51 -21.5 89.5t-56 59.5t-72 31t-75.5 10q-78 0 -147 -69h-2v54h-177v-513h177zM531 664l-203 176l-91 -115l238 -138z" />
    <glyph glyph-name="uni0200" unicode="&#x200;" horiz-adv-x="948" 
d="M561 825l333 -825h-202l-61 165h-314l-61 -165h-202l333 825h174zM567 330l-92 240h-2l-92 -240h186zM663 928l-173 196l-82 -104l199 -169zM452 928l-173 196l-82 -104l199 -169z" />
    <glyph glyph-name="uni0201" unicode="&#x201;" horiz-adv-x="742" 
d="M71 256q0 114 72 193t183 79q102 0 168 -64v49h177v-513h-175v58h-2q-66 -73 -168 -73q-111 0 -183 78.5t-72 192.5zM259 256q0 -53 33 -86.5t87 -33.5q52 0 85.5 34t33.5 86q0 53 -34.5 87t-84.5 34q-51 0 -85.5 -34t-34.5 -87zM589 671l-173 196l-82 -104l199 -169z
M378 671l-173 196l-82 -104l199 -169z" />
    <glyph glyph-name="uni0202" unicode="&#x202;" horiz-adv-x="948" 
d="M561 825l333 -825h-202l-61 165h-314l-61 -165h-202l333 825h174zM567 330l-92 240h-2l-92 -240h186zM370 875l-126 31q9 81 72 131t159 50t159 -50t72 -131l-126 -31q0 4 -1.5 11t-8.5 25t-17.5 31.5t-31 24.5t-46.5 11q-42 0 -68 -26t-31 -52z" />
    <glyph glyph-name="uni0203" unicode="&#x203;" horiz-adv-x="742" 
d="M71 256q0 114 72 193t183 79q102 0 168 -64v49h177v-513h-175v58h-2q-66 -73 -168 -73q-111 0 -183 78.5t-72 192.5zM259 256q0 -53 33 -86.5t87 -33.5q52 0 85.5 34t33.5 86q0 53 -34.5 87t-84.5 34q-51 0 -85.5 -34t-34.5 -87zM283 594l-126 31q9 81 72 131t159 50
t159 -50t72 -131l-126 -31q0 4 -1.5 11t-8.5 25t-17.5 31.5t-31 24.5t-46.5 11t-46.5 -10.5t-31 -25.5t-17.5 -30.5t-9 -26.5z" />
    <glyph glyph-name="Scommaaccent" unicode="&#x218;" horiz-adv-x="672" 
d="M335 -40q-36 0 -62 -26.5t-26 -63.5q0 -29 19 -51t48 -29q-5 -29 -20 -56.5t-27 -40.5l-12 -13l40 -31q130 107 130 221q0 38 -26.5 64t-63.5 26zM364 840q67 0 131 -19.5t95 -38.5l30 -20l-76 -150q-9 6 -25 15.5t-60 25.5t-82 16q-47 0 -72.5 -20t-25.5 -54
q0 -17 12 -31.5t41 -31t51 -26.5t68 -30q80 -34 136.5 -92.5t56.5 -132.5q0 -71 -25.5 -124t-70 -83t-98.5 -44.5t-117 -14.5q-54 0 -106 11t-87 27.5t-63 32.5t-41 27l-13 11l94 158q12 -10 33 -25.5t74.5 -41.5t94.5 -26q119 0 119 81q0 17 -8.5 31.5t-30 29t-38 23
t-54 26t-55.5 26.5q-75 37 -116 92.5t-41 119.5q0 111 82 181.5t187 70.5z" />
    <glyph glyph-name="scommaaccent" unicode="&#x219;" horiz-adv-x="492" 
d="M245 -40q-36 0 -62 -26.5t-26 -63.5q0 -29 19 -51t48 -29q-5 -29 -20 -56.5t-27 -40.5l-12 -13l40 -31q130 107 130 221q0 38 -26.5 64t-63.5 26zM283 528q44 0 87 -10t64 -20l21 -10l-58 -116q-60 32 -114 32q-30 0 -42.5 -6.5t-12.5 -24.5q0 -4 1 -8t4 -7.5t5.5 -6
t8.5 -5.5t9.5 -4.5t11.5 -4.5l12 -4.5t13.5 -4.5t14.5 -4q31 -9 54 -20t48.5 -30t39.5 -48t14 -66q0 -175 -243 -175q-55 0 -104.5 17t-71.5 34l-22 18l72 121q8 -7 21 -16.5t47 -26t59 -16.5q55 0 55 37q0 17 -14 26.5t-47.5 21.5t-52.5 22q-48 25 -76 56.5t-28 83.5
q0 78 60.5 121.5t163.5 43.5z" />
    <glyph glyph-name="uni021A" unicode="&#x21a;" horiz-adv-x="596" 
d="M297 -40q-36 0 -62 -26.5t-26 -63.5q0 -29 19 -51t48 -29q-5 -29 -20 -56.5t-27 -40.5l-12 -13l40 -31q130 107 130 221q0 38 -26.5 64t-63.5 26zM8 660v165h580v-165h-196v-660h-188v660h-196z" />
    <glyph glyph-name="uni021B" unicode="&#x21b;" horiz-adv-x="395" 
d="M196 -40q38 0 64 -26t26 -64q0 -114 -130 -221l-40 31q47 45 59 110q-29 7 -48 29t-19 51q0 37 26 63.5t62 26.5zM90 513v191h177v-191h108v-135h-108v-163q0 -71 40 -71q10 0 21 4t17 8l6 4l44 -143q-57 -32 -130 -32q-50 0 -86 17.5t-54.5 47t-26.5 62t-8 69.5v197h-74
v135h74z" />
    <glyph glyph-name="uni021C" unicode="&#x21c;" horiz-adv-x="721" 
d="M244 587l-148 72q1 4 3 10.5t11 25t20.5 36t34 38t49 35.5t67.5 25.5t88 10.5q118 0 194.5 -67.5t76.5 -172.5q0 -98 -73 -155q105 -64 105 -189q0 -115 -86 -199.5t-220 -116.5q-51 -12 -95.5 -19t-75.5 -8t-57 0t-42 4t-27 6.5t-15 6.5l-5 2l150 123q12 0 132 28
q70 16 111.5 66.5t41.5 106.5q0 53 -34.5 87t-84.5 34q-9 0 -18 -7t-14 -14l-4 -7v123l41 22q39 0 69 30t30 74q0 39 -30.5 65t-71.5 26q-21 0 -39.5 -5.5t-30.5 -14.5t-22 -20t-15.5 -22t-9.5 -20t-5 -14z" />
    <glyph glyph-name="uni021D" unicode="&#x21d;" horiz-adv-x="628" 
d="M215 555l-126 62q1 6 5 16.5t20.5 37t39.5 46.5t67.5 36.5t99.5 16.5q100 0 165 -57t65 -147q0 -83 -62 -131q90 -55 90 -161q0 -98 -73.5 -170t-186.5 -99q-59 -13 -108.5 -19t-78 -4.5t-48.5 5.5t-27 8l-8 4l128 104q10 0 112 24q40 9 70 33t45 54t15 60q0 45 -29.5 74
t-71.5 29q-8 0 -15.5 -6t-11.5 -12l-4 -6v105l35 18q33 0 58.5 26t25.5 63q0 33 -26 55t-61 22q-24 0 -44 -9t-30.5 -21.5t-18 -25.5t-9.5 -22z" />
    <glyph glyph-name="uni0226" unicode="&#x226;" horiz-adv-x="946" 
d="M566 330l-92 240h-2l-92 -240h186zM560 825l333 -825h-202l-61 165h-314l-61 -165h-202l333 825h174zM478.5 1103q38.5 0 65 -27t26.5 -65t-26.5 -65t-65 -27t-65.5 27t-27 65t27 65t65.5 27z" />
    <glyph glyph-name="uni0227" unicode="&#x227;" horiz-adv-x="741" 
d="M258 256q0 53 35 87t85 34q51 0 85.5 -34t34.5 -86.5t-34 -86.5t-86 -34q-53 0 -86.5 33.5t-33.5 86.5zM70 256q0 -114 72.5 -192.5t183.5 -78.5q50 0 94 20t74 53h2v-58h174v513h-176v-49q-66 64 -168 64q-111 0 -183.5 -79t-72.5 -193zM378 778q38 0 65 -27t27 -65
t-27 -65t-65 -27t-65 27t-27 65t27 65t65 27z" />
    <glyph glyph-name="uni0238" unicode="&#x238;" horiz-adv-x="1164" 
d="M260 256q0 -53 33 -86.5t87 -33.5q40 0 70.5 21.5t41.5 58.5v80q-11 37 -42 59t-70 22q-51 0 -85.5 -34t-34.5 -87zM72 256q0 114 72 193t182 79q101 0 166 -62v394h2h175h2v-394q66 62 167 62q110 0 182 -79t72 -193q0 -75 -32 -136.5t-90.5 -98t-131.5 -36.5
q-50 0 -93.5 19.5t-72.5 51.5v-56h-4h-172h-4v56q-29 -32 -72.5 -51.5t-93.5 -19.5q-110 0 -182 78.5t-72 192.5zM904 256q0 53 -34.5 87t-85.5 34q-39 0 -70 -22t-43 -59v-80q8 -24 24 -42t39 -28t50 -10q54 0 87 33.5t33 86.5z" />
    <glyph glyph-name="uni0239" unicode="&#x239;" horiz-adv-x="1166" 
d="M260 257q0 -53 34.5 -87t85.5 -34q41 0 72.5 24t42.5 64v66q-10 39 -41.5 63t-73.5 24q-54 0 -87 -33.5t-33 -86.5zM72 257q0 114 72 192.5t183 78.5q50 0 94 -20t74 -53v58h2h173h2v-58q19 22 44 38t57.5 25.5t66.5 9.5q110 0 182.5 -78.5t72.5 -192.5t-72.5 -193
t-182.5 -79q-103 0 -168 64v-309h-177v309q-66 -64 -168 -64q-111 0 -183 79t-72 193zM907 257q0 53 -33.5 86.5t-86.5 33.5q-43 0 -74.5 -24t-40.5 -63v-66q6 -26 22.5 -46t40.5 -31t52 -11q33 0 60.5 15.5t43.5 43t16 62.5z" />
    <glyph glyph-name="uni023A" unicode="&#x23a;" horiz-adv-x="955" 
d="M720 439l178 -439h-202l-62 165h-201l-173 -165h-202l332 825h174l110 -270l120 115l83 -82zM535 423l-57 147h-2l-92 -240h54z" />
    <glyph glyph-name="uni023B" unicode="&#x23b;" horiz-adv-x="877" 
d="M540 170q42 0 82.5 13t59.5 25l20 13l80 -160q-4 -3 -11.5 -8t-33 -18.5t-54.5 -23.5t-75.5 -18t-97.5 -8q-85 0 -165.5 32.5t-143.5 90.5l-84 -56l-67 95l77 50q-63 100 -63 214q0 87 37 167t98 137t143 91t168 34q51 0 97 -8t76.5 -19t53.5 -22t34 -19l11 -8l-80 -160
q-3 2 -8 5.5t-21.5 12.5t-34.5 15.5t-45 12t-53 5.5q-68 0 -122 -22t-86 -58t-48 -77.5t-16 -84.5q0 -55 24 -105l468 310l67 -95l-458 -304q69 -49 171 -49z" />
    <glyph glyph-name="uni023C" unicode="&#x23c;" horiz-adv-x="638" 
d="M389 383q-51 0 -86.5 -37t-35.5 -89q0 -14 2 -27l252 122l67 -95l-244 -118q21 -9 45 -9q10 0 21 1.5t19 3.5t15.5 4.5t13 5t9.5 4.5t6 4l2 1l60 -123q-7 -5 -20 -12.5t-57.5 -20.5t-94.5 -13q-106 0 -189 71l-57 -27l-67 95l52 25q-23 51 -23 106q0 74 39.5 137
t105 99.5t139.5 36.5q23 0 45 -2.5t38.5 -7t31.5 -9.5t25 -10t17.5 -9.5t10.5 -6.5l4 -3l-60 -121q-34 24 -86 24z" />
    <glyph glyph-name="uni023D" unicode="&#x23d;" horiz-adv-x="649" 
d="M314 350v-185h284v-165h-472v350h-76v116h76v359h188v-359h78v-116h-78z" />
    <glyph glyph-name="uni0240" unicode="&#x240;" horiz-adv-x="653" 
d="M582 -32v-135l-355 167h-176l254 378h-212v135h509l-254 -378z" />
    <glyph glyph-name="uni0245" unicode="&#x245;" horiz-adv-x="958" 
d="M553 825l346 -825h-212l-208 542l-208 -542h-212l346 825h148z" />
    <glyph glyph-name="uni0246" unicode="&#x246;" horiz-adv-x="633" 
d="M525 796v-136h-70l-85 -164h143v-165h-229l-43 -83v-83h284v-165h-412l-3 -4l-57 3v1v825h381l80 172l66 -95zM358 660h-117v-164h41z" />
    <glyph glyph-name="uni0247" unicode="&#x247;" horiz-adv-x="688" 
d="M409 232l-76 -105q8 -1 16 -1q22 0 37.5 2.5t30 9t27.5 17t30 28.5l128 -64q-80 -134 -266 -134q-49 0 -95 16l-35 -48l-105 49l41 57q-41 38 -64.5 89t-23.5 108q0 112 83 192t199 80q72 0 130 -25l63 86l105 -49l-78 -107q55 -69 55 -177q0 -18 -1 -24h-201zM268 232
h-30q0 -19 5 -35zM340 330l52 71q-22 12 -51 12q-44 0 -70 -23t-28 -60h97z" />
    <glyph glyph-name="uni024C" unicode="&#x24c;" horiz-adv-x="898" 
d="M168 825h296q119 0 193.5 -63.5t74.5 -181.5q0 -61 -21 -110t-58.5 -81t-88.5 -48l284 -341h-240l-252 326v-326h-188v326h-118v116l118 7v376zM356 459h22q19 0 32 0.5t30.5 3t29.5 6.5t25 12t21 19.5t13 28.5t5 38q0 25 -6 43.5t-18.5 30t-26 19t-33.5 10.5t-35 4
t-37 1h-22v-216z" />
    <glyph glyph-name="uni0250" unicode="&#x250;" horiz-adv-x="743" 
d="M484 257q0 53 -33.5 86.5t-86.5 33.5q-52 0 -86 -34t-34 -86.5t34.5 -86.5t85.5 -34q50 0 85 34t35 87zM672 257q0 -114 -72.5 -193t-183.5 -79q-102 0 -168 64v-49h-176v513h174v-58h2q20 22 45 38t57.5 25.5t65.5 9.5q111 0 183.5 -78.5t72.5 -192.5z" />
    <glyph glyph-name="uni0251" unicode="&#x251;" horiz-adv-x="743" 
d="M260 256q0 -53 33 -86.5t87 -33.5q34 0 61 15.5t42 42.5t15 62q0 53 -34 87t-84 34q-51 0 -85.5 -34t-34.5 -87zM72 256q0 114 72 193t182 79q103 0 168 -64v49h178v-513h-176v58h-2q-29 -33 -73 -53t-95 -20q-110 0 -182 78.5t-72 192.5z" />
    <glyph glyph-name="uni0252" unicode="&#x252;" horiz-adv-x="742" 
d="M483 256q0 -53 -33 -86.5t-87 -33.5q-52 0 -85.5 34t-33.5 86q0 53 34.5 87t84.5 34q51 0 85.5 -34t34.5 -87zM671 256q0 114 -72 193t-183 79q-102 0 -168 -64v49h-177v-513h175v58h2q66 -73 168 -73q111 0 183 78.5t72 192.5z" />
    <glyph glyph-name="uni0254" unicode="&#x254;" horiz-adv-x="557" 
d="M196 130q51 0 86.5 37t35.5 89q0 53 -35.5 90t-86.5 37q-23 0 -44.5 -6t-31.5 -12l-10 -6l-60 123q7 5 20 12.5t57.5 20.5t94.5 13q55 0 107 -21.5t91 -57t62.5 -86t23.5 -105.5q0 -74 -39.5 -137t-105 -99.5t-139.5 -36.5q-50 0 -93 12t-61 24l-18 12l60 121
q34 -24 86 -24z" />
    <glyph glyph-name="uni0258" unicode="&#x258;" horiz-adv-x="697" 
d="M438 330h-195q6 40 31.5 61.5t65.5 21.5q44 0 70 -23t28 -60zM71 232h372q0 -54 -35 -80t-76 -26q-43 0 -68 11.5t-57 45.5l-128 -64q80 -134 266 -134q116 0 199 79.5t83 191.5t-83 192t-199 80q-122 0 -198.5 -70.5t-76.5 -201.5q0 -18 1 -24z" />
    <glyph glyph-name="uni0259" unicode="&#x259;" horiz-adv-x="698" 
d="M438 183h-194q2 -20 10.5 -35.5t21 -26t29 -16t35.5 -5.5q30 0 52 11t33.5 29.5t12.5 42.5zM72 281h372q0 54 -35 80t-77 26q-29 0 -48.5 -5t-36.5 -16.5t-39 -35.5l-128 64q80 134 266 134q116 0 199 -79.5t83 -191.5t-83 -192t-199 -80q-122 0 -199 70.5t-77 201.5
q0 18 2 24z" />
    <glyph glyph-name="uni025B" unicode="&#x25b;" horiz-adv-x="650" 
d="M427 512l126 61l-5.5 16.5t-20 37t-40 47t-67.5 37t-99 16.5q-101 0 -166 -57.5t-65 -146.5q0 -84 62 -132q-89 -54 -89 -161q0 -100 73.5 -165t186.5 -65q44 0 82.5 9.5t64.5 25t47.5 33.5t34 36.5t21 34t11.5 24.5l3 10l-148 72q0 -4 -1.5 -11.5t-9 -26t-18.5 -32.5
t-33.5 -25.5t-52.5 -11.5q-45 0 -73 24.5t-28 67.5q0 45 29 74t72 29q8 0 15.5 -1t11.5 -3l4 -1v105h-35q-33 0 -58.5 25.5t-25.5 62.5q0 22 12 40t32 28t42 10q25 0 45 -9t30.5 -22t18 -25.5t9.5 -21.5z" />
    <glyph glyph-name="uni025C" unicode="&#x25c;" horiz-adv-x="649" 
d="M222 512l-125 61q1 6 4.5 16.5t20.5 37t40 47t67.5 37t99.5 16.5q66 0 118.5 -26t82 -72.5t29.5 -105.5q0 -84 -62 -132q89 -54 89 -161q0 -100 -73.5 -165t-186.5 -65q-44 0 -82.5 9.5t-64.5 25t-47 33.5t-33.5 36.5t-21 34t-11.5 24.5l-3 10l148 72q0 -2 0.5 -6
t3.5 -15t7.5 -21.5t13.5 -22.5t20.5 -21t29.5 -15t39 -6q45 0 73 24.5t28 67.5q0 45 -29 74t-72 29q-7 0 -15 -1t-11 -3l-4 -1v105h35q33 0 58.5 25.5t25.5 62.5q0 33 -26 55.5t-61 22.5q-25 0 -44.5 -9t-30.5 -22t-18 -25.5t-9 -21.5z" />
    <glyph glyph-name="uni0261" unicode="&#x261;" horiz-adv-x="741" 
d="M258 256q0 -26 9 -48t24.5 -38t38 -25t48.5 -9q52 0 86 34t34 86.5t-34.5 86.5t-85.5 34q-50 0 -85 -34t-35 -87zM84 -126l146 71q10 -17 26.5 -31t46 -24.5t65.5 -10.5q21 0 41 6.5t40 19.5t32.5 37.5t12.5 56.5v38q-48 -52 -168 -52q-111 0 -183.5 78.5t-72.5 192.5
t72.5 193t183.5 79q99 0 164 -61h4v46h176v-527q0 -125 -83 -193t-219 -68q-219 0 -284 149z" />
    <glyph glyph-name="uni0262" unicode="&#x262;" horiz-adv-x="809" 
d="M737 408v-153q-14 -64 -47 -114t-78 -79.5t-95 -44.5t-104 -15q-92 0 -171 48.5t-124.5 132t-45.5 182.5q0 100 43.5 183t122.5 132t175 49q172 0 271 -120l-105 -115q-56 90 -156 90q-74 0 -126.5 -64t-52.5 -155q0 -89 52.5 -152.5t126.5 -63.5q61 0 106.5 37t45.5 98
h-162v124h324z" />
    <glyph glyph-name="uni0265" unicode="&#x265;" horiz-adv-x="700" 
d="M626 860v-860h-178v401h-2q-68 -69 -146 -69q-21 0 -42.5 3t-44 10t-42.5 17t-37.5 25.5t-30.5 34.5t-21 44.5t-8 55.5v338h178v-290q0 -40 25 -70t67 -30q39 0 71.5 31t32.5 69v290h178z" />
    <glyph glyph-name="uni0269" unicode="&#x269;" horiz-adv-x="401" 
d="M58 753l2 -553v-1q-1 -18 0 -32v-19q3 -67 21.5 -96t70.5 -49q6 -3 19 -3.5t26 -0.5t42.5 0.5t54.5 0.5q12 9 24.5 37.5t18.5 51.5l7 24q-5 6 -38.5 17t-38.5 15q-3 3 -9.5 9t-9.5 9.5t-6.5 8.5t-5 9.5t-2.5 9.5v562h-176z" />
    <glyph glyph-name="uni026A" unicode="&#x26a;" horiz-adv-x="310" 
d="M235 703v-701h-160v701h160z" />
    <glyph glyph-name="uni026D" unicode="&#x26d;" horiz-adv-x="503" 
d="M56 1008l2 -808v-1v-32v-19q3 -67 22 -96t70 -49q9 -3 47 -4t110 0t90 1q13 9 25.5 37.5t18.5 51.5l6 24q-3 5 -46.5 11t-87 11.5t-47.5 9.5q-3 3 -9.5 9t-9.5 9.5t-7 8.5t-5.5 9.5t-1.5 9.5v817h-177z" />
    <glyph glyph-name="uni026F" unicode="&#x26f;" horiz-adv-x="1024" 
d="M950 528v-513h-178v54h-2q-68 -69 -146 -69q-57 0 -105.5 23t-74.5 71q-78 -94 -170 -94q-37 0 -71 10t-63.5 31t-47.5 59.5t-18 89.5v338h178v-290q0 -41 22.5 -68.5t67.5 -27.5q26 0 45 12t27 29.5t10 38.5v306h176v-290q0 -41 23 -68.5t67 -27.5q41 0 61.5 25.5
t20.5 60.5v300h178z" />
    <glyph glyph-name="uni0274" unicode="&#x274;" horiz-adv-x="750" 
d="M235 437v-435h-160v701h160l279 -435h1v435h160v-701h-160l-279 435h-1z" />
    <glyph glyph-name="uni0275" unicode="&#x275;" horiz-adv-x="844" 
d="M69 366q0 75 28 142.5t76 116t113 76.5t136 28q97 0 178 -47.5t128 -131.5t47 -184q0 -101 -45.5 -184.5t-126.5 -131.5t-181 -48q-101 0 -182.5 48t-126 131t-44.5 185zM244 323q5 -34 17.5 -63t33.5 -52.5t53.5 -37t73.5 -13.5q78 0 122.5 47t55.5 119h-356zM600 405
q-10 73 -55.5 121.5t-122.5 48.5q-76 0 -122 -48.5t-56 -121.5h356z" />
    <glyph glyph-name="uni0276" unicode="&#x276;" horiz-adv-x="929" 
d="M461 559h-25q-88 0 -143.5 -59.5t-55.5 -147.5q0 -89 55.5 -148.5t143.5 -59.5h25v415zM621 562v-140h231v-140h-231v-141h241v-140h-444q-96 0 -177 44t-129 125t-48 181t48 181t129 125.5t177 44.5h444v-140h-241z" />
    <glyph glyph-name="uni0278" unicode="&#x278;" horiz-adv-x="847" 
d="M341 718v58h160v-57q120 -27 198 -125t78 -229q0 -88 -35 -163t-98 -125.5t-143 -67.5v-61h-160v62q-121 27 -196 124.5t-75 230.5q0 129 77 226.5t194 126.5zM341 173v382q-48 -26 -73 -77.5t-25 -112.5q0 -64 24.5 -116t73.5 -76zM501 171q52 24 77.5 76.5t25.5 117.5
q0 63 -26 115.5t-77 76.5v-386z" />
    <glyph glyph-name="uni0279" unicode="&#x279;" horiz-adv-x="581" 
d="M510 528v-513h-177v74h-2q-2 -4 -6.5 -10t-19.5 -21t-32 -27t-44 -21.5t-55 -9.5q-29 0 -57 8t-41 16l-14 8l74 150q33 -28 92 -28q32 0 55 14t32.5 34t13.5 34t4 22v270h177z" />
    <glyph glyph-name="uni027A" unicode="&#x27a;" horiz-adv-x="575" 
d="M512 750v-735h-178v74h-2q-2 -4 -6.5 -10t-19.5 -21t-32 -27t-43.5 -21.5t-54.5 -9.5q-30 0 -58 8t-41 16l-13 8l74 150q3 -3 10 -7.5t31 -12.5t51 -8q31 0 54 14t33 34t13.5 34t3.5 22v492h178z" />
    <glyph glyph-name="uni027C" unicode="&#x27c;" horiz-adv-x="575" 
d="M64 0v735h176v-74h2l7.5 10t19.5 21t32 27t43.5 21.5t55.5 9.5q18 0 36.5 -3.5t31.5 -8t23 -9t15 -8.5l6 -3l-74 -150q-1 1 -2.5 2t-6 3.5t-9.5 5.5t-13.5 6t-17 5.5t-20 4t-23.5 1.5q-32 0 -55 -14t-33 -34t-14 -34t-4 -22v-492h-176z" />
    <glyph glyph-name="uni0280" unicode="&#x280;" horiz-adv-x="697" 
d="M220 392h18q23 0 38 1t34.5 6t31.5 14.5t20.5 27.5t8.5 43t-8.5 43t-20.5 27t-31.5 14.5t-34.5 6.5t-38 1h-18v-184zM60 703h251q101 0 164.5 -54t63.5 -154q0 -77 -38.5 -129.5t-104.5 -73.5l241 -290h-203l-214 277v-277h-160v701z" />
    <glyph glyph-name="uni0281" unicode="&#x281;" horiz-adv-x="702" 
d="M480 313h-19q-22 0 -37 -1t-35 -6t-32 -14.5t-20.5 -27.5t-8.5 -43t8.5 -43t20.5 -27t32 -14.5t35 -6.5t37 -1h19v184zM640 2h-251q-102 0 -165.5 54t-63.5 154q0 77 39 129.5t105 73.5l-242 290h204l214 -277v277h160v-701z" />
    <glyph glyph-name="uni028A" unicode="&#x28a;" horiz-adv-x="900" 
d="M618 405q0 17 -4 34.5t-10.5 31.5t-14 27.5t-15.5 24t-14.5 18t-10.5 11.5l-4 4h1v99h281v-100h-103q28 -78 28 -174q0 -98 -41 -185.5t-112.5 -141t-154.5 -53.5t-155 53t-113.5 140.5t-41.5 186.5q0 96 29 174h-90l1 100h280v-100h-4h2q-4 -3 -9.5 -8t-20 -21
t-25.5 -32.5t-20 -41t-9 -47.5q0 -57 16 -103t42 -73t56 -41t61 -14t61 14t56 41t42 73t16 103z" />
    <glyph glyph-name="uni028C" unicode="&#x28c;" horiz-adv-x="793" 
d="M522 0l-126 279l-124 -279h-210l274 513h120l276 -513h-210z" />
    <glyph glyph-name="uni028D" unicode="&#x28d;" horiz-adv-x="1149" 
d="M692 513h120l276 -513h-204l-126 277l-122 -277h-122l-124 277l-124 -277h-204l274 513h120l118 -265z" />
    <glyph glyph-name="uni028E" unicode="&#x28e;" horiz-adv-x="790" 
d="M262 0h-204l404 773h204l-178 -340l244 -433h-204l-144 263z" />
    <glyph glyph-name="uni028F" unicode="&#x28f;" horiz-adv-x="800" 
d="M62 703h192l146 -224l146 224h192l-258 -387v-314h-160v314z" />
    <glyph glyph-name="uni0298" unicode="&#x298;" horiz-adv-x="972" 
d="M274 413q0 -32 5 -61t15.5 -57t28 -51t40.5 -40.5t54.5 -27t68.5 -9.5q55 0 96.5 21t66.5 56.5t37 78t12 90.5q0 31 -5.5 61t-16.5 57.5t-29 50.5t-40.5 40.5t-53.5 27t-67 9.5q-69 0 -118.5 -36.5t-71.5 -91t-22 -118.5zM70 413q0 89 33.5 168.5t89.5 136t133 89.5
t160 33q114 0 209 -56t151 -154.5t56 -216.5q0 -119 -54 -217t-149.5 -154.5t-212.5 -56.5q-119 0 -214.5 56.5t-148.5 154t-53 217.5zM486.5 518q43.5 0 74.5 -31t31 -74t-31 -74t-74.5 -31t-74 31t-30.5 74t30.5 74t74 31z" />
    <glyph glyph-name="uni0299" unicode="&#x299;" horiz-adv-x="635" 
d="M230 125h50q117 0 117 78q0 47 -29 67.5t-88 20.5h-50v-166zM230 429h12q54 0 80.5 18.5t26.5 60.5q0 72 -107 72h-12v-151zM70 703h217q48 0 85.5 -9.5t67.5 -29.5t46.5 -55.5t16.5 -83.5q0 -106 -87 -151q149 -26 149 -177q0 -88 -61 -141.5t-168 -53.5h-266v701z" />
    <glyph glyph-name="uni029C" unicode="&#x29c;" horiz-adv-x="696" 
d="M235 283v-281h-160v701h160v-280h226v280h160v-701h-160v281h-226z" />
    <glyph glyph-name="uni029E" unicode="&#x29e;" horiz-adv-x="725" 
d="M82 347l244 245l-268 268h228l204 -205v205h178v-860h-178v526l-178 -179h-230z" />
    <glyph glyph-name="uni029F" unicode="&#x29f;" horiz-adv-x="533" 
d="M226 703v-561h241v-140h-401v701h160z" />
    <glyph glyph-name="circumflex" unicode="&#x2c6;" horiz-adv-x="582" 
d="M70 678l221 162l221 -162l-68 -91l-153 112l-153 -112z" />
    <glyph glyph-name="caron" unicode="&#x2c7;" horiz-adv-x="582" 
d="M138 840l153 -112l153 112l68 -91l-221 -162l-221 162z" />
    <glyph glyph-name="breve" unicode="&#x2d8;" horiz-adv-x="602" 
d="M406 840l126 -31q-9 -81 -72 -131t-159 -50t-159 50t-72 131l126 31q0 -4 1.5 -11t8.5 -25t17.5 -31.5t31 -24.5t46.5 -11t46.5 10.5t31 25.5t17.5 30.5t8 26.5z" />
    <glyph glyph-name="dotaccent" unicode="&#x2d9;" horiz-adv-x="324" 
d="M162 791q38 0 65 -27t27 -65t-27 -65t-65 -27t-65 27t-27 65t27 65t65 27z" />
    <glyph glyph-name="ring" unicode="&#x2da;" horiz-adv-x="462" 
d="M170 733q0 -27 17 -45.5t44 -18.5q26 0 43.5 18.5t17.5 45.5q0 26 -18 44t-43 18t-43 -18.5t-18 -43.5zM70 733q0 62 46.5 102t114.5 40q69 0 115 -40t46 -102q0 -63 -45 -103t-116 -40q-72 0 -116.5 40t-44.5 103z" />
    <glyph glyph-name="ogonek" unicode="&#x2db;" horiz-adv-x="403" 
d="M70 -158q0 35 26 81t52 75l26 28l58 -26q-7 -8 -16.5 -21.5t-26 -50.5t-16.5 -68q0 -18 11.5 -28.5t25.5 -10.5t26.5 7.5t18.5 15.5l6 7l72 -54q-2 -3 -5.5 -8t-16 -17t-27.5 -21.5t-38.5 -17.5t-49.5 -8q-47 0 -86.5 29t-39.5 88z" />
    <glyph glyph-name="tilde" unicode="&#x2dc;" horiz-adv-x="602" 
d="M292 642q-40 19 -76 19q-14 0 -25.5 -11.5t-15.5 -23.5l-4 -11h-101q1 7 3.5 18.5t13 41t24 52.5t39 41.5t56.5 18.5q17 0 43 -6.5t43 -13.5l18 -7q40 -19 76 -19q14 0 25.5 11.5t15.5 23.5l4 11h101q-1 -7 -3.5 -18.5t-13 -41t-24 -52.5t-39 -41.5t-56.5 -18.5
q-17 0 -43 6.5t-43 13.5z" />
    <glyph glyph-name="hungarumlaut" unicode="&#x2dd;" horiz-adv-x="606" 
d="M307 664l173 196l82 -104l-199 -169zM96 664l173 196l82 -104l-199 -169z" />
    <glyph glyph-name="uni0372" unicode="&#x372;" horiz-adv-x="728" 
d="M74 660v165h580v-165v-104h-95v104h-101v-660h-188v660h-101v-104h-95v104z" />
    <glyph glyph-name="uni0373" unicode="&#x373;" horiz-adv-x="641" 
d="M74 563v140h493v-140v-89h-81v89h-86v-561h-159v561h-86v-89h-81v89z" />
    <glyph glyph-name="uni0374" unicode="&#x374;" horiz-adv-x="261" 
d="M62 732l21 268l116 -21l-62 -264z" />
    <glyph glyph-name="uni0375" unicode="&#x375;" horiz-adv-x="261" 
d="M62 -129l21 268l116 -21l-62 -264z" />
    <glyph glyph-name="uni0376" unicode="&#x376;" horiz-adv-x="856" 
d="M593 512v-512h188v825h-188l-328 -512h-2v512h-188v-825h188l328 512h2z" />
    <glyph glyph-name="uni0377" unicode="&#x377;" horiz-adv-x="750" 
d="M515 436v-435h160v701h-160l-279 -435h-1v435h-160v-701h160l279 435h1z" />
    <glyph glyph-name="uni037A" unicode="&#x37a;" horiz-adv-x="370" 
d="M186 214q-48 0 -82 -33.5t-34 -81.5q0 -148 168 -287l52 42q-7 6 -17.5 18t-31 48.5t-27.5 73.5q37 9 61.5 37.5t24.5 67.5q0 24 -9.5 45t-24.5 36.5t-36 24.5t-44 9z" />
    <glyph glyph-name="uni037B" unicode="&#x37b;" horiz-adv-x="557" 
d="M196 130q51 0 86.5 37t35.5 89q0 53 -35.5 90t-86.5 37q-23 0 -44.5 -6t-31.5 -12l-10 -6l-60 123q7 5 20 12.5t57.5 20.5t94.5 13q55 0 107 -21.5t91 -57t62.5 -86t23.5 -105.5q0 -74 -39.5 -137t-105 -99.5t-139.5 -36.5q-50 0 -93 12t-61 24l-18 12l60 121
q34 -24 86 -24z" />
    <glyph glyph-name="uni037C" unicode="&#x37c;" horiz-adv-x="575" 
d="M370 130q-51 0 -86.5 37t-35.5 89q0 53 35.5 90t86.5 37q14 0 28.5 -2.5t24.5 -6t17.5 -7t11.5 -6.5l4 -2l60 123q-7 5 -20 12.5t-57.5 20.5t-94.5 13q-55 0 -107 -21.5t-91 -57t-62.5 -86t-23.5 -105.5q0 -74 39.5 -137t105 -99.5t139.5 -36.5q50 0 93 12t61 24l18 12
l-60 121q-34 -24 -86 -24zM369 337q-33 0 -55.5 -22.5t-22.5 -55.5t22.5 -55.5t55.5 -22.5t55.5 22.5t22.5 55.5t-22.5 55.5t-55.5 22.5z" />
    <glyph glyph-name="uni037D" unicode="&#x37d;" horiz-adv-x="574" 
d="M205 130q50 0 86 37t36 89q0 53 -36 90t-86 37q-24 0 -45.5 -6t-31.5 -12l-9 -6l-60 123q7 5 19.5 12.5t57 20.5t95.5 13q113 0 198.5 -79.5t85.5 -190.5q0 -112 -85.5 -192.5t-198.5 -80.5q-51 0 -94 12t-61 24l-17 12l60 121q33 -24 86 -24zM205.5 337
q32.5 0 55.5 -22.5t23 -55.5t-23 -55.5t-55.5 -22.5t-55.5 22.5t-23 55.5t23 55.5t55.5 22.5z" />
    <glyph glyph-name="uni037E" unicode="&#x37e;" horiz-adv-x="371" 
d="M185 214q-47 0 -80.5 -33.5t-33.5 -81.5q0 -39 24 -67.5t62 -37.5q-7 -37 -26 -72t-35 -52l-15 -16l51 -42q168 139 168 287q0 48 -33.5 81.5t-81.5 33.5zM185 554q48 0 81.5 -33.5t33.5 -81.5q0 -47 -33.5 -80.5t-81.5 -33.5q-47 0 -80.5 33.5t-33.5 80.5
q0 48 33.5 81.5t80.5 33.5z" />
    <glyph glyph-name="tonos" unicode="&#x384;" horiz-adv-x="334" 
d="M46 738l112 244l130 -67l-160 -224z" />
    <glyph glyph-name="dieresistonos" unicode="&#x385;" horiz-adv-x="541" 
d="M389 709q38 0 65 -27t27 -65t-27 -65t-65 -27t-65 27t-27 65t27 65t65 27zM152 709q38 0 65 -27t27 -65t-27 -65t-65 -27t-65 27t-27 65t27 65t65 27zM204 738l112 244l130 -67l-160 -224z" />
    <glyph glyph-name="Alphatonos" unicode="&#x386;" horiz-adv-x="956" 
d="M571 330l-92 240h-2l-92 -240h186zM565 825l333 -825h-202l-61 165h-314l-61 -165h-202l333 825h174zM156 738l112 244l130 -67l-160 -224z" />
    <glyph glyph-name="anoteleia" unicode="&#x387;" horiz-adv-x="328" 
d="M164 540q38 0 65 -27t27 -65t-27 -65t-65 -27t-65 27t-27 65t27 65t65 27z" />
    <glyph glyph-name="Epsilontonos" unicode="&#x388;" horiz-adv-x="812" 
d="M749 825v-165h-284v-164h272v-165h-272v-166h284v-165h-472v825h472zM63 738l112 244l130 -67l-160 -224z" />
    <glyph glyph-name="Etatonos" unicode="&#x389;" horiz-adv-x="998" 
d="M481 331v-331h-188v825h188v-329h266v329h188v-825h-188v331h-266zM63 738l112 244l130 -67l-160 -224z" />
    <glyph glyph-name="Iotatonos" unicode="&#x38a;" horiz-adv-x="526" 
d="M464 825v-825h-188v825h188zM62 738l112 244l130 -67l-160 -224z" />
    <glyph glyph-name="Omicrontonos" unicode="&#x38c;" horiz-adv-x="972" 
d="M295 413q0 -48 12 -90.5t36.5 -78t66.5 -56.5t98 -21q54 0 96 21t66.5 56.5t37 78t12.5 90.5q0 31 -5.5 61t-17 57.5t-29 50.5t-40.5 40.5t-54 27t-66 9.5q-69 0 -119 -36.5t-72 -91t-22 -118.5zM92 413q0 89 33 168.5t89.5 136t133 89.5t160.5 33q113 0 208.5 -56
t151 -154.5t55.5 -216.5q0 -119 -54 -217t-149.5 -154.5t-211.5 -56.5q-120 0 -215.5 56.5t-148 154t-52.5 217.5zM49 738l112 244l131 -67l-160 -224z" />
    <glyph glyph-name="Upsilontonos" unicode="&#x38e;" horiz-adv-x="1097" 
d="M252 825h226l172 -264l172 264h226l-304 -455v-370h-188v370zM49 738l112 244l131 -67l-160 -224z" />
    <glyph glyph-name="Omegatonos" unicode="&#x38f;" horiz-adv-x="1005" 
d="M304 296q0 -27 9 -55.5t22 -49t25.5 -38t21.5 -26.5l9 -9h-1l-1 -116h-330v117h121q-33 92 -33 205q0 87 28.5 168.5t77 143t116 99t140.5 37.5q98 0 183 -63t133.5 -166t48.5 -219q0 -113 -33 -205h105l-1 -117h-330v117h5l-2 1q4 3 11 9t23.5 25t29.5 38.5t24 48
t11 55.5q0 67 -19 121t-49.5 86t-66 48.5t-71.5 16.5q-37 0 -72.5 -16.5t-66 -48.5t-49.5 -86t-19 -121zM155 738l113 244l130 -67l-160 -224z" />
    <glyph glyph-name="iotadieresistonos" unicode="&#x390;" horiz-adv-x="553" 
d="M182 753l2 -553v-1q-1 -18 0 -32v-19q3 -67 21.5 -96t70.5 -49q6 -3 19 -3.5t26 -0.5t42.5 0.5t54.5 0.5q12 9 24.5 37.5t18.5 51.5l7 24q-4 5 -21 11t-34.5 11.5t-21.5 9.5q-3 3 -9.5 9t-9.5 9.5t-6.5 8.5t-5 9.5t-2.5 9.5v562h-176zM395 954q38 0 65 -27t27 -65
t-27 -65t-65 -27t-65 27t-27 65t27 65t65 27zM158 954q38 0 65 -27t27 -65t-27 -65t-65 -27t-65 27t-27 65t27 65t65 27zM210 983l112 244l130 -67l-160 -224z" />
    <glyph glyph-name="Alpha" unicode="&#x391;" horiz-adv-x="940" 
d="M563 330l-92 240h-2l-92 -240h186zM557 825l333 -825h-202l-61 165h-314l-61 -165h-202l333 825h174z" />
    <glyph glyph-name="Beta" unicode="&#x392;" horiz-adv-x="714" 
d="M254 145h58q138 0 138 92q0 55 -34 79t-104 24h-58v-195zM254 502h14q63 0 94.5 22t31.5 72q0 84 -126 84h-14v-178zM66 825h256q55 0 99.5 -11t80 -35t55 -65.5t19.5 -98.5q0 -59 -26 -105t-78 -72q176 -31 176 -208q0 -104 -71.5 -167t-198.5 -63h-312v825z" />
    <glyph glyph-name="Gamma" unicode="&#x393;" horiz-adv-x="609" 
d="M256 660h284v165h-472v-825h190z" />
    <glyph glyph-name="uni0394" unicode="&#x394;" horiz-adv-x="940" 
d="M631 164l-160 427l-2 -21l-163 -409zM688 2h-435l-203 -2l333 825h174l333 -825z" />
    <glyph glyph-name="Epsilon" unicode="&#x395;" horiz-adv-x="619" 
d="M546 825v-165h-284v-164h272v-165h-272v-166h284v-165h-472v825h472z" />
    <glyph glyph-name="Zeta" unicode="&#x396;" horiz-adv-x="838" 
d="M788 825l-410 -660h382v-165h-710l408 660h-350v165h680z" />
    <glyph glyph-name="Eta" unicode="&#x397;" horiz-adv-x="791" 
d="M262 331v-331h-188v825h188v-329h266v329h188v-825h-188v331h-266z" />
    <glyph glyph-name="Theta" unicode="&#x398;" horiz-adv-x="944" 
d="M260 413q0 -32 5 -61t15.5 -57t28 -51t40.5 -40.5t54.5 -27t68.5 -9.5q55 0 96.5 21t66.5 56.5t37 78t12 90.5q0 31 -5.5 61t-16.5 57.5t-29 50.5t-40.5 40.5t-53.5 27t-67 9.5q-69 0 -118.5 -36.5t-71.5 -91t-22 -118.5zM56 413q0 89 33.5 168.5t89.5 136t133 89.5
t160 33q114 0 209 -56t151 -154.5t56 -216.5q0 -119 -54 -217t-149.5 -154.5t-212.5 -56.5q-119 0 -214.5 56.5t-148.5 154t-53 217.5zM338 459h276v-96h-276v96z" />
    <glyph glyph-name="Iota" unicode="&#x399;" horiz-adv-x="337" 
d="M262 825v-825h-188v825h188z" />
    <glyph glyph-name="Kappa" unicode="&#x39a;" horiz-adv-x="871" 
d="M811 0h-259l-304 350v-350h-188v825h188v-337l283 337h228l-332 -391z" />
    <glyph glyph-name="Lambda" unicode="&#x39b;" horiz-adv-x="941" 
d="M470 570l-2 -1l-218 -570l-200 1l334 825h174l332 -825h-204z" />
    <glyph glyph-name="Mu" unicode="&#x39c;" horiz-adv-x="1030" 
d="M784 0l-39 489h-5l-169 -484h-112l-169 484h-5l-39 -489h-188l74 825h200l183 -476l183 476h200l74 -825h-188z" />
    <glyph glyph-name="Nu" unicode="&#x39d;" horiz-adv-x="855" 
d="M262 512v-512h-188v825h188l328 -512h2v512h188v-825h-188l-328 512h-2z" />
    <glyph glyph-name="Xi" unicode="&#x39e;" horiz-adv-x="613" 
d="M543 825l-1 -167h-472v167h473zM543 168l-1 -167h-472v167h473zM502 501l-1 -167h-390v167h391z" />
    <glyph glyph-name="Omicron" unicode="&#x39f;" horiz-adv-x="944" 
d="M260 413q0 -32 5 -61t15.5 -57t28 -51t40.5 -40.5t54.5 -27t68.5 -9.5q55 0 96.5 21t66.5 56.5t37 78t12 90.5q0 31 -5.5 61t-16.5 57.5t-29 50.5t-40.5 40.5t-53.5 27t-67 9.5q-69 0 -118.5 -36.5t-71.5 -91t-22 -118.5zM56 413q0 89 33.5 168.5t89.5 136t133 89.5
t160 33q114 0 209 -56t151 -154.5t56 -216.5q0 -119 -54 -217t-149.5 -154.5t-212.5 -56.5q-119 0 -214.5 56.5t-148.5 154t-53 217.5z" />
    <glyph glyph-name="Pi" unicode="&#x3a0;" horiz-adv-x="791" 
d="M262 660v-660h-188v825h188h266h188v-825h-188v660h-266z" />
    <glyph glyph-name="Rho" unicode="&#x3a1;" horiz-adv-x="716" 
d="M254 456h54q40 0 70.5 9t52 34.5t21.5 65.5q0 59 -40.5 84.5t-103.5 25.5h-54v-219zM66 825h302q126 0 204 -65t78 -189t-79 -194.5t-203 -70.5h-114v-306h-188v825z" />
    <glyph glyph-name="Sigma" unicode="&#x3a3;" horiz-adv-x="629" 
d="M562 655l-293 -35v-5l162 -152v-101l-162 -152v-4l293 -36v-169l-495 67v180l158 164l-158 165v180l495 67v-169z" />
    <glyph glyph-name="Tau" unicode="&#x3a4;" horiz-adv-x="702" 
d="M61 660v165h580v-165h-196v-660h-188v660h-196z" />
    <glyph glyph-name="Upsilon" unicode="&#x3a5;" horiz-adv-x="892" 
d="M48 825h226l172 -264l172 264h226l-304 -455v-370h-188v370z" />
    <glyph glyph-name="Phi" unicode="&#x3a6;" horiz-adv-x="944" 
d="M376 828v69h188v-67q92 -21 165.5 -79.5t116 -147t42.5 -190.5q0 -156 -90.5 -271.5t-233.5 -146.5v-72h-188v72q-144 32 -232 147t-88 271q0 152 90.5 267t229.5 148zM376 188v449q-57 -30 -86.5 -91t-29.5 -133q0 -48 11 -90.5t38 -79t67 -55.5zM564 186q60 27 90 89
t30 138q0 74 -30.5 136t-89.5 91v-454z" />
    <glyph glyph-name="Chi" unicode="&#x3a7;" horiz-adv-x="959" 
d="M912 0h-242l-196 281l-194 -281h-234l312 444l-260 381h224l152 -225l152 225h234l-270 -381z" />
    <glyph glyph-name="Psi" unicode="&#x3a8;" horiz-adv-x="879" 
d="M811 825v-532q0 -125 -75 -202.5t-202 -98.5v-91h-188v92q-127 21 -202.5 98t-75.5 202v532h188v-477q0 -120 90 -160v637h188v-637q89 39 89 160v477h188z" />
    <glyph glyph-name="uni03A9" unicode="&#x3a9;" horiz-adv-x="1006" 
d="M305 296q0 -27 9 -55.5t21.5 -49t25 -38t21.5 -26.5l9 -9l-1 -116h-331v117h122q-33 92 -33 205q0 87 28.5 168.5t76.5 143t115.5 99t141.5 37.5q98 0 182.5 -63t133 -166t48.5 -219q0 -113 -33 -205h106l-1 -117h-331v117h5l-1 1q4 3 10.5 9t23.5 25t30 38.5t23.5 48
t10.5 55.5q0 67 -18.5 121t-49 86t-66 48.5t-72.5 16.5q-36 0 -71.5 -16.5t-66.5 -48.5t-49.5 -86t-18.5 -121z" />
    <glyph glyph-name="Iotadieresis" unicode="&#x3aa;" horiz-adv-x="553" 
d="M370 825v-825h-188v825h188zM395 1103q38 0 65 -27t27 -65t-27 -65t-65 -27t-65 27t-27 65t27 65t65 27zM158 1103q38 0 65 -27t27 -65t-27 -65t-65 -27t-65 27t-27 65t27 65t65 27z" />
    <glyph glyph-name="Upsilondieresis" unicode="&#x3ab;" horiz-adv-x="910" 
d="M57 825h226l172 -264l172 264h226l-304 -455v-370h-188v370zM573 1103q38 0 65 -27t27 -65t-27 -65t-65 -27t-65 27t-27 65t27 65t65 27zM336 1103q38 0 65 -27t27 -65t-27 -65t-65 -27t-65 27t-27 65t27 65t65 27z" />
    <glyph glyph-name="alphatonos" unicode="&#x3ac;" horiz-adv-x="763" 
d="M56 256q0 114 72 193t182 79q103 0 168 -64l52 49h178l-88 -255l88 -258h-176l-52 58h-2q-29 -33 -73 -53t-95 -20q-110 0 -182 78.5t-72 192.5zM244 256q0 -53 33 -86.5t87 -33.5q34 0 61 15.5t42 42.5t15 62q0 53 -34 87t-84 34q-51 0 -85.5 -34t-34.5 -87zM294 631
l112 244l130 -67l-160 -224z" />
    <glyph glyph-name="epsilontonos" unicode="&#x3ad;" horiz-adv-x="633" 
d="M418 512l126 61q-1 6 -4.5 16.5t-20.5 37t-40 47t-67.5 37t-99.5 16.5q-100 0 -165 -57.5t-65 -146.5q0 -84 62 -132q-89 -54 -89 -161q0 -100 73.5 -165t186.5 -65q44 0 82.5 9.5t64.5 25t47 33.5t33.5 36.5t21 34t11.5 24.5l3 10l-148 72q0 -4 -1 -11.5t-8.5 -26
t-18.5 -32.5t-34 -25.5t-52 -11.5q-45 0 -73.5 24.5t-28.5 67.5q0 45 29.5 74t72.5 29q7 0 15 -1t11 -3l4 -1v105h-35q-21 0 -40 11t-31.5 32t-12.5 45q0 33 26 55.5t61 22.5q25 0 44.5 -9t30.5 -22t18 -25.5t9 -21.5zM200 796l112 244l130 -67l-159 -224z" />
    <glyph glyph-name="etatonos" unicode="&#x3ae;" horiz-adv-x="704" 
d="M76 0v513h178v-54h2q68 69 146 69q30 0 60 -6t60 -20t53.5 -35t38 -54.5t14.5 -74.5v-509h-178v290q0 31 -10 92.5t-33 120t-49 58.5q-39 0 -71.5 -31t-32.5 -69v-290h-178zM245 606l113 244l130 -67l-160 -224z" />
    <glyph glyph-name="iotatonos" unicode="&#x3af;" horiz-adv-x="397" 
d="M56 753l2 -553v-1q-1 -18 0 -32v-19q3 -67 21.5 -96t70.5 -49q6 -3 19 -3.5t26 -0.5t42.5 0.5t54.5 0.5q12 9 24.5 37.5t18.5 51.5l7 24q-5 6 -38.5 17t-38.5 15q-3 3 -9.5 9t-9.5 9.5t-6.5 8.5t-5 9.5t-2.5 9.5v562h-176zM67 881l113 244l130 -67l-160 -224z" />
    <glyph glyph-name="upsilondieresistonos" unicode="&#x3b0;" horiz-adv-x="690" 
d="M244 513v-244q0 -76 23 -108t78 -32t78 32t23 108l-82 244h177l82 -287q0 -128 -66.5 -184.5t-211.5 -56.5t-211.5 56.5t-66.5 184.5v287h177zM281 778l112 244l130 -67l-160 -224zM229 749q38 0 65 -27t27 -65.5t-27 -65t-65 -26.5t-65 26.5t-27 65t27 65.5t65 27z
M466 749q38 0 65 -27t27 -65.5t-27 -65t-65 -26.5t-65 26.5t-27 65t27 65.5t65 27z" />
    <glyph glyph-name="alpha" unicode="&#x3b1;" horiz-adv-x="752" 
d="M238 256q0 -53 33 -86.5t87 -33.5q52 0 85.5 34t33.5 86q0 53 -34.5 87t-84.5 34q-51 0 -85.5 -34t-34.5 -87zM50 256q0 114 72 193t183 79q102 0 168 -64l52 49h177l-87 -255l87 -258h-175l-52 58h-2q-66 -73 -168 -73q-111 0 -183 78.5t-72 192.5z" />
    <glyph glyph-name="beta" unicode="&#x3b2;" horiz-adv-x="681" 
d="M305 -15v162q52 0 85.5 32.5t33.5 84.5q0 57 -31.5 91t-87.5 34v135q45 0 76.5 30t31.5 76q0 45 -24 70.5t-67 25.5q-28 0 -52 -24.5t-24 -65.5v-770h-177v459v135v162q0 110 75 181.5t178 71.5q115 -2 186.5 -71.5t71.5 -173.5q0 -114 -100 -170q132 -61 132 -205
q0 -118 -86.5 -194t-220.5 -76z" />
    <glyph glyph-name="gamma" unicode="&#x3b3;" horiz-adv-x="811" 
d="M556 513h204l-403 -773h-204l177 340l-138 302l-141 12l36 119h204l143 -263z" />
    <glyph glyph-name="epsilon" unicode="&#x3b5;" horiz-adv-x="638" 
d="M421 512l126 61l-5.5 16.5t-20 37t-40 47t-67.5 37t-99 16.5q-101 0 -166 -57.5t-65 -146.5q0 -84 62 -132q-89 -54 -89 -161q0 -100 73.5 -165t186.5 -65q44 0 82.5 9.5t64.5 25t47.5 33.5t34 36.5t21 34t11.5 24.5l3 10l-148 72q0 -4 -1.5 -11.5t-9 -26t-18.5 -32.5
t-33.5 -25.5t-52.5 -11.5q-45 0 -73 24.5t-28 67.5q0 45 29 74t72 29q8 0 15.5 -1t11.5 -3l4 -1v105h-35q-33 0 -58.5 25.5t-25.5 62.5q0 22 12 40t32 28t42 10q25 0 45 -9t30.5 -22t18 -25.5t9.5 -21.5z" />
    <glyph glyph-name="eta" unicode="&#x3b7;" horiz-adv-x="699" 
d="M74 0v513h177v-54h2q69 69 147 69q38 0 75.5 -10t72 -31t56 -59.5t21.5 -89.5v-509h-177v290q0 59 -27.5 165t-64.5 106q-40 0 -72.5 -31t-32.5 -69v-290h-177z" />
    <glyph glyph-name="theta" unicode="&#x3b8;" horiz-adv-x="842" 
d="M68 366q0 75 28 142.5t76 116t113 76.5t136 28q97 0 178 -47.5t128 -131.5t47 -184q0 -101 -45.5 -184.5t-126.5 -131.5t-181 -48q-101 0 -182.5 48t-126 131t-44.5 185zM243 323q5 -34 17.5 -63t33.5 -52.5t53.5 -37t73.5 -13.5q78 0 122.5 47t55.5 119h-356zM599 405
q-10 73 -55.5 121.5t-122.5 48.5q-76 0 -122 -48.5t-56 -121.5h356z" />
    <glyph glyph-name="iota" unicode="&#x3b9;" horiz-adv-x="399" 
d="M56 753l3 -553v-1q-1 -18 0 -32v-19q3 -67 21.5 -96t69.5 -49q7 -3 20 -3.5t26 -0.5t42.5 0.5t54.5 0.5q12 9 24.5 37.5t18.5 51.5l6 24q-4 6 -37.5 17t-38.5 15q-3 3 -9.5 9t-9.5 9.5t-6.5 8.5t-5 9.5t-1.5 9.5v562h-178z" />
    <glyph glyph-name="kappa" unicode="&#x3ba;" horiz-adv-x="753" 
d="M696 1h-220l-259 297v-297h-160v701h160v-286l241 286h193l-282 -332z" />
    <glyph glyph-name="lambda" unicode="&#x3bb;" horiz-adv-x="790" 
d="M528 0h204l-404 773h-204l178 -340l-244 -433h204l144 263z" />
    <glyph glyph-name="uni03BC" unicode="&#x3bc;" horiz-adv-x="700" 
d="M250 513v-244q0 -76 22.5 -108t78 -32t78.5 32t23 108v244h176v-287q0 -128 -66 -184.5t-212 -56.5q-57 0 -102 8v-181h-176v701h178z" />
    <glyph glyph-name="nu" unicode="&#x3bd;" horiz-adv-x="778" 
d="M264 513l152 -353l98 353h210l-275 -513h-120l-275 513h210z" />
    <glyph glyph-name="xi" unicode="&#x3be;" horiz-adv-x="648" 
d="M442 598l128 128q-36 1 -232 1h-288v-129h72q-15 -35 -15 -75q0 -84 62 -132q-89 -54 -89 -161q0 -100 73.5 -165t186.5 -65q97 0 163 25l2 7l89 63l4 -122l-48 -82l-83 4l36 130q33 12 55.5 29.5t29.5 29.5l6 11l-148 72q0 -29 -105 -29q-45 0 -73 24.5t-28 67.5
q0 45 29 74t72 29q8 0 15.5 -1t11.5 -2l4 -2v105h-35q-33 0 -58.5 25.5t-25.5 62.5q0 30 21 51.5t52 26.5h13v1z" />
    <glyph glyph-name="omicron" unicode="&#x3bf;" horiz-adv-x="842" 
d="M240 364q0 -41 10.5 -77t31 -66.5t56.5 -48t83 -17.5q31 0 57.5 8t46 23t34.5 34.5t24 43t14 48.5t5 52q0 40 -11 77t-32.5 66.5t-57 47.5t-80.5 18q-58 0 -100.5 -31t-61.5 -77.5t-19 -100.5zM68 364q0 75 28 142.5t76 116t113 76.5t136 28q97 0 178 -47.5t128 -131.5
t47 -184q0 -101 -45.5 -184.5t-126.5 -131.5t-181 -48q-101 0 -182.5 48t-126 131t-44.5 185z" />
    <glyph glyph-name="psi" unicode="&#x3c8;" horiz-adv-x="782" 
d="M707 710v-452q0 -107 -64 -172.5t-172 -83.5v-78h-159v78q-108 18 -172.5 84t-64.5 172v452h160v-406q0 -101 77 -136v542h159v-542q76 34 76 136v406h160z" />
    <glyph glyph-name="uni03DC" unicode="&#x3dc;" horiz-adv-x="550" 
d="M478 703v-140h-246v-140h227v-140h-227v-281h-160v701h406z" />
    <glyph glyph-name="uni03F2" unicode="&#x3f2;" horiz-adv-x="560" 
d="M362 383q-50 0 -86 -37t-36 -89q0 -53 36 -90t86 -37q24 0 45.5 6t30.5 12l10 6l60 -123q-7 -5 -19.5 -12.5t-57 -20.5t-95.5 -13q-113 0 -198.5 79.5t-85.5 190.5q0 112 85.5 192.5t198.5 80.5q51 0 94 -12t60 -24l18 -12l-60 -121q-33 24 -86 24z" />
    <glyph glyph-name="uni03F3" unicode="&#x3f3;" horiz-adv-x="444" 
d="M198 513v-558q0 -70 -48 -70q-10 0 -21.5 3.5t-17.5 7.5l-7 4l-54 -143q2 -1 12.5 -6t16 -7.5t19 -6.5t25 -6t29.5 -4t38 -2q51 0 88.5 17.5t58 47t30 62t9.5 69.5v592h-178zM289.5 830q43.5 0 74 -31t30.5 -74t-30.5 -74t-74 -31t-74.5 31t-31 74t31 74t74.5 31z" />
    <glyph glyph-name="uni03F4" unicode="&#x3f4;" horiz-adv-x="972" 
d="M70 413q0 89 33.5 168.5t89.5 136t133 89.5t160 33q114 0 209 -56t151 -154.5t56 -216.5q0 -119 -54 -217t-149.5 -154.5t-212.5 -56.5q-119 0 -214.5 56.5t-148.5 154t-53 217.5zM277 363q12 -86 64 -141t145 -55q92 0 144.5 55.5t64.5 140.5h-418zM695 459
q-7 55 -31 99t-70 72.5t-108 28.5q-89 0 -143 -57t-66 -143h418z" />
    <glyph glyph-name="uni03F5" unicode="&#x3f5;" horiz-adv-x="724" 
d="M461 158q37 0 71.5 11t50.5 22l16 11l68 -136q-3 -3 -9 -7.5t-28 -15.5t-46.5 -19.5t-64.5 -15.5t-82 -7q-98 0 -185.5 48t-141 132t-53.5 182q0 74 31.5 142t83.5 116.5t121.5 77.5t143.5 29q42 0 81.5 -6.5t65.5 -16t45.5 -19t28.5 -16.5l9 -7l-68 -136
q-6 5 -17.5 12.5t-47.5 19.5t-73 12q-81 0 -135.5 -35.5t-78.5 -91.5h305v-159h-305q24 -56 78.5 -91.5t135.5 -35.5z" />
    <glyph glyph-name="uni03F6" unicode="&#x3f6;" horiz-adv-x="724" 
d="M263 158q-37 0 -71.5 11t-50.5 22l-16 11l-68 -136q3 -3 9 -7.5t28 -15.5t46.5 -19.5t64.5 -15.5t82 -7q98 0 185.5 48t141 132t53.5 182q0 74 -31.5 142t-83.5 116.5t-121.5 77.5t-143.5 29q-42 0 -81.5 -6.5t-65.5 -16t-45.5 -19t-28.5 -16.5l-9 -7l68 -136
q6 5 17.5 12.5t47.5 19.5t73 12q81 0 135.5 -35.5t78.5 -91.5h-305v-159h305q-24 -56 -78.5 -91.5t-135.5 -35.5z" />
    <glyph glyph-name="uni03F7" unicode="&#x3f7;" horiz-adv-x="724" 
d="M258 303h54q39 0 68.5 9.5t49.5 34.5t20 65q0 59 -38 84.5t-100 25.5h-54v-219zM258 825v-153h114q126 0 204 -65t78 -189q0 -62 -21.5 -112.5t-59.5 -84t-89.5 -51t-111.5 -17.5h-114v-153h-188v825h188z" />
    <glyph glyph-name="uni03F8" unicode="&#x3f8;" horiz-adv-x="639" 
d="M232 259h45q52 0 85 22t33 71q0 50 -33 72t-85 22h-45v-187zM232 703v-130h96q52 0 95 -13.5t75.5 -39.5t50.5 -68t18 -95q0 -105 -67 -165t-172 -60h-96v-130h-160v701h160z" />
    <glyph glyph-name="uni03F9" unicode="&#x3f9;" horiz-adv-x="819" 
d="M526 170q43 0 83.5 13t59.5 25l19 13l80 -160q-3 -3 -10.5 -8t-33 -18.5t-54.5 -23.5t-75.5 -18t-96.5 -8q-87 0 -168.5 33.5t-143 90.5t-99 136.5t-37.5 165.5q0 87 37.5 167t98.5 137t143 91t169 34q50 0 96 -8t76.5 -19t53.5 -22t34 -19l10 -8l-80 -160q-2 2 -7 5.5
t-21.5 12.5t-34.5 15.5t-45 12t-54 5.5q-67 0 -121 -22t-86 -58t-48.5 -77.5t-16.5 -84.5t16.5 -85t48.5 -78t86 -58t121 -22z" />
    <glyph glyph-name="uni03FA" unicode="&#x3fa;" horiz-adv-x="1033" 
d="M786 0l-40 489h-4l-170 -484h-112l-168 484h-6l-38 -489h-188l74 825h200l182 -476l184 476h200l74 -825h-188z" />
    <glyph glyph-name="uni03FB" unicode="&#x3fb;" horiz-adv-x="933" 
d="M723 0l-33 416h-4l-144 -412h-95l-144 412h-4l-89 -662h-160l119 947h170l155 -404l156 404h170l63 -701h-160z" />
    <glyph glyph-name="uni03FD" unicode="&#x3fd;" horiz-adv-x="820" 
d="M293 655q-43 0 -83.5 -12.5t-59.5 -25.5l-19 -13l-80 160q4 3 11 8t32.5 18.5t54.5 23.5t76 18t97 8q115 0 218 -56.5t166 -155.5t63 -214q0 -87 -37 -167t-98.5 -137t-143.5 -91t-168 -34q-80 0 -147.5 19t-95.5 38l-28 19l80 160q7 -6 21 -14.5t56 -22.5t85 -14
q68 0 122 22t85.5 58t48 77.5t16.5 84.5q0 94 -70.5 168.5t-201.5 74.5z" />
    <glyph glyph-name="uni03FE" unicode="&#x3fe;" horiz-adv-x="833" 
d="M534 170q42 0 82.5 13t59.5 25l20 13l80 -160q-4 -3 -11.5 -8t-33 -18.5t-54.5 -23.5t-75.5 -18t-97.5 -8q-86 0 -167.5 33.5t-143 90.5t-98.5 136.5t-37 165.5q0 87 37 167t98 137t143 91t168 34q51 0 97 -8t76.5 -19t53.5 -22t34 -19l11 -8l-80 -160q-3 2 -8 5.5
t-21.5 12.5t-34.5 15.5t-45 12t-53 5.5q-68 0 -122 -22t-86 -58t-48 -77.5t-16 -84.5t16 -85t48 -78t86 -58t122 -22zM508 491q-33 0 -55.5 -22.5t-22.5 -55.5t22.5 -55.5t55.5 -22.5t55.5 22.5t22.5 55.5t-22.5 55.5t-55.5 22.5z" />
    <glyph glyph-name="uni03FF" unicode="&#x3ff;" horiz-adv-x="833" 
d="M300 170q-43 0 -83.5 13t-59.5 25l-19 13l-80 -160q3 -3 10.5 -8t33 -18.5t54.5 -23.5t75.5 -18t96.5 -8q87 0 168.5 33.5t143 90.5t99 136.5t37.5 165.5q0 87 -37.5 167t-98.5 137t-143 91t-169 34q-50 0 -96 -8t-76.5 -19t-53.5 -22t-34 -19l-10 -8l80 -160q2 2 7 5.5
t21.5 12.5t34.5 15.5t45 12t54 5.5q67 0 121 -22t86 -58t48.5 -77.5t16.5 -84.5t-16.5 -85t-48.5 -78t-86 -58t-121 -22zM325 491q33 0 55.5 -22.5t22.5 -55.5t-22.5 -55.5t-55.5 -22.5t-55.5 22.5t-22.5 55.5t22.5 55.5t55.5 22.5z" />
    <glyph glyph-name="uni0404" unicode="&#x404;" horiz-adv-x="820" 
d="M527 170q43 0 83.5 13t59.5 25l19 13l80 -160q-4 -3 -11 -8t-32.5 -18.5t-54.5 -23.5t-76 -18t-97 -8q-115 0 -218 56.5t-166 155.5t-63 214q0 87 37 167t98.5 137t143.5 91t168 34q80 0 147.5 -19t95.5 -38l28 -19l-80 -160q-7 6 -21 14.5t-56 22.5t-85 14
q-96 0 -160 -41.5t-92 -107.5h359v-188h-359q28 -65 92 -106.5t160 -41.5z" />
    <glyph glyph-name="uni0405" unicode="&#x405;" horiz-adv-x="672" 
d="M364 840q67 0 131 -19.5t95 -38.5l30 -20l-76 -150q-9 6 -25 15.5t-60 25.5t-82 16q-47 0 -72.5 -20t-25.5 -54q0 -17 12 -31.5t41 -31t51 -26.5t68 -30q80 -34 136.5 -92.5t56.5 -132.5q0 -71 -25.5 -124t-70 -83t-98.5 -44.5t-117 -14.5q-54 0 -106 11t-87 27.5
t-63 32.5t-41 27l-13 11l94 158q12 -10 33 -25.5t74.5 -41.5t94.5 -26q119 0 119 81q0 17 -8.5 31.5t-30 29t-38 23t-54 26t-55.5 26.5q-75 37 -116 92.5t-41 119.5q0 111 82 181.5t187 70.5z" />
    <glyph glyph-name="uni0406" unicode="&#x406;" horiz-adv-x="338" 
d="M263 825v-825h-188v825h188z" />
    <glyph glyph-name="uni0407" unicode="&#x407;" horiz-adv-x="308" 
d="M248 825v-825h-188v825h188zM273 1103q38 0 65 -27t27 -65t-27 -65t-65 -27t-65 27t-27 65t27 65t65 27zM36 1103q38 0 65 -27t27 -65t-27 -65t-65 -27t-65 27t-27 65t27 65t65 27z" />
    <glyph glyph-name="uni0408" unicode="&#x408;" horiz-adv-x="469" 
d="M419 825v-592q0 -121 -66.5 -184.5t-190.5 -63.5q-33 0 -65 8t-54 19.5t-39.5 23.5t-25.5 20l-9 8l60 157q59 -56 107 -56q43 0 69 28.5t26 87.5v544h188z" />
    <glyph glyph-name="uni0409" unicode="&#x409;" horiz-adv-x="1279" 
d="M379 253q1 -30 -8.5 -62t-27.5 -64t-44.5 -64t-60.5 -63h-188q15 20 42 54t40 51.5t29 44t22.5 51t7.5 52.5v572h188h266h1h187h1v-306h113q124 0 203 -70.5t79 -194.5t-78 -189t-204 -65h-114h-187h-1v660h-266v-407zM834 369v-219h53q63 0 103.5 25.5t40.5 84.5
q0 58 -40.5 83.5t-103.5 25.5h-53z" />
    <glyph glyph-name="uni040A" unicode="&#x40a;" horiz-adv-x="1178" 
d="M259 331v-331h-188v825h188v-329h265v329h1h187h1v-306h112q124 0 203 -70.5t79 -194.5t-78 -189t-204 -65h-112h-188h-1v331h-265zM713 369v-219h52q63 0 103.5 25.5t40.5 84.5q0 58 -40.5 83.5t-103.5 25.5h-52z" />
    <glyph glyph-name="uni040F" unicode="&#x40f;" horiz-adv-x="792" 
d="M529 165v660h188v-825h-188h-65v-152h-135v152h-66h-188v825h188v-660h266z" />
    <glyph glyph-name="uni0410" unicode="&#x410;" horiz-adv-x="784" 
d="M485 330l-92 240h-2l-92 -240h186zM479 825l333 -825h-202l-61 165h-314l-61 -165h-202l333 825h174z" />
    <glyph glyph-name="uni0411" unicode="&#x411;" horiz-adv-x="724" 
d="M258 369h54q63 0 103.5 -25.5t40.5 -83.5q0 -59 -40.5 -84.5t-103.5 -25.5h-54v219zM70 0h302q126 0 204 65t78 189t-79 194.5t-203 70.5h-114v221h198v120h-386v-35v-85v-740z" />
    <glyph glyph-name="uni0412" unicode="&#x412;" horiz-adv-x="714" 
d="M254 145h58q138 0 138 92q0 55 -34 79t-104 24h-58v-195zM254 502h14q63 0 94.5 22t31.5 72q0 84 -126 84h-14v-178zM66 825h256q55 0 99.5 -11t80 -35t55 -65.5t19.5 -98.5q0 -59 -26 -105t-78 -72q176 -31 176 -208q0 -104 -71.5 -167t-198.5 -63h-312v825z" />
    <glyph glyph-name="uni0413" unicode="&#x413;" horiz-adv-x="607" 
d="M256 660h284v165h-472v-825h188v660z" />
    <glyph glyph-name="uni0414" unicode="&#x414;" horiz-adv-x="1072" 
d="M998 56v-322h-160v169h-604v-169h-160v322h47q14 19 41.5 54t40 52t28.5 44t23 51.5t8 52.5v515h618v-769h118zM450 310q3 -123 -141 -254h383v604h-242v-350z" />
    <glyph glyph-name="uni0415" unicode="&#x415;" horiz-adv-x="620" 
d="M546 825v-165h-284v-164h272v-165h-272v-166h284v-165h-472v825h472z" />
    <glyph glyph-name="uni0416" unicode="&#x416;" horiz-adv-x="1055" 
d="M1000 0h-243l-137 168v-168h-188v169l-144 -169h-233l357 444l-305 381h224l101 -115v115h188v-114l94 114h234l-304 -381z" />
    <glyph glyph-name="uni0417" unicode="&#x417;" horiz-adv-x="726" 
d="M243 587l-148 72q2 7 6 19.5t24 43.5t47 55t79 43.5t117 19.5q118 0 194.5 -67.5t76.5 -172.5q0 -98 -73 -155q105 -64 105 -189q0 -118 -86.5 -194.5t-219.5 -76.5q-71 0 -129 21t-90.5 50.5t-54 59.5t-29.5 51l-7 21l174 85q0 -5 1.5 -13.5t10.5 -30.5t22 -38.5
t39.5 -30t61.5 -13.5q53 0 86 29t33 80q0 53 -34.5 87t-84.5 34l-36 -6v123h41q39 0 69 30t30 74q0 39 -30.5 65t-71.5 26q-29 0 -52.5 -10.5t-36 -25.5t-21 -30t-10.5 -25z" />
    <glyph glyph-name="uni0418" unicode="&#x418;" horiz-adv-x="856" 
d="M593 512v-512h188v825h-188l-328 -512h-2v512h-188v-825h188l328 512h2z" />
    <glyph glyph-name="uni0419" unicode="&#x419;" horiz-adv-x="856" 
d="M593 512v-512h188v825h-188l-328 -512h-2v512h-188v-825h188l328 512h2zM532 1077l126 -31q-9 -81 -72 -131t-159 -50t-159 50t-72 131l126 31q0 -4 1.5 -11t8.5 -25t17.5 -31.5t31 -24.5t46.5 -11q42 0 68 26t31 52z" />
    <glyph glyph-name="uni041A" unicode="&#x41a;" horiz-adv-x="787" 
d="M811 0h-259l-304 350v-350h-188v825h188v-337l283 337h228l-332 -391z" />
    <glyph glyph-name="uni041B" unicode="&#x41b;" horiz-adv-x="894" 
d="M384 253q2 -60 -35 -125.5t-105 -127.5h-188q14 20 41 54t40 51.5t29 44t23 51t7 52.5v572h188h266h188v-825h-188v660h-266v-407z" />
    <glyph glyph-name="uni041C" unicode="&#x41c;" horiz-adv-x="1032" 
d="M785 0l-39 489h-5l-169 -484h-112l-169 484h-5l-39 -489h-188l74 825h200l183 -476l183 476h200l74 -825h-188z" />
    <glyph glyph-name="uni041D" unicode="&#x41d;" horiz-adv-x="792" 
d="M263 331v-331h-188v825h188v-329h266v329h188v-825h-188v331h-266z" />
    <glyph glyph-name="uni041E" unicode="&#x41e;" horiz-adv-x="959" 
d="M267 413q0 -65 20 -118.5t70 -90.5t123 -37q105 0 158.5 72t53.5 174q0 101 -54.5 173.5t-157.5 72.5q-102 0 -157.5 -72.5t-55.5 -173.5zM64 413q0 179 122 303t294 124q173 0 294 -123.5t121 -303.5q0 -181 -119 -304.5t-296 -123.5q-181 0 -298.5 122.5t-117.5 305.5z
" />
    <glyph glyph-name="uni041F" unicode="&#x41f;" horiz-adv-x="792" 
d="M263 660v-660h-188v825h188h266h188v-825h-188v660h-266z" />
    <glyph glyph-name="uni0420" unicode="&#x420;" horiz-adv-x="715" 
d="M254 456h53q63 0 103.5 25.5t40.5 83.5q0 59 -40.5 84.5t-103.5 25.5h-53v-219zM66 825h301q126 0 204 -65t78 -189t-79 -194.5t-203 -70.5h-113v-306h-188v825z" />
    <glyph glyph-name="uni0421" unicode="&#x421;" horiz-adv-x="820" 
d="M527 170q43 0 83.5 13t59.5 25l19 13l80 -160q-4 -3 -11 -8t-32.5 -18.5t-54.5 -23.5t-76 -18t-97 -8q-115 0 -218 56.5t-166 155.5t-63 214q0 87 37 167t98.5 137t143.5 91t168 34q80 0 147.5 -19t95.5 -38l28 -19l-80 -160q-7 6 -21 14.5t-56 22.5t-85 14
q-68 0 -122 -22t-85.5 -58t-48 -77.5t-16.5 -84.5q0 -94 70.5 -168.5t201.5 -74.5z" />
    <glyph glyph-name="uni0422" unicode="&#x422;" horiz-adv-x="716" 
d="M68 660v165h580v-165h-196v-660h-188v660h-196z" />
    <glyph glyph-name="uni0423" unicode="&#x423;" horiz-adv-x="828" 
d="M60 825h222l186 -264l96 264h204l-162 -449l-140 -376h-188h-124v110h161l89 260z" />
    <glyph glyph-name="uni0424" unicode="&#x424;" horiz-adv-x="956" 
d="M382 828v69h188v-67q92 -21 165.5 -79.5t116 -147t42.5 -190.5q0 -156 -90.5 -271.5t-233.5 -146.5v-72h-188v72q-144 32 -232 147t-88 271q0 152 90.5 267t229.5 148zM382 188v449q-57 -30 -86.5 -91t-29.5 -133q0 -75 28.5 -136t87.5 -89zM570 186q60 27 90 89t30 138
q0 74 -30.5 136t-89.5 91v-454z" />
    <glyph glyph-name="uni0425" unicode="&#x425;" horiz-adv-x="976" 
d="M921 0h-243l-195 281l-195 -281h-233l312 444l-260 381h224l152 -225l152 225h234l-270 -381z" />
    <glyph glyph-name="uni0426" unicode="&#x426;" horiz-adv-x="845" 
d="M522 165v660h188v-663h68v-401h-141v239h-569v825h188v-660h266z" />
    <glyph glyph-name="uni0427" unicode="&#x427;" horiz-adv-x="682" 
d="M616 860v-860h-176v332h-150q-29 0 -59 6t-60 20t-53.5 35t-37.5 54.5t-14 74.5v338h176v-290q0 -40 25.5 -70t66.5 -30q40 0 73 31t33 69v290h176z" />
    <glyph glyph-name="uni0428" unicode="&#x428;" horiz-adv-x="1248" 
d="M529 165v660h2h186h2v-660h266v660h188v-825h-188h-266h-2h-186h-2h-266h-188v825h188v-660h266z" />
    <glyph glyph-name="uni0429" unicode="&#x429;" horiz-adv-x="1309" 
d="M522 165v660h190v-660h266v660h188v-661h76v-401h-141v237h-1033v825h188v-660h266z" />
    <glyph glyph-name="uni042A" unicode="&#x42a;" horiz-adv-x="881" 
d="M436 369h52q64 0 104 -25.5t40 -83.5q0 -59 -40 -84.5t-104 -25.5h-52v219zM248 0h300q127 0 204.5 65t77.5 189t-78.5 194.5t-203.5 70.5h-112v221v85v35h-386v-120h198v-740z" />
    <glyph glyph-name="uni042B" unicode="&#x42b;" horiz-adv-x="974" 
d="M263 369h53q63 0 103.5 -25.5t40.5 -83.5q0 -59 -40.5 -84.5t-103.5 -25.5h-53v219zM75 0h301q126 0 204 65t78 189t-79 194.5t-203 70.5h-113v306h-188v-825zM899 825v-825h-188v825h188z" />
    <glyph glyph-name="uni042C" unicode="&#x42c;" horiz-adv-x="725" 
d="M259 369h53q63 0 103.5 -25.5t40.5 -83.5q0 -59 -40.5 -84.5t-103.5 -25.5h-53v219zM71 0h301q126 0 204 65t78 189t-79 194.5t-203 70.5h-113v306h-188v-825z" />
    <glyph glyph-name="uni042D" unicode="&#x42d;" horiz-adv-x="829" 
d="M298 170q-43 0 -83.5 13t-59.5 25l-19 13l-80 -160q3 -3 10.5 -8t33 -18.5t54.5 -23.5t75.5 -18t96.5 -8q87 0 168.5 33.5t143 90.5t99 136.5t37.5 165.5q0 87 -37.5 167t-98.5 137t-143 91t-169 34q-50 0 -96 -8t-76.5 -19t-53.5 -22t-34 -19l-10 -8l80 -160q0 1 1.5 2
t7 4.5t11.5 7t15.5 8t19 8.5t22.5 8t25.5 6.5t28 4.5t31.5 2q96 0 159.5 -41.5t92.5 -107.5h-359v-188h359q-29 -65 -92.5 -106.5t-159.5 -41.5z" />
    <glyph glyph-name="uni042E" unicode="&#x42e;" horiz-adv-x="1267" 
d="M572 413q0 -48 11.5 -90.5t36 -78t67 -56.5t97.5 -21t96.5 21t66.5 56.5t37 78t12 90.5q0 47 -12.5 90.5t-37.5 78.5t-67 56t-95 21q-69 0 -118.5 -36.5t-71.5 -91t-22 -118.5zM256 331v-331h-188v825h188v-329h120q19 99 77.5 177.5t145.5 122.5t185 44q114 0 209 -56
t151 -154.5t56 -216.5q0 -119 -54 -217t-149.5 -154.5t-212.5 -56.5q-159 0 -271 97t-138 249h-119z" />
    <glyph glyph-name="uni042F" unicode="&#x42f;" horiz-adv-x="790" 
d="M546 459h-22q-26 0 -43.5 1t-41 7t-37.5 17t-24 32t-10 51q0 25 6.5 43.5t19 30t26 19t33.5 10.5t35 4t36 1h22v-216zM734 825h-294q-120 0 -195 -63.5t-75 -181.5q0 -91 45.5 -152.5t124.5 -86.5l-284 -341h238l252 326v-326h188v825z" />
    <glyph glyph-name="uni0430" unicode="&#x430;" horiz-adv-x="747" 
d="M262 256q0 -53 33 -86.5t87 -33.5q51 0 84.5 34t33.5 86.5t-34 86.5t-84 34q-51 0 -85.5 -34t-34.5 -87zM74 256q0 114 72 193t182 79q103 0 168 -64v49h178v-513h-176v58h-2q-29 -33 -73 -53t-95 -20q-110 0 -182 78.5t-72 192.5z" />
    <glyph glyph-name="uni0432" unicode="&#x432;" horiz-adv-x="635" 
d="M230 125h50q117 0 117 78q0 47 -29 67.5t-88 20.5h-50v-166zM230 429h12q54 0 80.5 18.5t26.5 60.5q0 72 -107 72h-12v-151zM70 703h217q48 0 85.5 -9.5t67.5 -29.5t46.5 -55.5t16.5 -83.5q0 -106 -87 -151q149 -26 149 -177q0 -88 -61 -141.5t-168 -53.5h-266v701z" />
    <glyph glyph-name="uni0433" unicode="&#x433;" horiz-adv-x="547" 
d="M233 563h241v140h-401v-701h161z" />
    <glyph glyph-name="uni0434" unicode="&#x434;" horiz-adv-x="902" 
d="M844 50v-274h-136v143h-514v-143h-136v274h40q12 16 35.5 45.5t34 44t24.5 37.5t19.5 44t6.5 44v438h525v-653h101zM378 265q1 -51 -30.5 -106.5t-89.5 -108.5h326v513h-206v-298z" />
    <glyph glyph-name="uni0435" unicode="&#x435;" horiz-adv-x="698" 
d="M260 330h194q-5 40 -31 61.5t-65 21.5q-45 0 -70.5 -23t-27.5 -60zM626 232h-372q0 -54 35 -80t77 -26q29 0 48.5 5t36.5 16.5t39 35.5l128 -64q-80 -134 -266 -134q-116 0 -199 79.5t-83 191.5t83 192t199 80q122 0 199 -70.5t77 -201.5q0 -18 -2 -24z" />
    <glyph glyph-name="uni0436" unicode="&#x436;" horiz-adv-x="899" 
d="M851 1h-206l-117 143v-143h-160v143l-122 -143h-198l303 377l-259 324h190l86 -98v98h160v-97l80 97h199l-258 -324z" />
    <glyph glyph-name="uni0437" unicode="&#x437;" horiz-adv-x="641" 
d="M218 512l-125 61q1 6 4.5 16.5t20.5 37t40 47t67.5 37t99.5 16.5q66 0 118.5 -26t82 -72.5t29.5 -105.5q0 -84 -62 -132q89 -54 89 -161q0 -100 -73.5 -165t-186.5 -65q-34 0 -65.5 6t-55 16t-43.5 23t-34.5 27t-26 28.5t-18.5 27.5t-12 23t-6 16l-2 6l148 72
q0 -2 0.5 -6t3.5 -15t7.5 -21.5t13.5 -22.5t20.5 -21t29.5 -15t39 -6q45 0 73 24.5t28 67.5q0 45 -29 74t-72 29q-7 0 -15 -1t-11 -3l-4 -1v105h35q33 0 58.5 25.5t25.5 62.5q0 22 -12.5 40t-32 28t-42.5 10q-25 0 -44.5 -9t-30.5 -22t-18 -25.5t-9 -21.5z" />
    <glyph glyph-name="uni0438" unicode="&#x438;" horiz-adv-x="750" 
d="M515 436v-435h160v701h-160l-279 -435h-1v435h-160v-701h160l279 435h1z" />
    <glyph glyph-name="uni0439" unicode="&#x439;" horiz-adv-x="750" 
d="M515 438v-435h160v701h-160l-279 -435h-1v435h-160v-701h160l279 435h1zM463 918l107 -26q-7 -69 -60.5 -111.5t-135.5 -42.5q-54 0 -97 19.5t-68.5 54.5t-30.5 80l107 26q0 -3 1 -9t7 -21t15 -26.5t26.5 -21t40 -9.5t39.5 9t26 21.5t15 25.5t7 22z" />
    <glyph glyph-name="uni043A" unicode="&#x43a;" horiz-adv-x="755" 
d="M697 1h-220l-259 297v-297h-160v701h160v-286l241 286h193l-282 -332z" />
    <glyph glyph-name="uni043B" unicode="&#x43b;" horiz-adv-x="780" 
d="M337 216q2 -104 -120 -215h-160q13 17 36 46t33.5 44t24.5 37.5t19.5 43t6.5 44.5v486h160h226h160v-701h-160v561h-226v-346z" />
    <glyph glyph-name="uni043C" unicode="&#x43c;" horiz-adv-x="900" 
d="M679 0l-33 416h-5l-143 -412h-96l-143 412h-5l-33 -416h-159l62 701h170l156 -404l156 404h170l62 -701h-159z" />
    <glyph glyph-name="uni043D" unicode="&#x43d;" horiz-adv-x="696" 
d="M235 283v-281h-160v701h160v-280h226v280h160v-701h-160v281h-226z" />
    <glyph glyph-name="uni043E" unicode="&#x43e;" horiz-adv-x="833" 
d="M236 364q0 -41 10 -77t31 -66.5t57 -48t83 -17.5q31 0 57.5 8t46 23t34.5 34.5t24 43t13.5 48.5t4.5 52q0 40 -11 77t-32 66.5t-56.5 47.5t-80.5 18q-59 0 -101 -31t-61 -77.5t-19 -100.5zM63 364q0 75 28.5 142.5t76 116t113 76.5t136.5 28q96 0 177 -47.5t128.5 -131.5
t47.5 -184q0 -101 -46 -184.5t-127 -131.5t-180 -48q-102 0 -183 48t-126 131t-45 185z" />
    <glyph glyph-name="uni043F" unicode="&#x43f;" horiz-adv-x="696" 
d="M235 562v-561h-160v701h160h226h160v-701h-160v561h-226z" />
    <glyph glyph-name="uni0440" unicode="&#x440;" horiz-adv-x="745" 
d="M484 257q0 53 -33 86.5t-87 33.5q-51 0 -84.5 -34t-33.5 -86.5t34 -86.5t84 -34q51 0 85.5 34t34.5 87zM672 257q0 -114 -72 -193t-182 -79q-103 0 -168 64v-309h-178v773h176v-58h2q14 16 32 29t39.5 23t46 15.5t50.5 5.5q110 0 182 -78.5t72 -192.5z" />
    <glyph glyph-name="uni0441" unicode="&#x441;" horiz-adv-x="714" 
d="M456 159q37 0 71.5 11t50.5 22l16 11l68 -136q-3 -3 -9 -7.5t-28 -15.5t-46.5 -19.5t-64.5 -15.5t-82 -7q-98 0 -185.5 48t-141 132t-53.5 182q0 74 31.5 142t83.5 116.5t121.5 77.5t143.5 29q42 0 81.5 -6.5t65.5 -16t45.5 -19t28.5 -16.5l9 -7l-68 -136
q-6 5 -17.5 12.5t-47.5 19.5t-73 12q-46 0 -85 -12.5t-65.5 -33t-45 -47.5t-27 -55.5t-8.5 -57.5q0 -37 14 -72.5t41 -66t73 -49.5t103 -19z" />
    <glyph glyph-name="uni0442" unicode="&#x442;" horiz-adv-x="622" 
d="M64 563v140h494v-140h-167v-561h-160v561h-167z" />
    <glyph glyph-name="uni0443" unicode="&#x443;" horiz-adv-x="710" 
d="M54 702h188l159 -224l82 224h173l-137 -382l-120 -319h-160h-105v93h137l75 221z" />
    <glyph glyph-name="uni0444" unicode="&#x444;" horiz-adv-x="1037" 
d="M687 217q43 0 75 14t49 37.5t24.5 49t7.5 54.5q0 28 -7.5 54t-24.5 49t-49 37t-75 14q-49 0 -92 -25v-259q43 -25 92 -25zM435 505q-41 21 -85 21q-43 0 -75 -14t-49 -37t-24.5 -49t-7.5 -54q0 -29 7.5 -54.5t24.5 -49t49 -37.5t75 -14q44 0 85 21v267zM435 629v268h160
v-270q51 17 110 17q111 0 186.5 -79.5t75.5 -193.5t-75.5 -193t-186.5 -79q-59 0 -110 17v-193h-160v191q-48 -15 -103 -15q-111 0 -186.5 79t-75.5 193t75.5 193.5t186.5 79.5q55 0 103 -15z" />
    <glyph glyph-name="uni0445" unicode="&#x445;" horiz-adv-x="827" 
d="M782 1h-207l-166 239l-165 -239h-199l266 377l-221 324h190l129 -191l129 191h199l-229 -324z" />
    <glyph glyph-name="uni0446" unicode="&#x446;" horiz-adv-x="739" 
d="M454 142v561h159v-563h58v-341h-119v203h-484v701h160v-561h226z" />
    <glyph glyph-name="uni0447" unicode="&#x447;" horiz-adv-x="595" 
d="M532 732v-730h-151v282h-126q-33 0 -64.5 8.5t-61 26t-48 50.5t-18.5 76v287h151v-246q0 -34 21.5 -59.5t56.5 -25.5q34 0 61.5 26.5t27.5 58.5v246h151z" />
    <glyph glyph-name="uni0448" unicode="&#x448;" horiz-adv-x="1083" 
d="M461 142v561h1h159h1v-561h226v561h160v-701h-160h-226h-1h-159h-1h-226h-160v701h160v-561h226z" />
    <glyph glyph-name="uni0449" unicode="&#x449;" horiz-adv-x="1133" 
d="M453 142v561h162v-561h226v561h160v-562h64v-341h-119v202h-878v701h159v-561h226z" />
    <glyph glyph-name="uni044A" unicode="&#x44a;" horiz-adv-x="784" 
d="M388 315h45q53 0 87.5 -21.5t34.5 -71.5t-34.5 -71.5t-87.5 -21.5h-45v186zM228 2h256q107 0 173.5 55t66.5 160q0 106 -67 166t-173 60h-96v187v73v29h-328v-102h168v-628z" />
    <glyph glyph-name="uni044B" unicode="&#x44b;" horiz-adv-x="850" 
d="M235 315h45q53 0 87.5 -22t34.5 -71q0 -50 -34.5 -72t-87.5 -22h-45v187zM75 1h256q107 0 173 55.5t66 160.5t-67 165t-172 60h-96v260h-160v-701zM775 702v-701h-160v701h160z" />
    <glyph glyph-name="uni044C" unicode="&#x44c;" horiz-adv-x="632" 
d="M228 316h45q54 0 88 -22t34 -71q0 -50 -34 -72t-88 -22h-45v187zM68 2h256q70 0 123 23t85 72.5t32 120.5q0 105 -67 165t-173 60h-96v260h-160v-701z" />
    <glyph glyph-name="uni044D" unicode="&#x44d;" horiz-adv-x="715" 
d="M258 158q-36 0 -70.5 11t-50.5 22l-17 11l-68 -136l10 -7.5t27.5 -15.5t46.5 -19.5t64.5 -15.5t82.5 -7q98 0 185.5 48t141 132t53.5 182q0 74 -32 142t-84 116.5t-121.5 77.5t-142.5 29q-43 0 -82.5 -6.5t-65 -16t-45.5 -19t-29 -16.5l-9 -7l68 -136q7 5 18.5 12.5
t47.5 19.5t72 12q82 0 136 -35.5t78 -91.5h-304v-159h304q-24 -56 -78 -91.5t-136 -35.5z" />
    <glyph glyph-name="uni044E" unicode="&#x44e;" horiz-adv-x="1090" 
d="M492 355q0 -41 10.5 -77t31 -66.5t56.5 -48t83 -17.5q31 0 57.5 8t46 23t34.5 34.5t24 43t14 48.5t5 52q0 55 -18.5 101t-60.5 77t-102 31q-58 0 -100.5 -31t-61.5 -77.5t-19 -100.5zM224 285v-281h-160v701h160v-280h102q24 128 122 210.5t225 82.5q96 0 177 -47.5
t128.5 -131.5t47.5 -184q0 -101 -46 -184.5t-127 -131.5t-180 -48q-90 0 -164.5 38t-121.5 104.5t-61 151.5h-102z" />
    <glyph glyph-name="uni044F" unicode="&#x44f;" horiz-adv-x="692" 
d="M475 392h-19q-22 0 -37 1t-35 6t-32 14.5t-20.5 27.5t-8.5 43t8.5 43t20.5 27t32 14.5t35 6.5t37 1h19v-184zM635 703h-251q-102 0 -165.5 -54t-63.5 -154q0 -77 39 -129.5t105 -73.5l-242 -290h204l214 277v-277h160v701z" />
    <glyph glyph-name="uni0450" unicode="&#x450;" horiz-adv-x="673" 
d="M247 330h195q-6 40 -31.5 61.5t-65.5 21.5q-44 0 -70 -23t-28 -60zM614 232h-372q0 -54 35 -80t76 -26q43 0 68 11.5t57 45.5l128 -64q-80 -134 -266 -134q-116 0 -199 79.5t-83 191.5t83 192t199 80q122 0 198.5 -70.5t76.5 -201.5q0 -18 -1 -24zM191 840l203 -176
l-56 -77l-238 138z" />
    <glyph glyph-name="uni0451" unicode="&#x451;" horiz-adv-x="673" 
d="M247 330h195q-6 40 -31.5 61.5t-65.5 21.5q-44 0 -70 -23t-28 -60zM614 232h-372q0 -54 35 -80t76 -26q43 0 68 11.5t57 45.5l128 -64q-80 -134 -266 -134q-116 0 -199 79.5t-83 191.5t83 192t199 80q122 0 198.5 -70.5t76.5 -201.5q0 -18 -1 -24zM455 791q38 0 65 -27
t27 -65t-27 -65t-65 -27t-65 27t-27 65t27 65t65 27zM218 791q38 0 65 -27t27 -65t-27 -65t-65 -27t-65 27t-27 65t27 65t65 27z" />
    <glyph glyph-name="uni0454" unicode="&#x454;" horiz-adv-x="710" 
d="M454 158q37 0 71.5 11t50.5 22l16 11l68 -136q-3 -3 -9 -7.5t-28 -15.5t-46.5 -19.5t-64.5 -15.5t-82 -7q-98 0 -185.5 48t-141 132t-53.5 182q0 74 31.5 142t83.5 116.5t121.5 77.5t143.5 29q42 0 81.5 -6.5t65.5 -16t45.5 -19t28.5 -16.5l9 -7l-68 -136
q-6 5 -17.5 12.5t-47.5 19.5t-73 12q-81 0 -135.5 -35.5t-78.5 -91.5h305v-159h-305q24 -56 78.5 -91.5t135.5 -35.5z" />
    <glyph glyph-name="uni0455" unicode="&#x455;" horiz-adv-x="538" 
d="M308 528q28 0 56 -4t48 -10t36 -12t24 -10l8 -4l-58 -116q-60 32 -114 32q-29 0 -41.5 -6.5t-12.5 -24.5q0 -4 1 -8t4 -7.5t5.5 -6t8 -5.5t9.5 -4.5t11.5 -4.5t12 -4.5t14 -4.5t14.5 -4q30 -9 53.5 -20t49 -30t39.5 -48t14 -66q0 -175 -244 -175q-34 0 -67.5 7t-56 17
t-40 20.5t-25.5 17.5l-9 7l72 121q8 -7 21.5 -16.5t47 -26t59.5 -16.5q15 0 25.5 2t19.5 10.5t9 24.5q0 17 -13.5 26.5t-47.5 21.5t-53 22q-48 25 -76 56.5t-28 83.5q0 78 61 121.5t163 43.5z" />
    <glyph glyph-name="uni0456" unicode="&#x456;" horiz-adv-x="335" 
d="M76 513v-513h178v513h-178zM167.5 830q43.5 0 74 -31t30.5 -74t-30.5 -74t-74 -31t-74.5 31t-31 74t31 74t74.5 31z" />
    <glyph glyph-name="uni0457" unicode="&#x457;" horiz-adv-x="528" 
d="M176 513v-513h176v513h-176zM382.5 791q38.5 0 65 -27t26.5 -65t-26.5 -65t-65 -27t-65.5 27t-27 65t27 65t65.5 27zM145.5 791q38.5 0 65.5 -27t27 -65t-27 -65t-65.5 -27t-65 27t-26.5 65t26.5 65t65 27z" />
    <glyph glyph-name="uni0458" unicode="&#x458;" horiz-adv-x="443" 
d="M198 513v-558q0 -70 -49 -70q-10 0 -21 3.5t-18 7.5l-6 4l-55 -143q2 -1 13 -6l16.5 -7.5t18.5 -6.5t25 -6t30 -4t38 -2q50 0 88 17.5t58 47t29.5 62t9.5 69.5v592h-177zM289 830q43 0 74 -31t31 -74t-31 -74t-74 -31t-74 31t-31 74t31 74t74 31z" />
    <glyph glyph-name="uni0459" unicode="&#x459;" horiz-adv-x="1103" 
d="M330 217q3 -104 -120 -215h-159q12 17 35 46t34 44t24.5 37.5t19.5 43t6 44.5v486h160h226h1h159h1v-260h96q105 0 172 -60t67 -165t-66 -160.5t-173 -55.5h-97h-159h-1v561h-226v-346zM717 316v-187h45q53 0 87.5 22t34.5 72q0 49 -34.5 71t-87.5 22h-45z" />
    <glyph glyph-name="uni045A" unicode="&#x45a;" horiz-adv-x="1021" 
d="M230 283v-281h-160v701h160v-280h225v280h1h159h1v-260h95q106 0 173 -60t67 -165t-66.5 -160.5t-173.5 -55.5h-95h-160h-1v281h-225zM616 316v-187h44q54 0 88 22t34 72q0 49 -34 71t-88 22h-44z" />
    <glyph glyph-name="uni045B" unicode="&#x45b;" horiz-adv-x="781" 
d="M172 760v100h177v-100h310v-176h-310v-125h2q69 69 147 69q30 0 60 -6t60 -20t53 -35t37.5 -54.5t14.5 -74.5v-338h-177v290q0 40 -25.5 70t-66.5 30q-40 0 -72.5 -31t-32.5 -69v-290h-177v584h-114v176h114z" />
    <glyph glyph-name="uni045D" unicode="&#x45d;" horiz-adv-x="750" 
d="M515 436v-436h160v702h-160l-279 -436h-1v436h-160v-702h160l279 436h1zM500 830l-173 150l-77 -98l202 -117z" />
    <glyph glyph-name="uni045F" unicode="&#x45f;" horiz-adv-x="696" 
d="M461 141v561h160v-702h-160h-55v-129h-115v129h-56h-160v702h160v-561h226z" />
    <glyph glyph-name="uni0472" unicode="&#x472;" horiz-adv-x="972" 
d="M70 413q0 89 33.5 168.5t89.5 136t133 89.5t160 33q114 0 209 -56t151 -154.5t56 -216.5q0 -119 -54 -217t-149.5 -154.5t-212.5 -56.5q-119 0 -214.5 56.5t-148.5 154t-53 217.5zM277 363q12 -86 64 -141t145 -55q92 0 144.5 55.5t64.5 140.5h-418zM695 459
q-7 55 -31 99t-70 72.5t-108 28.5q-89 0 -143 -57t-66 -143h418z" />
    <glyph glyph-name="uni0473" unicode="&#x473;" horiz-adv-x="848" 
d="M71 366q0 75 28 142.5t76 116t113 76.5t136 28q97 0 178 -47.5t128 -131.5t47 -184q0 -101 -45.5 -184.5t-126.5 -131.5t-181 -48q-101 0 -182.5 48t-126 131t-44.5 185zM246 323q10 -73 54.5 -119.5t123.5 -46.5q78 0 122.5 47t55.5 119h-356zM602 405
q-10 73 -55.5 121.5t-122.5 48.5q-76 0 -122 -48.5t-56 -121.5h356z" />
    <glyph glyph-name="uni0474" unicode="&#x474;" horiz-adv-x="1099" 
d="M404 0l-346 825h212l208 -542l208 542h356l-50 -141h-154l-286 -684h-148z" />
    <glyph glyph-name="uni0475" unicode="&#x475;" horiz-adv-x="955" 
d="M353 2l-294 701h181l176 -461l177 461h303l-42 -120h-131l-244 -581h-126z" />
    <glyph glyph-name="uni0492" unicode="&#x492;" horiz-adv-x="630" 
d="M301 411l1 -411h-189v411h-68v128h68v286h472v-165h-284v-121h168v-128h-168z" />
    <glyph glyph-name="uni0493" unicode="&#x493;" horiz-adv-x="549" 
d="M263 351v-349h-160v349h-58v109h58v243h401v-140h-242l1 -103h143v-109h-143z" />
    <glyph glyph-name="uni04A0" unicode="&#x4a0;" horiz-adv-x="990" 
d="M940 0h-260l-304 350v-350h-188v710h-138v115h138h188v-337l284 337h228l-332 -391z" />
    <glyph glyph-name="uni04A1" unicode="&#x4a1;" horiz-adv-x="857" 
d="M806 0h-220l-258 297v-297h-160v603h-117v98h117h160v-286l240 286h194l-282 -332z" />
    <glyph glyph-name="uni04AE" unicode="&#x4ae;" horiz-adv-x="912" 
d="M58 825h226l172 -264l172 264h226l-304 -455v-370h-188v370z" />
    <glyph glyph-name="uni04AF" unicode="&#x4af;" horiz-adv-x="796" 
d="M60 703h192l146 -224l146 224h192l-258 -387v-314h-160v314z" />
    <glyph glyph-name="uni04C0" unicode="&#x4c0;" horiz-adv-x="327" 
d="M75 0v860h177v-860h-177z" />
    <glyph glyph-name="uni04CF" unicode="&#x4cf;" horiz-adv-x="327" 
d="M75 0v860h177v-860h-177z" />
    <glyph glyph-name="uni04D0" unicode="&#x4d0;" horiz-adv-x="784" 
d="M485 330l-92 240h-2l-92 -240h186zM479 825l333 -825h-202l-61 165h-314l-61 -165h-202l333 825h174zM497 1152l126 -31q-9 -81 -72 -131t-159 -50t-159 50t-72 131l126 31q0 -4 1.5 -11t8.5 -25t17.5 -31.5t31 -24.5t46.5 -11t46.5 10.5t31 25.5t17.5 30.5t9 26.5z" />
    <glyph glyph-name="uni04D1" unicode="&#x4d1;" 
d="M211 256q0 -53 33 -86.5t87 -33.5q52 0 85.5 34t33.5 86q0 53 -34.5 87t-84.5 34q-51 0 -85.5 -34t-34.5 -87zM23 256q0 114 72 193t183 79q102 0 168 -64v49h177v-513h-175v58h-2q-66 -73 -168 -73q-111 0 -183 78.5t-72 192.5zM446 840l126 -31q-9 -81 -72 -131
t-159 -50t-159 50t-72 131l126 31q0 -4 1.5 -11t8.5 -25t17.5 -31.5t31 -24.5t46.5 -11t46.5 10.5t31 25.5t17.5 30.5t8 26.5z" />
    <glyph glyph-name="uni04D2" unicode="&#x4d2;" horiz-adv-x="784" 
d="M485 330l-92 240h-2l-92 -240h186zM479 825l333 -825h-202l-61 165h-314l-61 -165h-202l333 825h174zM510 1103q38 0 65 -27t27 -65t-27 -65t-65 -27t-65 27t-27 65t27 65t65 27zM273 1103q38 0 65 -27t27 -65t-27 -65t-65 -27t-65 27t-27 65t27 65t65 27z" />
    <glyph glyph-name="uni04D3" unicode="&#x4d3;" 
d="M211 256q0 53 34.5 87t85.5 34q50 0 84.5 -34t34.5 -87q0 -52 -33.5 -86t-85.5 -34q-54 0 -87 33.5t-33 86.5zM23 256q0 -114 72 -192.5t183 -78.5q102 0 168 73h2v-58h175v513h-177v-49q-66 64 -168 64q-111 0 -183 -79t-72 -193zM460 791q38 0 65 -27t27 -65t-27 -65
t-65 -27t-65 27t-27 65t27 65t65 27zM223 791q38 0 65 -27t27 -65t-27 -65t-65 -27t-65 27t-27 65t27 65t65 27z" />
    <glyph glyph-name="uni04D4" unicode="&#x4d4;" horiz-adv-x="1063" 
d="M528 330v302h-2l-125 -302h127zM335 165l-70 -165h-202l377 825h560v-165h-284v-164h272v-165h-272v-166h284v-165h-472v165h-193z" />
    <glyph glyph-name="uni04D5" unicode="&#x4d5;" horiz-adv-x="1013" 
d="M234 151q0 -27 22 -43.5t57 -16.5t60 18.5t25 41.5t-25 39.5t-60 16.5q-36 0 -57.5 -14.5t-21.5 -41.5zM587 330h195q-6 40 -31.5 61.5t-65.5 21.5q-44 0 -70 -23t-28 -60zM147 357l-56 121q7 6 21.5 14t65 22t108.5 14q131 0 212 -64q78 64 182 64q122 0 198.5 -70.5
t76.5 -201.5q0 -18 -1 -24h-372q0 -54 35 -80t76 -26q43 0 68 11.5t57 45.5l128 -64q-80 -134 -266 -134q-129 0 -213 94q-3 -4 -8 -10t-24 -22.5t-42 -29t-62 -22.5t-83 -10q-82 0 -136 41.5t-54 109.5q0 71 49 118t134 47q101 0 157 -39v37q0 39 -35 63.5t-77 24.5
q-41 0 -75.5 -7.5t-48.5 -15.5z" />
    <glyph glyph-name="uni04D6" unicode="&#x4d6;" horiz-adv-x="611" 
d="M541 825v-165h-284v-164h272v-165h-272v-166h284v-165h-472v825h472zM416 1125l126 -31q-9 -81 -72 -131t-159 -50t-159 50t-72 131l126 31q0 -4 1.5 -11t8.5 -25t17.5 -31.5t31 -24.5t46.5 -11q42 0 68 26t31 52z" />
    <glyph glyph-name="uni04D7" unicode="&#x4d7;" horiz-adv-x="682" 
d="M252 330h194q-5 40 -31 61.5t-65 21.5q-45 0 -70.5 -23t-27.5 -60zM618 232h-372q0 -54 35 -80t77 -26q29 0 48.5 5t36.5 16.5t39 35.5l128 -64q-80 -134 -266 -134q-116 0 -199 79.5t-83 191.5t83 192t199 80q80 0 141 -30t98 -92.5t37 -149.5q0 -18 -2 -24zM458 807
l126 -31q-9 -81 -72 -131t-158.5 -50t-158.5 50t-73 131l126 31q1 -4 2.5 -11t8.5 -25t17 -31.5t30.5 -24.5t47 -11t47 10.5t31 26t17 30.5t8.5 25z" />
    <glyph glyph-name="uni04D8" unicode="&#x4d8;" horiz-adv-x="836" 
d="M530 231h-244q8 -50 40 -77t81 -27q56 0 88 29t35 75zM71 353h465q0 24 -6 44t-17 34.5t-25 25t-30 17t-31 9.5t-30 3q-53 0 -84.5 -14.5t-71.5 -57.5l-160 80q100 168 333 168q71 0 136 -27t112.5 -72.5t75.5 -108t28 -131.5q0 -92 -47.5 -170.5t-128.5 -124t-176 -45.5
q-100 0 -176.5 37.5t-122 115.5t-45.5 187q0 23 1 30z" />
    <glyph glyph-name="uni04D9" unicode="&#x4d9;" horiz-adv-x="698" 
d="M438 183h-194q2 -20 10.5 -35.5t21 -26t29 -16t35.5 -5.5q30 0 52 11t33.5 29.5t12.5 42.5zM72 281h372q0 54 -35 80t-77 26q-29 0 -48.5 -5t-36.5 -16.5t-39 -35.5l-128 64q80 134 266 134q116 0 199 -79.5t83 -191.5t-83 -192t-199 -80q-122 0 -199 70.5t-77 201.5
q0 18 2 24z" />
    <glyph glyph-name="uni04E0" unicode="&#x4e0;" horiz-adv-x="724" 
d="M242 639l-148 201h273q18 0 50 1t48 1t41.5 -2t38.5 -8t31 -17t27 -29t18.5 -43t13 -61t3.5 -82q0 -98 -73 -155q105 -64 105 -189q0 -118 -86.5 -194.5t-219.5 -76.5q-71 0 -129 21t-90.5 50.5t-54 59.5t-28.5 51l-8 21l174 85q0 -5 1.5 -13.5t10.5 -30.5t22 -38.5
t39.5 -30t61.5 -13.5q53 0 86 29t33 80q0 53 -34.5 87t-84.5 34l-36 -6v123h41q39 0 69 30t30 74q0 39 -30.5 65t-71.5 26q-29 0 -52.5 -5t-36 -12.5t-21 -15t-11.5 -12.5z" />
    <glyph glyph-name="uni04E1" unicode="&#x4e1;" horiz-adv-x="635" 
d="M216 557l-126 171h232q15 0 38.5 0.5t36.5 1t33 -0.5t31 -4.5t26 -10t23 -16.5t17.5 -25.5t14 -36.5t7.5 -49t3 -63q0 -84 -62 -132q89 -54 89 -161q0 -100 -73.5 -165t-186.5 -65q-44 0 -82.5 9.5t-64.5 25t-47 33.5t-33.5 36.5t-21 34t-11.5 24.5l-3 10l148 72
q0 -2 0.5 -6t3.5 -15t7.5 -21.5t13.5 -22.5t20.5 -21t29.5 -15t39 -6q45 0 73.5 24.5t28.5 67.5q0 45 -29.5 74t-72.5 29q-7 0 -15 -1t-11 -3l-4 -1v105h35q33 0 58.5 25.5t25.5 62.5q0 33 -26 55.5t-61 22.5q-25 0 -44.5 -4.5t-30.5 -11t-18 -12.5t-9 -11z" />
    <glyph glyph-name="uni04E6" unicode="&#x4e6;" horiz-adv-x="961" 
d="M268 413q0 -65 20 -118.5t70 -90.5t123 -37q105 0 158.5 72t53.5 174q0 101 -54.5 173.5t-157.5 72.5q-102 0 -157.5 -72.5t-55.5 -173.5zM65 413q0 179 122 303t294 124q173 0 294 -123.5t121 -303.5q0 -181 -119 -304.5t-296 -123.5q-181 0 -298.5 122.5t-117.5 305.5z
M599 1103q38 0 65 -27t27 -65t-27 -65t-65 -27t-65 27t-27 65t27 65t65 27zM362 1103q38 0 65 -27t27 -65t-27 -65t-65 -27t-65 27t-27 65t27 65t65 27z" />
    <glyph glyph-name="uni04E7" unicode="&#x4e7;" horiz-adv-x="744" 
d="M252 256q0 53 35 87t85 34q25 0 47 -9t38 -25t25.5 -38.5t9.5 -48.5q0 -52 -34 -86t-86 -34q-53 0 -86.5 33.5t-33.5 86.5zM64 256q0 -119 86 -195t224 -76q132 0 219 76.5t87 194.5t-88.5 195t-217.5 77q-132 0 -221 -76.5t-89 -195.5zM490.5 791q38.5 0 65 -27
t26.5 -65t-26.5 -65t-65 -27t-65.5 27t-27 65t27 65t65.5 27zM253.5 791q38.5 0 65.5 -27t27 -65t-27 -65t-65.5 -27t-65 27t-26.5 65t26.5 65t65 27z" />
    <glyph glyph-name="uni04E8" unicode="&#x4e8;" horiz-adv-x="963" 
d="M66 413q0 179 122 303t294 124q173 0 294 -123.5t121 -303.5q0 -181 -119 -304.5t-296 -123.5q-181 0 -298.5 122.5t-117.5 305.5zM272 363q12 -86 64 -141t146 -55q91 0 143.5 55.5t64.5 140.5h-418zM691 459q-8 55 -32 99t-70 72.5t-107 28.5q-90 0 -144 -57t-66 -143
h419z" />
    <glyph glyph-name="uni04E9" unicode="&#x4e9;" horiz-adv-x="748" 
d="M66 256q0 119 89 195.5t221 76.5q129 0 217.5 -77t88.5 -195t-87 -194.5t-219 -76.5q-138 0 -224 76t-86 195zM260 217q11 -37 41.5 -59t72.5 -22t72.5 22t41.5 59h-228zM491 282q-8 43 -40.5 69t-76.5 26q-43 0 -76 -26t-41 -69h234z" />
    <glyph glyph-name="uni0500" unicode="&#x500;" horiz-adv-x="726" 
d="M466 369h-52q-64 0 -104 -25.5t-40 -83.5q0 -59 40 -84.5t104 -25.5h52v219zM654 0h-300q-127 0 -204.5 65t-77.5 189t78.5 194.5t203.5 70.5h112v306h188v-825z" />
    <glyph glyph-name="uni0501" unicode="&#x501;" horiz-adv-x="639" 
d="M407 316h-45q-53 0 -87.5 -22t-34.5 -71q0 -50 34.5 -72t87.5 -22h45v187zM567 2h-256q-107 0 -173 55.5t-66 160.5t67 165t172 60h96v260h160v-701z" />
    <glyph glyph-name="uni050A" unicode="&#x50a;" horiz-adv-x="1247" 
d="M263 331v-331h-188v825h188v-329h265v43h1v286h188v-735q5 -82 37 -117.5t96 -35.5q70 0 102 43t32 145v414h188v-489q0 -298 -322 -298q-167 0 -244.5 55.5t-77.5 201.5v322h-265z" />
    <glyph glyph-name="uni050B" unicode="&#x50b;" horiz-adv-x="1080" 
d="M74 0v860h177v-401h2q69 69 147 69q30 0 60 -6t60 -20t53.5 -35t37.5 -54.5t14 -74.5l1 -90v-112q0 -76 23 -108t78.5 -32t78.5 32t22 108v392h177v-435q1 -128 -65.5 -184.5t-212 -56.5t-212 56.5t-66.5 184.5v194l-1 3q0 40 -25 70t-67 30q-39 0 -72 -31t-33 -69v-290
h-177z" />
    <glyph glyph-name="uni050C" unicode="&#x50c;" horiz-adv-x="829" 
d="M806 462v-179q-32 -147 -140 -222.5t-241 -75.5q-167 0 -284.5 125t-117.5 302q0 180 115 304t287 124q201 0 318 -141l-123 -135q-66 106 -184 106q-87 0 -148.5 -75.5t-61.5 -182.5q0 -105 61.5 -179.5t148.5 -74.5q72 0 125.5 43.5t53.5 115.5h-190v145h381z" />
    <glyph glyph-name="uni050D" unicode="&#x50d;" horiz-adv-x="809" 
d="M737 408v-153q-14 -64 -47 -114t-78 -79.5t-95 -44.5t-104 -15q-92 0 -171 48.5t-124.5 132t-45.5 182.5q0 100 43.5 183t122.5 132t175 49q172 0 271 -120l-105 -115q-56 90 -156 90q-74 0 -126.5 -64t-52.5 -155q0 -89 52.5 -152.5t126.5 -63.5q61 0 106.5 37t45.5 98
h-162v124h324z" />
    <glyph glyph-name="uni0510" unicode="&#x510;" horiz-adv-x="727" 
d="M484 587l148 72q-1 4 -3 10.5t-11 25t-21 36t-34 38t-49 35.5t-67.5 25.5t-88.5 10.5q-117 0 -193.5 -67.5t-76.5 -172.5q0 -98 72 -155q-104 -64 -104 -189q0 -118 86.5 -194.5t219.5 -76.5q51 0 96.5 11t76 29t55.5 39.5t39.5 43.5t24.5 40t14 29l4 11l-174 85
q-1 -5 -2.5 -13.5t-10 -30.5t-21.5 -38.5t-40 -30t-61.5 -13.5t-61.5 12.5t-42 37.5t-15 59q0 53 34 87t84 34q9 0 18 -1.5t14 -3.5l4 -1v123h-40q-39 0 -69.5 30t-30.5 74q0 39 31 65t71 26q22 0 40 -5.5t30.5 -14.5t22 -20t15.5 -22t9.5 -20t4.5 -14z" />
    <glyph glyph-name="uni0511" unicode="&#x511;" horiz-adv-x="638" 
d="M421 513l126 61l-5.5 16.5t-20 37t-40 47t-67.5 37t-99 16.5q-101 0 -166 -57.5t-65 -146.5q0 -84 62 -132q-89 -54 -89 -161q0 -100 73.5 -165t186.5 -65q44 0 82.5 9.5t64.5 25t47.5 33.5t34 36.5t21 34t11.5 24.5l3 10l-148 72q0 -4 -1.5 -11.5t-9 -26t-18.5 -32.5
t-33.5 -25.5t-52.5 -11.5q-45 0 -73 24.5t-28 67.5q0 45 29 74t72 29q8 0 15.5 -1t11.5 -3l4 -1v105h-35q-33 0 -58.5 25.5t-25.5 62.5q0 22 12 40t32 28t42 10q25 0 45 -9t30.5 -22t18 -25.5t9.5 -21.5z" />
    <glyph glyph-name="uni051A" unicode="&#x51a;" horiz-adv-x="976" 
d="M254 413q0 -48 11.5 -89.5t35 -75.5t65 -53.5t96.5 -19.5q34 0 60 7q-54 50 -102 112l80 100q56 -62 140 -119q30 57 30 138q0 48 -12.5 89.5t-36.5 75.5t-65 53.5t-94 19.5q-52 0 -93 -19.5t-65.5 -53.5t-37 -76t-12.5 -89zM924 142l-82 -168q-84 31 -152 79
q-98 -68 -228 -68q-119 0 -213.5 56.5t-145.5 154t-51 217.5q0 118 55 216.5t149 154.5t206 56q113 0 207.5 -56t148.5 -154t54 -217q0 -128 -60 -231q46 -22 112 -40z" />
    <glyph glyph-name="uni051B" unicode="&#x51b;" horiz-adv-x="727" 
d="M252 257q0 -53 34.5 -87t85.5 -34q24 0 46 9t38 25t25 38.5t9 48.5q0 35 -15 62t-42 42.5t-61 15.5q-54 0 -87 -33.5t-33 -86.5zM64 257q0 114 72 192.5t182 78.5q51 0 95 -20t73 -53h2v58h176v-773h-178v309q-65 -64 -168 -64q-110 0 -182 79t-72 193z" />
    <glyph glyph-name="uni051C" unicode="&#x51c;" horiz-adv-x="1249" 
d="M757 0l-132 463l-132 -463h-209l-235 825h209l141 -566h5l150 566h142l150 -566h5l141 566h208l-235 -825h-208z" />
    <glyph glyph-name="uni051D" unicode="&#x51d;" horiz-adv-x="1135" 
d="M450 0h-120l-276 513h204l126 -277l122 277h122l124 -277l124 277h204l-274 -513h-120l-118 265z" />
    <glyph glyph-name="uni16B9" unicode="&#x16b9;" horiz-adv-x="703" 
d="M210 827v-524v120l232 143l-232 141v120zM210 827l430 -261l-430 -263v-303h-146v825z" />
    <glyph glyph-name="uni16C1" unicode="&#x16c1;" horiz-adv-x="287" 
d="M75 0v860h137v-860h-137z" />
    <glyph glyph-name="uni16D2" unicode="&#x16d2;" horiz-adv-x="709" 
d="M212 0l1 120l233 141l-233 143l-1 120v-524zM212 0l-146 2v825h146v-303l430 -263zM212 827v-524l1 120l233 143l-233 141zM212 827l430 -261l-430 -263v-303h-146v825z" />
    <glyph glyph-name="uni16E9" unicode="&#x16e9;" horiz-adv-x="709" 
d="M496 827v-524v120l-232 143l232 141v120zM496 827l-430 -261l430 -263v-303h146v825z" />
    <glyph glyph-name="uni1D00" unicode="&#x1d00;" horiz-adv-x="808" 
d="M483 281l-78 204h-2l-78 -204h158zM478 702l283 -701h-172l-52 140h-266l-52 -140h-172l283 701h148z" />
    <glyph glyph-name="uni1D04" unicode="&#x1d04;" horiz-adv-x="725" 
d="M462 159q36 0 70.5 11t50.5 22l17 11l68 -136l-10 -7.5t-27.5 -15.5t-46.5 -19.5t-64.5 -15.5t-82.5 -7q-98 0 -185.5 48t-141 132t-53.5 182q0 74 32 142t84 116.5t121.5 77.5t142.5 29q43 0 82.5 -6.5t65 -16t45.5 -19t29 -16.5l9 -7l-68 -136q-7 5 -18.5 12.5
t-47.5 19.5t-72 12q-47 0 -86 -12.5t-65 -33t-44.5 -47.5t-27 -55.5t-8.5 -57.5q0 -37 14 -72.5t41 -66t72.5 -49.5t103.5 -19z" />
    <glyph glyph-name="uni1D05" unicode="&#x1d05;" horiz-adv-x="689" 
d="M226 145h25q87 0 143 59t56 148q0 58 -24.5 105.5t-70.5 75t-104 27.5h-25v-415zM66 703h203q96 0 176.5 -44.5t129 -125t48.5 -180.5t-48 -181t-129 -125.5t-177 -44.5h-203v701z" />
    <glyph glyph-name="uni1D07" unicode="&#x1d07;" horiz-adv-x="549" 
d="M475 703v-140h-241v-140h231v-140h-231v-141h241v-140h-401v701h401z" />
    <glyph glyph-name="uni1D08" unicode="&#x1d08;" horiz-adv-x="628" 
d="M212 215l-126 -61l5.5 -16.5t20 -37t40 -47t67.5 -37t99 -16.5q66 0 118.5 26t82.5 72.5t30 105.5q0 84 -62 132q89 54 89 161q0 100 -73.5 165t-186.5 65q-44 0 -82.5 -9.5t-64.5 -25t-47.5 -33.5t-34 -36.5t-21 -34t-11.5 -24.5l-3 -10l148 -72q0 4 1.5 11.5t9 26
t18.5 32.5t33.5 25.5t52.5 11.5q45 0 73 -24.5t28 -67.5q0 -45 -29 -74t-72 -29q-8 0 -15.5 1t-11.5 3l-4 1v-105h35q33 0 58.5 -25.5t25.5 -62.5q0 -33 -26 -55.5t-60 -22.5q-18 0 -34 5t-26 12.5t-18.5 17t-13.5 18.5t-8 17t-4 12z" />
    <glyph glyph-name="uni1D09" unicode="&#x1d09;" horiz-adv-x="333" 
d="M258 317v513h-178v-513h178zM166.5 0q-43.5 0 -74 31t-30.5 74t30.5 74t74 31t74.5 -31t31 -74t-31 -74t-74.5 -31z" />
    <glyph glyph-name="uni1D0A" unicode="&#x1d0a;" horiz-adv-x="498" 
d="M440 715v-503q0 -103 -56.5 -157t-161.5 -54q-28 0 -55.5 7t-46 17t-33.5 19.5t-22 16.5l-7 7l51 134q5 -6 14.5 -14t34 -21t42.5 -13q36 0 58 24t22 75v462h160z" />
    <glyph glyph-name="uni1D0B" unicode="&#x1d0b;" horiz-adv-x="758" 
d="M698 1h-220l-258 297v-297h-160v701h160v-286l240 286h194l-282 -332z" />
    <glyph glyph-name="uni1D0D" unicode="&#x1d0d;" horiz-adv-x="889" 
d="M673 0l-33 416h-4l-144 -412h-95l-144 412h-4l-33 -416h-160l63 701h170l155 -404l156 404h170l63 -701h-160z" />
    <glyph glyph-name="uni1D0E" unicode="&#x1d0e;" horiz-adv-x="750" 
d="M515 436v-435h160v701h-160l-279 -435h-1v435h-160v-701h160l279 435h1z" />
    <glyph glyph-name="uni1D0F" unicode="&#x1d0f;" horiz-adv-x="822" 
d="M230 364q0 -41 10.5 -77t31 -66.5t56.5 -48t83 -17.5q31 0 57.5 8t46 23t34.5 34.5t24 43t14 48.5t5 52q0 40 -11 77t-32.5 66.5t-57 47.5t-80.5 18q-58 0 -100.5 -31t-61.5 -77.5t-19 -100.5zM58 364q0 75 28 142.5t76 116t113 76.5t136 28q97 0 178 -47.5t128 -131.5
t47 -184q0 -101 -45.5 -184.5t-126.5 -131.5t-181 -48q-101 0 -182.5 48t-126 131t-44.5 185z" />
    <glyph glyph-name="uni1D10" unicode="&#x1d10;" horiz-adv-x="722" 
d="M262 159q-37 0 -71.5 11t-50.5 22l-16 11l-68 -136q3 -3 9 -7.5t28 -15.5t46.5 -19.5t64.5 -15.5t82 -7q98 0 185.5 48t141 132t53.5 182q0 74 -31.5 142t-83.5 116.5t-121.5 77.5t-143.5 29q-42 0 -81.5 -6.5t-65.5 -16t-45.5 -19t-28.5 -16.5l-9 -7l68 -136
q6 5 17.5 12.5t47.5 19.5t73 12q46 0 85 -12.5t65.5 -33t45 -47.5t27 -55.5t8.5 -57.5q0 -37 -14 -72.5t-41 -66t-73 -49.5t-103 -19z" />
    <glyph glyph-name="uni1D13" unicode="&#x1d13;" horiz-adv-x="681" 
d="M568 -82l-68 86q-68 -56 -160 -56q-118 0 -194 87t-76 219q0 124 60 206l-72 88l54 46l68 -84q68 54 160 54q119 0 195.5 -89t76.5 -221q0 -115 -62 -200l72 -90zM340 376q-26 0 -46 -8l146 -180q22 30 22 68q0 50 -34.5 85t-87.5 35zM220 256q0 -52 34 -86t86 -34
q23 0 46 8l-146 180q-20 -30 -20 -68z" />
    <glyph glyph-name="uni1D18" unicode="&#x1d18;" horiz-adv-x="628" 
d="M226 389h45q54 0 88 22t34 71q0 50 -34 72t-88 22h-45v-187zM66 703h256q70 0 123 -23t85 -72.5t32 -120.5q0 -105 -67 -165t-173 -60h-96v-260h-160v701z" />
    <glyph glyph-name="uni1D19" unicode="&#x1d19;" horiz-adv-x="695" 
d="M476 392h-18q-23 0 -38 1t-34.5 6t-31.5 14.5t-20.5 27.5t-8.5 43t8.5 43t20.5 27t31.5 14.5t34.5 6.5t38 1h18v-184zM636 703h-251q-101 0 -164.5 -54t-63.5 -154q0 -77 38.5 -129.5t104.5 -73.5l-241 -290h203l214 277v-277h160v701z" />
    <glyph glyph-name="uni1D1A" unicode="&#x1d1a;" horiz-adv-x="699" 
d="M478 313h-18q-23 0 -38 -1t-34.5 -6t-31.5 -14.5t-20.5 -27.5t-8.5 -43t8.5 -43t20.5 -27t31.5 -14.5t34.5 -6.5t38 -1h18v184zM638 2h-251q-101 0 -164.5 54t-63.5 154q0 77 38.5 129.5t104.5 73.5l-241 290h203l214 -277v277h160v-701z" />
    <glyph glyph-name="uni1D1B" unicode="&#x1d1b;" horiz-adv-x="616" 
d="M62 563v140h492v-140h-166v-561h-160v561h-166z" />
    <glyph glyph-name="uni1D1C" unicode="&#x1d1c;" horiz-adv-x="688" 
d="M618 715v-452q0 -130 -70 -196t-204 -66t-204 66t-70 196v452h160v-405q0 -86 26.5 -119t87.5 -33t87.5 33t26.5 119v405h160z" />
    <glyph glyph-name="uni1D20" unicode="&#x1d20;" horiz-adv-x="816" 
d="M345 1l-294 701h180l177 -461l177 461h180l-294 -701h-126z" />
    <glyph glyph-name="uni1D21" unicode="&#x1d21;" horiz-adv-x="1083" 
d="M654 1l-112 393l-112 -393h-178l-200 701h178l120 -481h4l128 481h120l128 -481h4l120 481h177l-200 -701h-177z" />
    <glyph glyph-name="uni1D22" unicode="&#x1d22;" horiz-adv-x="724" 
d="M675 703l-347 -561h324v-140h-603l347 561h-298v140h577z" />
    <glyph glyph-name="uni1D23" unicode="&#x1d23;" horiz-adv-x="624" 
d="M210 557l-126 171h232q15 0 39 0.5t37 1t32.5 -0.5t30.5 -4.5t26 -10t23 -16.5t17.5 -25.5t14 -36.5t8 -49t3.5 -63q0 -84 -62 -132q89 -54 89 -161q0 -100 -73.5 -165t-186.5 -65q-44 0 -82.5 9.5t-64.5 25t-47.5 33.5t-34 36.5t-21 34t-11.5 24.5l-3 10l148 72
q0 -2 0.5 -6t4 -15t8 -21.5t13 -22.5t20 -21t29.5 -15t40 -6q45 0 73 24.5t28 67.5q0 45 -29 74t-72 29q-8 0 -15.5 -1t-11.5 -3l-4 -1v105h35q33 0 58.5 25.5t25.5 62.5q0 22 -12 40t-32 28t-42 10q-25 0 -45 -4.5t-30.5 -11t-18 -12.5t-9.5 -11z" />
    <glyph glyph-name="uni1D26" unicode="&#x1d26;" horiz-adv-x="539" 
d="M229 563h241v140h-401v-701h161z" />
    <glyph glyph-name="uni1D27" unicode="&#x1d27;" horiz-adv-x="808" 
d="M467 702l294 -701h-180l-177 461l-177 -461h-180l294 701h126z" />
    <glyph glyph-name="uni1D28" unicode="&#x1d28;" horiz-adv-x="696" 
d="M235 562v-561h-160v701h160h226h160v-701h-160v561h-226z" />
    <glyph glyph-name="uni1D29" unicode="&#x1d29;" horiz-adv-x="628" 
d="M226 389h45q54 0 88 22t34 71q0 50 -34 72t-88 22h-45v-187zM66 703h256q70 0 123 -23t85 -72.5t32 -120.5q0 -105 -67 -165t-173 -60h-96v-260h-160v701z" />
    <glyph glyph-name="uni1D2A" unicode="&#x1d2a;" horiz-adv-x="780" 
d="M706 710v-452q0 -107 -64 -172.5t-172 -83.5v-78h-159v78q-108 18 -172.5 84t-64.5 172v452h160v-406q0 -101 77 -136v542h159v-542q76 34 76 136v406h160z" />
    <glyph glyph-name="uni1D2B" unicode="&#x1d2b;" horiz-adv-x="781" 
d="M337 216q3 -104 -119 -215h-160q12 17 35 46t34 44t24.5 37.5t19.5 43t7 44.5v486h159h226h160v-701h-160v561h-226v-346z" />
    <glyph glyph-name="endash" unicode="&#x2013;" horiz-adv-x="540" 
d="M0 366h540v-153h-540v153z" />
    <glyph glyph-name="emdash" unicode="&#x2014;" horiz-adv-x="1080" 
d="M0 366h1080v-153h-1080v153z" />
    <glyph glyph-name="quoteleft" unicode="&#x2018;" horiz-adv-x="291" 
d="M128 476q-44 0 -74.5 31t-30.5 74q0 132 152 259l47 -37q-6 -6 -15.5 -16.5t-28.5 -44t-25 -67.5q34 -8 56 -34t22 -60q0 -44 -30 -74.5t-73 -30.5z" />
    <glyph glyph-name="quoteright" unicode="&#x2019;" horiz-adv-x="291" 
d="M163 840q43 0 74 -31t31 -74q0 -132 -152 -259l-47 37q6 6 15.5 16.5t28.5 44t25 67.5q-34 8 -56 34t-22 60q0 44 30 74.5t73 30.5z" />
    <glyph glyph-name="quotesinglbase" unicode="&#x201a;" horiz-adv-x="291" 
d="M163 214q43 0 74 -31t31 -74q0 -132 -152 -259l-47 37q6 6 15.5 16.5t28.5 44t25 67.5q-34 8 -56 34t-22 60q0 44 30 74.5t73 30.5z" />
    <glyph glyph-name="quotedblleft" unicode="&#x201c;" horiz-adv-x="545" 
d="M381 476q-43 0 -73 30.5t-30 74.5q0 135 151 259l47 -37q-6 -6 -15.5 -16.5t-28.5 -44t-26 -67.5q35 -8 57 -34t22 -60q0 -43 -30.5 -74t-73.5 -31zM128 476q-44 0 -74.5 31t-30.5 74q0 132 152 259l47 -37q-6 -6 -15.5 -16.5t-28.5 -44t-25 -67.5q34 -8 56 -34t22 -60
q0 -44 -30 -74.5t-73 -30.5z" />
    <glyph glyph-name="quotedblright" unicode="&#x201d;" horiz-adv-x="545" 
d="M417 840q43 0 74 -31t31 -74q0 -132 -152 -259l-47 37q6 6 15.5 16.5t28.5 44t25 67.5q-34 8 -56 34t-22 60q0 44 30 74.5t73 30.5zM164 840q43 0 73 -30.5t30 -74.5q0 -135 -151 -259l-47 37q6 6 15.5 16.5t28.5 44t26 67.5q-35 8 -57 34t-22 60q0 43 30.5 74t73.5 31z
" />
    <glyph glyph-name="quotedblbase" unicode="&#x201e;" horiz-adv-x="545" 
d="M417 214q43 0 74 -31t31 -74q0 -132 -152 -259l-47 37q6 6 15.5 16.5t28.5 44t25 67.5q-34 8 -56 34t-22 60q0 44 30 74.5t73 30.5zM164 214q43 0 73 -30.5t30 -74.5q0 -135 -151 -259l-47 37q6 6 15.5 16.5t28.5 44t26 67.5q-35 8 -57 34t-22 60q0 43 30.5 74t73.5 31z
" />
    <glyph glyph-name="dagger" unicode="&#x2020;" horiz-adv-x="542" 
d="M70 650h124v210h153v-210h125v-136h-125v-514h-153v514h-124v136z" />
    <glyph glyph-name="daggerdbl" unicode="&#x2021;" horiz-adv-x="542" 
d="M70 366h124v128h-124v136h124v230h153v-230h125v-136h-125v-128h125v-136h-125v-230h-153v230h-124v136z" />
    <glyph glyph-name="bullet" unicode="&#x2022;" horiz-adv-x="716" 
d="M357 553q82 0 139.5 -57.5t57.5 -139.5q0 -81 -57.5 -138t-139.5 -57q-81 0 -138 57t-57 138q0 82 57 139.5t138 57.5z" />
    <glyph glyph-name="ellipsis" unicode="&#x2026;" horiz-adv-x="1047" 
d="M872 214q48 0 81.5 -33.5t33.5 -81.5q0 -47 -33.5 -80.5t-81.5 -33.5q-47 0 -80.5 33.5t-33.5 80.5q0 48 33.5 81.5t80.5 33.5zM523 214q48 0 81.5 -33.5t33.5 -81.5q0 -47 -33.5 -80.5t-81.5 -33.5q-47 0 -80.5 33.5t-33.5 80.5q0 48 33.5 81.5t80.5 33.5zM174 214
q48 0 81.5 -33.5t33.5 -81.5q0 -47 -33.5 -80.5t-81.5 -33.5q-47 0 -80.5 33.5t-33.5 80.5q0 48 33.5 81.5t80.5 33.5z" />
    <glyph glyph-name="perthousand" unicode="&#x2030;" horiz-adv-x="1469" 
d="M1133 182q0 -40 26.5 -66.5t65.5 -26.5q38 0 64 26.5t26 66.5t-25.5 65.5t-64.5 25.5q-41 0 -66.5 -25.5t-25.5 -65.5zM645 182q0 -40 26.5 -66.5t65.5 -26.5q38 0 64 26.5t26 66.5t-25.5 65.5t-64.5 25.5q-41 0 -66.5 -25.5t-25.5 -65.5zM1004 182q0 86 61.5 141.5
t161.5 55.5q96 0 157.5 -55.5t61.5 -141.5t-63 -141.5t-156 -55.5q-95 0 -159 55.5t-64 141.5zM516 182q0 86 61.5 141.5t161.5 55.5q96 0 157.5 -55.5t61.5 -141.5t-63 -141.5t-156 -55.5q-95 0 -159 55.5t-64 141.5zM152 643q0 -40 25.5 -65.5t66.5 -25.5q39 0 64.5 25.5
t25.5 65.5t-26 66.5t-64 26.5q-39 0 -65.5 -26.5t-26.5 -66.5zM791 825l-480 -825h-118l480 825h118zM23 643q0 86 64 141.5t159 55.5q93 0 156 -55.5t63 -141.5t-61.5 -141.5t-157.5 -55.5q-100 0 -161.5 55.5t-61.5 141.5z" />
    </font>
</defs>
</svg>
