<?xml version="1.0" standalone="no"?>
<!DOCTYPE svg PUBLIC "-//W3C//DTD SVG 1.1//EN" "http://www.w3.org/Graphics/SVG/1.1/DTD/svg11.dtd" >
<svg xmlns="http://www.w3.org/2000/svg">
<metadata></metadata>
<defs>
<font id="intro_condblack" horiz-adv-x="987" >
<font-face units-per-em="2048" ascent="1536" descent="-512" />
<missing-glyph horiz-adv-x="395" />
<glyph horiz-adv-x="2048" />
<glyph horiz-adv-x="2048" />
<glyph unicode="&#xd;" horiz-adv-x="2048" />
<glyph unicode=" "  horiz-adv-x="395" />
<glyph unicode="&#x09;" horiz-adv-x="395" />
<glyph unicode="&#xa0;" horiz-adv-x="395" />
<glyph unicode="!" horiz-adv-x="569" d="M90 1438h385l-20 -1041h-336zM98 156q0 83 54.5 135.5t132.5 52.5q82 0 136 -51t54 -137q0 -85 -53 -136t-137 -51q-81 0 -134 51t-53 136z" />
<glyph unicode="&#x22;" horiz-adv-x="763" d="M106 913v521h250l-39 -521h-211zM430 913v521h250l-41 -521h-209z" />
<glyph unicode="#" horiz-adv-x="1267" d="M68 346v242h182l24 211h-149v243h184l49 390h289l-45 -390h176l49 390h289l-45 -390h125v-243h-158l-22 -211h121v-242h-154l-39 -346h-305l45 346h-170l-37 -346h-305l43 346h-147zM537 580h190l27 229h-193z" />
<glyph unicode="$" horiz-adv-x="1130" d="M61 453h336q-1 -52 27.5 -90t79.5 -52v254q-86 8 -160.5 36t-137 78t-98.5 132t-36 188q0 196 117.5 317.5t314.5 135.5v156h102v-156q195 -17 308.5 -144t107.5 -323h-332q3 51 -20 88t-64 51v-250q82 -10 144 -25.5t124.5 -47.5t102.5 -79t65 -121.5t25 -172.5 q0 -195 -125.5 -315t-335.5 -131v-168h-102v168q-207 17 -328 145t-115 326zM420 1001q0 -72 84 -106v229q-40 -12 -62 -44t-22 -79zM606 307q52 11 81.5 43t29.5 82q0 96 -111 119v-244z" />
<glyph unicode="%" horiz-adv-x="1724" d="M53 1090q0 164 91.5 264t242.5 100q149 0 239.5 -100t90.5 -264q0 -168 -90.5 -270.5t-239.5 -102.5q-151 0 -242.5 102.5t-91.5 270.5zM307 1090q0 -64 22.5 -104t57.5 -40t56.5 39.5t21.5 104.5q0 61 -21.5 98t-56.5 37q-36 0 -58 -37t-22 -98zM387 0l662 1432h288 l-663 -1432h-287zM1006 354q0 164 91 264.5t242 100.5q149 0 239.5 -100.5t90.5 -264.5q0 -167 -90.5 -269.5t-239.5 -102.5q-151 0 -242 102t-91 270zM1260 354q0 -64 22 -103.5t57 -39.5t56.5 39t21.5 104q0 61 -21.5 98t-56.5 37t-57 -37t-22 -98z" />
<glyph unicode="&#x26;" horiz-adv-x="1118" d="M70 449q0 113 48.5 210t135.5 154q-55 44 -84 115t-29 147q0 170 110.5 274.5t291.5 104.5q179 0 282.5 -104.5t94.5 -276.5h-306q0 40 -19.5 64t-51.5 24q-34 0 -54 -29t-20 -83q0 -49 36.5 -79t96.5 -30v-303h-53q-60 0 -96.5 -48.5t-36.5 -127.5q0 -77 36.5 -124.5 t94.5 -47.5q60 0 96.5 48t36.5 126l-2 481h391v-287h-102v-194q0 -218 -116.5 -350.5t-307.5 -132.5q-213 0 -343 129t-130 340z" />
<glyph unicode="'" horiz-adv-x="438" d="M106 913v521h248l-41 -521h-207z" />
<glyph unicode="(" horiz-adv-x="694" d="M57 578q0 167 33.5 332t95.5 310t161 257t220 163l103 -208q-113 -70 -183.5 -301t-80.5 -506q-4 -204 20 -383.5t86.5 -323.5t157.5 -192l-103 -211q-128 54 -227.5 165.5t-160 256.5t-91.5 307.5t-31 333.5z" />
<glyph unicode=")" horiz-adv-x="694" d="M23 -274q236 119 266 804q5 197 -21.5 380t-90 328t-154.5 194l102 208q121 -53 216 -158t155 -243.5t94 -294t43 -326.5q8 -143 -7.5 -281.5t-55 -268.5t-100.5 -237.5t-149.5 -190.5t-195.5 -125z" />
<glyph unicode="*" horiz-adv-x="792" d="M70 1133l69 239l152 -74l-21 187h250l-24 -187l149 74l76 -237l-160 -43l119 -154l-203 -156l-82 166l-80 -168l-198 160l114 147z" />
<glyph unicode="+" horiz-adv-x="866" d="M88 600v297h215v244h256v-244h219v-297h-219v-244h-256v244h-215z" />
<glyph unicode="," horiz-adv-x="528" d="M74 150q0 86 54 137t136 51q74 0 131.5 -51t57.5 -137q0 -90 -101 -367h-190l47 186q-60 15 -97.5 64t-37.5 117z" />
<glyph unicode="-" horiz-adv-x="829" d="M94 532v299h641v-299h-641z" />
<glyph unicode="." horiz-adv-x="526" d="M74 150q0 84 55 136t135 52t134.5 -52t54.5 -136q0 -86 -53.5 -136.5t-135.5 -50.5q-81 0 -135.5 51t-54.5 136z" />
<glyph unicode="/" horiz-adv-x="1011" d="M43 2l588 1432h338l-588 -1432h-338z" />
<glyph unicode="0" horiz-adv-x="1101" d="M94 473v494q0 219 126.5 353t332.5 134q204 0 329.5 -134t125.5 -353v-494q0 -222 -125.5 -357.5t-329.5 -135.5q-206 0 -332.5 135.5t-126.5 357.5zM424 465q0 -71 35.5 -114.5t93.5 -43.5q57 0 92 43.5t35 114.5v498q0 75 -35 120t-92 45q-59 0 -94 -45t-35 -120v-498z " />
<glyph unicode="1" horiz-adv-x="831" d="M80 0v281h180v866h-156v287h496v-1153h184v-281h-704z" />
<glyph unicode="2" horiz-adv-x="968" d="M66 0v80l417 729q44 77 63 137.5t15.5 94.5t-20.5 56t-36 29t-40 7q-40 0 -69 -35.5t-29 -102.5h-289q-6 218 101 338.5t294 120.5q94 0 175.5 -37t135 -103.5t79 -151.5t9.5 -190t-75 -210l-242 -430h319v-332h-808z" />
<glyph unicode="3" horiz-adv-x="1005" d="M63 436h310q-3 -63 26.5 -102t81.5 -39t84.5 47.5t32.5 124.5q0 53 -12.5 91.5t-37 60t-51 34t-65 15t-67 1t-68.5 -6.5v47l154 421h-340v304h778v-54l-199 -483q240 -75 240 -428q0 -220 -124.5 -354.5t-328.5 -134.5q-185 0 -299 125.5t-115 330.5z" />
<glyph unicode="4" horiz-adv-x="1067" d="M35 268v162l465 1004h372v-865h123v-301h-123v-268h-319v268h-518zM414 555h164v229l18 244h-6z" />
<glyph unicode="5" horiz-adv-x="1013" d="M84 436h307q-2 -59 29.5 -95t83.5 -36q49 0 77.5 41.5t28.5 120.5q0 60 -25.5 103t-70.5 64t-94.5 31.5t-111 8.5t-105.5 -6.5t-92 -12.5v779h770v-304h-482v-186q54 4 78 4q80 -2 146 -16.5t127 -49t102 -88t65.5 -136.5t24.5 -191q0 -219 -120.5 -353t-317.5 -134 q-189 0 -304.5 125.5t-115.5 330.5z" />
<glyph unicode="6" horiz-adv-x="1081" d="M66 467q0 135 88 315l319 652h387l-242 -506q181 14 292.5 -112t111.5 -349q0 -220 -132 -353.5t-347 -133.5t-346 133.5t-131 353.5zM414 467q0 -77 35.5 -124.5t93.5 -47.5t93.5 47.5t35.5 124.5q0 92 -31 136t-98 44q-129 0 -129 -180z" />
<glyph unicode="7" horiz-adv-x="976" d="M53 1106v328h918v-54l-486 -1380h-352l373 1106h-453z" />
<glyph unicode="8" horiz-adv-x="1083" d="M70 453q0 238 166 364q-91 94 -91 240q0 178 109.5 287.5t288.5 109.5t288 -107t109 -284q0 -149 -88 -248q162 -127 162 -358q0 -215 -129.5 -346t-341.5 -131q-214 0 -343.5 129.5t-129.5 343.5zM416 463q0 -78 35 -126t92 -48t91 49t34 131q0 85 -34 135.5t-91 50.5 t-92 -53t-35 -139zM446 1044q0 -57 27 -91.5t70 -34.5q41 0 66.5 35.5t25.5 95.5q0 55 -25 87.5t-67 32.5q-43 0 -70 -34t-27 -91z" />
<glyph unicode="9" horiz-adv-x="1064" d="M55 979q0 214 129.5 344.5t343.5 130.5q212 0 341.5 -130.5t129.5 -344.5q0 -157 -86 -326l-325 -653h-381l262 518q-94 0 -168.5 30t-119.5 77t-74.5 110t-40.5 122.5t-11 121.5zM403 979q0 -82 34 -131t91 -49q56 0 89.5 49t33.5 131q0 72 -34 116t-89 44 q-57 0 -91 -44t-34 -116z" />
<glyph unicode=":" horiz-adv-x="557" d="M88 150q0 84 55.5 136t135.5 52t134 -52t54 -136q0 -86 -53 -136.5t-135 -50.5q-81 0 -136 51t-55 136zM88 764q0 85 54 136.5t137 51.5q81 0 134.5 -50.5t53.5 -137.5q0 -84 -52.5 -135t-135.5 -51q-81 0 -136 51t-55 135z" />
<glyph unicode=";" horiz-adv-x="559" d="M88 150q0 86 54.5 137t136.5 51q78 0 133 -50.5t55 -137.5q0 -20 -5.5 -49.5t-12 -55t-19.5 -68t-20.5 -65t-24 -69.5t-20.5 -60h-189l47 186q-60 15 -97.5 64t-37.5 117zM90 764q0 85 53 136.5t136 51.5q82 0 136 -50.5t54 -137.5q0 -84 -53 -135t-137 -51 q-80 0 -134.5 51t-54.5 135z" />
<glyph unicode="&#x3c;" horiz-adv-x="983" d="M66 575v256l796 381v-305l-418 -205l418 -202v-305z" />
<glyph unicode="=" horiz-adv-x="966" d="M104 313v287h758v-287h-758zM104 766v287h758v-287h-758z" />
<glyph unicode="&#x3e;" horiz-adv-x="980" d="M119 195v305l418 202l-418 205v305l796 -381v-256z" />
<glyph unicode="?" horiz-adv-x="940" d="M57 981q-7 115 26 207.5t94.5 149t137.5 86.5t160 30q61 0 118 -15t108 -47.5t89 -79t60 -114.5t22 -149q0 -82 -25.5 -154.5t-62 -127.5t-73.5 -108t-62.5 -119.5t-25.5 -138.5h-324q-6 87 14.5 161.5t47.5 117t71.5 105t65.5 100.5q38 71 45 123q6 54 -20.5 87 t-73.5 33q-50 0 -77.5 -40.5t-23.5 -106.5h-291zM272 166q0 85 53.5 136.5t139.5 51.5q85 0 135.5 -51.5t50.5 -136.5t-50.5 -135.5t-135.5 -50.5q-87 0 -140 51t-53 135z" />
<glyph unicode="@" horiz-adv-x="1681" d="M74 494q16 191 87.5 353t183 274t258 174.5t310.5 62.5q345 0 531.5 -230.5t154.5 -627.5q-10 -138 -50.5 -245t-100.5 -170t-128 -94.5t-140 -31.5q-90 0 -145.5 53.5t-63.5 126.5q-31 -85 -100.5 -122t-153.5 -37q-115 0 -196.5 77.5t-113.5 198t-12 254.5 q34 233 173.5 364.5t359.5 131.5q91 0 189 -38.5t175 -115.5l-41 -545q-7 -94 43 -94q37 0 70 80t45 207q30 326 -104.5 495.5t-403.5 169.5q-124 0 -235.5 -48.5t-196 -135t-138.5 -213t-63 -274.5q-12 -153 14.5 -278t87 -205.5t146 -121.5t195.5 -32t231 69l-18 -196 q-125 -52 -242.5 -60.5t-215 22.5t-177 101t-131.5 170.5t-74.5 236.5t-9.5 294zM721 492q-11 -84 17.5 -143.5t90.5 -59.5q48 0 77.5 49t29.5 119q11 92 20 248q-26 20 -73 20q-61 0 -104 -62.5t-58 -170.5z" />
<glyph unicode="A" horiz-adv-x="1257" d="M-8 0v23l551 1431h176l545 -1431v-23h-367l-63 178h-408l-64 -178h-370zM526 469h207q-32 99 -52.5 173.5t-28.5 114.5t-23 120q-41 -198 -103 -408z" />
<glyph unicode="B" horiz-adv-x="1187" d="M125 0v1434h524q193 0 309.5 -111.5t116.5 -298.5q0 -76 -31.5 -152.5t-99.5 -119.5q85 -58 131.5 -145.5t46.5 -186.5q0 -191 -117 -305.5t-311 -114.5h-569zM473 322h193q45 0 75.5 34t30.5 88q0 58 -30.5 94.5t-75.5 36.5h-193v-253zM473 870h145q46 0 76 32 q31 34 31 89t-28 89q-29 36 -79 36h-145v-246z" />
<glyph unicode="C" horiz-adv-x="1320" d="M63 715q0 333 171.5 536t451.5 203q78 0 154 -20t148 -63.5t129 -106.5t97 -155.5t52 -203.5h-340q-53 211 -240 211q-122 0 -196 -109.5t-74 -289.5q0 -177 74.5 -285t197.5 -108q94 0 157 56.5t83 170.5h342q-13 -119 -52.5 -215.5t-96 -161.5t-129 -109t-149 -63.5 t-157.5 -19.5q-280 0 -451.5 201.5t-171.5 531.5z" />
<glyph unicode="D" horiz-adv-x="1265" d="M125 0v1432h473q270 0 436 -195t166 -514v-12q0 -319 -162 -513q-165 -198 -440 -198h-473zM479 338h115q113 0 181.5 104.5t68.5 276.5q0 169 -69 273t-181 104h-115v-758z" />
<glyph unicode="E" horiz-adv-x="993" d="M125 0v1434h770v-326h-418v-205h381v-328h-381v-233h434v-342h-786z" />
<glyph unicode="F" horiz-adv-x="954" d="M125 0v1434h770v-326h-416v-317h363v-328h-363v-463h-354z" />
<glyph unicode="G" horiz-adv-x="1325" d="M63 715q0 218 82 387t225.5 260.5t323.5 91.5q94 0 182 -28.5t166 -85.5t134.5 -154.5t78.5 -224.5h-344q-51 157 -217 157q-131 0 -201.5 -108t-70.5 -293q0 -177 74.5 -285t197.5 -108q173 0 217 174h-217v315h576q4 -57 4 -111q0 -78 -8 -150q-15 -123 -57 -228 t-110.5 -180.5t-171.5 -118.5t-233 -43q-284 0 -457.5 201.5t-173.5 531.5z" />
<glyph unicode="H" horiz-adv-x="1282" d="M125 0v1434h354v-519h324v519h354v-1434h-354v573h-324v-573h-354z" />
<glyph unicode="I" horiz-adv-x="802" d="M80 0v303h143v827h-129v304h615v-304h-131v-827h145v-303h-643z" />
<glyph unicode="J" horiz-adv-x="1087" d="M35 473v186h330v-180q0 -83 37 -125.5t96 -42.5q55 0 87.5 42.5t32.5 125.5v637h-174v318h529v-961q0 -114 -38.5 -208.5t-104 -156t-151 -95t-179.5 -33.5q-96 0 -180 33.5t-147.5 95t-100.5 156t-37 208.5z" />
<glyph unicode="K" horiz-adv-x="1273" d="M123 0v1434h354v-562h17.5h23.5t23.5 0.5t26 2t24 4t24.5 6.5t19 10q34 22 52.5 78.5t46.5 196.5q0 3 0.5 5t1 5t1.5 6q11 55 32.5 99.5t58 82.5t86.5 58q50 19 120 24q12 1 26 1q60 0 132 -19v-252q-9 1 -17 1q-93 0 -114 -104q-59 -259 -146 -381q28 -54 146.5 -285.5 t185.5 -355.5v-55h-401l-242 553q-29 -6 -127 -6v-547h-354z" />
<glyph unicode="L" horiz-adv-x="901" d="M125 0v1434h354v-1098h398v-336h-752z" />
<glyph unicode="M" horiz-adv-x="1458" d="M125 0v1442h125l479 -621l479 621h125v-1442h-354v649l-231 -307h-39l-230 307v-649h-354z" />
<glyph unicode="N" horiz-adv-x="1314" d="M123 0v1446h110l605 -696v684h354v-1444h-102l-613 708v-698h-354z" />
<glyph unicode="O" horiz-adv-x="1380" d="M63 717q0 331 173 534t456 203q281 0 453 -202.5t172 -534.5t-172 -534.5t-453 -202.5q-283 0 -456 203t-173 534zM416 717q0 -172 76 -279.5t200 -107.5q121 0 195 107.5t74 279.5t-74 278.5t-195 106.5q-124 0 -200 -106.5t-76 -278.5z" />
<glyph unicode="P" horiz-adv-x="1150" d="M125 2v1432h508q223 0 355 -148q125 -141 124 -365v-24q0 -235 -131.5 -375.5t-347.5 -140.5h-154v-379h-354zM473 698h160q63 0 102 57.5t39 151.5q0 91 -39 147t-102 56h-160v-412z" />
<glyph unicode="Q" horiz-adv-x="1392" d="M63 717q0 331 173 534t456 203q281 0 453 -202.5t172 -534.5q0 -235 -92 -414l164 -307v-12h-328l-43 86q-145 -90 -326 -90q-283 0 -456 203t-173 534zM416 717q0 -172 76 -279.5t200 -107.5q121 0 195 107.5t74 279.5t-74 278.5t-195 106.5q-124 0 -200 -106.5 t-76 -278.5z" />
<glyph unicode="R" horiz-adv-x="1220" d="M125 2v1432h506q218 0 350.5 -139t132.5 -367q-2 -130 -41.5 -224.5t-130.5 -162.5l244 -521v-18h-387l-185 449h-135v-449h-354zM473 756h156q65 0 104 49t39 131q0 78 -39.5 126t-103.5 48h-156v-354z" />
<glyph unicode="S" horiz-adv-x="1132" d="M68 453h335v-6q-1 -62 43 -102q46 -42 119 -42q72 0 115 34t43 95q0 24 -8 43.5t-18 32.5t-30 23t-33.5 15t-39 9t-36 5t-34.5 3q-69 5 -132 22.5t-121 52t-100.5 83t-67.5 120t-25 158.5q0 209 131 332t348 123t347 -129q124 -123 125 -321q0 -9 -1 -19h-332q1 8 1 15 q1 56 -33 92q-38 42 -101 41.5t-100 -36t-37 -96.5q0 -102 158 -122q86 -9 151.5 -23.5t132 -46.5t109 -79.5t69.5 -124t27 -177.5q0 -205 -138 -326.5t-366 -121.5q-231 0 -369 130q-132 124 -132 325v18z" />
<glyph unicode="T" horiz-adv-x="968" d="M31 1106v328h907v-328h-281v-1106h-344v1106h-282z" />
<glyph unicode="U" horiz-adv-x="1230" d="M115 481v953h354v-945q0 -80 41 -129t108 -49q66 0 106 49t40 129v945h352v-953q0 -224 -138 -361.5t-362 -137.5q-226 0 -363.5 137.5t-137.5 361.5z" />
<glyph unicode="V" horiz-adv-x="1212" d="M-8 1417v17h387l145 -426q63 -227 82 -381h6q25 176 82 381l140 426h385v-17l-537 -1437h-147z" />
<glyph unicode="W" horiz-adv-x="1777" d="M12 1417v17h369l113 -392q59 -238 81 -417h5l206 784h230l192 -784h4q19 161 76 417l111 392h368v-15l-415 -1433h-240l-219 655h-6l-209 -655h-250z" />
<glyph unicode="X" horiz-adv-x="1204" d="M0 0v10l385 750l-340 661v13h379l117 -236q23 -47 57 -168h4q6 19 16.5 55.5t19.5 62.5t21 50l117 236h381v-13l-338 -661l385 -750v-10h-405l-125 266q-40 98 -70 221h-6q-39 -148 -76 -221l-121 -266h-401z" />
<glyph unicode="Y" horiz-adv-x="1150" d="M-4 1413v21h379l121 -285q30 -72 77 -252h5q37 161 77 252l123 285h375v-21l-399 -866v-547h-355v547z" />
<glyph unicode="Z" horiz-adv-x="1069" d="M39 0v53l448 1055h-407v326h924v-56l-451 -1044h455v-334h-969z" />
<glyph unicode="[" horiz-adv-x="634" d="M117 -406v1999h448v-280h-143v-1409h143v-310h-448z" />
<glyph unicode="\" horiz-adv-x="1011" d="M43 1434h338l588 -1432h-338z" />
<glyph unicode="]" horiz-adv-x="634" d="M70 -96h143v1409h-143v280h448v-1999h-448v310z" />
<glyph unicode="^" horiz-adv-x="1044" d="M70 809l336 645h235l334 -645h-287l-166 350l-166 -350h-286z" />
<glyph unicode="_" horiz-adv-x="1071" d="M92 -25h887v-299h-887v299z" />
<glyph unicode="`" horiz-adv-x="583" d="M76 1335v31l305 115l149 -371v-33h-266z" />
<glyph unicode="a" d="M49 309q0 148 89.5 236t236.5 88q99 0 166 -49v51q0 35 -17.5 59.5t-45.5 35t-52 14.5t-49 4q-128 0 -223 -54l-48 234q148 80 330 80q75 0 135.5 -10t116.5 -36.5t93.5 -67.5t60 -107t22.5 -152v-328q0 -64 14.5 -89t71.5 -25l-2 -191q-38 -11 -76 -17q-25 -4 -54 -4 q-14 0 -28 1q-44 3 -79.5 17.5t-63.5 49.5t-37 88q-24 -58 -68.5 -94.5t-90 -49.5t-97.5 -13q-137 0 -221 90t-84 239zM360 334q0 -38 22.5 -62t57.5 -24q42 0 72.5 35.5t30.5 95.5q-42 39 -99 39q-38 0 -61 -23t-23 -61z" />
<glyph unicode="b" horiz-adv-x="1017" d="M96 55v1440h326v-522q71 35 166 35q171 0 273 -134t102 -370q0 -257 -132.5 -390.5t-361.5 -133.5q-181 0 -373 75zM416 289q42 -19 92 -19q58 0 94.5 58.5t36.5 156.5q0 103 -35.5 159t-105.5 56q-18 0 -43 -7t-39 -19v-385z" />
<glyph unicode="c" horiz-adv-x="983" d="M53 498q0 229 124.5 369.5t328.5 140.5q78 0 149.5 -25t132 -73t100.5 -127.5t50 -180.5h-311q-10 53 -41 80t-70 27q-60 0 -96.5 -58t-36.5 -153t35 -153t92 -58q96 0 115 116h313q-19 -195 -135.5 -309t-313.5 -114q-196 0 -316 142.5t-120 375.5z" />
<glyph unicode="d" horiz-adv-x="1069" d="M55 487q0 233 114.5 376t301.5 143q90 0 141 -33v522h328v-1190q0 -66 15 -91q13 -22 56 -22q7 0 15 1l-2 -193q-38 -11 -78 -17q-28 -4 -60 -4q-12 1 -26 1q-46 2 -83.5 16.5t-65.5 50.5t-35 90q-30 -70 -94 -112.5t-133 -42.5q-184 0 -289 137.5t-105 367.5zM395 492 q0 -98 30.5 -150.5t86.5 -52.5q52 0 79 52t27 126v213q-45 25 -86 25q-60 0 -98.5 -59t-38.5 -154z" />
<glyph unicode="e" horiz-adv-x="956" d="M53 498q0 104 26.5 190t70.5 144.5t102.5 99t121 58.5t128.5 18q121 0 207.5 -44t130.5 -124q43 -78 53 -188q2 -25 2 -53q0 -88 -25 -187h-489q21 -154 205 -154q126 0 262 66l37 -252q-165 -92 -344 -92q-215 0 -351.5 138t-136.5 380zM383 621h211q1 11 1 21 q1 46 -25 70q-32 30 -72 29q-42 0 -75 -30.5t-40 -89.5z" />
<glyph unicode="f" horiz-adv-x="741" d="M41 741v246h139l2 105q0 114 28.5 197t79.5 130t116 69q61 21 136 21h7q115 0 231 -43l-30 -258q-64 27 -113 27q-125 0 -125 -152v-96h209v-246h-209v-741h-336v741h-135z" />
<glyph unicode="g" horiz-adv-x="1034" d="M55 483q0 239 130.5 382t357.5 143q196 0 395 -97v-938q0 -135 -32.5 -233.5t-93 -156.5t-140 -85.5t-180.5 -27.5q-225 0 -392 122l72 250q117 -84 242 -84q103 0 155 47.5t52 174.5v45q-90 -45 -189 -45q-169 0 -273 138t-104 365zM385 494q0 -95 40.5 -154t106.5 -59 q50 0 84 22v391q-38 17 -86 17q-66 0 -105.5 -59.5t-39.5 -157.5z" />
<glyph unicode="h" horiz-adv-x="1064" d="M98 0v1495h330v-612q83 125 229 125q161 0 239.5 -103.5t78.5 -320.5v-584h-334v584q0 149 -92 149q-45 0 -83 -41t-38 -114v-578h-330z" />
<glyph unicode="i" horiz-adv-x="524" d="M74 1272q0 94 56 146q54 50 128 50h6q77 -2 133 -53.5t56 -142.5q0 -93 -56 -145t-133 -54h-6q-74 0 -128 51q-56 53 -56 148zM98 0l2 987h326v-987h-328z" />
<glyph unicode="j" horiz-adv-x="520" d="M-70 -518l11 256q18 -2 33 -2q58 0 87 24q37 29 37 127v1100h324l-2 -1104q0 -93 -18 -165.5t-51 -120.5t-77 -79t-100 -43q-48 -10 -99 -10h-17q-60 2 -128 17zM68 1264q0 93 55 144.5t131 51.5q77 0 134.5 -52t57.5 -144t-56.5 -142.5t-133.5 -50.5t-132.5 49.5 t-55.5 143.5z" />
<glyph unicode="k" horiz-adv-x="1011" d="M98 2v1495h326v-850h20q27 0 49.5 6.5t39 16.5t29 28t21 34.5t14 43.5t8.5 47t4.5 53.5t2 55t0.5 57.5h314q0 -12 1 -24q0 -333 -165 -480l215 -477v-6h-338l-145 377q-46 -4 -70 -4v-373h-326z" />
<glyph unicode="l" horiz-adv-x="569" d="M88 397v1100h326v-1098q0 -80 25 -113.5t71 -33.5q31 0 43 4l8 -260q-75 -16 -143 -16q-330 0 -330 417z" />
<glyph unicode="m" horiz-adv-x="1593" d="M45 788v191q35 14 80.5 24t101 10t103 -14.5t83.5 -56t44 -106.5q37 85 104.5 128.5t145.5 43.5q85 0 149.5 -44.5t97.5 -129.5q40 82 113 128t150 46q72 0 124.5 -23t83.5 -61t49 -96.5t24 -120.5q4 -45 4 -101q0 -20 -1 -41v-565h-332v586q0 147 -94 147q-36 0 -63 -36 t-27 -111v-586h-323v586q0 147 -103 147q-38 0 -69 -38t-31 -115v-580h-328v676q0 61 -17.5 86.5t-68.5 25.5z" />
<glyph unicode="n" horiz-adv-x="1095" d="M43 799v190q53 14 115 19q25 2 51 2q39 0 79 -4q68 -8 115 -47t52 -107q45 78 112.5 117t141.5 39q90 0 150.5 -30t91.5 -89.5t43 -130.5t12 -172v-586h-330v586q0 78 -29 113.5t-72 35.5q-47 0 -81.5 -41.5t-34.5 -124.5v-569h-330v686q0 61 -17.5 87t-68.5 26z" />
<glyph unicode="o" horiz-adv-x="1001" d="M53 498q0 229 123 369.5t324 140.5t324.5 -140.5t123.5 -369.5q0 -232 -122 -374t-322 -144h-4q-130 0 -232 63q-102 64 -158.5 182t-56.5 273zM379 498q0 -98 35 -156q34 -58 90 -57h2q54 2 87.5 60.5t33.5 152.5q0 91 -33.5 146.5t-89.5 57.5h-2q-56 0 -89 -54 q-34 -56 -34 -150z" />
<glyph unicode="p" horiz-adv-x="1060" d="M45 793l2 190q36 11 77 17q31 4 66 4h24q50 -2 88.5 -16t64.5 -50t26 -92q84 162 252 162q164 0 261.5 -133t97.5 -373q0 -235 -106.5 -378.5t-279.5 -143.5q-82 0 -159 38v-524h-330v1182q0 60 -19 88.5t-65 28.5zM451 311q53 -30 94 -30q58 0 93.5 60.5t35.5 160.5 q0 91 -32.5 145.5t-86.5 54.5q-48 0 -76 -46t-28 -113v-232z" />
<glyph unicode="q" horiz-adv-x="1019" d="M55 492q0 232 134 374t354 142q192 0 383 -76v-1448h-328v532q-63 -36 -143 -36q-183 0 -291.5 140.5t-108.5 371.5zM383 487q0 -90 38 -147t99 -57q52 0 86 22v393q-51 15 -74 15q-69 0 -109 -56.5t-40 -169.5z" />
<glyph unicode="r" horiz-adv-x="860" d="M41 791v190q49 14 108 19q24 2 48 2q37 0 75 -4q64 -8 109.5 -46.5t50.5 -105.5q76 162 256 162q102 -3 176 -74l-106 -256q-55 39 -115 39q-78 0 -133 -57t-55 -166v-494h-324v678q0 63 -16.5 88t-73.5 25z" />
<glyph unicode="s" horiz-adv-x="897" d="M51 322h318q-1 -44 20 -66.5t51 -22.5q29 0 49.5 17t20.5 53q0 29 -12 45.5t-26 21.5t-38 9q-44 6 -73 11t-71.5 16.5t-71 24.5t-60.5 36t-51 51.5t-31.5 70t-12.5 91.5q0 148 105.5 238t277.5 90q71 0 138.5 -21.5t121.5 -61t86 -103.5q29 -59 29 -129v-13h-278 q-8 65 -88 65q-26 0 -45 -17t-19 -46q0 -13 2.5 -22.5t9 -16l11 -11t16 -7t15 -3.5t16.5 -2.5t14 -1.5q45 -6 70 -10t65.5 -12.5t64.5 -19t55 -27t49 -38.5t35 -51.5t24 -69.5q6 -35 6 -75v-12q-3 -148 -110 -235.5t-294 -87.5q-196 0 -291.5 91t-97.5 251z" />
<glyph unicode="t" horiz-adv-x="802" d="M20 764v223h132l36 305h297v-305h246v-246h-246v-338q0 -80 40 -114.5t102 -34.5t118 27l46 -261q-94 -36 -248 -40q-81 0 -147.5 22.5t-120 69.5t-83.5 129.5t-30 193.5v346z" />
<glyph unicode="u" horiz-adv-x="1075" d="M88 406v581h334v-573q0 -61 24 -98t64 -37q45 0 76.5 33t31.5 108v567h330v-696q0 -52 20 -76q17 -21 52 -21q6 0 12 1v-191q-40 -12 -82 -20q-39 -7 -90 -7q-2 1 -6 1q-54 0 -97 14t-75 53.5t-37 101.5q-33 -77 -101 -122t-147 -45q-153 0 -231 114t-78 312z" />
<glyph unicode="v" horiz-adv-x="989" d="M2 969v18h354l90 -266q17 -59 48 -199h2q23 123 43 199l98 266h352v-18l-432 -987h-127z" />
<glyph unicode="w" horiz-adv-x="1341" d="M12 965v22h346l68 -237l35 -213l143 424h148l125 -424h2l106 450h346v-22l-346 -983h-125l-192 430l-195 -430h-117z" />
<glyph unicode="x" horiz-adv-x="983" d="M10 0v18l258 506l-211 445v18h328l64 -139q23 -63 38 -156h2q16 95 37 156l62 139h354v-18l-231 -467l252 -484v-18h-349l-69 147q-42 99 -58 183h-2q-23 -102 -57 -183l-66 -147h-352z" />
<glyph unicode="y" horiz-adv-x="1017" d="M8 973v14h354l103 -350q21 -91 53 -301h2q19 160 47 307l90 344h344v-14l-331 -1084q-61 -197 -156 -308t-219 -111q-130 0 -223 51l32 264q50 -27 101 -27q60 0 86.5 35t48.5 125l18 82z" />
<glyph unicode="z" horiz-adv-x="854" d="M41 0v39l297 661h-262v287h717v-39l-291 -639h293v-309h-754z" />
<glyph unicode="{" horiz-adv-x="626" d="M53 510v256q28 2 48.5 10t31 23.5t16.5 31.5t7 40t0.5 43t-2.5 46t-2 44q0 33 -1 97q-2 71 0 135t7 119t21.5 100t43 78t71.5 53t107 26q47 4 152 4v-246q-38 4 -66 -15.5t-28 -70.5v-358q0 -234 -180 -289q76 -28 128 -98t52 -162v-434q0 -98 94 -72v-277h-22 q-62 0 -92 1t-78.5 7t-72 18t-55 36t-46 59.5t-25 89t-10.5 123.5v334q0 13 1.5 41.5t1.5 47.5t-1.5 45.5t-7.5 44.5t-17 35t-30 25.5t-46 8.5z" />
<glyph unicode="|" horiz-adv-x="530" d="M117 -186v1646h297v-1646h-297z" />
<glyph unicode="}" horiz-adv-x="626" d="M74 -129q38 -11 66 3.5t28 68.5v434q0 89 53 161t131 99q-76 26 -130 96t-54 154v397q0 94 -94 86v246q141 0 193 -10q143 -27 187 -152q23 -65 23 -158q0 -56 -1 -168t-1 -167v-41q0 -27 1 -43t6 -39t15 -36t29 -23.5t47 -12.5v-256q-26 0 -45 -9t-29.5 -26.5t-16.5 -36 t-7.5 -45t-1.5 -45.5t1 -47t1 -39q0 -44 1 -126v-171t-12 -143.5t-36.5 -111.5t-73 -76t-121.5 -35q-59 -5 -159 -5v277z" />
<glyph unicode="~" horiz-adv-x="1157" d="M86 627q27 143 118.5 225.5t219.5 73.5q41 -3 77 -16.5t88 -42.5t85 -44q57 -26 88 -28q36 -3 62.5 21.5t37.5 80.5q99 -46 217 -111q-41 -169 -117 -242.5t-194 -60.5q-48 5 -183.5 70t-201.5 65q-30 0 -53.5 -23.5t-46.5 -80.5z" />
<glyph unicode="&#xa1;" horiz-adv-x="548" d="M84 -465l22 1040h334l29 -1040h-385zM84 817q0 84 54.5 135.5t135.5 51.5q80 0 134.5 -51.5t54.5 -135.5q0 -83 -53.5 -135.5t-135.5 -52.5q-78 0 -134 51.5t-56 136.5z" />
<glyph unicode="&#xa2;" horiz-adv-x="1032" d="M78 498q0 229 124 369.5t328 140.5q62 0 117 -15l53 142h93l-64 -172q96 -45 158.5 -137t75.5 -224h-312q-9 46 -30 70l-140 -369q26 -16 54 -16q95 0 114 116h314q-19 -195 -135.5 -309t-313.5 -114q-75 0 -143 22l-47 -125h-93l62 162q-102 64 -158.5 183t-56.5 276z M408 498q0 -55 14 -109l119 320q-60 0 -96.5 -58t-36.5 -153z" />
<glyph unicode="&#xa3;" horiz-adv-x="1183" d="M74 647v187h104q-40 280 109.5 450t435.5 170q81 0 182.5 -25.5t169.5 -66.5l-102 -281q-30 24 -92.5 42t-98.5 18q-150 0 -219.5 -77t-42.5 -230h340v-187h-321q14 -96 14 -121q0 -128 -59 -243q21 19 51 26q22 6 55 2q24 -3 79 -14.5t81 -11.5q45 0 65 36t6 134h277 q17 -94 14 -185q-5 -129 -81.5 -207.5t-211.5 -78.5q-33 0 -157.5 27.5t-182.5 19.5q-45 -6 -69 -33h-338v31q143 150 143 374q0 37 -4 75.5t-11.5 93t-10.5 75.5h-125z" />
<glyph unicode="&#xa4;" horiz-adv-x="1013" d="M78 418l121 125q-19 89 -19 153q0 83 29 172l-115 121l185 187l129 -132q64 28 114 25q53 -3 109 -33l125 127l180 -188l-121 -125q16 -115 16 -154q0 -81 -26 -172l113 -121l-183 -186l-127 133q-60 -29 -114 -26q-64 4 -111 32l-121 -127zM399 696q0 -65 27.5 -106.5 t67.5 -44.5q50 -3 86 35t36 116q0 66 -26.5 107.5t-67.5 44.5q-52 3 -87.5 -36.5t-35.5 -115.5z" />
<glyph unicode="&#xa5;" horiz-adv-x="1204" d="M51 1421v13h377l182 -473l166 473h379v-13l-315 -725h159v-172h-217v-108h217v-174h-217v-242h-358v242h-217v174h217v108h-217v172h158z" />
<glyph unicode="&#xa6;" horiz-adv-x="526" d="M115 -51v684h297v-684h-297zM115 784v676h297v-676h-297z" />
<glyph unicode="&#xa7;" horiz-adv-x="1128" d="M84 94h322q0 -29 12.5 -52t31 -36t41 -22t40.5 -12t32 -3q51 0 100.5 30t49.5 83q0 33 -10 57t-23 36.5t-40 21t-47 11t-58 5.5q-72 4 -134.5 17.5t-120 40.5t-98.5 66t-65.5 98t-24.5 132q0 78 36.5 144t102.5 106q-139 85 -139 254q0 178 127 287.5t334 109.5 q212 0 336.5 -109t116.5 -288h-316q3 54 -33 86.5t-96 32.5q-61 0 -98 -31t-37 -82q0 -46 29.5 -77t81 -48.5t105.5 -29t119.5 -27.5t106.5 -35q74 -35 127.5 -104t53.5 -170q0 -71 -31.5 -135.5t-89.5 -108.5q121 -75 121 -260q0 -95 -42 -171t-111.5 -122.5t-154.5 -71 t-176 -24.5q-73 0 -142 14.5t-132 46t-109.5 77.5t-73 113.5t-24.5 149.5zM403 604q-3 -70 48 -107.5t151 -37.5q47 -3 96 -13q43 40 43 127q0 55 -53.5 98.5t-167.5 43.5q-49 4 -74 10q-39 -34 -43 -121z" />
<glyph unicode="&#xa8;" horiz-adv-x="1005" d="M80 1286q0 81 50.5 128.5t129.5 47.5q73 0 125.5 -47.5t52.5 -128.5q0 -77 -52 -125.5t-126 -48.5q-73 0 -126.5 46t-53.5 128zM559 1286q0 80 52.5 128t127.5 48q74 0 126.5 -48t52.5 -128q0 -78 -52 -126t-127 -48q-71 0 -125.5 46.5t-54.5 127.5z" />
<glyph unicode="&#xa9;" horiz-adv-x="1406" d="M72 717q0 333 174.5 537t458.5 204q187 0 329.5 -92t220.5 -260.5t78 -388.5t-78 -388.5t-221 -261t-329 -92.5q-284 0 -458.5 204.5t-174.5 537.5zM293 717q0 -242 113 -389.5t299 -147.5t299.5 147.5t113.5 389.5q0 243 -113.5 390.5t-299.5 147.5t-299 -147.5 t-113 -390.5zM426 723q0 154 78.5 248t206.5 94q108 0 182.5 -67.5t87.5 -200.5h-182q-8 40 -31 60t-51 20q-43 0 -69.5 -42.5t-26.5 -111.5t25.5 -111.5t66.5 -42.5q70 0 84 88h184q-30 -284 -283 -284q-123 0 -197.5 96t-74.5 254z" />
<glyph unicode="&#xaa;" horiz-adv-x="798" d="M49 944q0 120 67.5 176t182.5 56q73 0 125 -37v32q0 84 -121 84q-97 0 -160 -36l-26 174q98 55 227 55q49 0 93.5 -8.5t87.5 -29.5t74.5 -52.5t51 -81t19.5 -111.5v-225q0 -44 12.5 -63t54.5 -19v-137q-111 -33 -176.5 -3.5t-75.5 101.5q-8 -30 -32 -53t-55 -34.5 t-60 -17t-55 -5.5q-97 0 -165.5 60t-68.5 175zM84 367v229h635v-229h-635zM285 963q0 -29 16.5 -46.5t44.5 -17.5q74 0 74 102q-31 31 -76 31q-26 0 -42.5 -19t-16.5 -50z" />
<glyph unicode="&#xab;" horiz-adv-x="911" d="M63 709l283 520l127 -78l-160 -442l160 -437l-127 -79zM420 709l282 520l125 -78l-157 -442l157 -437l-125 -79z" />
<glyph unicode="&#xac;" horiz-adv-x="1024" d="M98 532v299h813v-593h-264v294h-549z" />
<glyph unicode="&#xad;" horiz-adv-x="829" d="M94 532v299h641v-299h-641z" />
<glyph unicode="&#xae;" horiz-adv-x="1406" d="M72 717q0 333 174.5 537t458.5 204q187 0 329.5 -92t220.5 -260.5t78 -388.5t-78 -388.5t-221 -261t-329 -92.5q-284 0 -458.5 204.5t-174.5 537.5zM293 717q0 -242 113 -389.5t299 -147.5t299.5 147.5t113.5 389.5q0 243 -113.5 390.5t-299.5 147.5t-299 -147.5 t-113 -390.5zM481 391v662h242q111 0 175.5 -64.5t64.5 -171.5q0 -64 -19 -105.5t-67 -74.5l100 -225v-21h-193l-75 207h-45v-207h-183zM664 760h51q27 0 43 17t16 46q0 25 -16.5 40.5t-42.5 15.5h-51v-119z" />
<glyph unicode="&#xaf;" horiz-adv-x="868" d="M139 1155v277h592v-277h-592z" />
<glyph unicode="&#xb0;" horiz-adv-x="790" d="M59 1104q0 160 92.5 258t243.5 98t242.5 -98t91.5 -258t-91.5 -258t-242.5 -98t-243.5 98t-92.5 258zM297 1104q0 -60 27 -96.5t71 -36.5q40 0 65 36.5t25 96.5q0 61 -25 98t-65 37q-44 0 -71 -37t-27 -98z" />
<glyph unicode="&#xb1;" horiz-adv-x="909" d="M102 4v299h701v-299h-701zM113 604v285h213v252h260v-252h217v-285h-217v-194h-260v194h-213z" />
<glyph unicode="&#xb2;" horiz-adv-x="724" d="M86 614v58l272 452q32 52 39 105q4 36 -9 56t-38 20q-22 0 -36.5 -19t-14.5 -59h-205q-6 137 65.5 221t192.5 84q123 0 193.5 -83t64.5 -218q-3 -78 -59 -174l-127 -211h213v-232h-551z" />
<glyph unicode="&#xb3;" horiz-adv-x="714" d="M68 899h217q0 -34 17 -55t46 -21q28 0 45 24t17 64q0 141 -164 105v31l102 270h-250v201h520v-37l-131 -322q80 -14 122 -81t42 -165q0 -142 -81 -228.5t-218 -86.5q-127 0 -205.5 80.5t-78.5 220.5z" />
<glyph unicode="&#xb4;" horiz-adv-x="526" d="M18 1077v33l150 371l305 -115v-31l-188 -258h-267z" />
<glyph unicode="&#xb5;" horiz-adv-x="1083" d="M119 -512v1501h315v-497q0 -40 1 -65t4 -56t10.5 -49.5t19 -35.5t30.5 -24.5t44 -7.5q26 0 44 6.5t29.5 24t18.5 34.5t10 52t3.5 61t0.5 76v481h316v-989h-260l-27 92q-10 -55 -41.5 -82.5t-75.5 -27.5q-94 0 -127 73v-567h-315z" />
<glyph unicode="&#xb6;" horiz-adv-x="1458" d="M53 885q0 245 121.5 396t317.5 151h823v-1893h-330v1575h-190v-1575h-334v826q-182 8 -295 151t-113 369z" />
<glyph unicode="&#xb7;" horiz-adv-x="534" d="M78 735q0 85 53.5 137t136.5 52q82 0 135.5 -51t53.5 -138q0 -84 -53 -135t-136 -51q-82 0 -136 51t-54 135z" />
<glyph unicode="&#xb8;" horiz-adv-x="681" d="M117 -438l20 188q52 -33 86 -33q62 0 70 37q9 39 -27 60.5t-67 21.5l45 197h243l-30 -139q125 -26 125 -162q0 -98 -48 -158t-135 -72q-69 -10 -147 6.5t-135 53.5z" />
<glyph unicode="&#xb9;" horiz-adv-x="638" d="M92 614v209h117v486h-100v209h344v-695h116v-209h-477z" />
<glyph unicode="&#xba;" horiz-adv-x="800" d="M53 1092q0 164 96 263t254 99q154 0 247 -99t93 -263t-93 -264.5t-247 -100.5q-158 0 -254 100.5t-96 264.5zM63 367v229h676v-229h-676zM305 1094q0 -66 27 -106t71 -40q43 0 69 40t26 106q0 64 -26 102.5t-69 38.5q-44 0 -71 -38.5t-27 -102.5z" />
<glyph unicode="&#xbb;" horiz-adv-x="909" d="M82 272l160 437l-160 442l127 78l283 -520l-283 -516zM438 272l160 437l-160 442l125 78l283 -520l-283 -516z" />
<glyph unicode="&#xbc;" horiz-adv-x="1744" d="M74 545v188h116v527h-102v188h346v-715h117v-188h-477zM451 2l589 1432h248l-590 -1432h-247zM1051 158v116l303 627h266v-526h66v-217h-66v-160h-225v160h-344zM1307 365h104v120q1 42 6 125z" />
<glyph unicode="&#xbd;" horiz-adv-x="1779" d="M74 545v188h116v527h-102v188h346v-715h117v-188h-477zM453 2l589 1432h248l-590 -1432h-247zM1169 -2v57l273 453q32 52 39 104q4 36 -9 56t-38 20q-22 0 -37 -19t-15 -59h-204q-6 137 65.5 221t192.5 84q123 0 193.5 -83t64.5 -218q-3 -76 -60 -174l-127 -211h213v-231 h-551z" />
<glyph unicode="&#xbe;" horiz-adv-x="1781" d="M59 825h217q0 -34 17.5 -54.5t46.5 -20.5q28 0 44.5 24t16.5 64q0 140 -163 104v31l102 270h-250v201h520v-37l-131 -322q80 -14 122 -80.5t42 -164.5q0 -142 -81 -229t-218 -87q-127 0 -206 80.5t-79 220.5zM506 2l590 1432h247l-589 -1432h-248zM1085 158v116l304 627 h266v-526h65v-217h-65v-160h-225v160h-345zM1341 365h105v120q1 42 6 125z" />
<glyph unicode="&#xbf;" horiz-adv-x="923" d="M57 -57q0 69 18.5 132t46.5 108t60 94t60 91t46.5 99t18.5 119h324q6 -87 -14.5 -161.5t-47.5 -117t-71.5 -105t-65.5 -100.5q-39 -71 -45 -122q-6 -54 20.5 -87.5t73.5 -33.5q50 0 77.5 40.5t23.5 106.5h290q13 -217 -96.5 -345t-294.5 -128q-194 0 -309 107.5 t-115 302.5zM279 821q0 85 50.5 136t135.5 51q86 0 139 -51t53 -136t-53 -136.5t-139 -51.5q-85 0 -135.5 51.5t-50.5 136.5z" />
<glyph unicode="&#xc0;" horiz-adv-x="1257" d="M-8 0v23l551 1431h176l545 -1431v-23h-367l-63 178h-408l-64 -178h-370zM334 1796v31l303 115l151 -371v-33h-266zM526 469h207q-32 99 -52.5 173.5t-28.5 114.5t-23 120q-41 -198 -103 -408z" />
<glyph unicode="&#xc1;" horiz-adv-x="1257" d="M-8 0v23l551 1431h176l545 -1431v-23h-367l-63 178h-408l-64 -178h-370zM477 1538v33l150 371l305 -115v-31l-189 -258h-266zM526 469h207q-32 99 -52.5 173.5t-28.5 114.5t-23 120q-41 -198 -103 -408z" />
<glyph unicode="&#xc2;" horiz-adv-x="1257" d="M-8 0v23l551 1431h176l545 -1431v-23h-367l-63 178h-408l-64 -178h-370zM207 1534v33l256 319h330l254 -319v-33h-320l-100 145l-97 -145h-323zM526 469h207q-32 99 -52.5 173.5t-28.5 114.5t-23 120q-41 -198 -103 -408z" />
<glyph unicode="&#xc3;" horiz-adv-x="1257" d="M-8 0v23l551 1431h176l545 -1431v-23h-367l-63 178h-408l-64 -178h-370zM238 1622q19 113 82 182.5t149 69.5q42 0 93 -20.5t88.5 -41.5t73.5 -33.5t59.5 5.5t33.5 74l201 -76q-15 -115 -71.5 -184.5t-160.5 -69.5q-35 0 -82 19.5t-85 38.5t-76 30t-68 -8t-49 -74z M526 469h207q-32 99 -52.5 173.5t-28.5 114.5t-23 120q-41 -198 -103 -408z" />
<glyph unicode="&#xc4;" horiz-adv-x="1257" d="M-8 0v23l551 1431h176l545 -1431v-23h-367l-63 178h-408l-64 -178h-370zM229 1706q0 78 49.5 124t124.5 46q71 0 121.5 -46t50.5 -124q0 -75 -50 -121.5t-122 -46.5q-70 0 -122 44.5t-52 123.5zM526 469h207q-32 99 -52.5 173.5t-28.5 114.5t-23 120q-41 -198 -103 -408z M692 1706q0 77 50 123.5t122 46.5t121 -46.5t49 -123.5q0 -75 -49 -121.5t-121 -46.5q-69 0 -120.5 45t-51.5 123z" />
<glyph unicode="&#xc5;" horiz-adv-x="1259" d="M-6 0v23l522 1355q-62 31 -98.5 93t-36.5 137q0 117 70.5 187.5t187.5 70.5q114 0 183 -70.5t69 -187.5q0 -78 -38 -141.5t-101 -92.5l514 -1351v-23h-367l-63 178h-408l-63 -178h-371zM537 477h192l-35 96q-27 77 -63 271q-45 -219 -62 -273zM567 1608q0 -31 20 -50.5 t52 -19.5q31 0 49.5 19.5t18.5 50.5q0 34 -18.5 53.5t-49.5 19.5q-33 0 -52.5 -19.5t-19.5 -53.5z" />
<glyph unicode="&#xc6;" horiz-adv-x="1466" d="M2 0v55l524 1375h844v-326h-381v-205h338v-309h-338v-266h393v-324h-692v313h-254l-96 -313h-338zM545 618h145l12 496h-2z" />
<glyph unicode="&#xc7;" horiz-adv-x="1318" d="M63 715q0 333 171.5 536t451.5 203q78 0 154 -20t148 -63.5t129 -106.5t97 -155.5t52 -203.5h-340q-53 211 -240 211q-122 0 -196 -109.5t-74 -289.5q0 -177 74.5 -285t197.5 -108q94 0 157 56.5t83 170.5h342q-14 -126 -57 -226.5t-107 -167t-139.5 -107.5t-161.5 -58 l-21 -98q73 -15 111 -74t27 -129q-16 -102 -103 -153.5t-196 -43t-195 67.5l35 188q27 -18 66 -27t72 -1t38 36q8 44 -31.5 68t-81.5 24l33 144q-227 45 -361.5 238t-134.5 483z" />
<glyph unicode="&#xc8;" horiz-adv-x="993" d="M125 0v1434h770v-326h-418v-205h381v-328h-381v-233h434v-342h-786zM248 1794v31l305 114l149 -370v-33h-266z" />
<glyph unicode="&#xc9;" horiz-adv-x="993" d="M125 0v1434h770v-326h-418v-205h381v-328h-381v-233h434v-342h-786zM371 1540v33l149 371l305 -115v-31l-188 -258h-266z" />
<glyph unicode="&#xca;" horiz-adv-x="993" d="M117 1536v31l245 315h316l240 -315v-31h-304l-96 143l-92 -143h-309zM125 0v1434h770v-326h-418v-205h381v-328h-381v-233h434v-342h-786z" />
<glyph unicode="&#xcb;" horiz-adv-x="993" d="M96 1716q0 81 50.5 128.5t129.5 47.5q73 0 126 -47.5t53 -128.5q0 -77 -52.5 -125.5t-126.5 -48.5q-73 0 -126.5 46t-53.5 128zM125 0v1434h770v-326h-418v-205h381v-328h-381v-233h434v-342h-786zM575 1716q0 80 53 128t128 48q74 0 126 -48t52 -128q0 -78 -51.5 -126 t-126.5 -48q-71 0 -126 46.5t-55 127.5z" />
<glyph unicode="&#xcc;" horiz-adv-x="802" d="M80 0v303h143v827h-129v304h615v-304h-131v-827h145v-303h-643zM121 1796v31l303 115l151 -371v-33h-266z" />
<glyph unicode="&#xcd;" horiz-adv-x="802" d="M80 0v303h143v827h-129v304h615v-304h-131v-827h145v-303h-643zM233 1542v33l152 371l305 -115v-31l-190 -258h-267z" />
<glyph unicode="&#xce;" horiz-adv-x="802" d="M0 1552v31l242 311h317l242 -311v-31h-303l-99 142l-92 -142h-307zM80 0v303h145v827h-131v304h615v-304h-131v-827h145v-303h-643z" />
<glyph unicode="&#xcf;" horiz-adv-x="802" d="M-16 1716q0 81 50.5 128.5t129.5 47.5q73 0 125.5 -47.5t52.5 -128.5q0 -77 -52 -125.5t-126 -48.5q-73 0 -126.5 46t-53.5 128zM80 0v303h145v827h-131v304h615v-304h-129v-827h143v-303h-643zM463 1716q0 80 52.5 128t127.5 48q74 0 126 -48t52 -128q0 -78 -51.5 -126 t-126.5 -48q-71 0 -125.5 46.5t-54.5 127.5z" />
<glyph unicode="&#xd0;" horiz-adv-x="1277" d="M23 582v252h114v598h473q270 0 436 -195t166 -514q3 -326 -162 -524.5t-440 -198.5h-473v582h-114zM492 338h114q113 0 181.5 104.5t68.5 276.5q0 169 -69 273t-181 104h-114v-262h167v-252h-167v-244z" />
<glyph unicode="&#xd1;" horiz-adv-x="1314" d="M123 0v1446h110l605 -696v684h354v-1444h-102l-613 708v-698h-354zM254 1620q19 113 82 182.5t149 69.5q42 0 93 -21t89 -42t73.5 -33.5t59.5 5.5t34 74l200 -75q-15 -115 -71 -184.5t-160 -69.5q-35 0 -82 19.5t-85 38.5t-76.5 30t-68.5 -8t-49 -74z" />
<glyph unicode="&#xd2;" horiz-adv-x="1380" d="M63 717q0 331 173 534t456 203q281 0 453 -202.5t172 -534.5t-172 -534.5t-453 -202.5q-283 0 -456 203t-173 534zM416 717q0 -172 76 -279.5t200 -107.5q121 0 195 107.5t74 279.5t-74 278.5t-195 106.5q-124 0 -200 -106.5t-76 -278.5zM416 1810v31l293 115l143 -371 v-33h-256z" />
<glyph unicode="&#xd3;" horiz-adv-x="1380" d="M63 717q0 331 173 534t456 203q281 0 453 -202.5t172 -534.5t-172 -534.5t-453 -202.5q-283 0 -456 203t-173 534zM416 717q0 -172 76 -279.5t200 -107.5q121 0 195 107.5t74 279.5t-74 278.5t-195 106.5q-124 0 -200 -106.5t-76 -278.5zM535 1548v33l141 371l293 -115 v-31l-181 -258h-253z" />
<glyph unicode="&#xd4;" horiz-adv-x="1380" d="M63 717q0 331 173 534t456 203q281 0 453 -202.5t172 -534.5t-172 -534.5t-453 -202.5q-283 0 -456 203t-173 534zM279 1542v33l253 319h332l252 -319v-33h-317l-103 146l-96 -146h-321zM416 717q0 -172 76 -279.5t200 -107.5q121 0 195 107.5t74 279.5t-74 278.5 t-195 106.5q-124 0 -200 -106.5t-76 -278.5z" />
<glyph unicode="&#xd5;" horiz-adv-x="1380" d="M63 717q0 331 173 534t456 203q281 0 453 -202.5t172 -534.5t-172 -534.5t-453 -202.5q-283 0 -456 203t-173 534zM299 1642q19 113 82 182.5t149 69.5q42 0 93 -20.5t89 -41.5t74 -33.5t59.5 5.5t33.5 74l200 -76q-15 -115 -71 -184.5t-160 -69.5q-35 0 -82 19.5 t-85 38.5t-76.5 30t-68.5 -8t-49 -74zM416 717q0 -172 76 -279.5t200 -107.5q121 0 195 107.5t74 279.5t-74 278.5t-195 106.5q-124 0 -200 -106.5t-76 -278.5z" />
<glyph unicode="&#xd6;" horiz-adv-x="1380" d="M63 717q0 331 173 534t456 203q281 0 453 -202.5t172 -534.5t-172 -534.5t-453 -202.5q-283 0 -456 203t-173 534zM264 1712q0 81 51.5 128.5t128.5 47.5q75 0 128 -47.5t53 -128.5q0 -77 -52.5 -125.5t-128.5 -48.5q-72 0 -126 46.5t-54 127.5zM416 717 q0 -172 76 -279.5t200 -107.5q121 0 195 107.5t74 279.5t-74 278.5t-195 106.5q-124 0 -200 -106.5t-76 -278.5zM745 1712q0 80 53 128t128 48q74 0 125 -48t51 -128q0 -78 -51 -126t-125 -48q-72 0 -126.5 46.5t-54.5 127.5z" />
<glyph unicode="&#xd7;" horiz-adv-x="884" d="M86 901l197 211l157 -190l154 186l199 -209l-154 -188l156 -191l-199 -209l-156 189l-153 -187l-199 209l154 189z" />
<glyph unicode="&#xd8;" horiz-adv-x="1376" d="M66 717q0 142 35 264t95 208.5t139.5 148t170 91t186.5 29.5q122 0 199 -39l67 137h330v-34l-141 -265q166 -193 166 -540q0 -139 -32 -259t-89 -208t-135 -150.5t-171 -93.5t-196 -31q-107 0 -180 33l-70 -139h-131q-1 0 -98 -0.5t-98 0.5v39l135 256q-182 191 -182 553 zM420 717q0 -138 29 -234l278 615q-18 6 -37 6q-111 0 -190.5 -107t-79.5 -280zM674 334q36 -4 49 -4q33 0 63 6q82 21 127 124.5t45 256.5q0 114 -16 215z" />
<glyph unicode="&#xd9;" horiz-adv-x="1230" d="M115 481v953h354v-945q0 -80 41 -129t108 -49q66 0 106 49t40 129v945h352v-953q0 -224 -138 -361.5t-362 -137.5q-226 0 -363.5 137.5t-137.5 361.5zM305 1794v31l305 114l152 -370v-33h-266z" />
<glyph unicode="&#xda;" horiz-adv-x="1230" d="M115 481v953h354v-945q0 -80 41 -129t108 -49q66 0 106 49t40 129v945h352v-953q0 -224 -138 -361.5t-362 -137.5q-226 0 -363.5 137.5t-137.5 361.5zM457 1530v33l151 370l303 -114v-31l-188 -258h-266z" />
<glyph unicode="&#xdb;" horiz-adv-x="1230" d="M115 481v953h354v-945q0 -80 41 -129t108 -49q66 0 106 49t40 129v945h352v-953q0 -224 -138 -361.5t-362 -137.5q-226 0 -363.5 137.5t-137.5 361.5zM199 1552v33l254 311h331l252 -311v-33h-317l-103 138l-96 -138h-321z" />
<glyph unicode="&#xdc;" horiz-adv-x="1230" d="M115 481v953h354v-945q0 -80 41 -129t108 -49q66 0 106 49t40 129v945h352v-953q0 -224 -138 -361.5t-362 -137.5q-226 0 -363.5 137.5t-137.5 361.5zM199 1741q0 81 50.5 128.5t127.5 47.5q74 0 127 -47.5t53 -128.5q0 -78 -52 -126t-128 -48q-72 0 -125 46.5t-53 127.5 zM678 1741q0 80 52.5 128t127.5 48q74 0 125 -48t51 -128q0 -78 -51 -126t-125 -48q-72 0 -126 46.5t-54 127.5z" />
<glyph unicode="&#xdd;" horiz-adv-x="1150" d="M-4 1413v21h379l121 -285q30 -72 77 -252h5q37 161 77 252l123 285h375v-21l-399 -866v-547h-355v547zM391 1524v32l152 371l303 -115v-30l-189 -258h-266z" />
<glyph unicode="&#xde;" horiz-adv-x="1148" d="M125 0v1434h354v-172h166q211 0 339 -148t128 -391q0 -236 -128 -380t-339 -144h-166v-199h-354zM473 524h145q70 0 113 57.5t43 151.5q0 91 -43 147t-113 56h-145v-412z" />
<glyph unicode="&#xdf;" horiz-adv-x="1105" d="M96 0v1006q0 448 439 448q249 0 464 -111v-18l-161 -502q94 -22 153.5 -123t59.5 -245q0 -296 -141 -401.5t-388 -28.5v278q86 -23 132 21.5t46 144.5q0 197 -190 168v55l111 443q-32 22 -82 22q-51 0 -84 -39.5t-33 -118.5v-999h-326z" />
<glyph unicode="&#xe0;" d="M49 309q0 148 89.5 236t236.5 88q99 0 166 -49v51q0 35 -17.5 59.5t-45.5 35t-52 14.5t-49 4q-128 0 -223 -54l-48 234q148 80 330 80q75 0 135.5 -10t116.5 -36.5t93.5 -67.5t60 -107t22.5 -152v-328q0 -64 14.5 -89t71.5 -25l-2 -191q-39 -11 -76.5 -17t-82 -3 t-79.5 17.5t-63 49.5t-37 88q-24 -58 -68.5 -94.5t-90 -49.5t-97.5 -13q-137 0 -221 90t-84 239zM238 1337v27l262 98l129 -321v-29h-230zM360 334q0 -38 22.5 -62t57.5 -24q42 0 72.5 35.5t30.5 95.5q-42 39 -99 39q-38 0 -61 -23t-23 -61z" />
<glyph unicode="&#xe1;" d="M49 309q0 148 89.5 236t236.5 88q99 0 166 -49v51q0 35 -17.5 59.5t-45.5 35t-52 14.5t-49 4q-128 0 -223 -54l-48 234q148 80 330 80q75 0 135.5 -10t116.5 -36.5t93.5 -67.5t60 -107t22.5 -152v-328q0 -64 14.5 -89t71.5 -25l-2 -191q-39 -11 -76.5 -17t-82 -3 t-79.5 17.5t-63 49.5t-37 88q-24 -58 -68.5 -94.5t-90 -49.5t-97.5 -13q-137 0 -221 90t-84 239zM317 1104v29l138 333l274 -104v-27l-170 -231h-242zM360 334q0 -38 22.5 -62t57.5 -24q42 0 72.5 35.5t30.5 95.5q-42 39 -99 39q-38 0 -61 -23t-23 -61z" />
<glyph unicode="&#xe2;" d="M49 309q0 148 89.5 236t236.5 88q99 0 166 -49v51q0 35 -17.5 59.5t-45.5 35t-52 14.5t-49 4q-128 0 -223 -54l-48 234q148 80 330 80q75 0 135.5 -10t116.5 -36.5t93.5 -67.5t60 -107t22.5 -152v-328q0 -64 14.5 -89t71.5 -25l-2 -191q-39 -11 -76.5 -17t-82 -3 t-79.5 17.5t-63 49.5t-37 88q-24 -58 -68.5 -94.5t-90 -49.5t-97.5 -13q-137 0 -221 90t-84 239zM125 1137v12l219 293h285l219 -293v-12h-275l-88 116l-82 -116h-278zM360 334q0 -38 22.5 -62t57.5 -24q42 0 72.5 35.5t30.5 95.5q-42 39 -99 39q-38 0 -61 -23t-23 -61z" />
<glyph unicode="&#xe3;" d="M49 309q0 148 89.5 236t236.5 88q99 0 166 -49v51q0 35 -17.5 59.5t-45.5 35t-52 14.5t-49 4q-128 0 -223 -54l-48 234q148 80 330 80q75 0 135.5 -10t116.5 -36.5t93.5 -67.5t60 -107t22.5 -152v-328q0 -64 14.5 -89t71.5 -25l-2 -191q-39 -11 -76.5 -17t-82 -3 t-79.5 17.5t-63 49.5t-37 88q-24 -58 -68.5 -94.5t-90 -49.5t-97.5 -13q-137 0 -221 90t-84 239zM121 1212q17 107 76.5 172.5t140.5 65.5q40 0 88 -19.5t83.5 -39t69 -31.5t56 5t31.5 69l190 -72q-15 -109 -68 -174.5t-151 -65.5q-33 0 -77.5 18.5t-80 36.5t-71.5 28.5 t-64.5 -7.5t-46.5 -70zM360 334q0 -38 22.5 -62t57.5 -24q42 0 72.5 35.5t30.5 95.5q-42 39 -99 39q-38 0 -61 -23t-23 -61z" />
<glyph unicode="&#xe4;" d="M49 309q0 148 89.5 236t236.5 88q99 0 166 -49v51q0 35 -17.5 59.5t-45.5 35t-52 14.5t-49 4q-128 0 -223 -54l-48 234q148 80 330 80q75 0 135.5 -10t116.5 -36.5t93.5 -67.5t60 -107t22.5 -152v-328q0 -64 14.5 -89t71.5 -25l-2 -191q-39 -11 -76.5 -17t-82 -3 t-79.5 17.5t-63 49.5t-37 88q-24 -58 -68.5 -94.5t-90 -49.5t-97.5 -13q-137 0 -221 90t-84 239zM119 1286q0 75 47 118.5t119 43.5q68 0 116 -43.5t48 -118.5q0 -71 -48 -115.5t-116 -44.5t-117 42.5t-49 117.5zM360 334q0 -38 22.5 -62t57.5 -24q42 0 72.5 35.5t30.5 95.5 q-42 39 -99 39q-38 0 -61 -23t-23 -61zM520 1286q0 74 47.5 118t116.5 44q68 0 116 -44t48 -118q0 -72 -47.5 -116t-116.5 -44q-65 0 -114.5 42.5t-49.5 117.5z" />
<glyph unicode="&#xe5;" d="M49 309q0 148 89.5 236t236.5 88q99 0 166 -49v51q0 35 -17.5 59.5t-45.5 35t-52 14.5t-49 4q-128 0 -223 -54l-48 234q148 80 330 80q75 0 135.5 -10t116.5 -36.5t93.5 -67.5t60 -107t22.5 -152v-328q0 -64 14.5 -89t71.5 -25l-2 -191q-39 -11 -76.5 -17t-82 -3 t-79.5 17.5t-63 49.5t-37 88q-24 -58 -68.5 -94.5t-90 -49.5t-97.5 -13q-137 0 -221 90t-84 239zM242 1309q0 104 63 166.5t166 62.5q101 0 162 -62.5t61 -166.5q0 -101 -60.5 -162.5t-160.5 -61.5q-103 0 -167 61.5t-64 162.5zM360 334q0 -38 22.5 -62t57.5 -24 q42 0 72.5 35.5t30.5 95.5q-42 39 -99 39q-38 0 -61 -23t-23 -61zM401 1309q0 -31 19.5 -50.5t50.5 -19.5q30 0 48 19.5t18 50.5q0 32 -17.5 51.5t-48.5 19.5t-50.5 -19.5t-19.5 -51.5z" />
<glyph unicode="&#xe6;" horiz-adv-x="1363" d="M47 291q0 155 85.5 246.5t227.5 91.5q46 0 98 -17t89 -45v54q0 127 -174 127q-59 0 -121 -18t-100 -40l-37 244q162 74 321 74q201 0 262 -150q34 73 105 111.5t141 38.5q83 0 147.5 -24.5t105 -67.5t66.5 -100t34 -124.5t3.5 -138t-20.5 -143.5h-465q10 -91 62.5 -135 t130.5 -44q120 0 247 70l39 -238q-170 -83 -336 -83q-205 0 -299 165q-115 -165 -307 -165q-137 0 -221 86t-84 225zM350 328q0 -38 22.5 -61t59.5 -23q57 0 86 42.5t29 96.5q-64 31 -115 31q-37 0 -59.5 -24t-22.5 -62zM817 616h195q4 62 -23 93.5t-69 31.5 q-80 0 -103 -125z" />
<glyph unicode="&#xe7;" horiz-adv-x="985" d="M53 498q0 226 113 362.5t287 157.5q86 10 168 -13t149.5 -74t112.5 -136.5t55 -192.5h-311q-9 45 -30.5 73t-51.5 36q-23 6 -50 -3t-52.5 -32.5t-42.5 -70t-17 -107.5q0 -84 23 -140.5t61 -70.5q53 -21 97 9t61 107h313q-11 -161 -92 -268t-219 -139l-21 -88 q56 -11 87 -52t30 -106q0 -83 -43 -136t-111 -67q-60 -12 -128 3.5t-124 50.5l17 174q36 -29 74 -29q48 0 55 33q9 39 -14.5 57.5t-49.5 18.5l29 131q-157 26 -266 163t-109 349z" />
<glyph unicode="&#xe8;" horiz-adv-x="956" d="M53 498q0 104 26.5 190t70.5 144.5t102.5 99t121 58.5t128.5 18q121 0 207.5 -44t130 -123.5t53.5 -189t-23 -239.5h-489q21 -154 205 -154q126 0 262 66l37 -252q-165 -92 -344 -92q-215 0 -351.5 138t-136.5 380zM217 1341v29l287 109l141 -349v-30h-252zM383 621h211 q7 61 -24.5 90.5t-71.5 29.5q-42 0 -75 -30.5t-40 -89.5z" />
<glyph unicode="&#xe9;" horiz-adv-x="956" d="M53 498q0 104 26.5 190t70.5 144.5t102.5 99t121 58.5t128.5 18q121 0 207.5 -44t130 -123.5t53.5 -189t-23 -239.5h-489q21 -154 205 -154q126 0 262 66l37 -252q-165 -92 -344 -92q-215 0 -351.5 138t-136.5 380zM365 1100v16l133 342l272 -102v-13l-170 -243h-235z M383 621h211q7 61 -24.5 90.5t-71.5 29.5q-42 0 -75 -30.5t-40 -89.5z" />
<glyph unicode="&#xea;" horiz-adv-x="956" d="M53 498q0 104 26.5 190t70.5 144.5t102.5 99t121 58.5t128.5 18q121 0 207.5 -44t130 -123.5t53.5 -189t-23 -239.5h-489q21 -154 205 -154q126 0 262 66l37 -252q-165 -92 -344 -92q-215 0 -351.5 138t-136.5 380zM106 1112v31l252 295h277l256 -295v-31h-291l-102 135 l-99 -135h-293zM383 621h211q7 61 -24.5 90.5t-71.5 29.5q-42 0 -75 -30.5t-40 -89.5z" />
<glyph unicode="&#xeb;" horiz-adv-x="956" d="M53 498q0 104 26.5 190t70.5 144.5t102.5 99t121 58.5t128.5 18q121 0 207.5 -44t130 -123.5t53.5 -189t-23 -239.5h-489q21 -154 205 -154q126 0 262 66l37 -252q-165 -92 -344 -92q-215 0 -351.5 138t-136.5 380zM143 1257q0 69 46.5 113.5t113.5 44.5q70 0 115 -44 t45 -114t-46 -111.5t-114 -41.5q-69 0 -114.5 41.5t-45.5 111.5zM383 621h211q7 61 -24.5 90.5t-71.5 29.5q-42 0 -75 -30.5t-40 -89.5zM551 1257q0 69 47 113.5t113 44.5q69 0 113 -44t44 -114t-45 -111.5t-112 -41.5q-69 0 -114.5 41.5t-45.5 111.5z" />
<glyph unicode="&#xec;" horiz-adv-x="526" d="M-12 1341v29l295 111l145 -357v-32h-256zM98 0v987h330v-987h-330z" />
<glyph unicode="&#xed;" horiz-adv-x="526" d="M98 0v987h330v-987h-330zM104 1098v30l144 357l295 -111v-28l-183 -248h-256z" />
<glyph unicode="&#xee;" horiz-adv-x="526" d="M-96 1112v14l215 322h276l217 -322v-14h-272l-82 123l-82 -123h-272zM98 0v987h330v-987h-330z" />
<glyph unicode="&#xef;" horiz-adv-x="524" d="M-76 1286q0 71 45 116.5t115 45.5t115 -44.5t45 -117.5q0 -75 -43.5 -117.5t-116.5 -42.5q-67 0 -113.5 43.5t-46.5 116.5zM98 0v987h328v-987h-328zM295 1286q0 72 45.5 117t114.5 45q67 0 113 -45t46 -117q0 -74 -44 -117t-115 -43q-64 0 -112 42.5t-48 117.5z" />
<glyph unicode="&#xf0;" horiz-adv-x="1009" d="M51 494q0 215 112.5 346t297.5 131q63 0 100 -15q-47 89 -108 174l-93 -71l-77 98l98 72q-53 70 -100.5 125.5t-57.5 62.5v15h258q54 -50 76 -72l84 61l76 -88l-78 -59q313 -358 313 -780q0 -232 -123.5 -373t-326.5 -141q-86 0 -166.5 34.5t-144 97.5t-102 162.5 t-38.5 219.5zM377 494q0 -98 33.5 -154.5t91.5 -56.5q54 0 86.5 58t32.5 153q0 93 -32 145.5t-87 52.5q-57 0 -91 -54.5t-34 -143.5z" />
<glyph unicode="&#xf1;" horiz-adv-x="1095" d="M43 799v190q53 14 115 19t130 -2.5t115 -46.5t52 -107q45 78 112.5 117t141.5 39q90 0 150.5 -30t91.5 -89.5t43 -130.5t12 -172v-586h-330v586q0 78 -29 113.5t-72 35.5q-47 0 -81.5 -41.5t-34.5 -124.5v-569h-330v686q0 61 -17.5 87t-68.5 26zM170 1206 q19 113 82 182.5t149 69.5q42 0 93 -20.5t89 -41.5t74 -33.5t59.5 5.5t33.5 74l200 -76q-15 -115 -71 -184.5t-160 -69.5q-35 0 -82 19.5t-85 38.5t-76.5 30t-68.5 -8t-49 -74z" />
<glyph unicode="&#xf2;" horiz-adv-x="1001" d="M53 498q0 229 123 369.5t324 140.5t324.5 -140.5t123.5 -369.5q0 -232 -122 -374t-322 -144q-134 -1 -236.5 63t-158.5 182t-56 273zM244 1339v29l270 107l131 -342v-31h-235zM379 498q0 -97 35 -155.5t92 -57.5q54 2 87.5 60.5t33.5 152.5q0 91 -33.5 146.5t-89.5 57.5 q-57 1 -91 -54.5t-34 -149.5z" />
<glyph unicode="&#xf3;" horiz-adv-x="1001" d="M53 498q0 229 123 369.5t324 140.5t324.5 -140.5t123.5 -369.5q0 -232 -122 -374t-322 -144q-134 -1 -236.5 63t-158.5 182t-56 273zM362 1112v21l134 344l274 -107v-18l-170 -240h-238zM379 498q0 -97 35 -155.5t92 -57.5q54 2 87.5 60.5t33.5 152.5q0 91 -33.5 146.5 t-89.5 57.5q-57 1 -91 -54.5t-34 -149.5z" />
<glyph unicode="&#xf4;" horiz-adv-x="1001" d="M53 498q0 229 123 369.5t324 140.5t324.5 -140.5t123.5 -369.5q0 -232 -122 -374t-322 -144q-134 -1 -236.5 63t-158.5 182t-56 273zM109 1147v12l233 285h303l232 -285v-12h-291l-92 100l-91 -100h-294zM379 498q0 -97 35 -155.5t92 -57.5q54 2 87.5 60.5t33.5 152.5 q0 91 -33.5 146.5t-89.5 57.5q-57 1 -91 -54.5t-34 -149.5z" />
<glyph unicode="&#xf5;" horiz-adv-x="1001" d="M53 498q0 229 123 369.5t324 140.5t324.5 -140.5t123.5 -369.5q0 -232 -122 -374t-322 -144q-134 -1 -236.5 63t-158.5 182t-56 273zM139 1194q17 104 76.5 168.5t138.5 64.5q38 0 85 -19t82 -38.5t68 -31t55.5 5t31.5 67.5l184 -70q-13 -107 -64.5 -170t-148.5 -63 q-32 0 -76 18t-79 35.5t-70.5 27t-63.5 -8t-45 -68.5zM379 498q0 -97 35 -155.5t92 -57.5q54 2 87.5 60.5t33.5 152.5q0 91 -33.5 146.5t-89.5 57.5q-57 1 -91 -54.5t-34 -149.5z" />
<glyph unicode="&#xf6;" horiz-adv-x="1001" d="M53 498q0 229 123 369.5t324 140.5t324.5 -140.5t123.5 -369.5q0 -232 -122 -374t-322 -144q-134 -1 -236.5 63t-158.5 182t-56 273zM135 1262q0 69 46.5 113t113.5 44q70 0 115 -43.5t45 -113.5t-46 -112t-114 -42q-69 0 -114.5 42t-45.5 112zM379 498q0 -97 35 -155.5 t92 -57.5q54 2 87.5 60.5t33.5 152.5q0 91 -33.5 146.5t-89.5 57.5q-57 1 -91 -54.5t-34 -149.5zM563 1262q0 69 46.5 113t113.5 44q69 0 113.5 -43.5t44.5 -113.5t-45.5 -112t-112.5 -42q-69 0 -114.5 42t-45.5 112z" />
<glyph unicode="&#xf7;" horiz-adv-x="966" d="M72 584v299h825v-299h-825zM297 313q0 85 53 137t137 52q82 0 135.5 -51t53.5 -138q0 -84 -53 -135t-136 -51q-82 0 -136 51t-54 135zM297 1161q0 85 53 137t137 52q82 0 135.5 -51t53.5 -138q0 -84 -53 -135t-136 -51q-82 0 -136 51t-54 135z" />
<glyph unicode="&#xf8;" horiz-adv-x="1001" d="M53 498q0 229 123 369.5t324 140.5q52 0 106 -13l47 97h232l-92 -193q74 -67 114.5 -170t40.5 -231q0 -232 -122 -374t-322 -144q-50 0 -105 10l-37 -78h-231l80 172q-75 70 -116.5 176.5t-41.5 237.5zM379 498q0 -97 35 -155.5t92 -57.5q54 2 87.5 60.5t33.5 152.5 q0 91 -33.5 146.5t-89.5 57.5q-57 1 -91 -54.5t-34 -149.5z" />
<glyph unicode="&#xf9;" horiz-adv-x="1075" d="M88 406v581h334v-573q0 -61 24 -98t64 -37q45 0 76.5 33t31.5 108v567h330v-696q0 -52 19.5 -76t64.5 -20v-191q-40 -12 -82 -19.5t-96.5 -7t-97 14.5t-74.5 53.5t-37 101.5q-33 -77 -101 -122t-147 -45q-153 0 -231 114t-78 312zM250 1352v12l287 109l139 -353v-14h-252 z" />
<glyph unicode="&#xfa;" horiz-adv-x="1075" d="M88 406v581h334v-573q0 -61 24 -98t64 -37q45 0 76.5 33t31.5 108v567h330v-696q0 -52 19.5 -76t64.5 -20v-191q-40 -12 -82 -19.5t-96.5 -7t-97 14.5t-74.5 53.5t-37 101.5q-33 -77 -101 -122t-147 -45q-153 0 -231 114t-78 312zM350 1110v12l150 363l295 -115v-12 l-185 -248h-260z" />
<glyph unicode="&#xfb;" horiz-adv-x="1075" d="M88 406v581h334v-573q0 -61 24 -98t64 -37q45 0 76.5 33t31.5 108v567h330v-696q0 -52 19.5 -76t64.5 -20v-191q-40 -12 -82 -19.5t-96.5 -7t-97 14.5t-74.5 53.5t-37 101.5q-33 -77 -101 -122t-147 -45q-153 0 -231 114t-78 312zM135 1155v16l236 291h303l229 -291v-16 h-291l-92 119l-88 -119h-297z" />
<glyph unicode="&#xfc;" horiz-adv-x="1075" d="M88 406v581h334v-573q0 -61 24 -98t64 -37q45 0 76.5 33t31.5 108v567h330v-696q0 -52 19.5 -76t64.5 -20v-191q-40 -12 -82 -19.5t-96.5 -7t-97 14.5t-74.5 53.5t-37 101.5q-33 -77 -101 -122t-147 -45q-153 0 -231 114t-78 312zM141 1282q0 74 46.5 120t119.5 46 q71 0 120.5 -46t49.5 -120q0 -73 -49 -118.5t-121 -45.5q-69 0 -117.5 45t-48.5 119zM590 1282q0 75 47.5 120.5t122.5 45.5q71 0 118.5 -45.5t47.5 -120.5t-45.5 -119.5t-120.5 -44.5t-122.5 45t-47.5 119z" />
<glyph unicode="&#xfd;" horiz-adv-x="1017" d="M8 973v14h354l103 -350q21 -91 53 -301h2q19 160 47 307l90 344h344v-14l-331 -1084q-61 -197 -156 -308t-219 -111q-130 0 -223 51l32 264q50 -27 101 -27q60 0 86.5 35t48.5 125l18 82zM356 1100v33l150 370l305 -114v-31l-188 -258h-267z" />
<glyph unicode="&#xfe;" horiz-adv-x="1021" d="M98 -506v1979h330v-500q79 35 186 35q158 0 254.5 -139.5t96.5 -366.5q0 -235 -102 -378.5t-269 -143.5q-92 0 -166 34v-520h-330zM420 313q40 -24 82 -24q62 0 97.5 53t35.5 160q0 102 -34.5 153.5t-94.5 49.5q-39 0 -86 -29v-363z" />
<glyph unicode="&#xff;" horiz-adv-x="1017" d="M8 973v14h354l103 -350q21 -91 53 -301h2q19 160 47 307l90 344h344v-14l-331 -1084q-61 -197 -156 -308t-219 -111q-130 0 -223 51l32 264q50 -27 101 -27q60 0 86.5 35t48.5 125l18 82zM96 1278q0 81 51.5 128.5t128.5 47.5q73 0 126 -47.5t53 -128.5q0 -78 -52 -126 t-127 -48q-72 0 -126 46.5t-54 127.5zM578 1278q0 80 51.5 128t126.5 48q74 0 126 -48t52 -128q0 -78 -51.5 -126t-126.5 -48q-70 0 -124 46.5t-54 127.5z" />
<glyph unicode="&#x152;" horiz-adv-x="1607" d="M63 713q0 223 77.5 392t219.5 259.5t328 87.5q85 0 156 -22h667v-306h-415v-225h374v-289h-374v-307h430v-303h-688q-76 -23 -168 -23q-273 0 -440 203t-167 533zM408 713q0 -192 80 -309t212 -117q55 0 99 20v795q-46 24 -103 24q-130 0 -209 -113.5t-79 -299.5z" />
<glyph unicode="&#x153;" horiz-adv-x="1445" d="M55 494q0 231 106.5 372.5t280.5 141.5q93 3 177.5 -44t140.5 -145q47 93 122 141t152 48q91 0 159 -35t107 -93.5t58.5 -136.5t18.5 -162t-19 -171h-445q16 -94 55.5 -126t108.5 -32q59 0 138.5 21t113.5 44l62 -243q-155 -92 -342 -92q-94 0 -173 46.5t-122 145.5 q-50 -104 -133.5 -149t-178.5 -45q-174 0 -280.5 141.5t-106.5 372.5zM383 494q0 -95 33.5 -153t87.5 -58t86.5 58t32.5 153q0 97 -32.5 156t-86.5 59t-87.5 -59t-33.5 -156zM911 616h168q1 59 -20 91t-55 32q-35 0 -60.5 -31t-32.5 -92z" />
<glyph unicode="&#x178;" horiz-adv-x="1150" d="M-4 1413v21h379l121 -285q30 -72 77 -252h5q37 161 77 252l123 285h375v-21l-399 -866v-547h-355v547zM152 1706q0 81 50.5 128.5t129.5 47.5q73 0 125.5 -47.5t52.5 -128.5q0 -77 -52 -125.5t-126 -48.5q-73 0 -126.5 46t-53.5 128zM631 1706q0 80 52.5 128t127.5 48 q74 0 125 -48t51 -128q0 -78 -51 -126t-125 -48q-71 0 -125.5 46.5t-54.5 127.5z" />
<glyph unicode="&#x2c6;" horiz-adv-x="923" d="M47 1083v33l254 320h332l252 -320v-33h-318l-102 146l-96 -146h-322z" />
<glyph unicode="&#x2dc;" horiz-adv-x="874" d="M43 1208q19 113 82 182.5t149 69.5q42 0 93 -20.5t89 -41.5t74 -33.5t59.5 5.5t33.5 74l200 -76q-15 -115 -71 -184.5t-160 -69.5q-35 0 -82 19.5t-85 38.5t-76.5 30t-68.5 -8t-49 -74z" />
<glyph unicode="&#x2000;" horiz-adv-x="978" />
<glyph unicode="&#x2001;" horiz-adv-x="1956" />
<glyph unicode="&#x2002;" horiz-adv-x="978" />
<glyph unicode="&#x2003;" horiz-adv-x="1956" />
<glyph unicode="&#x2004;" horiz-adv-x="652" />
<glyph unicode="&#x2005;" horiz-adv-x="489" />
<glyph unicode="&#x2006;" horiz-adv-x="326" />
<glyph unicode="&#x2007;" horiz-adv-x="326" />
<glyph unicode="&#x2008;" horiz-adv-x="244" />
<glyph unicode="&#x2009;" horiz-adv-x="391" />
<glyph unicode="&#x200a;" horiz-adv-x="108" />
<glyph unicode="&#x2010;" horiz-adv-x="829" d="M94 532v299h641v-299h-641z" />
<glyph unicode="&#x2011;" horiz-adv-x="829" d="M94 532v299h641v-299h-641z" />
<glyph unicode="&#x2012;" horiz-adv-x="829" d="M94 532v299h641v-299h-641z" />
<glyph unicode="&#x2013;" horiz-adv-x="948" d="M94 532v299h760v-299h-760z" />
<glyph unicode="&#x2014;" horiz-adv-x="1099" d="M94 532v299h912v-299h-912z" />
<glyph unicode="&#x2018;" horiz-adv-x="509" d="M68 1075q0 37 12 72l90 295h188l-47 -187q63 -19 99 -65.5t36 -114.5q0 -83 -54.5 -135.5t-135.5 -52.5q-77 0 -132.5 52.5t-55.5 135.5z" />
<glyph unicode="&#x2019;" horiz-adv-x="512" d="M66 1264q0 82 54.5 135t135.5 53t134.5 -52t53.5 -136q0 -67 -22.5 -149.5t-77.5 -217.5h-190l47 186q-64 19 -99.5 66t-35.5 115z" />
<glyph unicode="&#x201a;" horiz-adv-x="528" d="M74 150q0 86 54 137t136 51q78 0 133.5 -50.5t55.5 -137.5q0 -89 -101 -367h-190l47 186q-60 15 -97.5 64t-37.5 117z" />
<glyph unicode="&#x201c;" horiz-adv-x="970" d="M66 1075q0 28 14 72l88 295h188l-45 -187q62 -19 97.5 -66t35.5 -114q0 -83 -54.5 -135.5t-135.5 -52.5q-79 0 -133.5 52t-54.5 136zM528 1075q0 31 13 72l90 295h188l-47 -187q61 -20 98 -66.5t37 -113.5q0 -85 -52.5 -136.5t-137.5 -51.5q-79 0 -134 52t-55 136z" />
<glyph unicode="&#x201d;" horiz-adv-x="983" d="M66 1264q0 82 54.5 135t135.5 53t134.5 -52t53.5 -136q0 -110 -100 -367h-190l47 186q-64 19 -99.5 66t-35.5 115zM537 1264q0 84 53 136t137 52q74 0 131 -51t57 -137q0 -131 -102 -367h-188l47 186q-61 15 -98 64t-37 117z" />
<glyph unicode="&#x201e;" horiz-adv-x="985" d="M74 150q0 86 53.5 137t136.5 51q78 0 133.5 -50.5t55.5 -137.5q0 -18 -3.5 -33.5t-11 -34t-10.5 -29.5q-63 -225 -78 -270h-188l45 186q-58 15 -95.5 64t-37.5 117zM532 150q0 83 53.5 135.5t137.5 52.5q78 0 133 -50t55 -138q0 -41 -16 -72l-8 -25q-6 -21 -17.5 -62 t-17.5 -61l-41 -147h-193l48 186q-60 15 -97 64t-37 117z" />
<glyph unicode="&#x2022;" horiz-adv-x="878" d="M113 735q0 141 94.5 235.5t230.5 94.5q83 0 156 -37t121.5 -114t48.5 -179q0 -145 -90 -235t-236 -90q-46 0 -92 13.5t-88 40.5t-74.5 65t-51.5 91.5t-19 114.5z" />
<glyph unicode="&#x2026;" horiz-adv-x="1556" d="M74 150q0 84 55 136t135 52t134.5 -52t54.5 -136q0 -86 -53.5 -136.5t-135.5 -50.5q-81 0 -135.5 51t-54.5 136zM586 150q0 85 53.5 136.5t136.5 51.5q81 0 135 -50.5t54 -137.5q0 -84 -53 -135.5t-136 -51.5q-80 0 -135 51.5t-55 135.5zM1104 150q0 85 53.5 136.5 t134.5 51.5q82 0 136.5 -50.5t54.5 -137.5q0 -84 -53.5 -135.5t-137.5 -51.5q-81 0 -134.5 51t-53.5 136z" />
<glyph unicode="&#x202f;" horiz-adv-x="391" />
<glyph unicode="&#x2039;" horiz-adv-x="557" d="M63 709l283 520l127 -78l-160 -442l160 -437l-127 -79z" />
<glyph unicode="&#x203a;" horiz-adv-x="555" d="M82 272l160 437l-160 442l127 78l283 -520l-283 -516z" />
<glyph unicode="&#x205f;" horiz-adv-x="489" />
<glyph unicode="&#x20ac;" horiz-adv-x="1134" d="M68 502v166h108q0 6 -1 19.5t-1 19.5q0 39 6 79h-112v164h133q35 156 124.5 271t207.5 171t251 56q142 0 258 -55l-100 -291q-65 35 -145 35q-69 0 -130 -50.5t-98 -136.5h289l-47 -164h-289q-4 -54 -4 -79q0 -15 4 -39h254l-47 -166h-176q78 -197 242 -197q110 0 170 57 l116 -303q-144 -75 -297 -75q-104 0 -196.5 31t-170.5 92.5t-135.5 162t-86.5 232.5h-127z" />
<glyph unicode="&#x2122;" horiz-adv-x="1306" d="M113 1231v205h452v-205h-116v-367h-216v367h-120zM614 864v572h105l182 -213l180 213h107v-572h-217v180l-66 -92h-10l-66 92v-180h-215z" />
<glyph unicode="&#x25fc;" horiz-adv-x="983" d="M0 0v983h983v-983h-983z" />
</font>
</defs>
</svg>
