<?xml version="1.0" standalone="no"?>
<!DOCTYPE svg PUBLIC "-//W3C//DTD SVG 1.1//EN" "http://www.w3.org/Graphics/SVG/1.1/DTD/svg11.dtd" >
<svg xmlns="http://www.w3.org/2000/svg" xmlns:xlink="http://www.w3.org/1999/xlink" version="1.1">
<metadata>
Created by FontForge 20141024 at Fri May 29 19:27:39 2015
 By Jimmy Warting
(c)1991 Erik Spiekermann FontShop International
</metadata>
<defs>
<font id="MetaBold" horiz-adv-x="500" >
  <font-face 
    font-family="Meta"
    font-weight="700"
    font-stretch="normal"
    units-per-em="1000"
    panose-1="0 0 7 0 0 0 0 0 0 0"
    ascent="800"
    descent="-200"
    x-height="509"
    cap-height="695"
    bbox="-59 -224 1174 925"
    underline-thickness="20"
    underline-position="-132"
    unicode-range="U+0020-F002"
  />
<missing-glyph 
d="M63 0v925h375v-925h-375zM125 63h250v800h-250v-800z" />
    <glyph glyph-name=".notdef" 
d="M63 0v925h375v-925h-375zM125 63h250v800h-250v-800z" />
    <glyph glyph-name=".null" horiz-adv-x="0" 
 />
    <glyph glyph-name="nonmarkingreturn" horiz-adv-x="333" 
 />
    <glyph glyph-name="space" unicode=" " horiz-adv-x="333" 
 />
    <glyph glyph-name="exclam" unicode="!" horiz-adv-x="250" 
d="M204 710l-28 -489h-102l-30 466zM208 70q0 -35 -24.5 -59t-59.5 -24t-58 24t-23 59t24 59t59 24q34 0 58 -24.5t24 -58.5z" />
    <glyph glyph-name="quotedbl" unicode="&#x22;" horiz-adv-x="520" 
d="M439 426h-126v282h126v-282zM207 426h-126v282h126v-282z" />
    <glyph glyph-name="numbersign" unicode="#" horiz-adv-x="592" 
d="M547 417h-96l-17 -126h84v-90h-96l-28 -201h-97l28 201h-99l-28 -201h-97l28 201h-84v90h96l17 126h-84v90h96l28 201h97l-28 -201h99l28 201h97l-28 -201h84v-90zM354 417h-99l-17 -126h99z" />
    <glyph glyph-name="dollar" unicode="$" horiz-adv-x="572" 
d="M535 219q0 -102 -72 -164q-66 -58 -171 -68v-81h-86v81q-104 9 -195 61l52 109q107 -56 191 -56q122 0 122 95q0 65 -91 90l-77 21q-166 45 -166 194q0 90 61 148q56 54 148 65v72h86v-73q108 -11 186 -67l-66 -100q-88 53 -162 53q-40 0 -67 -20q-30 -22 -30 -60
q0 -49 77 -70l84 -23q176 -48 176 -207z" />
    <glyph glyph-name="percent" unicode="%" horiz-adv-x="818" 
d="M804 164q0 -80 -46 -127t-126 -47q-78 0 -123.5 47t-45.5 125t46 126t123 48q78 0 125 -47t47 -125zM693 166q0 96 -62 96q-45 0 -55 -48q-4 -19 -4 -49q0 -48 8 -67q13 -33 53 -33q60 0 60 101zM644 695l-364 -695h-95l364 695h95zM365 533q0 -80 -46 -127t-126 -47
q-78 0 -123.5 47t-45.5 125t46 126t123 48q78 0 125 -47t47 -125zM254 535q0 96 -62 96q-45 0 -55 -48q-4 -19 -4 -49q0 -48 8 -67q13 -33 53 -33q60 0 60 101z" />
    <glyph glyph-name="ampersand" unicode="&#x26;" horiz-adv-x="715" 
d="M719 0h-186l-42 42q-63 -56 -191 -56q-107 0 -172 40q-79 49 -79 149q0 115 125 173q-44 34 -61 64q-20 35 -20 86q0 79 62 126q56 42 138 42q81 0 138 -38q65 -43 65 -120q0 -58 -34 -96q-23 -26 -88 -62l-9 -5l116 -110q9 35 9 98v7h112v-6q0 -113 -32 -186zM356 506
q0 28 -17 47.5t-45 19.5q-29 0 -46.5 -18t-17.5 -47q0 -26 20 -53q8 -11 40 -43q66 34 66 94zM409 118l-163 157q-54 -33 -54 -92q0 -99 112 -99q72 0 105 34z" />
    <glyph glyph-name="quotesingle" unicode="'" horiz-adv-x="296" 
d="M211 426h-126v282h126v-282z" />
    <glyph glyph-name="parenleft" unicode="(" horiz-adv-x="321" 
d="M352 -91l-35 -78q-150 51 -214 207q-31 76 -40 206q-3 44 -3 78q0 114 20 190q26 98 90 167q61 66 145 102l35 -79q-35 -25 -54 -44q-89 -89 -98 -252q-2 -37 -2 -82q0 -105 8 -163q12 -93 46.5 -154t101.5 -98z" />
    <glyph glyph-name="parenright" unicode=")" horiz-adv-x="322" 
d="M260 293q0 -123 -18 -192q-24 -92 -92 -167q-61 -67 -146 -102l-34 79q33 23 54 44q53 53 76 121q16 49 22 131q3 42 3 84q0 77 -8 152q-10 93 -39 151q-36 70 -108 110l35 78q152 -53 214 -208q30 -75 39 -206q2 -29 2 -75z" />
    <glyph glyph-name="asterisk" unicode="*" horiz-adv-x="482" 
d="M454 518l-131 -42l83 -114l-83 -61l-84 115l-81 -110l-81 61l84 109l-133 46l32 95l131 -47v138h102v-138l131 43z" />
    <glyph glyph-name="plus" unicode="+" horiz-adv-x="666" 
d="M607 240h-211v-211h-126v211h-211v126h211v211h126v-211h211v-126z" />
    <glyph glyph-name="comma" unicode="," horiz-adv-x="267" 
d="M227 36q0 -65 -39 -115t-102 -66l-53 56q72 16 72 57q0 17 -26 32q-39 23 -39 70q0 36 25.5 61t61.5 25q47 0 75 -37q25 -34 25 -83z" />
    <glyph glyph-name="hyphen" unicode="-" horiz-adv-x="338" 
d="M290 216h-240v116h240v-116z" />
    <glyph glyph-name="hyphen" unicode="&#x2010;" horiz-adv-x="338" 
d="M290 216h-240v116h240v-116z" />
    <glyph glyph-name="period" unicode="." horiz-adv-x="267" 
d="M222 73q0 -37 -25.5 -63t-62.5 -26t-62.5 26t-25.5 63q0 36 25.5 61.5t61.5 25.5q37 0 63 -25t26 -62z" />
    <glyph glyph-name="slash" unicode="/" horiz-adv-x="335" 
d="M346 764l-268 -918h-88l268 918h88z" />
    <glyph glyph-name="zero" unicode="0" horiz-adv-x="535" 
d="M506 256q0 -114 -61 -188q-65 -80 -177 -80q-114 0 -178 78q-59 72 -59 188q0 114 61 188q65 80 177 80q114 0 178 -78q59 -72 59 -188zM359 253q0 171 -90 171q-91 0 -91 -167q0 -171 90 -171q91 0 91 167z" />
    <glyph glyph-name="one" unicode="1" horiz-adv-x="449" 
d="M412 0h-317v109h108v259q-61 -38 -120 -58l-34 72l193 140h90v-413h80v-109z" />
    <glyph glyph-name="two" unicode="2" horiz-adv-x="537" 
d="M503 112l-29 -112h-417v122q33 13 103 52q94 52 138 97q35 36 35 72q0 67 -80 67q-58 0 -136 -64l-80 83q111 99 252 99q83 0 136 -40q59 -44 59 -124q0 -92 -94 -162q-56 -41 -137 -82l-26 -13q37 5 97 5h179z" />
    <glyph glyph-name="three" unicode="3" horiz-adv-x="535" 
d="M491 50q0 -119 -123 -183q-98 -51 -229 -51q-45 0 -83 5l-32 93q36 -7 76 -7q87 0 152 33q82 42 82 121q0 56 -44 76q-26 12 -93 12h-20q-28 -1 -21 -1h-10v112l8 -1q24 -3 61 -3q111 0 111 79q0 75 -85 75q-81 0 -148 -56l-70 85q109 84 236 84q86 0 147 -43
q69 -49 69 -131q0 -86 -66 -129q-14 -9 -37 -18q119 -40 119 -152z" />
    <glyph glyph-name="four" unicode="4" horiz-adv-x="535" 
d="M529 7h-45q-18 0 -31 2q5 -15 5 -36v-141l-127 -16v169q0 8 2 25q-13 -3 -32 -3h-265v91l193 427h138l-144 -324q-29 -65 -45 -81q10 2 21 2h113q11 0 24 -1q-1 13 -1 18q0 33 7 107l11 117l105 24v-177q0 -62 -3 -89q21 1 32 1h42v-115z" />
    <glyph glyph-name="five" unicode="5" horiz-adv-x="535" 
d="M492 70q0 -121 -100 -192q-89 -62 -215 -62q-39 0 -76 7l-29 99q53 -14 94 -14q73 0 124 36q57 40 57 110q0 49 -30 77.5t-79 28.5q-56 0 -146 -28l32 379h341l-20 -114h-196l-14 -138q26 5 47 5q90 0 149 -51q61 -54 61 -143z" />
    <glyph glyph-name="six" unicode="6" horiz-adv-x="535" 
d="M514 214q0 -98 -67.5 -163t-166.5 -65q-116 0 -186 85q-65 79 -65 197q0 177 138 306q64 60 166 109q47 23 91 36l29 -96l-5 -2q-108 -43 -151 -78q-76 -61 -104 -151q41 33 107 33q91 0 152.5 -60.5t61.5 -150.5zM373 212q0 46 -22 74q-25 31 -69 31q-47 0 -104 -33
q0 -6 -1 -8q-2 -38 -2 -52q0 -135 99 -135q49 0 76 38q23 34 23 85z" />
    <glyph glyph-name="seven" unicode="7" horiz-adv-x="535" 
d="M495 511l-22 -117q-56 -81 -99 -161q-101 -189 -123 -306l-17 -90l-147 -37q60 246 160 441q46 88 93 153q-15 -4 -40 -4h-252l30 121h417z" />
    <glyph glyph-name="eight" unicode="8" horiz-adv-x="535" 
d="M525 183q0 -71 -47 -124q-45 -49 -116 -67q-48 -12 -105 -12q-97 0 -158 37q-89 54 -89 155q0 56 32.5 103t85.5 66q-44 14 -72 60q-27 43 -27 91q0 91 77 142q67 43 163 43q90 0 155 -41q75 -48 75 -133q0 -54 -39 -95q-35 -38 -90 -53q67 -19 108 -61q47 -47 47 -111z
M350 507q0 72 -91 72q-38 0 -63 -18q-29 -20 -29 -57q0 -44 61 -76q13 -7 41 -19q81 42 81 98zM374 165q0 47 -39 72.5t-112 50.5q-64 -37 -64 -106q0 -49 31.5 -76t81.5 -27q42 0 72 22.5t30 63.5z" />
    <glyph glyph-name="nine" unicode="9" horiz-adv-x="535" 
d="M508 256q0 -200 -164 -338q-99 -83 -212 -123l-73 82q76 20 155 80q85 66 109 134q-41 -19 -81 -19q-94 0 -154.5 64.5t-60.5 158.5q0 103 69 168.5t173 65.5q118 0 181 -79q58 -73 58 -194zM363 292q0 55 -21 90q-25 44 -76 44q-48 0 -73 -41q-21 -35 -21 -86t25 -83
q27 -36 76 -36q44 0 80 37q10 34 10 75z" />
    <glyph glyph-name="colon" unicode=":" horiz-adv-x="304" 
d="M239 368q0 -36 -25.5 -61t-61.5 -25q-35 0 -60 25t-25 60q0 36 24.5 62t60.5 26t61.5 -25.5t25.5 -61.5zM238 68q0 -36 -25.5 -60t-61.5 -24q-35 0 -60.5 24.5t-25.5 59.5q0 37 25 63.5t62 25.5t61.5 -26.5t24.5 -62.5z" />
    <glyph glyph-name="semicolon" unicode=";" horiz-adv-x="303" 
d="M233 369q0 -35 -25 -60.5t-60 -25.5q-36 0 -61.5 24.5t-25.5 60.5t24 62t60 26t62 -25.5t26 -61.5zM246 35q0 -64 -40 -114.5t-102 -65.5l-52 56q71 17 71 57q0 16 -23 30q-42 25 -42 70q0 38 25 63t63 25q47 0 75 -38q25 -34 25 -83z" />
    <glyph glyph-name="less" unicode="&#x3c;" horiz-adv-x="435" 
d="M402 78l-105 -90l-241 311l241 311l105 -92l-168 -219z" />
    <glyph glyph-name="equal" unicode="=" horiz-adv-x="666" 
d="M607 336h-548v126h548v-126zM607 144h-548v126h548v-126z" />
    <glyph glyph-name="greater" unicode="&#x3e;" horiz-adv-x="435" 
d="M394 299l-241 -311l-105 90l168 221l-168 219l105 92z" />
    <glyph glyph-name="question" unicode="?" 
d="M439 538q0 -93 -92 -152q-75 -48 -77 -130q0 -9 2 -35h-115l-5 26q-4 21 -4 40q0 86 92 152q38 27 43 33q23 21 23 48q0 69 -82 69q-49 0 -108 -46l-61 86q73 76 194 76q79 0 132 -43q58 -47 58 -124zM311 70q0 -35 -24.5 -59t-59.5 -24t-58 24t-23 59t24 59t59 24
q34 0 58 -24.5t24 -58.5z" />
    <glyph glyph-name="at" unicode="@" horiz-adv-x="800" 
d="M768 397q0 -139 -88 -202q-58 -42 -134 -42q-77 0 -79 54h-2q-52 -54 -128 -54q-68 0 -108 51q-36 47 -36 117q0 91 54 156q57 69 146 69q80 0 108 -57h2l8 45h94l-37 -197q-9 -48 -9 -66q0 -28 27 -28q46 0 69 55q17 41 17 94q0 117 -73 182q-69 62 -188 62
q-124 0 -200.5 -79t-76.5 -204q0 -129 82 -205t212 -76q112 0 189 61h110q-110 -151 -307 -151q-163 0 -274 104q-114 106 -114 267q0 160 111 266.5t271 106.5q148 0 249 -89q105 -94 105 -240zM475 364q0 92 -74 92q-48 0 -76 -39q-24 -35 -24 -85q0 -89 69 -89
q105 0 105 121z" />
    <glyph glyph-name="A" unicode="A" horiz-adv-x="570" 
d="M585 0h-150l-49 165h-204l-49 -165h-146l228 697h151zM352 281q-13 40 -38 140q-3 11 -28 123l-33 -134q-16 -65 -37 -129h136z" />
    <glyph glyph-name="B" unicode="B" horiz-adv-x="590" 
d="M559 194q0 -82 -50 -134.5t-132 -57.5q-34 -2 -89 -2h-219v696h235q95 0 156 -39q72 -46 72 -135q0 -117 -111 -153q138 -42 138 -175zM386 498q0 51 -40 70q-19 9 -58 9h-81v-160h83q36 0 50 5q22 8 35 34q11 21 11 42zM401 211q0 27 -13.5 52t-37.5 33q-17 6 -54 6h-87
v-188h91q101 0 101 97z" />
    <glyph glyph-name="C" unicode="C" horiz-adv-x="535" 
d="M535 53q-79 -65 -193 -65q-147 0 -232 101q-79 94 -79 244q0 240 158 335q71 42 155 42q113 0 176 -55l-63 -95q-52 39 -111 39q-157 0 -157 -239q0 -133 29 -186q43 -78 134 -78q63 0 119 45z" />
    <glyph glyph-name="D" unicode="D" horiz-adv-x="607" 
d="M575 341q0 -126 -57 -218q-65 -108 -182 -119q-41 -4 -100 -4h-169v691h140q71 0 121 -4q88 -7 152 -69q95 -92 95 -277zM418 328q0 110 -21 165q-33 88 -124 88h-64v-467h75q134 0 134 214z" />
    <glyph glyph-name="E" unicode="E" 
d="M473 0h-405v695h396l-18 -114h-238v-161h199v-114h-197v-186h263v-120z" />
    <glyph glyph-name="F" unicode="F" horiz-adv-x="446" 
d="M446 693l-16 -113h-221v-159h177v-114h-177v-307h-140v693h377z" />
    <glyph glyph-name="G" unicode="G" horiz-adv-x="606" 
d="M570 54q-105 -62 -231 -62q-151 0 -234 102q-77 94 -77 247q0 219 145 316q73 49 169 49q129 0 221 -80l-74 -87q-66 54 -145 54q-97 0 -134 -86q-25 -59 -25 -173q0 -109 27 -163q38 -74 134 -74q46 0 79 17v158h-106l-18 114h269v-332z" />
    <glyph glyph-name="H" unicode="H" horiz-adv-x="624" 
d="M551 0h-142v310h-200v-310h-139v695h139v-270h200v270h142v-695z" />
    <glyph glyph-name="I" unicode="I" horiz-adv-x="286" 
d="M217 0h-146v695h146v-695z" />
    <glyph glyph-name="J" unicode="J" horiz-adv-x="284" 
d="M220 135q0 -95 -10 -136q-27 -111 -162 -163l-65 72q59 36 81 84q14 31 14 128v575h142v-560z" />
    <glyph glyph-name="K" unicode="K" horiz-adv-x="608" 
d="M607 0h-184l-211 363v-363h-143v695h143v-317l198 317h172l-222 -322z" />
    <glyph glyph-name="L" unicode="L" horiz-adv-x="482" 
d="M466 116l-25 -116h-367v695h143v-579h249z" />
    <glyph glyph-name="M" unicode="M" horiz-adv-x="804" 
d="M765 0h-138l-26 371q-6 86 -6 111q-10 -48 -25 -102l-110 -380h-123l-99 365q-10 38 -28 121q0 -47 -5 -123l-24 -363h-141l65 695h181l91 -348q16 -61 24 -106q13 65 25 109l94 345h183z" />
    <glyph glyph-name="N" unicode="N" horiz-adv-x="622" 
d="M553 0h-146l-119 266q-76 170 -94 228q5 -61 7 -197l4 -297h-135v695h155l133 -278q50 -104 76 -197q-10 112 -11 191l-3 284h133v-695z" />
    <glyph glyph-name="O" unicode="O" horiz-adv-x="659" 
d="M627 351q0 -244 -155 -330q-58 -32 -139 -32q-151 0 -232 105q-74 95 -74 251q0 103 35 185q41 96 122 140q62 34 144 34q148 0 228 -105q71 -94 71 -248zM466 347q0 102 -18 161q-12 40 -45.5 64t-76.5 24q-143 0 -143 -251q0 -179 62 -225q32 -24 83 -24q87 0 119 89
q19 54 19 162z" />
    <glyph glyph-name="P" unicode="P" horiz-adv-x="572" 
d="M543 483q0 -67 -30 -120q-31 -56 -90 -84q-49 -23 -139 -23h-77v-256h-140v697h183q132 0 193 -34q100 -56 100 -180zM390 480q0 47 -24 75.5t-70 28.5h-89v-214h73q39 0 53 4q57 16 57 106z" />
    <glyph glyph-name="Q" unicode="Q" horiz-adv-x="659" 
d="M700 -27l-37 -91q-23 -12 -62 -12q-50 0 -134 49q-104 60 -135 70q-150 0 -231 105q-74 96 -74 251q0 103 35 185q41 96 122 140q62 34 144 34q148 0 228 -105q71 -94 71 -248q0 -227 -139 -320q11 -2 65 -35q46 -28 85 -28q28 0 62 5zM466 347q0 102 -18 161
q-12 40 -45.5 64t-76.5 24q-143 0 -143 -251q0 -179 62 -225q32 -24 83 -24q87 0 119 89q19 54 19 162z" />
    <glyph glyph-name="R" unicode="R" horiz-adv-x="571" 
d="M566 0h-165q-40 69 -65 114q-44 80 -50 91q-41 67 -65 79q-10 5 -22 6v-290h-137v696l259 -1q92 0 148 -55.5t56 -148.5q0 -72 -41 -129q-44 -62 -114 -63q17 -14 29 -29q36 -46 167 -270zM378 488q0 57 -39 79q-29 16 -90 16h-49l-1 -188h47q64 0 92 15q40 21 40 78z
" />
    <glyph glyph-name="S" unicode="S" horiz-adv-x="572" 
d="M535 219q0 -115 -89 -178q-78 -56 -198 -56q-127 0 -237 63l52 109q107 -56 191 -56q122 0 122 95q0 65 -91 90l-77 21q-166 45 -166 194q0 101 76 160q69 55 173 55q135 0 232 -70l-66 -100q-88 53 -162 53q-40 0 -67 -20q-30 -22 -30 -60q0 -49 77 -70l84 -23
q176 -48 176 -207z" />
    <glyph glyph-name="T" unicode="T" 
d="M508 695l-23 -116h-166v-579h-142v579h-170v116h501z" />
    <glyph glyph-name="U" unicode="U" horiz-adv-x="608" 
d="M554 227q0 -61 -6 -90q-10 -46 -41 -78q-70 -72 -200 -72q-181 0 -236 117q-17 36 -17 107v484h143v-457q0 -60 12 -83q25 -48 95 -48q96 0 106 81q2 16 2 62v445h142v-468z" />
    <glyph glyph-name="V" unicode="V" horiz-adv-x="590" 
d="M598 696l-242 -701h-127l-236 700h153l114 -362q20 -63 33 -121q11 54 40 139l118 344z" />
    <glyph glyph-name="W" unicode="W" horiz-adv-x="856" 
d="M843 695l-168 -701h-153l-62 283q0 1 -33 202q-7 -50 -34 -200l-57 -285h-159l-166 701h148l60 -274q28 -126 37 -229q13 117 36 222l62 281h153l64 -311q11 -54 30 -184q9 98 38 231l57 264h147z" />
    <glyph glyph-name="X" unicode="X" horiz-adv-x="572" 
d="M580 0h-169l-125 245l-124 -245h-174l218 373l-188 324h171l94 -187l95 187h167l-181 -315z" />
    <glyph glyph-name="Y" unicode="Y" horiz-adv-x="554" 
d="M578 696l-222 -410v-286h-146v286l-217 411h168l90 -192q22 -47 35 -89q25 61 37 87l90 193h165z" />
    <glyph glyph-name="Z" unicode="Z" 
d="M487 114l-36 -114h-434v98l256 423q19 31 43 63q-32 -5 -71 -5h-214l31 116h416v-101l-258 -435q-13 -22 -36 -49q43 4 69 4h234z" />
    <glyph glyph-name="bracketleft" unicode="[" horiz-adv-x="296" 
d="M276 -156h-210v888h210v-90h-90v-708h90v-90z" />
    <glyph glyph-name="backslash" unicode="\" horiz-adv-x="407" 
d="M410 -18l-113 -35l-300 779l114 35z" />
    <glyph glyph-name="bracketright" unicode="]" horiz-adv-x="296" 
d="M230 -156h-210v90h90v708h-90v90h210v-888z" />
    <glyph glyph-name="asciicircum" unicode="^" horiz-adv-x="666" 
d="M586 343h-142l-111 238l-112 -238h-141l180 365h146z" />
    <glyph glyph-name="underscore" unicode="_" 
d="M500 -125h-500v50h500v-50z" />
    <glyph glyph-name="grave" unicode="`" horiz-adv-x="338" 
d="M295 631l-41 -74l-224 100l58 104z" />
    <glyph glyph-name="a" unicode="a" horiz-adv-x="499" 
d="M485 56l-71 -82q-52 22 -72 62q-20 -19 -31 -27q-39 -28 -103 -28q-82 0 -127 39q-49 41 -49 121q0 176 246 176q16 0 30 -1v21q0 41 -10 56q-12 20 -50 20q-62 0 -148 -58l-57 96q36 23 83 42q74 30 140 30q134 0 165 -89q10 -29 9 -92l-3 -181q0 -40 8 -60
q10 -23 40 -45zM306 224h-6q-61 0 -85 -10q-40 -17 -40 -68q0 -28 15.5 -47.5t43.5 -19.5q38 0 70 35z" />
    <glyph glyph-name="b" unicode="b" horiz-adv-x="555" 
d="M508 265q0 -108 -49 -185q-57 -90 -158 -90q-71 0 -114 47q-2 -11 -14 -37h-120q13 30 13 109v474q0 89 -9 126l137 32q5 -44 5 -91v-121q0 -33 -3 -45q38 41 109 41q103 0 157 -82q46 -69 46 -178zM356 262q0 61 -6 87q-15 65 -73 65q-39 0 -76 -41v-236q37 -33 75 -33
q59 0 74 66q6 26 6 92z" />
    <glyph glyph-name="c" unicode="c" horiz-adv-x="429" 
d="M431 58q-25 -25 -47 -38q-54 -32 -125 -32q-113 0 -171 78q-52 69 -52 186q0 166 105 237q56 38 127 38q53 0 99 -23q20 -10 50 -36l-65 -88q-43 40 -81 40q-87 0 -87 -172q0 -158 86 -158q44 0 92 42l8 7z" />
    <glyph glyph-name="d" unicode="d" horiz-adv-x="554" 
d="M500 0h-120q-5 10 -8 30q-49 -43 -118 -43q-105 0 -162 80q-50 70 -50 180t53 185q60 85 166 85q55 0 91 -29q-4 22 -4 76v176l133 -21v-532q0 -145 19 -187zM350 133v244q-37 33 -73 33q-86 0 -86 -164q0 -71 13 -100q20 -46 80 -46q39 0 66 33z" />
    <glyph glyph-name="e" unicode="e" 
d="M470 213h-296v-4q0 -124 108 -124q69 0 130 51l52 -80q-87 -71 -193 -71q-115 0 -180 76q-62 72 -62 189t53 190q60 82 172 82q216 0 216 -278v-31zM331 311v6q0 107 -75 107q-80 0 -80 -111v-2h155z" />
    <glyph glyph-name="f" unicode="f" horiz-adv-x="285" 
d="M353 709l-43 -83q-35 17 -55 17q-56 0 -56 -58v-72h130l-34 -94h-95v-419h-131v419h-46v94h49q-5 35 -5 69q0 77 43.5 118t121.5 41q64 0 121 -32z" />
    <glyph glyph-name="g" unicode="g" horiz-adv-x="552" 
d="M575 456q-41 -38 -94 -38q-9 0 -35 3q30 -36 30 -84q0 -72 -60 -114q-54 -38 -129 -38q-10 0 -20 1q-53 -25 -53 -42q0 -12 22 -12l72 -1q199 -3 199 -155q0 -91 -80 -136q-64 -36 -163 -36q-90 0 -153 28q-83 38 -83 118q0 28 12 52h124q-6 -17 -6 -33q0 -63 96 -63
q117 0 117 69q0 57 -94 62h-57q-55 1 -82 5q-53 9 -70 36q-10 20 -10 42q0 63 94 86q-110 28 -110 142q0 86 67 132q59 41 149 41q27 0 78 -12t77 -12q57 0 106 44zM338 347q0 76 -81 76q-80 0 -80 -76q0 -73 79 -73q82 0 82 73z" />
    <glyph glyph-name="h" unicode="h" horiz-adv-x="554" 
d="M489 0h-131v344q0 70 -52 70q-54 0 -106 -47v-367h-136v592q0 82 -10 117l137 32q9 -42 9 -125v-102q0 -7 -1 -21.5t-1 -21.5q58 55 145 55q42 0 78 -17q42 -20 55 -55.5t13 -95.5v-358z" />
    <glyph glyph-name="i" unicode="i" horiz-adv-x="250" 
d="M208 653q0 -35 -24 -59t-59 -24q-34 0 -58 24.5t-24 58.5q0 35 24.5 59t59.5 24t58 -24t23 -59zM192 0h-134v503l134 21v-524z" />
    <glyph glyph-name="j" unicode="j" horiz-adv-x="250" 
d="M211 655q0 -35 -24.5 -59.5t-59.5 -24.5q-34 0 -58 24t-24 58q0 35 24 59.5t59 24.5q34 0 58.5 -24t24.5 -58zM193 14q0 -93 -29 -144q-32 -56 -113 -90l-56 74q40 32 53 69q12 30 12 87v481l133 32v-509z" />
    <glyph glyph-name="k" unicode="k" horiz-adv-x="501" 
d="M527 0h-158l-172 290l131 224h161l-163 -216zM194 0h-134v577q0 73 -9 133l135 33q8 -51 8 -166v-577z" />
    <glyph glyph-name="l" unicode="l" horiz-adv-x="269" 
d="M273 2q-36 -14 -80 -14q-93 0 -119 70q-12 32 -12 115v382q0 90 -7 154l137 31q7 -39 7 -133v-399q0 -77 0 -75q5 -53 36 -53q8 0 15 2z" />
    <glyph glyph-name="m" unicode="m" horiz-adv-x="785" 
d="M721 0h-130v338q0 39 -4 50q-8 23 -38 23q-41 0 -89 -43v-368h-127v333q0 40 -5 54q-9 25 -41 25q-44 0 -88 -39v-373h-131v357q0 97 -19 131l121 33q11 -18 18 -52q54 52 125 52q63 0 104 -42q8 -9 20 -25q66 67 145 67q77 0 110 -41q29 -37 29 -116v-364z" />
    <glyph glyph-name="n" unicode="n" horiz-adv-x="533" 
d="M470 0h-132v333q0 37 -6 52q-9 23 -39 23q-42 0 -93 -46v-362h-134v371q0 69 -18 120l119 34q19 -33 19 -64q28 20 59 38q38 22 92 22q40 0 73 -18q37 -21 50 -56q10 -27 10 -73v-374z" />
    <glyph glyph-name="o" unicode="o" horiz-adv-x="518" 
d="M491 258q0 -117 -57 -190q-62 -79 -176 -79q-111 0 -173 79q-57 72 -57 186t57 187q62 81 173 81q112 0 175 -78q58 -72 58 -186zM345 259q0 70 -11 105q-19 59 -74 59q-53 0 -72 -61q-11 -35 -11 -105q0 -76 10 -109q18 -62 75 -62q83 0 83 173z" />
    <glyph glyph-name="p" unicode="p" horiz-adv-x="554" 
d="M512 270q0 -75 -12 -120q-16 -58 -59 -103q-56 -58 -137 -58q-61 0 -107 27q2 -11 2 -42v-160l-129 -34v592q0 80 -8 129l119 21q8 -28 9 -48q39 48 126 48q55 0 101 -31q95 -64 95 -221zM366 257q0 71 -8 99q-17 57 -69 57t-89 -39v-249q36 -30 74 -30q59 0 80 56
q12 34 12 106z" />
    <glyph glyph-name="q" unicode="q" horiz-adv-x="553" 
d="M497 513q-12 -52 -12 -151v-550l-127 -34v194q0 36 3 52q-40 -36 -102 -36q-108 0 -165 79q-50 69 -50 181q0 177 102 243q52 34 110 34q33 0 68 -12q43 -15 52 -40q1 21 10 40h111zM358 137v241q-33 35 -77 35q-90 0 -90 -148q0 -75 11 -108q20 -59 79 -59q44 0 77 39z
" />
    <glyph glyph-name="r" unicode="r" horiz-adv-x="338" 
d="M361 513l-37 -118q-19 10 -39 10q-45 0 -82 -43v-362h-134v342q0 100 -19 150l120 32q18 -32 21 -73q32 44 76 65q17 8 44 8q24 0 50 -11z" />
    <glyph glyph-name="s" unicode="s" horiz-adv-x="465" 
d="M437 162q0 -87 -68 -135q-61 -43 -151 -43q-94 0 -207 59l48 98q95 -58 170 -58q27 0 47.5 15.5t20.5 42.5q0 49 -79 63l-60 11q-123 23 -123 144q0 80 60 126q55 41 138 41q85 0 183 -48l-44 -90q-73 37 -126 37q-65 0 -65 -50q0 -35 64 -52l62 -16q130 -34 130 -145z
" />
    <glyph glyph-name="t" unicode="t" horiz-adv-x="304" 
d="M324 11q-56 -23 -109 -23q-45 0 -82 17q-43 20 -56 58q-9 26 -9 79v282h-51v87h51q0 84 5 122l136 34q-8 -75 -8 -154h120l-34 -89h-86v-261q0 -43 8 -59q12 -23 50 -23q14 0 48 10z" />
    <glyph glyph-name="u" unicode="u" horiz-adv-x="537" 
d="M499 40l-95 -54q-27 19 -40 50q-51 -49 -135 -49q-49 0 -89 19q-48 23 -62 64q-11 32 -11 102v328l132 25v-329q0 -52 6 -71q12 -37 52 -37q23 0 48.5 14t34.5 35v360l128 27v-391q0 -56 31 -93z" />
    <glyph glyph-name="v" unicode="v" horiz-adv-x="480" 
d="M482 512l-187 -512h-111l-186 504l137 17l74 -231q19 -59 33 -123q8 59 31 130l69 215h140z" />
    <glyph glyph-name="w" unicode="w" horiz-adv-x="714" 
d="M708 510l-146 -510h-123l-46 176q-19 74 -29 124q-3 14 -8 51q-3 -22 -12 -66q-3 -14 -44 -180l-26 -105h-125l-140 501l133 15l42 -195q12 -58 29 -159q12 89 37 178l48 170h126l41 -167q23 -93 38 -181q14 104 28 167l39 181h138z" />
    <glyph glyph-name="x" unicode="x" horiz-adv-x="481" 
d="M506 0h-170l-54 94q-10 19 -37 70q-1 3 -3 5q-3 -6 -3 -9q-14 -33 -48 -89l-43 -71h-172l189 272l-142 215l139 39q44 -72 69 -125l16 -34q3 5 3 7q21 49 42 93q6 12 24 44h158l-152 -236z" />
    <glyph glyph-name="y" unicode="y" 
d="M509 511l-186 -519q-38 -105 -76 -148q-51 -56 -146 -68l-46 88q47 13 69 26q31 17 52 50q14 22 29 60h-34l-21 60l-27 84l-121 359l137 16l89 -298q10 -34 27 -106q15 86 36 153l77 243h141z" />
    <glyph glyph-name="z" unicode="z" horiz-adv-x="428" 
d="M418 93l-32 -93h-377v83l241 332h-221v94h380v-92l-226 -324h235z" />
    <glyph glyph-name="braceleft" unicode="{" horiz-adv-x="370" 
d="M356 -156h-105q-64 0 -98 42q-31 38 -31 104v172q0 37 -38 55q-29 14 -70 14v114q41 0 70 14q38 18 38 55v173q0 145 129 145h105v-114h-49q-65 0 -65 -64v-161q0 -61 -34 -85q-21 -15 -66 -19v-2q45 -3 66 -18q34 -24 34 -85v-162q0 -64 65 -64h49v-114z" />
    <glyph glyph-name="bar" unicode="|" horiz-adv-x="222" 
d="M174 -18h-126v774h126v-774z" />
    <glyph glyph-name="braceright" unicode="}" horiz-adv-x="370" 
d="M356 231q-42 0 -70 -14q-38 -18 -38 -55v-173q0 -145 -129 -145h-105v114h49q65 0 65 64v161q0 61 34 85q21 15 66 19v2q-45 3 -66 18q-34 24 -34 85v162q0 64 -65 64h-49v114h108q63 0 96 -42q30 -38 30 -104v-172q0 -37 38 -55q28 -14 70 -14v-114z" />
    <glyph glyph-name="asciitilde" unicode="~" horiz-adv-x="666" 
d="M564 292q-45 -86 -125 -86q-38 0 -111 32q-82 36 -102 36q-26 0 -50 -22q-13 -12 -38 -46l-36 108q45 86 125 86q38 0 111 -32q82 -36 102 -36q26 0 50 22q13 12 38 46z" />
    <glyph glyph-name="exclamdown" unicode="&#xa1;" horiz-adv-x="250" 
d="M205 623q0 -35 -24 -59t-59 -24q-34 0 -58 24.5t-24 58.5q0 35 24.5 59t59.5 24t58 -24t23 -59zM204 6l-160 -23l28 489h102z" />
    <glyph glyph-name="cent" unicode="&#xa2;" horiz-adv-x="429" 
d="M431 58q-53 -53 -124 -66v-103h-94v103q-92 15 -138 93q-39 67 -39 167q0 165 105 237q32 22 71 31l1 97h94v-94q46 0 110 -55l-65 -88q-43 40 -81 40q-87 0 -87 -172q0 -158 86 -158q44 0 92 42l8 7z" />
    <glyph glyph-name="sterling" unicode="&#xa3;" horiz-adv-x="592" 
d="M601 652l-100 -107q-43 43 -91 43q-116 0 -116 -125v-49h156v-102h-156v-198h253v-114h-499v114h96v198h-96v102h96v71q0 105 72 171q69 64 176 64q134 0 209 -68z" />
    <glyph glyph-name="currency" unicode="&#xa4;" horiz-adv-x="552" 
d="M462 676q-22 -32 -61 -65q-60 -50 -109 -50q-50 0 -109 50q-37 32 -62 65l36 44q69 -65 139 -65q55 0 135 65zM575 456q-41 -38 -94 -38q-9 0 -35 3q30 -36 30 -84q0 -72 -60 -114q-54 -38 -129 -38q-10 0 -20 1q-53 -25 -53 -42q0 -12 22 -12l72 -1q199 -3 199 -155
q0 -91 -80 -136q-64 -36 -163 -36q-90 0 -153 28q-83 38 -83 118q0 28 12 52h124q-6 -17 -6 -33q0 -63 96 -63q117 0 117 69q0 57 -94 62h-57q-55 1 -82 5q-53 9 -70 36q-10 20 -10 42q0 63 94 86q-110 28 -110 142q0 86 67 132q59 41 149 41q27 0 78 -12t77 -12
q57 0 106 44zM338 347q0 76 -81 76q-80 0 -80 -76q0 -73 79 -73q82 0 82 73z" />
    <glyph glyph-name="yen" unicode="&#xa5;" horiz-adv-x="554" 
d="M578 696l-152 -280l102 -1v-103h-158l-14 -26v-50h172v-103h-172v-133h-146v133h-169v103h169v50l-14 26h-155v103l100 1l-148 281h168l90 -192q22 -47 35 -89q25 61 37 87l90 193h165z" />
    <glyph glyph-name="brokenbar" unicode="&#xa6;" horiz-adv-x="222" 
d="M174 451h-126v305h126v-305zM174 -18h-126v305h126v-305z" />
    <glyph glyph-name="section" unicode="&#xa7;" horiz-adv-x="592" 
d="M546 281q0 -40 -23.5 -76t-60.5 -54q55 -44 55 -119q0 -91 -82 -141q-69 -42 -164 -42q-174 0 -233 126l128 63q8 -34 42 -53q29 -16 67 -16q80 0 80 52q0 36 -78 69q-120 51 -145 68q-78 52 -78 135q0 94 87 148q-63 42 -63 115q0 82 69 129q61 41 146 41
q171 0 224 -109l-126 -72q-22 61 -92 61q-26 0 -44 -13q-21 -15 -21 -40q0 -39 81 -74q136 -59 150 -68q81 -52 81 -130zM408 253q0 41 -65 72l-116 55q-35 -20 -35 -59q0 -32 26 -53q12 -10 54 -29l102 -47q34 20 34 61z" />
    <glyph glyph-name="dieresis" unicode="&#xa8;" horiz-adv-x="499" 
d="M437 635q0 -33 -23.5 -56.5t-56.5 -23.5t-56 23.5t-23 56.5q0 34 23.5 57t57.5 23q33 0 55.5 -23.5t22.5 -56.5zM226 635q0 -33 -23.5 -56.5t-56.5 -23.5t-56 23.5t-23 56.5t24 56.5t57 23.5t55.5 -23.5t22.5 -56.5z" />
    <glyph glyph-name="copyright" unicode="&#xa9;" horiz-adv-x="800" 
d="M772 354q0 -155 -108.5 -263.5t-263.5 -108.5t-263.5 108.5t-108.5 263.5t108.5 263.5t263.5 108.5t263.5 -108.5t108.5 -263.5zM670 354q0 115 -78 198.5t-192 83.5t-192 -83.5t-78 -198.5t78 -198.5t192 -83.5t192 83.5t78 198.5zM588 300q-9 -71 -58 -114t-120 -43
q-92 0 -147 62q-52 58 -52 152q0 95 51.5 152.5t145.5 57.5q73 0 121 -38.5t59 -109.5h-94q-12 58 -78 58q-97 0 -97 -118q0 -50 22 -85q26 -41 73 -41q76 0 80 67h94z" />
    <glyph glyph-name="ordfeminine" unicode="&#xaa;" horiz-adv-x="400" 
d="M374 422l-48 -62q-47 19 -59 47q-12 -12 -24 -21q-28 -21 -77 -21q-132 0 -132 120q0 132 185 132h22v15q0 30 -7 42q-10 15 -38 15q-48 0 -111 -43l-43 72q23 15 63 31q57 23 105 23q99 0 123 -67q8 -22 7 -69l-2 -136q0 -52 36 -78zM240 548h-5q-46 0 -64 -8
q-30 -13 -30 -51q0 -50 45 -50q28 0 52 26zM387 231h-365v78h365v-78z" />
    <glyph glyph-name="guillemotleft" unicode="&#xab;" horiz-adv-x="538" 
d="M510 76l-91 -61l-159 234l159 234l91 -61l-116 -173zM268 76l-91 -61l-159 234l159 234l91 -61l-116 -173z" />
    <glyph glyph-name="registered" unicode="&#xae;" horiz-adv-x="800" 
d="M772 354q0 -155 -108.5 -263.5t-263.5 -108.5t-263.5 108.5t-108.5 263.5t108.5 263.5t263.5 108.5t263.5 -108.5t108.5 -263.5zM670 354q0 115 -78 198.5t-192 83.5t-192 -83.5t-78 -198.5t78 -198.5t192 -83.5t192 83.5t78 198.5zM570 163h-105l-89 150h-17v-150h-102
v390h138q166 0 166 -126q0 -97 -91 -109zM459 433q0 42 -60 42h-41v-84h41q60 0 60 42z" />
    <glyph glyph-name="degree" unicode="&#xb0;" horiz-adv-x="395" 
d="M365 533q0 -80 -46 -127t-126 -47q-78 0 -123.5 47t-45.5 125t46 126t123 48q78 0 125 -47t47 -125zM254 535q0 96 -62 96q-45 0 -55 -48q-4 -19 -4 -49q0 -48 8 -67q13 -33 53 -33q60 0 60 101z" />
    <glyph glyph-name="acute" unicode="&#xb4;" horiz-adv-x="338" 
d="M304 657l-224 -100l-41 74l207 130z" />
    <glyph glyph-name="paragraph" unicode="&#xb6;" horiz-adv-x="600" 
d="M533 -126h-90v762h-107v-762h-90v464q-89 0 -149 45q-66 51 -66 137q0 188 233 188h269v-834z" />
    <glyph glyph-name="cedilla" unicode="&#xb8;" horiz-adv-x="429" 
d="M332 -111q0 -43 -34 -67q-30 -21 -75 -21q-43 0 -87 24l30 63q34 -15 52 -15q25 0 25 18q0 20 -25 20l-27 -6l-13 20l24 87l72 -6l-14 -38q72 -7 72 -79z" />
    <glyph glyph-name="ordmasculine" unicode="&#xba;" horiz-adv-x="463" 
d="M400 566q0 -87 -43 -141q-47 -60 -132 -60q-83 0 -129 59q-43 54 -43 139t43 140q46 61 129 61q85 0 132 -58q43 -53 43 -140zM287 567q0 51 -7 75q-14 42 -53 42q-60 0 -60 -118q0 -123 61 -123q59 0 59 124zM411 231h-365v78h365v-78z" />
    <glyph glyph-name="guillemotright" unicode="&#xbb;" horiz-adv-x="538" 
d="M520 249l-159 -234l-91 61l116 173l-116 173l91 61zM278 249l-159 -234l-91 61l116 173l-116 173l91 61z" />
    <glyph glyph-name="questiondown" unicode="&#xbf;" 
d="M350 623q0 -35 -24 -59t-59 -24q-34 0 -58 24.5t-24 58.5q0 35 24.5 59t59.5 24t58 -24t23 -59zM441 64q-73 -76 -194 -76q-79 0 -132 43q-58 47 -58 124q0 93 92 152q75 48 77 130q0 9 -2 35h115l5 -26q4 -21 4 -40q0 -86 -92 -152q-38 -27 -43 -33q-23 -21 -23 -48
q0 -69 82 -69q49 0 108 46z" />
    <glyph glyph-name="Agrave" unicode="&#xc0;" horiz-adv-x="570" 
d="M380 791l-41 -74l-224 100l58 104zM585 0h-150l-49 165h-204l-49 -165h-146l228 697h151zM352 281q-13 40 -38 140q-3 11 -28 123l-33 -134q-16 -65 -37 -129h136z" />
    <glyph glyph-name="Aacute" unicode="&#xc1;" horiz-adv-x="570" 
d="M449 817l-224 -100l-41 74l207 130zM585 0h-150l-49 165h-204l-49 -165h-146l228 697h151zM352 281q-13 40 -38 140q-3 11 -28 123l-33 -134q-16 -65 -37 -129h136z" />
    <glyph glyph-name="Acircumflex" unicode="&#xc2;" horiz-adv-x="570" 
d="M468 785l-45 -73l-139 76l-135 -76l-45 73l180 135zM585 0h-150l-49 165h-204l-49 -165h-146l228 697h151zM352 281q-13 40 -38 140q-3 11 -28 123l-33 -134q-16 -65 -37 -129h136z" />
    <glyph glyph-name="Atilde" unicode="&#xc3;" horiz-adv-x="570" 
d="M471 804q-53 -66 -124 -66q-26 0 -66.5 20t-64.5 20q-32 0 -66 -36l-43 74q53 66 124 66q26 0 66.5 -20t64.5 -20q32 0 66 36zM585 0h-150l-49 165h-204l-49 -165h-146l228 697h151zM352 281q-13 40 -38 140q-3 11 -28 123l-33 -134q-16 -65 -37 -129h136z" />
    <glyph glyph-name="Adieresis" unicode="&#xc4;" horiz-adv-x="570" 
d="M462 795q0 -33 -23.5 -56.5t-56.5 -23.5t-56 23.5t-23 56.5q0 34 23.5 57t57.5 23q33 0 55.5 -23.5t22.5 -56.5zM251 795q0 -33 -23.5 -56.5t-56.5 -23.5t-56 23.5t-23 56.5t24 56.5t57 23.5t55.5 -23.5t22.5 -56.5zM585 0h-150l-49 165h-204l-49 -165h-146l228 697h151z
M352 281q-13 40 -38 140q-3 11 -28 123l-33 -134q-16 -65 -37 -129h136z" />
    <glyph glyph-name="Aring" unicode="&#xc5;" horiz-adv-x="570" 
d="M391 819q0 -44 -31 -75t-75 -31t-74 31t-30 75q0 43 31.5 74.5t74.5 31.5q44 0 74 -31t30 -75zM336 819q0 21 -14 36t-35 15q-22 0 -37 -14.5t-15 -36.5q0 -21 14.5 -36t35.5 -15t36 15t15 36zM585 0h-150l-49 165h-204l-49 -165h-146l228 697h151zM352 281
q-13 40 -38 140q-3 11 -28 123l-33 -134q-16 -65 -37 -129h136z" />
    <glyph glyph-name="AE" unicode="&#xc6;" horiz-adv-x="892" 
d="M865 0h-405v165h-191l-93 -165h-156l414 695h422l-18 -114h-238v-161h199v-114h-197v-186h263v-120zM468 530q-53 -101 -134 -249h126q-2 110 0 166q1 29 8 83z" />
    <glyph glyph-name="Ccedilla" unicode="&#xc7;" horiz-adv-x="535" 
d="M535 53q-79 -65 -193 -65h-17l-7 -20q72 -7 72 -79q0 -43 -34 -67q-30 -21 -75 -21q-43 0 -87 24l30 63q34 -15 52 -15q25 0 25 18q0 20 -25 20q-5 0 -14 -3t-13 -3l-13 20l20 73q-111 28 -171 126q-54 88 -54 209q0 240 158 335q71 42 155 42q113 0 176 -55l-63 -95
q-52 39 -111 39q-157 0 -157 -239q0 -133 29 -186q43 -78 134 -78q62 0 105 34l14 11z" />
    <glyph glyph-name="Egrave" unicode="&#xc8;" 
d="M390 791l-41 -74l-224 100l58 104zM473 0h-405v695h396l-18 -114h-238v-161h199v-114h-197v-186h263v-120z" />
    <glyph glyph-name="Eacute" unicode="&#xc9;" 
d="M404 817l-224 -100l-41 74l207 130zM473 0h-405v695h396l-18 -114h-238v-161h199v-114h-197v-186h263v-120z" />
    <glyph glyph-name="Ecircumflex" unicode="&#xca;" 
d="M448 785l-45 -73l-139 76l-135 -76l-45 73l180 135zM473 0h-405v695h396l-18 -114h-238v-161h199v-114h-197v-186h263v-120z" />
    <glyph glyph-name="Edieresis" unicode="&#xcb;" 
d="M452 795q0 -33 -23.5 -56.5t-56.5 -23.5t-56 23.5t-23 56.5q0 34 23.5 57t57.5 23q33 0 55.5 -23.5t22.5 -56.5zM241 795q0 -33 -23.5 -56.5t-56.5 -23.5t-56 23.5t-23 56.5t24 56.5t57 23.5t55.5 -23.5t22.5 -56.5zM473 0h-405v695h396l-18 -114h-238v-161h199v-114
h-197v-186h263v-120z" />
    <glyph glyph-name="Igrave" unicode="&#xcc;" horiz-adv-x="286" 
d="M245 791l-41 -74l-224 100l58 104zM217 0h-146v695h146v-695z" />
    <glyph glyph-name="Iacute" unicode="&#xcd;" horiz-adv-x="286" 
d="M289 817l-224 -100l-41 74l207 130zM217 0h-146v695h146v-695z" />
    <glyph glyph-name="Icircumflex" unicode="&#xce;" horiz-adv-x="286" 
d="M328 785l-45 -73l-139 76l-135 -76l-45 73l180 135zM217 0h-146v695h146v-695z" />
    <glyph glyph-name="Idieresis" unicode="&#xcf;" horiz-adv-x="286" 
d="M327 795q0 -33 -23.5 -56.5t-56.5 -23.5t-56 23.5t-23 56.5q0 34 23.5 57t57.5 23q33 0 55.5 -23.5t22.5 -56.5zM116 795q0 -33 -23.5 -56.5t-56.5 -23.5t-56 23.5t-23 56.5t24 56.5t57 23.5t55.5 -23.5t22.5 -56.5zM217 0h-146v695h146v-695z" />
    <glyph glyph-name="Eth" unicode="&#xd0;" horiz-adv-x="606" 
d="M466 832q-17 -26 -52 -55q-51 -43 -93 -43q-43 0 -93 43q-29 25 -52 55l32 37q59 -55 117 -55q45 0 115 55zM570 54q-105 -62 -231 -62q-151 0 -234 102q-77 94 -77 247q0 219 145 316q73 49 169 49q129 0 221 -80l-74 -87q-66 54 -145 54q-97 0 -134 -86
q-25 -59 -25 -173q0 -109 27 -163q38 -74 134 -74q46 0 79 17v158h-106l-18 114h269v-332z" />
    <glyph glyph-name="Ntilde" unicode="&#xd1;" horiz-adv-x="622" 
d="M511 804q-53 -66 -124 -66q-26 0 -66.5 20t-64.5 20q-32 0 -66 -36l-43 74q53 66 124 66q26 0 66.5 -20t64.5 -20q32 0 66 36zM553 0h-146l-119 266q-76 170 -94 228q5 -61 7 -197l4 -297h-135v695h155l133 -278q50 -104 76 -197q-10 112 -11 191l-3 284h133v-695z" />
    <glyph glyph-name="Ograve" unicode="&#xd2;" horiz-adv-x="659" 
d="M445 791l-41 -74l-224 100l58 104zM627 351q0 -244 -155 -330q-58 -32 -139 -32q-151 0 -232 105q-74 95 -74 251q0 103 35 185q41 96 122 140q62 34 144 34q148 0 228 -105q71 -94 71 -248zM466 347q0 102 -18 161q-12 40 -45.5 64t-76.5 24q-143 0 -143 -251
q0 -179 62 -225q32 -24 83 -24q87 0 119 89q19 54 19 162z" />
    <glyph glyph-name="Oacute" unicode="&#xd3;" horiz-adv-x="659" 
d="M499 817l-224 -100l-41 74l207 130zM627 351q0 -244 -155 -330q-58 -32 -139 -32q-151 0 -232 105q-74 95 -74 251q0 103 35 185q41 96 122 140q62 34 144 34q148 0 228 -105q71 -94 71 -248zM466 347q0 102 -18 161q-12 40 -45.5 64t-76.5 24q-143 0 -143 -251
q0 -179 62 -225q32 -24 83 -24q87 0 119 89q19 54 19 162z" />
    <glyph glyph-name="Ocircumflex" unicode="&#xd4;" horiz-adv-x="659" 
d="M508 785l-45 -73l-139 76l-135 -76l-45 73l180 135zM627 351q0 -244 -155 -330q-58 -32 -139 -32q-151 0 -232 105q-74 95 -74 251q0 103 35 185q41 96 122 140q62 34 144 34q148 0 228 -105q71 -94 71 -248zM466 347q0 102 -18 161q-12 40 -45.5 64t-76.5 24
q-143 0 -143 -251q0 -179 62 -225q32 -24 83 -24q87 0 119 89q19 54 19 162z" />
    <glyph glyph-name="Otilde" unicode="&#xd5;" horiz-adv-x="659" 
d="M510 804q-53 -66 -124 -66q-26 0 -66.5 20t-64.5 20q-32 0 -66 -36l-43 74q53 66 124 66q26 0 66.5 -20t64.5 -20q32 0 66 36zM627 351q0 -244 -155 -330q-58 -32 -139 -32q-151 0 -232 105q-74 95 -74 251q0 103 35 185q41 96 122 140q62 34 144 34q148 0 228 -105
q71 -94 71 -248zM466 347q0 102 -18 161q-12 40 -45.5 64t-76.5 24q-143 0 -143 -251q0 -179 62 -225q32 -24 83 -24q87 0 119 89q19 54 19 162z" />
    <glyph glyph-name="Odieresis" unicode="&#xd6;" horiz-adv-x="659" 
d="M527 795q0 -33 -23.5 -56.5t-56.5 -23.5t-56 23.5t-23 56.5q0 34 23.5 57t57.5 23q33 0 55.5 -23.5t22.5 -56.5zM316 795q0 -33 -23.5 -56.5t-56.5 -23.5t-56 23.5t-23 56.5t24 56.5t57 23.5t55.5 -23.5t22.5 -56.5zM627 351q0 -244 -155 -330q-58 -32 -139 -32
q-151 0 -232 105q-74 95 -74 251q0 103 35 185q41 96 122 140q62 34 144 34q148 0 228 -105q71 -94 71 -248zM466 347q0 102 -18 161q-12 40 -45.5 64t-76.5 24q-143 0 -143 -251q0 -179 62 -225q32 -24 83 -24q87 0 119 89q19 54 19 162z" />
    <glyph glyph-name="multiply" unicode="&#xd7;" horiz-adv-x="666" 
d="M571 154l-89 -89l-149 149l-149 -149l-89 89l149 149l-149 149l89 89l149 -149l149 149l89 -89l-149 -149z" />
    <glyph glyph-name="Oslash" unicode="&#xd8;" horiz-adv-x="659" 
d="M627 351q0 -244 -155 -330q-58 -32 -139 -32q-93 0 -155 34l-67 -111l-73 41l76 125l-7 9q-80 103 -80 258q0 103 35 185q41 96 122 140q62 34 144 34q83 0 145 -35l61 99l73 -41l-68 -110q88 -94 88 -266zM410 565q-34 31 -84 31q-143 0 -143 -251q0 -80 12 -134z
M466 347q0 78 -11 131l-216 -355l6 -3q33 -24 83 -24q87 0 119 89q19 54 19 162z" />
    <glyph glyph-name="Ugrave" unicode="&#xd9;" horiz-adv-x="608" 
d="M415 791l-41 -74l-224 100l58 104zM554 227q0 -61 -6 -90q-10 -46 -41 -78q-70 -72 -200 -72q-181 0 -236 117q-17 36 -17 107v484h143v-457q0 -60 12 -83q25 -48 95 -48q96 0 106 81q2 16 2 62v445h142v-468z" />
    <glyph glyph-name="Uacute" unicode="&#xda;" horiz-adv-x="608" 
d="M444 817l-224 -100l-41 74l207 130zM554 227q0 -61 -6 -90q-10 -46 -41 -78q-70 -72 -200 -72q-181 0 -236 117q-17 36 -17 107v484h143v-457q0 -60 12 -83q25 -48 95 -48q96 0 106 81q2 16 2 62v445h142v-468z" />
    <glyph glyph-name="Ucircumflex" unicode="&#xdb;" horiz-adv-x="608" 
d="M488 785l-45 -73l-139 76l-135 -76l-45 73l180 135zM554 227q0 -61 -6 -90q-10 -46 -41 -78q-70 -72 -200 -72q-181 0 -236 117q-17 36 -17 107v484h143v-457q0 -60 12 -83q25 -48 95 -48q96 0 106 81q2 16 2 62v445h142v-468z" />
    <glyph glyph-name="Udieresis" unicode="&#xdc;" horiz-adv-x="608" 
d="M492 795q0 -33 -23.5 -56.5t-56.5 -23.5t-56 23.5t-23 56.5q0 34 23.5 57t57.5 23q33 0 55.5 -23.5t22.5 -56.5zM281 795q0 -33 -23.5 -56.5t-56.5 -23.5t-56 23.5t-23 56.5t24 56.5t57 23.5t55.5 -23.5t22.5 -56.5zM554 227q0 -61 -6 -90q-10 -46 -41 -78
q-70 -72 -200 -72q-181 0 -236 117q-17 36 -17 107v484h143v-457q0 -60 12 -83q25 -48 95 -48q96 0 106 81q2 16 2 62v445h142v-468z" />
    <glyph glyph-name="Yacute" unicode="&#xdd;" horiz-adv-x="286" 
d="M227 812q0 -35 -24 -59t-59 -24q-34 0 -58 24.5t-24 58.5q0 35 24.5 59t59.5 24t58 -24t23 -59zM217 0h-146v695h146v-695z" />
    <glyph glyph-name="Thorn" unicode="&#xde;" horiz-adv-x="572" 
d="M535 219q0 -102 -72 -165q-66 -57 -172 -67l-7 -19q72 -7 72 -79q0 -43 -34 -67q-30 -21 -75 -21q-43 0 -87 24l30 63q34 -15 52 -15q25 0 25 18q0 20 -25 20l-27 -6l-13 20l16 61q-113 8 -207 62l52 109q107 -56 191 -56q122 0 122 95q0 65 -91 90l-77 21
q-166 45 -166 194q0 101 76 160q69 55 173 55q135 0 232 -70l-66 -100q-88 53 -162 53q-40 0 -67 -20q-30 -22 -30 -60q0 -49 77 -70l84 -23q176 -48 176 -207z" />
    <glyph glyph-name="germandbls" unicode="&#xdf;" horiz-adv-x="587" 
d="M572 193q0 -96 -67 -153q-63 -53 -161 -53q-50 0 -75 12l30 92q16 -5 30 -5q96 0 96 102q0 55 -58 92l-45 29q-43 28 -43 81q0 45 28 67l27 21q32 25 32 64q0 80 -68 80q-26 0 -45.5 -16.5t-23.5 -42.5q-3 -19 -3 -70v-390q0 -60 -20 -103h-136q20 64 20 127v279h-82v104
h82v18q0 99 53 145q60 52 156 52q89 0 148 -37q69 -44 69 -128q0 -81 -74 -125l-32 -19q-13 -8 -13 -18q0 -14 24 -25l56 -26q27 -12 53 -41q42 -46 42 -113z" />
    <glyph glyph-name="agrave" unicode="&#xe0;" horiz-adv-x="499" 
d="M373 631l-41 -74l-224 100l58 104zM485 56l-71 -82q-52 22 -72 62q-20 -19 -31 -27q-39 -28 -103 -28q-82 0 -127 39q-49 41 -49 121q0 176 246 176q16 0 30 -1v21q0 41 -10 56q-12 20 -50 20q-62 0 -148 -58l-57 96q36 23 83 42q74 30 140 30q134 0 165 -89
q10 -29 9 -92l-3 -181q0 -40 8 -60q10 -23 40 -45zM306 224h-6q-61 0 -85 -10q-40 -17 -40 -68q0 -28 15.5 -47.5t43.5 -19.5q38 0 70 35z" />
    <glyph glyph-name="aacute" unicode="&#xe1;" horiz-adv-x="499" 
d="M409 657l-224 -100l-41 74l207 130zM485 56l-71 -82q-52 22 -72 62q-20 -19 -31 -27q-39 -28 -103 -28q-82 0 -127 39q-49 41 -49 121q0 176 246 176q16 0 30 -1v21q0 41 -10 56q-12 20 -50 20q-62 0 -148 -58l-57 96q36 23 83 42q74 30 140 30q134 0 165 -89
q10 -29 9 -92l-3 -181q0 -40 8 -60q10 -23 40 -45zM306 224h-6q-61 0 -85 -10q-40 -17 -40 -68q0 -28 15.5 -47.5t43.5 -19.5q38 0 70 35z" />
    <glyph glyph-name="acircumflex" unicode="&#xe2;" horiz-adv-x="499" 
d="M431 625l-45 -73l-139 76l-135 -76l-45 73l180 135zM485 56l-71 -82q-52 22 -72 62q-20 -19 -31 -27q-39 -28 -103 -28q-82 0 -127 39q-49 41 -49 121q0 176 246 176q16 0 30 -1v21q0 41 -10 56q-12 20 -50 20q-62 0 -148 -58l-57 96q36 23 83 42q74 30 140 30
q134 0 165 -89q10 -29 9 -92l-3 -181q0 -40 8 -60q10 -23 40 -45zM306 224h-6q-61 0 -85 -10q-40 -17 -40 -68q0 -28 15.5 -47.5t43.5 -19.5q38 0 70 35z" />
    <glyph glyph-name="atilde" unicode="&#xe3;" horiz-adv-x="499" 
d="M438 644q-53 -66 -124 -66q-26 0 -66.5 20t-64.5 20q-32 0 -66 -36l-43 74q53 66 124 66q26 0 66.5 -20t64.5 -20q32 0 66 36zM485 56l-71 -82q-52 22 -72 62q-20 -19 -31 -27q-39 -28 -103 -28q-82 0 -127 39q-49 41 -49 121q0 176 246 176q16 0 30 -1v21q0 41 -10 56
q-12 20 -50 20q-62 0 -148 -58l-57 96q36 23 83 42q74 30 140 30q134 0 165 -89q10 -29 9 -92l-3 -181q0 -40 8 -60q10 -23 40 -45zM306 224h-6q-61 0 -85 -10q-40 -17 -40 -68q0 -28 15.5 -47.5t43.5 -19.5q38 0 70 35z" />
    <glyph glyph-name="adieresis" unicode="&#xe4;" horiz-adv-x="499" 
d="M419 635q0 -33 -23.5 -56.5t-56.5 -23.5t-56 23.5t-23 56.5q0 34 23.5 57t57.5 23q33 0 55.5 -23.5t22.5 -56.5zM208 635q0 -33 -23.5 -56.5t-56.5 -23.5t-56 23.5t-23 56.5t24 56.5t57 23.5t55.5 -23.5t22.5 -56.5zM473 56l-71 -82q-52 22 -72 62q-20 -19 -31 -27
q-39 -28 -103 -28q-82 0 -127 39q-49 41 -49 121q0 176 246 176q16 0 30 -1v21q0 41 -10 56q-12 20 -50 20q-62 0 -148 -58l-57 96q36 23 83 42q74 30 140 30q134 0 165 -89q10 -29 9 -92l-3 -181q0 -40 8 -60q10 -23 40 -45zM294 224h-6q-61 0 -85 -10q-40 -17 -40 -68
q0 -28 15.5 -47.5t43.5 -19.5q38 0 70 35z" />
    <glyph glyph-name="aring" unicode="&#xe5;" horiz-adv-x="499" 
d="M363 659q0 -44 -31 -75t-75 -31t-74 31t-30 75q0 43 31.5 74.5t74.5 31.5q44 0 74 -31t30 -75zM308 659q0 21 -14 36t-35 15q-22 0 -37 -14.5t-15 -36.5q0 -21 14.5 -36t35.5 -15t36 15t15 36zM485 56l-71 -82q-52 22 -72 62q-20 -19 -31 -27q-39 -28 -103 -28
q-82 0 -127 39q-49 41 -49 121q0 176 246 176q16 0 30 -1v21q0 41 -10 56q-12 20 -50 20q-62 0 -148 -58l-57 96q36 23 83 42q74 30 140 30q134 0 165 -89q10 -29 9 -92l-3 -181q0 -40 8 -60q10 -23 40 -45zM306 224h-6q-61 0 -85 -10q-40 -17 -40 -68q0 -28 15.5 -47.5
t43.5 -19.5q38 0 70 35z" />
    <glyph glyph-name="ae" unicode="&#xe6;" horiz-adv-x="778" 
d="M734 213h-296v-4q0 -124 108 -124q69 0 130 51l52 -80q-87 -71 -193 -71q-50 0 -82 10.5t-71 39.5l-18 18q-23 -33 -70 -53q-43 -19 -86 -19q-82 0 -127 39q-49 41 -49 121q0 176 246 176h14q9 -1 16 -1v21q0 41 -10 56q-12 20 -50 20q-62 0 -148 -58l-57 96q36 23 83 42
q74 30 140 30q71 0 130 -47q50 46 122 46q216 0 216 -278v-31zM595 311v6q0 107 -75 107q-80 0 -80 -111v-2h155zM306 224h-6q-61 0 -85 -10q-40 -17 -40 -68q0 -28 15.5 -47.5t43.5 -19.5q38 0 70 35z" />
    <glyph glyph-name="ccedilla" unicode="&#xe7;" horiz-adv-x="429" 
d="M431 58q-25 -25 -47 -38q-54 -32 -117 -32l-7 -20q72 -7 72 -79q0 -43 -34 -67q-30 -21 -75 -21q-43 0 -87 24l30 63q34 -15 52 -15q25 0 25 18q0 20 -25 20q-5 0 -14 -3t-13 -3l-13 20l19 70q-85 21 -126 97q-35 65 -35 160q0 166 105 237q56 38 127 38q53 0 99 -23
q20 -10 50 -36l-65 -88q-43 40 -81 40q-87 0 -87 -172q0 -158 86 -158q44 0 92 42l8 7z" />
    <glyph glyph-name="egrave" unicode="&#xe8;" 
d="M355 631l-41 -74l-224 100l58 104zM470 213h-296v-4q0 -124 108 -124q69 0 130 51l52 -80q-87 -71 -193 -71q-115 0 -180 76q-62 72 -62 189t53 190q60 82 172 82q216 0 216 -278v-31zM331 311v6q0 107 -75 107q-80 0 -80 -111v-2h155z" />
    <glyph glyph-name="eacute" unicode="&#xe9;" 
d="M406 657l-224 -100l-41 74l207 130zM470 213h-296v-4q0 -124 108 -124q69 0 130 51l52 -80q-87 -71 -193 -71q-115 0 -180 76q-62 72 -62 189t53 190q60 82 172 82q216 0 216 -278v-31zM331 311v6q0 107 -75 107q-80 0 -80 -111v-2h155z" />
    <glyph glyph-name="ecircumflex" unicode="&#xea;" 
d="M443 625l-45 -73l-139 76l-135 -76l-45 73l180 135zM470 213h-296v-4q0 -124 108 -124q69 0 130 51l52 -80q-87 -71 -193 -71q-115 0 -180 76q-62 72 -62 189t53 190q60 82 172 82q216 0 216 -278v-31zM331 311v6q0 107 -75 107q-80 0 -80 -111v-2h155z" />
    <glyph glyph-name="edieresis" unicode="&#xeb;" 
d="M446 635q0 -33 -23.5 -56.5t-56.5 -23.5t-56 23.5t-23 56.5q0 34 23.5 57t57.5 23q33 0 55.5 -23.5t22.5 -56.5zM235 635q0 -33 -23.5 -56.5t-56.5 -23.5t-56 23.5t-23 56.5t24 56.5t57 23.5t55.5 -23.5t22.5 -56.5zM470 213h-296v-4q0 -124 108 -124q69 0 130 51l52 -80
q-87 -71 -193 -71q-115 0 -180 76q-62 72 -62 189t53 190q60 82 172 82q216 0 216 -278v-31zM331 311v6q0 107 -75 107q-80 0 -80 -111v-2h155z" />
    <glyph glyph-name="igrave" unicode="&#xec;" horiz-adv-x="250" 
d="M226 631l-41 -74l-224 100l58 104zM192 0h-134v503l134 21v-524z" />
    <glyph glyph-name="iacute" unicode="&#xed;" horiz-adv-x="250" 
d="M277 657l-224 -100l-41 74l207 130zM192 0h-134v503l134 21v-524z" />
    <glyph glyph-name="icircumflex" unicode="&#xee;" horiz-adv-x="250" 
d="M308 625l-45 -73l-139 76l-135 -76l-45 73l180 135zM192 0h-134v503l134 21v-524z" />
    <glyph glyph-name="idieresis" unicode="&#xef;" horiz-adv-x="250" 
d="M311 635q0 -33 -23.5 -56.5t-56.5 -23.5t-56 23.5t-23 56.5q0 34 23.5 57t57.5 23q33 0 55.5 -23.5t22.5 -56.5zM100 635q0 -33 -23.5 -56.5t-56.5 -23.5t-56 23.5t-23 56.5t24 56.5t57 23.5t55.5 -23.5t22.5 -56.5zM192 0h-134v503l134 21v-524z" />
    <glyph glyph-name="eth" unicode="&#xf0;" horiz-adv-x="552" 
d="M462 676q-22 -32 -61 -65q-60 -50 -109 -50q-50 0 -109 50q-37 32 -62 65l36 44q69 -65 139 -65q55 0 135 65zM575 456q-41 -38 -94 -38q-9 0 -35 3q30 -36 30 -84q0 -72 -60 -114q-54 -38 -129 -38q-10 0 -20 1q-53 -25 -53 -42q0 -12 22 -12l72 -1q199 -3 199 -155
q0 -91 -80 -136q-64 -36 -163 -36q-90 0 -153 28q-83 38 -83 118q0 28 12 52h124q-6 -17 -6 -33q0 -63 96 -63q117 0 117 69q0 57 -94 62h-57q-55 1 -82 5q-53 9 -70 36q-10 20 -10 42q0 63 94 86q-110 28 -110 142q0 86 67 132q59 41 149 41q27 0 78 -12t77 -12
q57 0 106 44zM338 347q0 76 -81 76q-80 0 -80 -76q0 -73 79 -73q82 0 82 73z" />
    <glyph glyph-name="ntilde" unicode="&#xf1;" horiz-adv-x="533" 
d="M452 644q-53 -66 -124 -66q-26 0 -66.5 20t-64.5 20q-32 0 -66 -36l-43 74q53 66 124 66q26 0 66.5 -20t64.5 -20q32 0 66 36zM470 0h-132v333q0 37 -6 52q-9 23 -39 23q-42 0 -93 -46v-362h-134v371q0 69 -18 120l119 34q19 -33 19 -64q28 20 59 38q38 22 92 22
q40 0 73 -18q37 -21 50 -56q10 -27 10 -73v-374z" />
    <glyph glyph-name="ograve" unicode="&#xf2;" horiz-adv-x="518" 
d="M355 631l-41 -74l-224 100l58 104zM491 258q0 -117 -57 -190q-62 -79 -176 -79q-111 0 -173 79q-57 72 -57 186t57 187q62 81 173 81q112 0 175 -78q58 -72 58 -186zM345 259q0 70 -11 105q-19 59 -74 59q-53 0 -72 -61q-11 -35 -11 -105q0 -76 10 -109q18 -62 75 -62
q83 0 83 173z" />
    <glyph glyph-name="oacute" unicode="&#xf3;" horiz-adv-x="518" 
d="M409 657l-224 -100l-41 74l207 130zM491 258q0 -117 -57 -190q-62 -79 -176 -79q-111 0 -173 79q-57 72 -57 186t57 187q62 81 173 81q112 0 175 -78q58 -72 58 -186zM345 259q0 70 -11 105q-19 59 -74 59q-53 0 -72 -61q-11 -35 -11 -105q0 -76 10 -109q18 -62 75 -62
q83 0 83 173z" />
    <glyph glyph-name="ocircumflex" unicode="&#xf4;" horiz-adv-x="518" 
d="M446 625l-45 -73l-139 76l-135 -76l-45 73l180 135zM491 258q0 -117 -57 -190q-62 -79 -176 -79q-111 0 -173 79q-57 72 -57 186t57 187q62 81 173 81q112 0 175 -78q58 -72 58 -186zM345 259q0 70 -11 105q-19 59 -74 59q-53 0 -72 -61q-11 -35 -11 -105q0 -76 10 -109
q18 -62 75 -62q83 0 83 173z" />
    <glyph glyph-name="otilde" unicode="&#xf5;" horiz-adv-x="518" 
d="M444 644q-53 -66 -124 -66q-26 0 -66.5 20t-64.5 20q-32 0 -66 -36l-43 74q53 66 124 66q26 0 66.5 -20t64.5 -20q32 0 66 36zM491 258q0 -117 -57 -190q-62 -79 -176 -79q-111 0 -173 79q-57 72 -57 186t57 187q62 81 173 81q112 0 175 -78q58 -72 58 -186zM345 259
q0 70 -11 105q-19 59 -74 59q-53 0 -72 -61q-11 -35 -11 -105q0 -76 10 -109q18 -62 75 -62q83 0 83 173z" />
    <glyph glyph-name="odieresis" unicode="&#xf6;" horiz-adv-x="518" 
d="M446 635q0 -33 -23.5 -56.5t-56.5 -23.5t-56 23.5t-23 56.5q0 34 23.5 57t57.5 23q33 0 55.5 -23.5t22.5 -56.5zM235 635q0 -33 -23.5 -56.5t-56.5 -23.5t-56 23.5t-23 56.5t24 56.5t57 23.5t55.5 -23.5t22.5 -56.5zM491 258q0 -117 -57 -190q-62 -79 -176 -79
q-111 0 -173 79q-57 72 -57 186t57 187q62 81 173 81q112 0 175 -78q58 -72 58 -186zM345 259q0 70 -11 105q-19 59 -74 59q-53 0 -72 -61q-11 -35 -11 -105q0 -76 10 -109q18 -62 75 -62q83 0 83 173z" />
    <glyph glyph-name="divide" unicode="&#xf7;" horiz-adv-x="865" 
d="M823 653q0 -35 -24 -59t-59 -24q-34 0 -58 24.5t-24 58.5q0 35 24.5 59t59.5 24t58 -24t23 -59zM807 0h-134v419h-171v-419h-131v419h-171v-419h-131v419h-46v94h49q0 12 -2.5 34.5t-2.5 34.5q0 77 43.5 118t121.5 41q64 0 121 -32l-43 -83q-35 17 -55 17q-56 0 -56 -58
v-72h175q0 12 -2.5 34.5t-2.5 34.5q0 77 43.5 118t121.5 41q69 0 111 -24l-43 -83q-19 9 -45 9q-56 0 -56 -58v-72h306v-513z" />
    <glyph glyph-name="oslash" unicode="&#xf8;" horiz-adv-x="518" 
d="M491 258q0 -117 -57 -190q-62 -79 -176 -79q-57 0 -103 23l-58 -96l-62 35l62 103q-69 74 -69 200q0 114 57 187q62 81 173 81q61 0 109 -24l59 96l62 -35l-65 -105l9 -9q59 -59 59 -187zM310 404q-21 19 -50 19q-53 0 -72 -61q-11 -35 -11 -105q0 -11 1.5 -33.5
t1.5 -33.5zM345 259q0 10 -1.5 30t-1.5 30l-131 -215q23 -18 51 -18q83 0 83 173z" />
    <glyph glyph-name="ugrave" unicode="&#xf9;" horiz-adv-x="537" 
d="M394 631l-41 -74l-224 100l58 104zM499 40l-95 -54q-27 19 -40 50q-51 -49 -135 -49q-49 0 -89 19q-48 23 -62 64q-11 32 -11 102v328l132 25v-329q0 -52 6 -71q12 -37 52 -37q23 0 48.5 14t34.5 35v360l128 27v-391q0 -56 31 -93z" />
    <glyph glyph-name="uacute" unicode="&#xfa;" horiz-adv-x="537" 
d="M409 657l-224 -100l-41 74l207 130zM499 40l-95 -54q-27 19 -40 50q-51 -49 -135 -49q-49 0 -89 19q-48 23 -62 64q-11 32 -11 102v328l132 25v-329q0 -52 6 -71q12 -37 52 -37q23 0 48.5 14t34.5 35v360l128 27v-391q0 -56 31 -93z" />
    <glyph glyph-name="ucircumflex" unicode="&#xfb;" horiz-adv-x="537" 
d="M452 625l-45 -73l-139 76l-135 -76l-45 73l180 135zM499 40l-95 -54q-27 19 -40 50q-51 -49 -135 -49q-49 0 -89 19q-48 23 -62 64q-11 32 -11 102v328l132 25v-329q0 -52 6 -71q12 -37 52 -37q23 0 48.5 14t34.5 35v360l128 27v-391q0 -56 31 -93z" />
    <glyph glyph-name="udieresis" unicode="&#xfc;" horiz-adv-x="537" 
d="M455 635q0 -33 -23.5 -56.5t-56.5 -23.5t-56 23.5t-23 56.5q0 34 23.5 57t57.5 23q33 0 55.5 -23.5t22.5 -56.5zM244 635q0 -33 -23.5 -56.5t-56.5 -23.5t-56 23.5t-23 56.5t24 56.5t57 23.5t55.5 -23.5t22.5 -56.5zM499 40l-95 -54q-27 19 -40 50q-51 -49 -135 -49
q-49 0 -89 19q-48 23 -62 64q-11 32 -11 102v328l132 25v-329q0 -52 6 -71q12 -37 52 -37q23 0 48.5 14t34.5 35v360l128 27v-391q0 -56 31 -93z" />
    <glyph glyph-name="yacute" unicode="&#xfd;" horiz-adv-x="250" 
d="M192 0h-134v503l134 21v-524z" />
    <glyph glyph-name="thorn" unicode="&#xfe;" horiz-adv-x="465" 
d="M437 163q0 -78 -57 -126q-51 -44 -132 -52l-6 -17q72 -7 72 -79q0 -43 -34 -67q-30 -21 -75 -21q-43 0 -87 24l30 63q34 -15 52 -15q25 0 25 18q0 20 -25 20l-27 -6l-13 20l17 61q-77 10 -166 57l48 98q95 -58 170 -58q27 0 47.5 15.5t20.5 42.5q0 49 -79 63l-60 11
q-123 23 -123 144q0 80 60 126q55 41 138 41q85 0 183 -48l-44 -90q-73 37 -126 37q-65 0 -65 -50q0 -35 64 -52l62 -16q130 -34 130 -144z" />
    <glyph glyph-name="ydieresis" unicode="&#xff;" 
d="M455 635q0 -33 -23.5 -56.5t-56.5 -23.5t-56 23.5t-23 56.5q0 34 23.5 57t57.5 23q33 0 55.5 -23.5t22.5 -56.5zM244 635q0 -33 -23.5 -56.5t-56.5 -23.5t-56 23.5t-23 56.5t24 56.5t57 23.5t55.5 -23.5t22.5 -56.5zM509 511l-186 -519q-38 -105 -76 -148
q-51 -56 -146 -68l-46 88q47 13 69 26q31 17 52 50q14 22 29 60h-34l-21 60l-27 84l-121 359l137 16l89 -298q10 -34 27 -106q15 86 36 153l77 243h141z" />
    <glyph glyph-name="dotlessi" unicode="&#x131;" horiz-adv-x="250" 
d="M192 0h-134v503l134 21v-524z" />
    <glyph glyph-name="OE" unicode="&#x152;" horiz-adv-x="835" 
d="M808 0l-413 -1q-107 0 -145 7q-74 14 -128 66q-95 92 -95 277q0 131 56 217q62 96 183 120q46 9 127 9h396l-18 -114h-236v-161h197v-114h-197v-186h273v-120zM403 119v447q-41 10 -75 10q-134 0 -134 -214q0 -110 21 -165q33 -88 124 -88q31 0 64 10z" />
    <glyph glyph-name="oe" unicode="&#x153;" horiz-adv-x="800" 
d="M770 213h-296v-4q0 -124 108 -124q69 0 130 51l52 -80q-87 -71 -193 -71q-98 0 -161 57q-59 -53 -152 -53q-111 0 -173 79q-57 72 -57 186t57 187q62 81 173 81q91 0 150 -53q57 53 146 53q216 0 216 -278v-31zM631 311v6q0 107 -75 107q-80 0 -80 -111v-2h155zM345 259
q0 70 -11 105q-19 59 -74 59q-53 0 -72 -61q-11 -35 -11 -105q0 -76 10 -109q18 -62 75 -62q83 0 83 173z" />
    <glyph glyph-name="Ydieresis" unicode="&#x178;" horiz-adv-x="554" 
d="M482 795q0 -33 -23.5 -56.5t-56.5 -23.5t-56 23.5t-23 56.5q0 34 23.5 57t57.5 23q33 0 55.5 -23.5t22.5 -56.5zM271 795q0 -33 -23.5 -56.5t-56.5 -23.5t-56 23.5t-23 56.5t24 56.5t57 23.5t55.5 -23.5t22.5 -56.5zM578 696l-222 -410v-286h-146v286l-217 411h168
l90 -192q22 -47 35 -89q25 61 37 87l90 193h165z" />
    <glyph glyph-name="florin" unicode="&#x192;" horiz-adv-x="273" 
d="M355 709l-41 -83q-32 17 -51 17q-53 0 -57 -58l-5 -72h118l-32 -94h-90l-27 -385q-8 -118 -37 -163q-21 -33 -108 -91l-62 91q51 40 64 60q16 25 20 79l27 409h-43v94h52q0 14 3 69q4 75 45.5 117t115.5 42q58 0 108 -32z" />
    <glyph glyph-name="circumflex" unicode="&#x2c6;" horiz-adv-x="402" 
d="M383 625l-45 -73l-139 76l-135 -76l-45 73l180 135z" />
    <glyph glyph-name="caron" unicode="&#x2c7;" horiz-adv-x="402" 
d="M365 693q-22 -32 -61 -65q-60 -50 -109 -50q-50 0 -109 50q-37 32 -62 65l36 44q69 -65 139 -65q55 0 135 65z" />
    <glyph glyph-name="macron" unicode="&#xaf;" horiz-adv-x="395" 
d="M354 666h-314v78h314v-78z" />
    <glyph glyph-name="macron" unicode="&#x2c9;" horiz-adv-x="395" 
d="M354 666h-314v78h314v-78z" />
    <glyph glyph-name="breve" unicode="&#x2d8;" horiz-adv-x="402" 
d="M381 689l-180 -135l-184 135l45 73l139 -76l135 76z" />
    <glyph glyph-name="dotaccent" unicode="&#x2d9;" horiz-adv-x="250" 
d="M208 653q0 -35 -24 -59t-59 -24q-34 0 -58 24.5t-24 58.5q0 35 24.5 59t59.5 24t58 -24t23 -59z" />
    <glyph glyph-name="ring" unicode="&#x2da;" horiz-adv-x="315" 
d="M261 659q0 -44 -31 -75t-75 -31t-74 31t-30 75q0 43 31.5 74.5t74.5 31.5q44 0 74 -31t30 -75zM206 659q0 21 -14 36t-35 15q-22 0 -37 -14.5t-15 -36.5q0 -21 14.5 -36t35.5 -15t36 15t15 36z" />
    <glyph glyph-name="ogonek" unicode="&#x2db;" horiz-adv-x="429" 
d="M304 -175q-44 -24 -87 -24q-45 0 -75 21q-34 24 -34 67q0 45 31 91q20 30 42 46l71 -40q-54 -52 -54 -87q0 -26 24 -26q18 0 52 15z" />
    <glyph glyph-name="tilde" unicode="&#x2dc;" horiz-adv-x="393" 
d="M378 644q-53 -66 -124 -66q-26 0 -66.5 20t-64.5 20q-32 0 -66 -36l-43 74q53 66 124 66q26 0 66.5 -20t64.5 -20q32 0 66 36z" />
    <glyph glyph-name="hungarumlaut" unicode="&#x2dd;" horiz-adv-x="496" 
d="M460 723l-147 -196l-72 46l117 213zM233 741l-116 -217l-78 34l83 229z" />
    <glyph glyph-name="mu" unicode="&#xb5;" horiz-adv-x="537" 
d="M499 40l-95 -54q-27 19 -40 50q-51 -49 -135 -49q-19 0 -35 14q2 -21 2 -31v-156l-129 -34v720l132 25v-329q0 -52 6 -71q12 -37 52 -37q23 0 48.5 14t34.5 35v360l128 27v-391q0 -56 31 -93z" />
    <glyph glyph-name="mu" unicode="&#x3bc;" horiz-adv-x="537" 
d="M499 40l-95 -54q-27 19 -40 50q-51 -49 -135 -49q-19 0 -35 14q2 -21 2 -31v-156l-129 -34v720l132 25v-329q0 -52 6 -71q12 -37 52 -37q23 0 48.5 14t34.5 35v360l128 27v-391q0 -56 31 -93z" />
    <glyph glyph-name="endash" unicode="&#x2013;" horiz-adv-x="481" 
d="M484 223h-487v103h487v-103z" />
    <glyph glyph-name="emdash" unicode="&#x2014;" horiz-adv-x="962" 
d="M837 223h-713v103h713v-103z" />
    <glyph glyph-name="quoteleft" unicode="&#x2018;" horiz-adv-x="267" 
d="M227 661q-72 -16 -72 -57q0 -17 26 -32q39 -22 39 -70q0 -36 -25.5 -61t-61.5 -25q-47 0 -75 38q-25 34 -25 82q0 65 39 115t102 66z" />
    <glyph glyph-name="quoteright" unicode="&#x2019;" horiz-adv-x="267" 
d="M229 591q0 -65 -39 -114.5t-102 -65.5l-53 55q72 18 72 57q0 17 -26 32q-39 23 -39 70q0 37 25 61.5t62 24.5q47 0 75 -37q25 -34 25 -83z" />
    <glyph glyph-name="quotesinglbase" unicode="&#x201a;" horiz-adv-x="267" 
d="M227 36q0 -65 -39 -115t-102 -66l-53 56q72 16 72 57q0 17 -26 32q-39 23 -39 70q0 36 25.5 61t61.5 25q47 0 75 -37q25 -34 25 -83z" />
    <glyph glyph-name="quotedblleft" unicode="&#x201c;" horiz-adv-x="489" 
d="M452 662q-71 -17 -71 -57q0 -17 26 -32q39 -23 39 -70q0 -37 -25.5 -61.5t-62.5 -24.5q-47 0 -74 38q-25 33 -25 82q0 65 38.5 115t101.5 66zM227 662q-72 -16 -72 -57q0 -17 26 -32q39 -23 39 -70q0 -37 -25.5 -61.5t-62.5 -24.5q-46 0 -74 38q-25 34 -25 82
q0 65 39 115t102 66z" />
    <glyph glyph-name="quotedblright" unicode="&#x201d;" horiz-adv-x="489" 
d="M454 591q0 -65 -38.5 -114.5t-101.5 -65.5l-53 55q71 18 71 57q0 17 -25 32q-39 23 -39 70q0 37 25 61.5t62 24.5q47 0 74 -38q25 -33 25 -82zM229 591q0 -65 -39 -114.5t-102 -65.5l-53 55q72 18 72 57q0 17 -26 32q-39 23 -39 70q0 37 25 61.5t62 24.5q47 0 75 -37
q25 -34 25 -83z" />
    <glyph glyph-name="quotedblbase" unicode="&#x201e;" horiz-adv-x="486" 
d="M453 36q0 -65 -39 -115t-102 -66l-53 56q71 17 71 57q0 17 -25 32q-39 23 -39 70q0 37 25 61.5t62 24.5q47 0 75 -37q25 -34 25 -83zM227 36q0 -65 -39 -115t-102 -66l-53 56q72 16 72 57q0 17 -26 32q-39 23 -39 70q0 36 25.5 61t61.5 25q47 0 75 -37q25 -34 25 -83z
" />
    <glyph glyph-name="dagger" unicode="&#x2020;" 
d="M477 545l-23 -121h-139v-424h-132v424h-150v121h150v150h132v-150h162z" />
    <glyph glyph-name="daggerdbl" unicode="&#x2021;" 
d="M477 545l-23 -121h-139v-153h150v-121h-150v-150h-132v150h-162l23 121h139v153h-150v121h150v150h132v-150h162z" />
    <glyph glyph-name="bullet" unicode="&#x2022;" 
d="M427 354q0 -74 -51.5 -125.5t-125.5 -51.5t-125.5 51.5t-51.5 125.5t51.5 125.5t125.5 51.5t125.5 -51.5t51.5 -125.5z" />
    <glyph glyph-name="ellipsis" unicode="&#x2026;" horiz-adv-x="748" 
d="M712 73q0 -37 -25.5 -63t-62.5 -26t-62.5 26t-25.5 63q0 36 25.5 61.5t61.5 25.5q37 0 63 -25t26 -62zM462 73q0 -37 -25.5 -63t-62.5 -26t-62.5 26t-25.5 63q0 36 25.5 61.5t61.5 25.5q37 0 63 -25t26 -62zM212 73q0 -37 -25.5 -63t-62.5 -26t-62.5 26t-25.5 63
q0 36 25.5 61.5t61.5 25.5q37 0 63 -25t26 -62z" />
    <glyph glyph-name="perthousand" unicode="&#x2030;" horiz-adv-x="1186" 
d="M1174 164q0 -80 -46 -127t-126 -47q-78 0 -123.5 47t-45.5 125t46 126t123 48q78 0 125 -47t47 -125zM1063 166q0 96 -62 96q-45 0 -55 -48q-4 -19 -4 -49q0 -48 8 -67q13 -33 53 -33q60 0 60 101zM804 164q0 -80 -46 -127t-126 -47q-78 0 -123.5 47t-45.5 125t46 126
t123 48q78 0 125 -47t47 -125zM693 166q0 96 -62 96q-45 0 -55 -48q-4 -19 -4 -49q0 -48 8 -67q13 -33 53 -33q60 0 60 101zM644 695l-364 -695h-95l364 695h95zM365 533q0 -80 -46 -127t-126 -47q-78 0 -123.5 47t-45.5 125t46 126t123 48q78 0 125 -47t47 -125zM254 535
q0 96 -62 96q-45 0 -55 -48q-4 -19 -4 -49q0 -48 8 -67q13 -33 53 -33q60 0 60 101z" />
    <glyph glyph-name="guilsinglleft" unicode="&#x2039;" horiz-adv-x="286" 
d="M227 812q0 -35 -24 -59t-59 -24q-34 0 -58 24.5t-24 58.5q0 35 24.5 59t59.5 24t58 -24t23 -59zM217 0h-146v695h146v-695z" />
    <glyph glyph-name="guilsinglright" unicode="&#x203a;" horiz-adv-x="250" 
d="M192 0h-134v503l134 21v-524z" />
    <glyph glyph-name="fraction" unicode="&#x2044;" horiz-adv-x="606" 
d="M466 832q-17 -26 -52 -55q-51 -43 -93 -43q-43 0 -93 43q-29 25 -52 55l32 37q59 -55 117 -55q45 0 115 55zM570 54q-105 -62 -231 -62q-151 0 -234 102q-77 94 -77 247q0 219 145 316q73 49 169 49q129 0 221 -80l-74 -87q-66 54 -145 54q-97 0 -134 -86
q-25 -59 -25 -173q0 -109 27 -163q38 -74 134 -74q46 0 79 17v158h-106l-18 114h269v-332z" />
    <glyph glyph-name="trademark" unicode="&#x2122;" horiz-adv-x="1000" 
d="M960 296h-108v268h-2l-98 -268h-70l-98 268h-2v-268h-108v412h145l98 -268l98 268h145v-412zM386 612h-119v-316h-108v316h-119v96h346v-96z" />
    <glyph glyph-name="minus" unicode="&#xad;" horiz-adv-x="666" 
d="M607 240h-548v126h548v-126z" />
    <glyph glyph-name="minus" unicode="&#x2212;" horiz-adv-x="666" 
d="M607 240h-548v126h548v-126z" />
    <glyph glyph-name="periodcentered" unicode="&#xb7;" horiz-adv-x="304" 
d="M243 273q0 -37 -26.5 -62.5t-63.5 -25.5t-62.5 26t-25.5 63t26.5 63.5t63.5 26.5q38 0 63 -26.5t25 -64.5z" />
    <glyph glyph-name="periodcentered" unicode="&#x2219;" horiz-adv-x="304" 
d="M243 273q0 -37 -26.5 -62.5t-63.5 -25.5t-62.5 26t-25.5 63t26.5 63.5t63.5 26.5q38 0 63 -26.5t25 -64.5z" />
    <glyph glyph-name="approxequal" unicode="&#x2248;" horiz-adv-x="574" 
d="M639 717l-43 -83q-19 9 -45 9q-56 0 -56 -58v-72h123l-34 -94h-85v-419h-131v419h-168v-419h-131v419h-46v94h49q0 12 -2.5 34.5t-2.5 34.5q0 77 43.5 118t121.5 41q64 0 121 -32l-43 -83q-35 17 -55 17q-56 0 -56 -58v-72h169q0 12 -2.5 34.5t-2.5 34.5q0 77 43.5 118
t121.5 41q69 0 111 -24z" />
    <glyph glyph-name="approxequal" unicode="&#x22f2;" horiz-adv-x="574" 
d="M639 717l-43 -83q-19 9 -45 9q-56 0 -56 -58v-72h123l-34 -94h-85v-419h-131v419h-168v-419h-131v419h-46v94h49q0 12 -2.5 34.5t-2.5 34.5q0 77 43.5 118t121.5 41q64 0 121 -32l-43 -83q-35 17 -55 17q-56 0 -56 -58v-72h169q0 12 -2.5 34.5t-2.5 34.5q0 77 43.5 118
t121.5 41q69 0 111 -24z" />
    <glyph glyph-name="notequal" unicode="&#x2260;" horiz-adv-x="666" 
d="M607 144h-315l-91 -153l-80 49l33 55q11 18 38 49h-133v126h208l37 66h-245v126h315l91 153l80 -49l-33 -55q-11 -18 -38 -49h133v-126h-208l-37 -66h245v-126z" />
    <glyph glyph-name="lozenge" unicode="&#x25ca;" horiz-adv-x="874" 
d="M878 2q-36 -14 -80 -14q-93 0 -119 70q-12 32 -12 115v382q0 90 -7 154l137 31q7 -39 7 -133v-399q0 -77 0 -75q5 -53 36 -53q8 0 15 2zM639 717l-43 -83q-19 9 -45 9q-56 0 -56 -58v-72h123l-34 -94h-85v-419h-131v419h-168v-419h-131v419h-46v94h49q0 12 -2.5 34.5
t-2.5 34.5q0 77 43.5 118t121.5 41q64 0 121 -32l-43 -83q-35 17 -55 17q-56 0 -56 -58v-72h169q0 12 -2.5 34.5t-2.5 34.5q0 77 43.5 118t121.5 41q69 0 111 -24z" />
    <glyph glyph-name="fi" unicode="&#xf001;" horiz-adv-x="572" 
d="M535 219q0 -102 -72 -165q-66 -57 -172 -67l-7 -19q72 -7 72 -79q0 -43 -34 -67q-30 -21 -75 -21q-43 0 -87 24l30 63q34 -15 52 -15q25 0 25 18q0 20 -25 20l-27 -6l-13 20l16 61q-113 8 -207 62l52 109q107 -56 191 -56q122 0 122 95q0 65 -91 90l-77 21
q-166 45 -166 194q0 101 76 160q69 55 173 55q135 0 232 -70l-66 -100q-88 53 -162 53q-40 0 -67 -20q-30 -22 -30 -60q0 -49 77 -70l84 -23q176 -48 176 -207z" />
    <glyph glyph-name="fl" unicode="&#xf002;" horiz-adv-x="465" 
d="M437 163q0 -78 -57 -126q-51 -44 -132 -52l-6 -17q72 -7 72 -79q0 -43 -34 -67q-30 -21 -75 -21q-43 0 -87 24l30 63q34 -15 52 -15q25 0 25 18q0 20 -25 20l-27 -6l-13 20l17 61q-77 10 -166 57l48 98q95 -58 170 -58q27 0 47.5 15.5t20.5 42.5q0 49 -79 63l-60 11
q-123 23 -123 144q0 80 60 126q55 41 138 41q85 0 183 -48l-44 -90q-73 37 -126 37q-65 0 -65 -50q0 -35 64 -52l62 -16q130 -34 130 -144z" />
    <glyph glyph-name="nonbreakingspace" unicode="&#xa0;" horiz-adv-x="333" 
 />
    <glyph glyph-name="glyph221" horiz-adv-x="333" 
 />
    <glyph glyph-name="glyph222" horiz-adv-x="333" 
 />
    <glyph glyph-name="glyph216" horiz-adv-x="280" 
 />
    <glyph glyph-name="apple" unicode="&#xf000;" horiz-adv-x="1000" 
d="M925 -165l-640 -35l-5 95l-150 -15l-80 895l505 35l200 -120l10 -100l110 15zM665 690l-85 55l10 -80zM765 -25l-55 680l-145 -60l-30 160l-425 -30l75 -780zM600 232l-46 -4l-21 242h-2l-73 -250l-31 -3l-117 234h-1l21 -242l-46 -4l-25 288l73 6l105 -211l66 226l72 6z
" />
  </font>
</defs>
</svg>
