<?xml version="1.0" standalone="no"?>
<!DOCTYPE svg PUBLIC "-//W3C//DTD SVG 1.1//EN" "http://www.w3.org/Graphics/SVG/1.1/DTD/svg11.dtd" >
<svg xmlns="http://www.w3.org/2000/svg">
<metadata>
This is a custom SVG webfont generated by Font Squirrel.
Copyright   : 1991 Erik Spiekermann published by Fontshop International for the FontFont library
</metadata>
<defs>
<font id="MetaItalic" horiz-adv-x="1150" >
<font-face units-per-em="2048" ascent="1638" descent="-410" />
<missing-glyph horiz-adv-x="460" />
<glyph unicode=" "  horiz-adv-x="460" />
<glyph unicode="&#x09;" horiz-adv-x="460" />
<glyph unicode="&#xa0;" horiz-adv-x="460" />
<glyph unicode="!" horiz-adv-x="606" d="M78 120.5q0 57.5 40 96.5t97 39q55 0 95 -39t40 -94q0 -59 -40 -100t-97 -41t-96 40.5t-39 98zM201 418l166 987l239 33l-260 -1020h-145z" />
<glyph unicode="&#x22;" horiz-adv-x="669" d="M72 936l108 514h176l-108 -514h-176zM418 936l108 514h176l-108 -514h-176z" />
<glyph unicode="#" horiz-adv-x="1144" d="M72 430v148h229l98 296h-178v150h228l145 426h151l-143 -426h244l143 426h154l-144 -426h181v-150h-228l-100 -296h178v-148h-229l-144 -430h-153l143 430h-244l-143 -430h-154l146 430h-180zM455 578h243l101 296h-244z" />
<glyph unicode="$" horiz-adv-x="1116" d="M-10 88l100 154q158 -100 326 -107l110 522l-57 23q-127 49 -185.5 126t-58.5 202q0 172 132 291.5t337 140.5l35 166h127l-35 -164q203 -16 338 -125l-108 -143q-129 96 -265 104l-98 -457l72 -28q246 -96 246 -347q0 -180 -134.5 -311t-363.5 -158l-39 -186h-127 l39 180q-221 6 -391 117zM442 1059q0 -68 28 -110t101 -79l86 402q-96 -18 -155.5 -76.5t-59.5 -136.5zM545 147q111 25 174 93.5t63 165.5q0 74 -29.5 119.5t-109.5 84.5z" />
<glyph unicode="%" horiz-adv-x="1724" d="M188 977q0 195 118 321.5t298 126.5q131 0 203 -69.5t72 -179.5q0 -201 -117 -327t-305 -126q-125 0 -197 64.5t-72 189.5zM336 0l1001 1409h156l-999 -1409h-158zM350 975q0 -129 139 -129q106 0 167 91t61 228.5t-139 137.5q-113 0 -170.5 -90.5t-57.5 -237.5zM940 233 q0 193 119 321t299 128q131 0 201.5 -68.5t70.5 -181.5q0 -201 -116.5 -326.5t-305.5 -125.5q-125 0 -196.5 64t-71.5 189zM1102 233q0 -131 139 -131q109 0 169 91.5t60 228.5t-139 137q-113 0 -171 -89.5t-58 -236.5z" />
<glyph unicode="&#x26;" horiz-adv-x="1396" d="M80 285q0 272 360 424q-121 127 -121 258q0 156 126 269.5t323 113.5q143 0 232.5 -71t89.5 -181q0 -219 -259 -350l-108 -56l242 -299q53 66 98 293h164q-55 -266 -168 -422l215 -264h-250l-98 123q-168 -154 -428 -154q-195 0 -306.5 85.5t-111.5 230.5zM289 309 q0 -84 63.5 -139t177.5 -55q190 0 312 116l-310 373q-127 -55 -185 -125t-58 -170zM522 1024q0 -66 20.5 -108t90.5 -119q158 68 213 147q45 66 45 133q0 61 -42 98t-108 37q-78 0 -148.5 -54t-70.5 -134z" />
<glyph unicode="'" horiz-adv-x="528" d="M274 936l109 514h176l-108 -514h-177z" />
<glyph unicode="(" horiz-adv-x="655" d="M166 248q0 184 47 409q53 252 137 422t213 291q158 147 336 213l33 -113q-129 -70 -205 -133t-131 -149q-109 -166 -188 -520q-55 -250 -56 -428q0 -166 48.5 -275.5t162.5 -185.5l-69 -105q-154 72 -241 220.5t-87 353.5z" />
<glyph unicode=")" horiz-adv-x="653" d="M-213 -203q127 70 204 133.5t132 149.5q119 180 188 520q55 266 55.5 430t-48 274.5t-162.5 184.5l69 98q154 -72 240 -219t86 -354q0 -188 -45 -410q-100 -471 -350 -713q-154 -147 -338 -213z" />
<glyph unicode="*" horiz-adv-x="940" d="M207 1110l45 139l287 -98v299h143v-299l285 96l45 -139l-283 -94l178 -242l-116 -90l-183 248l-174 -246l-119 90l177 240z" />
<glyph unicode="+" horiz-adv-x="1130" d="M84 453l39 174h375l80 383h188l-82 -383h377l-39 -174h-375l-82 -383h-186l82 383h-377z" />
<glyph unicode="," horiz-adv-x="571" d="M-35 -203q61 27 110.5 77t55.5 103q-41 4 -69.5 45t-28.5 93q0 70 46 113.5t114 43.5q70 0 114.5 -47t44.5 -125q0 -154 -168 -301q-53 -47 -161 -96z" />
<glyph unicode="-" horiz-adv-x="688" d="M131 463l39 174h416l-37 -174h-418z" />
<glyph unicode="." horiz-adv-x="567" d="M57 122.5q0 61.5 42 104.5t104 43q63 0 107 -43t44 -104.5t-45 -106.5t-104 -45q-61 0 -104.5 45t-43.5 106.5z" />
<glyph unicode="/" horiz-adv-x="827" d="M-94 -307l930 1861h151l-930 -1861h-151z" />
<glyph unicode="0" horiz-adv-x="1191" d="M117 340q0 147 56 302t151 249q158 158 389 158q180 0 275 -98.5t95 -280.5q0 -156 -63.5 -315.5t-167.5 -250.5q-156 -137 -369 -137q-180 0 -273 96.5t-93 276.5zM315 336q0 -115 50.5 -166t152.5 -51q131 0 211 86q72 76 113 210t41 271q0 111 -50.5 162t-152.5 51 q-131 0 -217 -96q-66 -74 -107 -213t-41 -254z" />
<glyph unicode="1" horiz-adv-x="882" d="M113 0l34 154h197l141 667q-168 -96 -292 -141l-27 119l414 248h141l-191 -893h187l-33 -154h-571z" />
<glyph unicode="2" horiz-adv-x="1107" d="M35 0l35 160q12 6 101 64.5t221 148.5t222 157q156 117 156 226q0 145 -172 145q-131 0 -336 -143l-72 114q260 195 492 195q143 0 229 -72.5t86 -185.5q0 -178 -186 -326q-141 -113 -330 -225l-182 -111q98 8 217 9h393l-73 -156h-801z" />
<glyph unicode="3" horiz-adv-x="1071" d="M-68 -229q57 -8 117 -9q299 0 453 115q72 55 117 131t45 148q0 63 -31 111t-88.5 66.5t-220.5 18.5h-43l30 144q12 -2 49 -2q193 0 252 26q70 31 109 96.5t39 133.5q0 72 -49 111.5t-140 39.5q-154 0 -346 -125l-67 113q252 170 477 170q150 0 243 -78t93 -197 q0 -125 -84 -226t-223 -142q100 -18 157.5 -93t57.5 -167q0 -221 -221.5 -376t-589.5 -155q-68 0 -119 8z" />
<glyph unicode="4" horiz-adv-x="1099" d="M-29 0l29 141l647 912h205l-524 -742q-100 -143 -125 -161q2 0 12 1t26.5 2t30.5 1h342q12 51 13 53q10 53 51 194l80 275l157 41l-86 -400l-24 -110l-14 -55q41 4 69 4h96l-34 -156h-107l-57 2q-2 -31 -8 -63l-64 -299l-192 -43l69 331l19 74q-49 -2 -80 -2h-531z" />
<glyph unicode="5" horiz-adv-x="985" d="M-80 -215q70 -29 156 -29q188 0 331.5 100.5t170.5 252.5q20 117 -43.5 185t-192.5 68q-154 0 -274 -43l217 709h628l-63 -162h-430l-115 -368q88 10 135 10q176 0 275.5 -107.5t72.5 -277.5q-37 -227 -239.5 -364.5t-474.5 -137.5q-68 0 -148 19z" />
<glyph unicode="6" horiz-adv-x="1157" d="M106 385q0 188 89.5 372.5t259.5 338.5q264 242 622 338l19 -140q-352 -102 -541 -319q-88 -100 -154 -240q125 96 301 96q141 0 238.5 -93t97.5 -242q0 -227 -159.5 -377t-386.5 -150q-178 0 -282 114t-104 302zM311 362q0 -111 57.5 -178t151.5 -67q133 0 220 101 t87 259q0 102 -51 154.5t-139 52.5q-127 0 -283 -98q-43 -120 -43 -224z" />
<glyph unicode="7" horiz-adv-x="976" d="M-2 -387q111 309 375 687t461 564q-18 -6 -164 -6h-533l68 164h835l-34 -176q-29 -33 -96.5 -115t-180.5 -228.5t-186 -254.5q-213 -319 -307 -578z" />
<glyph unicode="8" horiz-adv-x="1175" d="M80 285q0 152 100.5 259t259.5 165q-170 86 -170 247q0 180 144.5 296t376.5 116q162 0 256 -75.5t94 -190.5q0 -121 -91.5 -220.5t-254.5 -160.5q47 -16 94 -47q72 -37 113.5 -105.5t41.5 -146.5q0 -188 -154.5 -323.5t-408.5 -135.5q-190 0 -295.5 88.5t-105.5 233.5z M281 301q0 -90 62.5 -143.5t174.5 -53.5q152 0 238 82t86 199q0 76 -52.5 124t-230.5 132q-127 -49 -202.5 -136t-75.5 -204zM463 999q0 -68 45 -111.5t164 -99.5q274 119 274 299q0 66 -54 105t-149 39q-125 0 -202.5 -63t-77.5 -169z" />
<glyph unicode="9" horiz-adv-x="1130" d="M-63 -301q254 51 473 206.5t301 344.5q-125 -90 -285 -90q-139 0 -232.5 103.5t-93.5 256.5q0 231 163 385t388 154q176 0 278.5 -109.5t102.5 -296.5q0 -195 -91 -389t-265 -352q-141 -127 -316.5 -213t-347.5 -121zM313 537q0 -109 49.5 -169.5t137.5 -60.5 q125 0 268 101q57 147 57 257.5t-56 178t-151 67.5q-133 0 -219 -105t-86 -269z" />
<glyph unicode=":" horiz-adv-x="602" d="M76 123q0 59 42 102t103 43q63 0 106.5 -43t43.5 -102q0 -63 -44 -107.5t-104 -44.5q-63 0 -105 44.5t-42 107.5zM211 760q0 61 42 103t103 42q63 0 106.5 -42t43.5 -103q0 -63 -44 -106.5t-104 -43.5q-63 0 -105 43.5t-42 106.5z" />
<glyph unicode=";" horiz-adv-x="636" d="M6 -203q61 27 110.5 77t55.5 103q-41 4 -69.5 45t-28.5 93q0 70 46 113.5t113 43.5q70 0 115 -47t45 -125q0 -154 -168 -301q-53 -47 -162 -96zM213 760q0 61 43 103t104.5 42t104.5 -42t43 -103q0 -63 -43 -106.5t-104.5 -43.5t-104.5 43.5t-43 106.5z" />
<glyph unicode="&#x3c;" horiz-adv-x="673" d="M59 614l535 553l139 -120l-436 -449l231 -432l-170 -107z" />
<glyph unicode="=" horiz-adv-x="1280" d="M76 365l35 165h1081l-35 -165h-1081zM147 711l37 166h1082l-35 -166h-1084z" />
<glyph unicode="&#x3e;" horiz-adv-x="675" d="M0 180l436 449l-231 432l170 106l299 -555l-535 -553z" />
<glyph unicode="?" horiz-adv-x="892" d="M209 116.5q0 57.5 39 97.5t96 40t97 -40t40 -95q0 -57 -40 -98t-97 -41t-96 39.5t-39 97zM252 1296q190 133 383 134q147 0 227 -72t80 -193q0 -199 -256 -360q-115 -74 -161 -158t-48 -198h-162q-10 295 244 452q186 117 186 221q0 70 -41.5 107t-115.5 37 q-119 0 -275 -97z" />
<glyph unicode="@" horiz-adv-x="1875" d="M121 420q0 367 231.5 613.5t595.5 246.5q350 0 581.5 -197.5t231.5 -517.5q0 -264 -135 -429t-330 -165q-113 0 -171 50.5t-64 128.5q-57 -68 -138 -111t-169 -43q-100 0 -174 77t-74 220q0 262 148.5 448.5t412.5 186.5q139 0 276 -74q-41 -137 -129 -551 q-23 -119 -3 -156.5t92 -37.5q111 0 194.5 132t83.5 324q0 244 -177 411t-456 167q-193 0 -343 -104.5t-226 -267.5t-76 -351q0 -270 174 -443.5t434 -173.5q160 0 295 45l37 -139q-143 -47 -332 -47q-338 0 -564 202t-226 556zM686 285q0 -78 27.5 -109t83.5 -31 q74 0 154.5 71t107.5 196l80 366q-31 14 -86 15q-121 0 -208 -82t-123 -192.5t-36 -233.5z" />
<glyph unicode="A" d="M-113 0l770 1411h242l160 -1411h-211l-37 408h-498l-213 -408h-213zM399 571h396l-35 351q-25 252 -25 301q-2 -2 -17.5 -35t-39.5 -82l-41 -82z" />
<glyph unicode="B" horiz-adv-x="1200" d="M72 0l299 1409h399q416 0 416 -307q0 -127 -80 -220.5t-236 -133.5q117 -23 175.5 -102t58.5 -193q0 -186 -168 -330q-82 -70 -180.5 -96.5t-282.5 -26.5h-401zM299 162h254q141 0 227 65q47 35 78 98q29 59 29 119q0 107 -58 158q-55 49 -194 49h-232zM438 815h232 q137 0 204 55q92 72 93 195q0 88 -53.5 133t-176.5 45h-209z" />
<glyph unicode="C" horiz-adv-x="1110" d="M113 483q0 176 65.5 363.5t179.5 324.5q104 123 245.5 192t287.5 69q205 0 326 -117l-113 -125q-94 82 -238 82q-221 0 -368 -211q-78 -113 -126 -281t-48 -305q0 -162 79.5 -249t233.5 -87q141 0 285 92l73 -135q-197 -119 -420 -119q-217 0 -339.5 135t-122.5 371z" />
<glyph unicode="D" horiz-adv-x="1275" d="M72 0l299 1409h309q166 0 257 -24.5t165 -92.5q131 -119 131 -393q0 -182 -83 -394t-202 -325q-104 -98 -222 -139t-294 -41h-360zM307 164h148q258 0 368 145q94 123 145.5 290t51.5 286q0 168 -51 250q-43 68 -103.5 91t-169.5 23h-159z" />
<glyph unicode="E" horiz-adv-x="1019" d="M72 0l299 1409h780l-64 -162h-550l-91 -428h463l-37 -168h-462l-101 -481h598l-37 -170h-798z" />
<glyph unicode="F" horiz-adv-x="872" d="M72 0l299 1409h749l-65 -162h-518l-91 -426h428l-34 -162h-428l-140 -659h-200z" />
<glyph unicode="G" horiz-adv-x="1308" d="M135 475q0 215 81 420t220 338q201 193 482 192q229 0 366 -141l-108 -121q-121 102 -289 103q-186 0 -316 -142q-98 -109 -158.5 -300t-60.5 -353t87 -249t235 -87q121 0 217 49l86 402h-264v164h491l-141 -664q-193 -111 -438 -111q-227 0 -358.5 139.5t-131.5 360.5z " />
<glyph unicode="H" horiz-adv-x="1288" d="M72 0l299 1409h194l-123 -578h547l123 578h199l-299 -1409h-201l143 668h-544l-144 -668h-194z" />
<glyph unicode="I" horiz-adv-x="546" d="M72 0l299 1409h198l-301 -1409h-196z" />
<glyph unicode="J" horiz-adv-x="550" d="M-164 -166q125 51 199 148q49 63 90 256l248 1171h200l-247 -1159q-47 -215 -109 -311q-92 -147 -309 -222z" />
<glyph unicode="K" horiz-adv-x="1148" d="M72 0l299 1409h200l-299 -1409h-200zM434 748l684 696l187 -70l-650 -637l392 -719l-226 -41z" />
<glyph unicode="L" horiz-adv-x="931" d="M72 0l299 1409h200l-264 -1243h543l-66 -166h-712z" />
<glyph unicode="M" horiz-adv-x="1656" d="M31 0l426 1409h276l53 -864q5 -78 5 -146q0 -51 -3 -96q53 135 101 232l432 874h278l-178 -1409h-194l129 961q20 143 41 239q-33 -80 -101 -221l-491 -979h-168l-59 934q-11 162 -11 243v25q-2 -6 -29.5 -112.5t-41.5 -155.5l-271 -934h-194z" />
<glyph unicode="N" horiz-adv-x="1296" d="M72 0l299 1409h225l246 -813q55 -188 67 -324q39 258 72 420l145 717h193l-299 -1409h-207l-231 780q-76 250 -93 369q-16 -139 -63 -387l-154 -762h-200z" />
<glyph unicode="O" horiz-adv-x="1388" d="M137 475q0 238 86 451t215 336q94 86 198.5 129t256.5 43q213 0 331.5 -128t118.5 -358q0 -264 -98 -503.5t-274 -358.5q-164 -111 -383 -111q-225 0 -338 133.5t-113 366.5zM352 436q0 -309 275 -309q162 0 272 117q96 102 161.5 323t65.5 408q0 301 -268 301 q-201 0 -313 -154q-86 -117 -139.5 -304t-53.5 -382z" />
<glyph unicode="P" horiz-adv-x="1124" d="M72 0l299 1409h368q225 0 330 -78q119 -90 119 -248q0 -283 -230 -444q-125 -88 -352 -88h-221l-117 -551h-196zM420 713h211q150 0 229 73q113 106 113 254q0 104 -60.5 154.5t-201.5 50.5h-179z" />
<glyph unicode="Q" horiz-adv-x="1390" d="M139 475q0 238 84 448t217 339q178 172 455 172q213 0 332 -128t119 -358q0 -252 -89.5 -482t-244.5 -353q-84 -66 -150 -93q55 -20 150 -81q86 -57 198 -58q72 0 97 10l-62 -129q-45 -20 -125 -20q-98 0 -272 106q-166 102 -266 127q-219 2 -331 134.5t-112 365.5z M354 436q0 -309 275 -309q162 0 272 117q98 100 162.5 321t64.5 410q0 301 -268 301q-201 0 -313 -154q-82 -111 -137.5 -314.5t-55.5 -371.5z" />
<glyph unicode="R" horiz-adv-x="1105" d="M72 0l301 1409h362q213 0 314.5 -80t101.5 -244q0 -201 -137 -328.5t-328 -127.5q88 -84 178 -262q31 -61 79 -181t63 -168l-197 -36q-8 18 -30.5 70t-42 99.5t-34.5 84.5q-84 205 -176 323q-29 39 -53 50.5t-70 13.5l-133 -623h-198zM434 756h133q178 0 260 65 q113 94 113 228q0 104 -58.5 150t-187.5 46h-157z" />
<glyph unicode="S" horiz-adv-x="1155" d="M10 88l101 154q164 -106 344 -107q158 0 253 76t95 195q0 84 -38 133t-142 90l-134 51q-127 49 -185 126t-58 202q0 188 155.5 312t384.5 124q238 0 394 -127l-109 -143q-143 106 -311 106q-129 0 -213 -63.5t-84 -157.5q0 -78 34.5 -122t131.5 -83l151 -61 q131 -53 188.5 -136.5t57.5 -210.5q0 -203 -166 -339t-440 -136q-230 0 -410 117z" />
<glyph unicode="T" horiz-adv-x="940" d="M197 1243l36 166h955l-55 -166h-371l-264 -1243h-195l264 1243h-370z" />
<glyph unicode="U" horiz-adv-x="1286" d="M141 279q0 94 19 176l202 954h199l-192 -907q-25 -119 -25 -205q0 -72 60.5 -113t166.5 -41q168 0 265 111q53 59 84 209l200 946h199l-207 -971q-33 -154 -67.5 -226.5t-110.5 -127.5q-150 -109 -387 -109q-186 0 -296 77t-110 227z" />
<glyph unicode="V" horiz-adv-x="1169" d="M207 1409h207l98 -860q15 -137 15 -249q0 -25 -1 -48q53 115 148 291l469 866h213l-785 -1411h-190z" />
<glyph unicode="W" horiz-adv-x="1634" d="M207 1409h205l4 -754v-22q0 -122 -19 -420q82 221 168 422l336 774h221l4 -770q0 -332 -10 -420q57 162 176 445l318 745h211l-629 -1411h-244l-6 729v44q0 196 16 370q-84 -223 -159 -404l-316 -739h-241z" />
<glyph unicode="X" horiz-adv-x="1005" d="M-135 0l596 758l-248 651h223l168 -481l346 481h242l-512 -672l291 -737h-230l-209 575l-421 -575h-246z" />
<glyph unicode="Y" horiz-adv-x="1091" d="M186 1409h234l137 -498q31 -113 37 -163q86 127 111 161l356 500h237l-636 -852l-119 -557h-207l121 565z" />
<glyph unicode="Z" horiz-adv-x="1050" d="M-2 0v143l797 971q82 98 116 133q-57 -4 -145 -4h-500l68 166h815v-137l-787 -983q-23 -29 -60.5 -70t-47.5 -55q74 4 125 4h534l-65 -168h-850z" />
<glyph unicode="[" horiz-adv-x="577" d="M4 -319l387 1818h363l-31 -139h-188l-328 -1540h188l-28 -139h-363z" />
<glyph unicode="\" horiz-adv-x="835" d="M240 1497l172 35l278 -1579l-170 -39z" />
<glyph unicode="]" horiz-adv-x="577" d="M-129 -319l31 139h188l328 1540h-189l29 139h363l-388 -1818h-362z" />
<glyph unicode="^" horiz-adv-x="1265" d="M133 598l615 852h167l254 -852h-186l-192 657l-472 -657h-186z" />
<glyph unicode="_" horiz-adv-x="1001" d="M-168 -260l23 106h1024l-23 -106h-1024z" />
<glyph unicode="`" horiz-adv-x="641" d="M233 1358l101 172l418 -268l-66 -109z" />
<glyph unicode="a" horiz-adv-x="1064" d="M74 305q0 162 57 320.5t158 259.5q170 170 409 170q182 0 303 -82q-35 -115 -57 -225l-88 -414q-16 -83 -16 -131q0 -20 3 -33q9 -47 50 -90l-154 -117q-76 72 -76 182q0 8 1 17q-117 -182 -336 -182q-113 0 -183.5 82.5t-70.5 242.5zM268 307q0 -172 131 -172 q76 0 154 64.5t125 160.5l110 519q-45 25 -110 24q-84 0 -146.5 -29.5t-123.5 -103.5q-70 -82 -105 -211t-35 -252z" />
<glyph unicode="b" horiz-adv-x="1146" d="M88 94q23 70 39 152l188 891q24 116 24 200q0 60 -11 105l198 71q12 -44 13 -107q0 -93 -27 -226l-29 -146q-6 -39 -47 -176q61 84 157.5 138.5t194.5 54.5q276 0 277 -342q0 -184 -68.5 -346t-185.5 -265q-137 -123 -324 -123q-254 0 -399 119zM301 184q66 -57 197 -57 q53 0 113.5 33t95.5 76q68 84 109.5 222t41.5 249q0 178 -145 178q-152 0 -307 -211z" />
<glyph unicode="c" horiz-adv-x="899" d="M96 326q0 174 78 346t186 264q139 119 316 119q156 0 254 -97l-96 -137q-82 74 -195 74q-121 0 -195 -100q-55 -74 -99 -212.5t-44 -254.5q0 -205 176 -205q119 0 240 108l71 -118q-168 -137 -350 -138q-342 1 -342 351z" />
<glyph unicode="d" horiz-adv-x="1138" d="M98 332q0 158 59.5 308.5t168.5 258.5q72 72 167 110t183 38q143 0 213 -37q0 2 6 28.5t14.5 66.5t12.5 56l69 340l185 -31l-242 -1126q-24 -125 -24 -182v-18q5 -52 38 -99l-162 -78q-60 66 -60 164q0 12 1 25q-137 -174 -334 -174q-295 0 -295 350zM297 326 q0 -186 139 -187q82 0 166 55.5t146 161.5l104 492q-72 43 -182 43q-55 0 -115.5 -28.5t-103.5 -76.5q-63 -74 -108.5 -210.5t-45.5 -249.5z" />
<glyph unicode="e" horiz-adv-x="1024" d="M100 348q0 154 60.5 307.5t167.5 255.5q150 143 342 144q147 0 228 -71t81 -200q0 -127 -94 -215q-129 -123 -439 -123q-25 0 -68.5 3.5t-58.5 3.5q-14 -61 -14 -119q0 -98 55.5 -152.5t141.5 -54.5q162 0 297 115l67 -117q-86 -78 -181 -114t-234 -36 q-158 0 -254.5 99.5t-96.5 273.5zM350 592q45 -4 99 -4q217 0 290 74q49 49 49 114q0 133 -145 133q-94 0 -175 -83.5t-118 -233.5z" />
<glyph unicode="f" horiz-adv-x="573" d="M-55 -342q100 131 139 332l176 899h-104l26 139h103q23 113 26 137q39 195 166 277q78 49 199 49q131 0 209 -53l-74 -133q-66 43 -141 43q-63 0 -108.5 -43t-59.5 -121l-29 -156h279l-82 -139h-221l-181 -909q-51 -264 -184 -414z" />
<glyph unicode="g" horiz-adv-x="1142" d="M-31 -334l68 144q141 -82 309 -82q145 0 221 52t107 183q35 158 41 170q-125 -154 -326 -153q-139 0 -215 90t-76 258q0 162 65.5 320.5t170.5 254.5q166 154 389 154q211 0 360 -86q-31 -88 -55 -199l-100 -481q-12 -61 -33 -172t-29 -144q-51 -215 -183 -308t-353 -93 q-185 0 -361 92zM301 334q0 -199 152 -199q174 0 301 219l110 512q-57 29 -155 29q-143 0 -242 -100q-68 -70 -117 -210t-49 -251z" />
<glyph unicode="h" horiz-adv-x="1146" d="M72 0l241 1133q26 117 26 202q0 62 -13 107l198 71q14 -45 14 -111q0 -101 -32 -251l-27 -125q-18 -86 -47 -174q78 98 183.5 148.5t203.5 50.5q104 0 163.5 -54.5t59.5 -140.5q0 -33 -18 -125l-156 -731h-184l145 692q14 66 15 96q0 100 -105 101q-68 0 -163 -60.5 t-173 -156.5l-143 -672h-188z" />
<glyph unicode="i" horiz-adv-x="542" d="M72 0l217 1020l203 31l-224 -1051h-196zM319 1335.5q0 57.5 40 97.5t97.5 40t96.5 -40t39 -97.5t-39 -96.5t-96.5 -39t-97.5 39t-40 96.5z" />
<glyph unicode="j" horiz-adv-x="530" d="M-147 -297q100 41 145 111q45 68 78 217l209 985l196 37l-217 -1026q-41 -201 -127 -299q-78 -90 -219 -146zM311 1346q0 59 40 100t98 41q55 0 95 -41t40 -96q0 -57 -39 -97.5t-96.5 -40.5t-97.5 39.5t-40 94.5z" />
<glyph unicode="k" horiz-adv-x="966" d="M72 0l241 1139q26 119 26 201q0 60 -13 102l198 71q14 -47 14 -114q0 -99 -30 -240l-248 -1159h-188zM393 592l481 467l170 -68l-446 -411l330 -555l-201 -48z" />
<glyph unicode="l" horiz-adv-x="538" d="M102 117q0 43 17 114l190 906q25 121 25 204q0 60 -12 101l200 71q14 -47 14 -115q0 -100 -30 -245l-189 -877q-16 -72 -16 -106q0 -51 47 -51q27 0 37 4l10 -121q-59 -25 -137 -25q-76 0 -116 37t-40 103z" />
<glyph unicode="m" horiz-adv-x="1636" d="M72 0l153 727q18 89 18 157q0 55 -12 97l177 78q25 -55 24 -121q0 -43 -10 -90q178 203 366 203q174 0 179 -201q182 203 370 203q90 0 142.5 -57.5t52.5 -145.5q0 -39 -16 -125l-154 -725h-191l150 707q12 55 12 96q0 84 -92 84q-57 0 -138 -59.5t-157 -153.5l-143 -674 h-187l148 692q18 82 18 115q0 80 -77 80q-59 0 -144.5 -58.5t-165.5 -158.5l-141 -670h-182z" />
<glyph unicode="n" horiz-adv-x="1118" d="M72 0l155 723q18 87 18 156q0 57 -12 102l177 78q24 -65 23 -130q0 -41 -9 -81q160 203 385 203q94 0 149.5 -55.5t55.5 -149.5q0 -39 -10 -86l-162 -760h-189l146 688q16 78 16 107q0 92 -92 92q-66 0 -151 -53.5t-173 -163.5l-141 -670h-186z" />
<glyph unicode="o" horiz-adv-x="1085" d="M84 344q0 303 164 507t414 204q174 0 264 -97.5t90 -269.5q0 -301 -160 -507t-420 -206q-168 0 -260 96.5t-92 272.5zM289 330q0 -205 182 -205q106 0 185 86t116 215t37 276q0 203 -180 203q-104 0 -183 -85t-118 -214t-39 -276z" />
<glyph unicode="p" horiz-adv-x="1136" d="M-20 -432l247 1161q17 83 18 149q0 58 -14 103l177 78q25 -56 25 -127q0 -37 -7 -78q74 94 171 144.5t189 50.5q131 0 200 -89.5t69 -242.5q0 -143 -52.5 -306t-134.5 -257q-156 -178 -372 -179q-143 0 -234 50l-88 -416zM297 184q68 -57 192 -57q68 0 131.5 36t100.5 89 q55 80 92 214t37 241q0 94 -34 135t-103 41q-72 0 -155 -54.5t-157 -154.5z" />
<glyph unicode="q" horiz-adv-x="1134" d="M98 324q0 164 62.5 322.5t163.5 252.5q170 158 403 158q217 0 350 -88q-33 -90 -61 -228l-240 -1124l-188 -43l82 383q33 160 43 182q-131 -160 -336 -159q-135 0 -207 88t-72 256zM299 334q2 -199 147 -199q174 0 306 221l108 516q-49 27 -160 27q-127 0 -233 -96 q-72 -66 -120 -211t-48 -258z" />
<glyph unicode="r" horiz-adv-x="727" d="M72 0l147 692q23 110 24 189q0 59 -14 100l177 78q23 -56 23 -125q0 -47 -11 -100q72 100 159 159.5t160 59.5q45 0 82 -13l-82 -192q-31 12 -69 12q-131 0 -273 -209l-137 -651h-186z" />
<glyph unicode="s" horiz-adv-x="946" d="M-14 74l77 141q143 -98 312 -98q98 0 162.5 45t64.5 117q0 57 -28.5 90.5t-102.5 64.5l-119 49q-102 43 -150 100.5t-48 147.5q0 143 117.5 238.5t316.5 95.5q182 0 307 -82l-76 -139q-131 74 -244 74q-94 0 -153.5 -37t-59.5 -105q0 -49 25 -77.5t86 -55.5l127 -51 q213 -86 213 -252t-127 -268.5t-334 -102.5q-208 1 -366 105z" />
<glyph unicode="t" horiz-adv-x="610" d="M117 139q0 82 14 146l127 604h-125l27 139h127q33 135 69 254l205 45q-55 -152 -84 -299h250l-72 -139h-211l-122 -580q-14 -76 -15 -106q0 -51 23.5 -72.5t77.5 -21.5q51 0 106 20v-117q-96 -43 -201 -43q-96 0 -146 45t-50 125z" />
<glyph unicode="u" horiz-adv-x="1116" d="M113 174q0 76 16 154l147 688l193 35l-143 -682q-18 -82 -19 -136q0 -59 21.5 -84.5t70.5 -25.5q76 0 169.5 62.5t160.5 170.5l139 656l193 35l-158 -744q-14 -69 -14 -117q0 -13 1 -25q5 -54 38 -102l-154 -100q-70 74 -70 180q0 11 1 23q-170 -195 -367 -195 q-225 0 -225 207z" />
<glyph unicode="v" horiz-adv-x="925" d="M121 1018l192 35l80 -645q12 -98 13 -195l2 2q31 76 94 195l342 618l207 -2l-602 -1034h-175z" />
<glyph unicode="w" horiz-adv-x="1384" d="M123 1016l190 35l17 -607q1 -31 0 -59q0 -85 -4 -149h4q25 68 90 202l287 590h194l29 -594q6 -139 6 -211h2q18 61 80 197l270 608h203l-512 -1034h-178l-27 401q-20 313 -20 412h-2q-31 -92 -93 -217l-292 -596h-179z" />
<glyph unicode="x" horiz-adv-x="845" d="M-158 0l504 565l-213 451l215 18q117 -291 127 -334q6 12 126 167t124 161h227l-409 -471l268 -557h-223q-4 14 -46 116.5t-82 199t-40 102.5q-2 -4 -37 -46t-83 -101.5t-95 -117t-85 -103.5t-42 -50h-236z" />
<glyph unicode="y" horiz-adv-x="950" d="M-14 -301q80 10 180 86q76 59 143 215l-67 -6q0 152 -25 348l-86 672l197 35l65 -643q7 -69 8 -166q0 -39 -2 -82h2q2 10 119 243l322 627h213l-506 -915q-16 -31 -49 -89.5t-47.5 -85t-40 -70.5t-42 -67.5t-39 -53.5t-44 -50.5t-43.5 -36.5q-96 -68 -217 -90z" />
<glyph unicode="z" horiz-adv-x="831" d="M-74 0l4 135l697 748h-469l6 145h702v-135l-690 -754h539l-76 -139h-713z" />
<glyph unicode="{" horiz-adv-x="692" d="M82 514l31 152q68 0 140.5 56t92.5 152l76 359q27 125 110.5 195.5t174.5 70.5h161l-32 -151h-109q-66 0 -96.5 -42t-44.5 -112l-74 -352q-14 -66 -44 -116t-68 -76.5t-68.5 -40t-57.5 -17.5l-2 -4q63 -6 110.5 -62.5t20.5 -187.5l-73 -352q-35 -154 76 -154h108 l-33 -151h-162q-92 0 -144 69.5t-25 196.5l75 358q20 96 -27.5 152.5t-115.5 56.5z" />
<glyph unicode="|" horiz-adv-x="595" d="M63 -424l420 1974h166l-420 -1974h-166z" />
<glyph unicode="}" horiz-adv-x="692" d="M-129 -319l33 151h108q66 0 95.5 42t46.5 112l75 350q29 131 99.5 188.5t136.5 63.5l2 4q-63 12 -109.5 69.5t-21.5 180.5l74 352q18 57 3.5 105.5t-79.5 48.5h-109l33 151h164q88 0 141 -70.5t27 -195.5l-76 -359q-20 -96 28 -152t115 -56l-30 -152q-70 0 -141.5 -55.5 t-92.5 -153.5l-76 -358q-27 -127 -108.5 -196.5t-175.5 -69.5h-162z" />
<glyph unicode="~" horiz-adv-x="1208" d="M133 594q158 180 299 180q80 0 209 -69.5t201 -69.5q106 0 205 137l49 -127q-160 -178 -291 -178q-88 0 -215 68.5t-191 68.5q-121 0 -215 -133l-49 121z" />
<glyph unicode="&#xa1;" horiz-adv-x="606" d="M-8 -430l262 1020h143l-166 -987zM250 885q0 57 40 98t97 41t96 -40t39 -97.5t-40 -97t-97 -39.5q-55 0 -95 40t-40 95z" />
<glyph unicode="&#xa2;" horiz-adv-x="905" d="M111 481q66 317 286 484q92 68 219 88l37 170h129l-37 -174q106 -12 189 -95l-113 -131q-37 45 -110 66l-162 -758q39 8 92 41t82 64l72 -121q-143 -115 -279 -133l-35 -177h-127l35 172q-184 18 -252 150q-69 137 -26 354zM312.5 232.5q25.5 -76.5 109.5 -105.5l162 764 q-98 -33 -152 -113q-76 -113 -113 -286q-32 -183 -6.5 -259.5z" />
<glyph unicode="&#xa3;" horiz-adv-x="1120" d="M-10 0l39 178h215l102 488h-196l32 155h197l33 158q51 244 200.5 370t362.5 126q215 0 323 -134l-151 -137q-74 92 -205 92q-256 0 -326 -331l-30 -144h327l-32 -155h-328l-102 -488h505l-36 -178h-930z" />
<glyph unicode="&#xa4;" horiz-adv-x="1286" d="M92 473l33 154h211q12 82 37 161h-213l33 154h237q92 229 258 362.5t393 133.5q166 0 289 -76l-70 -166q-88 84 -231 84q-145 0 -262 -96.5t-168 -241.5h498l-33 -154h-522q-16 -57 -35 -161h522l-33 -154h-501q0 -174 74.5 -255t232.5 -81q147 0 278 88v-168 q-168 -78 -327 -77q-219 0 -343 133t-124 360h-234z" />
<glyph unicode="&#xa5;" horiz-adv-x="1085" d="M12 313l31 144h385l23 108l-27 78h-342l31 143h266l-199 623h226l139 -498q31 -113 37 -163q106 156 110 161l355 500h245l-467 -623h283l-31 -143h-358l-66 -86l-20 -100h405l-32 -144h-404l-67 -313h-205l65 313h-383z" />
<glyph unicode="&#xa6;" horiz-adv-x="516" d="M-16 -424l178 842h166l-178 -842h-166zM225 709l178 841h166l-178 -841h-166z" />
<glyph unicode="&#xa7;" horiz-adv-x="1069" d="M-35 -45l185 82q14 -164 229 -164q111 0 179.5 55.5t68.5 141.5q0 18 -5.5 33.5t-16.5 29.5t-21.5 24.5t-31 24t-30.5 19.5t-33.5 19t-31.5 18l-215 124q-111 66 -111 201q0 225 270 350q-109 72 -108 189q0 170 140 278.5t327 108.5q131 0 229 -49t125 -152l-186 -96 q-31 125 -197 125q-92 0 -161.5 -53.5t-69.5 -130.5q0 -80 94 -132l164 -88q115 -61 177 -126.5t62 -159.5q0 -106 -65.5 -190.5t-169.5 -135.5q90 -74 90 -184q0 -176 -140.5 -296t-379.5 -120q-145 0 -243.5 62.5t-123.5 191.5zM330 621q0 -37 22.5 -68t46 -46t66.5 -40 l168 -90q66 25 117 80t51 116q0 96 -148 175l-131 71q-192 -63 -192 -198z" />
<glyph unicode="&#xa8;" horiz-adv-x="854" d="M262 1280q0 49 35 84t84 35q51 0 86 -35t35 -84q0 -51 -35 -87t-84 -36q-51 0 -86 36t-35 87zM686 1280q0 49 35 84t86 35q49 0 85 -35t36 -84q0 -51 -35 -87t-84 -36q-51 0 -87 36t-36 87z" />
<glyph unicode="&#xa9;" horiz-adv-x="1767" d="M182 727.5q0 319.5 221.5 540.5t532.5 221t533.5 -221t222.5 -540.5t-222.5 -541t-533.5 -221.5t-532.5 221.5t-221.5 541zM330 727q0 -266 176 -452.5t430 -186.5q252 0 430 186.5t178 452.5q0 268 -177 452.5t-431 184.5t-430 -184.5t-176 -452.5zM580 715 q0 154 55 258q47 92 130 144t183 52q133 0 211 -67l-63 -92q-68 47 -146 47q-113 0 -170 -103q-45 -80 -45 -223q0 -137 35 -211q55 -121 188 -121q84 0 152 56l68 -90q-100 -76 -234 -76q-168 0 -268 123q-96 119 -96 303z" />
<glyph unicode="&#xaa;" horiz-adv-x="876" d="M123 492l27 122h667l-26 -122h-668zM229 1006q0 121 43 239.5t119 194.5q127 127 311 127q141 0 234 -64q-29 -90 -45 -172l-64 -311q-14 -82 -8 -114t41 -68l-127 -97q-63 57 -65 133q-86 -119 -240 -118q-84 0 -141.5 63.5t-57.5 186.5zM391 1008q0 -117 90 -117 q55 0 109.5 46t89.5 116l78 370q-23 14 -70 15q-117 0 -196 -95q-101 -120 -101 -335z" />
<glyph unicode="&#xab;" horiz-adv-x="1075" d="M117 502l413 442l125 -92l-346 -369l174 -354l-143 -82zM528 502l412 442l125 -92l-346 -369l176 -354l-145 -82z" />
<glyph unicode="&#xac;" horiz-adv-x="1013" d="M84 434l35 166h825l-96 -453h-174l61 287h-651z" />
<glyph unicode="&#xad;" horiz-adv-x="688" d="M131 463l39 174h416l-37 -174h-418z" />
<glyph unicode="&#xae;" horiz-adv-x="1767" d="M182 727.5q0 319.5 221.5 540.5t532.5 221t533.5 -221t222.5 -540.5t-222.5 -541t-533.5 -221.5t-532.5 221.5t-221.5 541zM330 727q0 -266 176 -452.5t430 -186.5q252 0 430 186.5t178 452.5q0 268 -177 452.5t-431 184.5t-430 -184.5t-176 -452.5zM692 303v852h260 q135 0 206 -68.5t71 -175.5q0 -100 -58.5 -166.5t-152.5 -66.5q37 -18 131 -170l125 -205h-168l-74 133q-78 141 -145 209q-25 25 -56 27v-369h-139zM831 770h74q100 0 137 37q39 39 39 102q0 131 -172 131h-78v-270z" />
<glyph unicode="&#xaf;" horiz-adv-x="645" d="M225 1391l27 122h582l-27 -122h-582z" />
<glyph unicode="&#xb0;" horiz-adv-x="782" d="M205 1094q0 129 92 221t221 92t221 -92t92 -221t-92 -221.5t-221 -92.5t-221 92.5t-92 221.5zM344 1093.5q0 -71.5 51 -122.5t123 -51t123 51t51 122.5t-51 123t-123 51.5t-123 -51.5t-51 -123z" />
<glyph unicode="&#xb1;" horiz-adv-x="972" d="M6 55l35 168h778l-35 -168h-778zM115 596l37 168h307l59 274h172l-57 -274h307l-37 -168h-307l-61 -289h-173l60 289h-307z" />
<glyph unicode="&#xb2;" horiz-adv-x="675" d="M82 512l20 96q92 55 234 178q236 203 235 324q0 41 -25.5 64.5t-68.5 23.5q-18 0 -37.5 -4t-32 -7t-36.5 -16l-31 -15q-6 -3 -36 -20.5t-32 -17.5l-61 86q184 129 332 129q92 0 148.5 -52t56.5 -134q0 -49 -23 -102.5t-45.5 -87t-77.5 -87t-73.5 -70t-79.5 -67.5 q-25 -20 -75 -56t-57 -40q8 0 31 1t31 1h285l-62 -127h-520z" />
<glyph unicode="&#xb3;" horiz-adv-x="702" d="M113 596q70 -12 98 -12q158 0 256 71q84 59 84 146q0 59 -57 78q-33 10 -132 10h-45l27 121h31h48q9 0 48 3t53.5 10t38 19.5t32.5 34t9 51.5q0 74 -96 74q-82 0 -209 -78l-63 93q156 117 317 116q98 0 159.5 -47t61.5 -125q0 -70 -41 -127t-106 -88q96 -49 96 -141 q0 -94 -81 -175t-181 -118q-106 -39 -248 -39q-55 0 -86 4z" />
<glyph unicode="&#xb4;" horiz-adv-x="690" d="M258 1262l438 268l90 -172l-469 -207z" />
<glyph unicode="&#xb5;" horiz-adv-x="1134" d="M-14 -432l305 1448l198 37l-153 -721q-16 -74 -13 -112t27 -60q41 -37 110.5 -37t146.5 46t126 116l154 727l192 35l-157 -744q-23 -106 -19 -150t37 -83l-149 -109q-70 66 -72 148q-145 -141 -340 -142q-80 0 -115 35l-12 -61q-4 -23 -14.5 -67t-19.5 -88t-18.5 -85 t-15.5 -66l-4 -26z" />
<glyph unicode="&#xb6;" horiz-adv-x="1206" d="M164 961q0 219 158.5 354t406.5 135h510l-362 -1708h-158l334 1569h-236l-334 -1569h-157l194 917q-164 0 -260 84.5t-96 217.5z" />
<glyph unicode="&#xb7;" horiz-adv-x="608" d="M174 569.5q0 61.5 43 104.5t104.5 43t104.5 -43t43 -104.5t-43 -104.5t-104.5 -43t-104.5 43t-43 104.5z" />
<glyph unicode="&#xb8;" horiz-adv-x="475" d="M-127 -356l70 104q66 -31 114 -31q29 0 52.5 15.5t27.5 42.5q4 25 -14.5 40t-44.5 15l-80 -4l94 199l125 -15l-45 -90q123 -18 104 -143q-12 -70 -78.5 -126.5t-164.5 -56.5q-80 1 -160 50z" />
<glyph unicode="&#xb9;" horiz-adv-x="638" d="M174 512l27 127h129l106 496q-68 -39 -194 -78l-21 88l297 174h111l-146 -680h121l-26 -127h-404z" />
<glyph unicode="&#xba;" horiz-adv-x="880" d="M115 492l26 122h668l-27 -122h-667zM238 1036q0 227 122.5 379t311.5 152q133 0 201.5 -75t68.5 -206q0 -225 -121 -379.5t-315 -154.5q-127 0 -197.5 75.5t-70.5 208.5zM406 1024q0 -145 124 -145q113 0 177.5 124.5t64.5 292.5q0 141 -125 142q-111 0 -176 -124 t-65 -290z" />
<glyph unicode="&#xbb;" horiz-adv-x="1075" d="M20 141l345 369l-175 354l146 80l221 -455l-412 -442zM430 141l346 369l-176 354l145 80l222 -455l-412 -442z" />
<glyph unicode="&#xbc;" horiz-adv-x="1929" d="M178 512l27 127h129l106 496q-68 -39 -194 -78l-21 88l297 174h111l-146 -680h121l-26 -127h-404zM201 -313l1470 1878h152l-1473 -1878h-149zM1192 145l22 105l406 559h168q-2 -4 -87 -124t-166 -230.5t-140 -184.5l26 2h152l12 -2q0 27 25 101l61 204l135 33l-61 -295 l-14 -43l12 2h88l-27 -127h-86l-12 2q-2 -4 -2 -13v-13l-29 -129l-157 -33l34 164l7 24q-4 0 -13.5 -1t-13.5 -1h-340z" />
<glyph unicode="&#xbd;" horiz-adv-x="1892" d="M160 -313l1470 1878h152l-1473 -1878h-149zM178 512l27 127h129l106 496q-68 -39 -194 -78l-21 88l297 174h111l-146 -680h121l-26 -127h-404zM1182 0l20 96q84 51 232 178q238 205 237 324q0 41 -25.5 64.5t-68.5 23.5q-18 0 -37.5 -4t-32 -7t-37.5 -16l-30 -15 q-6 -3 -36 -20.5t-32 -17.5l-61 86q184 129 331 129q92 0 148.5 -52t56.5 -134q0 -49 -22.5 -102.5t-45 -87t-77.5 -87t-73.5 -70t-80.5 -67.5q-25 -20 -75 -55t-58 -41q8 0 31.5 1t32.5 1h284l-61 -127h-520z" />
<glyph unicode="&#xbe;" horiz-adv-x="2013" d="M111 596q70 -12 98 -12q158 0 256 71q84 59 84 146q0 59 -57 78q-33 10 -132 10h-45l27 121h31h48q9 0 48 3t53.5 10t38 19.5t32.5 34t9 51.5q0 74 -96 74q-82 0 -209 -78l-64 93q156 117 318 116q98 0 159.5 -47t61.5 -125q0 -70 -41 -127t-106 -88q96 -49 96 -141 q0 -94 -81 -175t-181 -118q-106 -39 -248 -39q-55 0 -86 4zM276 -313l1471 1878h151l-1472 -1878h-150zM1274 145l22 105l406 559h168q-2 -4 -87 -124t-166 -230.5t-140 -184.5l26 2h152l12 -2q0 27 25 101l61 204l135 33l-61 -295l-15 -43l13 2h88l-27 -127h-86l-12 2 q-2 -4 -2 -13v-13l-29 -129l-158 -33l35 164l6 24q-4 0 -13 -1t-13 -1h-340z" />
<glyph unicode="&#xbf;" horiz-adv-x="892" d="M-41 -166q0 201 256 361q117 74 162 156.5t47 197.5h162q10 -295 -242 -451q-102 -63 -144 -113.5t-42 -105.5q0 -70 43 -105.5t116 -35.5q129 0 273 94l63 -123q-190 -135 -387 -135q-145 0 -226 69.5t-81 190.5zM422 883q0 59 40 100t97 41t96 -41t39 -98.5t-40 -96 t-97 -38.5q-55 0 -95 39t-40 94z" />
<glyph unicode="&#xc0;" d="M-113 0l770 1411h242l160 -1411h-211l-37 408h-498l-213 -408h-213zM399 571h396l-35 351q-25 252 -25 301q-2 -2 -17.5 -35t-39.5 -82l-41 -82zM436 1688l101 172l417 -269l-65 -108z" />
<glyph unicode="&#xc1;" d="M-113 0l770 1411h242l160 -1411h-211l-37 408h-498l-213 -408h-213zM399 571h396l-35 351q-25 252 -25 301q-2 -2 -17.5 -35t-39.5 -82l-41 -82zM610 1591l439 269l90 -172l-469 -207z" />
<glyph unicode="&#xc2;" d="M-113 0l770 1411h242l160 -1411h-211l-37 408h-498l-213 -408h-213zM399 571h396l-35 351q-25 252 -25 301q-2 -2 -17.5 -35t-39.5 -82l-41 -82zM418 1579l411 276l299 -276l-81 -104l-248 170l-314 -170z" />
<glyph unicode="&#xc3;" d="M-113 0l770 1411h242l160 -1411h-211l-37 408h-498l-213 -408h-213zM397 1640q70 70 130.5 101t142.5 31q61 0 125.5 -39t124.5 -39q70 0 157 78l47 -107q-70 -68 -131 -99.5t-147 -31.5q-61 0 -125 39t-121 39q-31 0 -60.5 -13.5t-44 -23.5t-51.5 -43zM399 571h396 l-35 351q-25 252 -25 301q-2 -2 -17.5 -35t-39.5 -82l-41 -82z" />
<glyph unicode="&#xc4;" d="M-113 0l770 1411h242l160 -1411h-211l-37 408h-498l-213 -408h-213zM399 571h396l-35 351q-25 252 -25 301q-2 -2 -17.5 -35t-39.5 -82l-41 -82zM440 1610q0 49 35 84t84 35q51 0 86 -35t35 -84q0 -51 -35 -87t-84 -36q-51 0 -86 36t-35 87zM864 1610q0 49 35 84t86 35 q49 0 85 -35t36 -84q0 -51 -35 -87t-84 -36q-51 0 -87 36t-36 87z" />
<glyph unicode="&#xc5;" d="M-113 0l770 1411h242l160 -1411h-211l-37 408h-498l-213 -408h-213zM399 571h396l-35 351q-25 252 -25 301q-2 -2 -17.5 -35t-39.5 -82l-41 -82zM575 1677q0 90 63.5 153.5t154 63.5t154 -63.5t63.5 -153.5t-63.5 -153.5t-154 -63.5t-154 63.5t-63.5 153.5zM680 1677 q0 -47 32.5 -80.5t80 -33.5t80 33.5t32.5 80.5t-32.5 81t-80 34t-80 -34t-32.5 -81z" />
<glyph unicode="&#xc6;" horiz-adv-x="1644" d="M-215 0l1161 1409h830l-62 -162h-543l-90 -428h463l-35 -168h-460l-103 -481h600l-37 -170h-800l86 408h-441l-334 -408h-235zM485 571h344l129 609q-455 -586 -473 -609z" />
<glyph unicode="&#xc7;" horiz-adv-x="1110" d="M113 483q0 395 245 688q104 123 245.5 192t287.5 69q205 0 326 -117l-113 -125q-94 82 -238 82q-221 0 -368 -211q-78 -113 -126 -281t-48 -305q0 -162 79.5 -249t233.5 -87q141 0 285 92l73 -135q-197 -119 -420 -119l-30 -57q129 -18 112 -137q-10 -70 -81.5 -125 t-169.5 -55q-92 0 -160 41l57 96q68 -31 117 -31q76 0 90 66q4 23 -14.5 38t-57.5 15q-59 0 -71 -6l84 170q-162 35 -250 163.5t-88 327.5z" />
<glyph unicode="&#xc8;" horiz-adv-x="1019" d="M72 0l299 1409h780l-64 -162h-550l-91 -428h463l-37 -168h-462l-101 -481h598l-37 -170h-798zM451 1688l100 172l418 -269l-66 -108z" />
<glyph unicode="&#xc9;" horiz-adv-x="1019" d="M72 0l299 1409h780l-64 -162h-550l-91 -428h463l-37 -168h-462l-101 -481h598l-37 -170h-798zM549 1591l438 269l90 -172l-469 -207z" />
<glyph unicode="&#xca;" horiz-adv-x="1019" d="M72 0l299 1409h780l-64 -162h-550l-91 -428h463l-37 -168h-462l-101 -481h598l-37 -170h-798zM418 1579l411 276l299 -276l-81 -104l-248 170l-314 -170z" />
<glyph unicode="&#xcb;" horiz-adv-x="1019" d="M72 0l299 1409h780l-64 -162h-550l-91 -428h463l-37 -168h-462l-101 -481h598l-37 -170h-798zM442 1610q0 49 35 84t84 35q51 0 86 -35t35 -84q0 -51 -35 -87t-84 -36q-51 0 -86 36t-35 87zM866 1610q0 49 35 84t86 35q49 0 85 -35t36 -84q0 -51 -35 -87t-84 -36 q-51 0 -87 36t-36 87z" />
<glyph unicode="&#xcc;" horiz-adv-x="546" d="M72 0l299 1409h198l-301 -1409h-196zM123 1688l100 172l418 -269l-66 -108z" />
<glyph unicode="&#xcd;" horiz-adv-x="546" d="M72 0l299 1409h198l-301 -1409h-196zM317 1591l439 269l90 -172l-469 -207z" />
<glyph unicode="&#xce;" horiz-adv-x="546" d="M72 0l299 1409h198l-301 -1409h-196zM133 1579l412 276l299 -276l-82 -104l-248 170l-313 -170z" />
<glyph unicode="&#xcf;" horiz-adv-x="546" d="M72 0l299 1409h198l-301 -1409h-196zM150 1610q0 49 34.5 84t83.5 35q51 0 86 -35t35 -84q0 -51 -35 -87t-84 -36q-51 0 -85.5 36t-34.5 87zM573 1610q0 49 35 84t86 35q49 0 85 -35t36 -84q0 -51 -35 -87t-84 -36q-51 0 -87 36t-36 87z" />
<glyph unicode="&#xd0;" horiz-adv-x="1275" d="M41 647l31 141h168l131 621h309q166 0 257 -24.5t165 -92.5q131 -119 131 -393q0 -182 -83 -394t-202 -325q-104 -98 -222 -139t-294 -41h-360l137 647h-168zM307 164h148q258 0 368 145q94 123 145.5 290t51.5 286q0 168 -51 250q-43 68 -103.5 91t-169.5 23h-159 l-99 -461h299l-80 -141h-247z" />
<glyph unicode="&#xd1;" horiz-adv-x="1296" d="M72 0l299 1409h225l246 -813q55 -188 67 -324q39 258 72 420l145 717h193l-299 -1409h-207l-231 780q-76 250 -93 369q-16 -139 -63 -387l-154 -762h-200zM487 1645q70 70 130.5 100.5t142.5 30.5q61 0 125.5 -39t124.5 -39q70 0 157 78l47 -107q-70 -68 -131 -99.5 t-147 -31.5q-61 0 -124.5 39t-121.5 39q-31 0 -60.5 -13.5t-44 -23.5t-50.5 -43z" />
<glyph unicode="&#xd2;" horiz-adv-x="1388" d="M137 475q0 238 86 451t215 336q94 86 198.5 129t256.5 43q213 0 331.5 -128t118.5 -358q0 -264 -98 -503.5t-274 -358.5q-164 -111 -383 -111q-225 0 -338 133.5t-113 366.5zM352 436q0 -309 275 -309q162 0 272 117q96 102 161.5 323t65.5 408q0 301 -268 301 q-201 0 -313 -154q-86 -117 -139.5 -304t-53.5 -382zM555 1688l100 172l418 -269l-65 -108z" />
<glyph unicode="&#xd3;" horiz-adv-x="1388" d="M137 475q0 238 86 451t215 336q94 86 198.5 129t256.5 43q213 0 331.5 -128t118.5 -358q0 -264 -98 -503.5t-274 -358.5q-164 -111 -383 -111q-225 0 -338 133.5t-113 366.5zM352 436q0 -309 275 -309q162 0 272 117q96 102 161.5 323t65.5 408q0 301 -268 301 q-201 0 -313 -154q-86 -117 -139.5 -304t-53.5 -382zM684 1591l438 269l90 -172l-469 -207z" />
<glyph unicode="&#xd4;" horiz-adv-x="1388" d="M137 475q0 238 86 451t215 336q94 86 198.5 129t256.5 43q213 0 331.5 -128t118.5 -358q0 -264 -98 -503.5t-274 -358.5q-164 -111 -383 -111q-225 0 -338 133.5t-113 366.5zM352 436q0 -309 275 -309q162 0 272 117q96 102 161.5 323t65.5 408q0 301 -268 301 q-201 0 -313 -154q-86 -117 -139.5 -304t-53.5 -382zM537 1579l411 276l299 -276l-82 -104l-247 170l-314 -170z" />
<glyph unicode="&#xd5;" horiz-adv-x="1388" d="M137 475q0 238 86 451t215 336q94 86 198.5 129t256.5 43q213 0 331.5 -128t118.5 -358q0 -264 -98 -503.5t-274 -358.5q-164 -111 -383 -111q-225 0 -338 133.5t-113 366.5zM352 436q0 -309 275 -309q162 0 272 117q96 102 161.5 323t65.5 408q0 301 -268 301 q-201 0 -313 -154q-86 -117 -139.5 -304t-53.5 -382zM541 1640q70 70 130 101t142 31q61 0 126 -39t124 -39q70 0 158 78l47 -107q-70 -68 -131.5 -99.5t-147.5 -31.5q-61 0 -124.5 39t-121.5 39q-31 0 -60.5 -13.5t-43.5 -23.5t-51 -43z" />
<glyph unicode="&#xd6;" horiz-adv-x="1388" d="M137 475q0 238 86 451t215 336q94 86 198.5 129t256.5 43q213 0 331.5 -128t118.5 -358q0 -264 -98 -503.5t-274 -358.5q-164 -111 -383 -111q-225 0 -338 133.5t-113 366.5zM352 436q0 -309 275 -309q162 0 272 117q96 102 161.5 323t65.5 408q0 301 -268 301 q-201 0 -313 -154q-86 -117 -139.5 -304t-53.5 -382zM573 1616q0 49 35 84t84 35q51 0 86 -35t35 -84q0 -51 -35 -87t-84 -36q-51 0 -86 36t-35 87zM997 1616q0 49 35 84t86 35q49 0 85 -35t36 -84q0 -51 -35 -87t-84 -36q-51 0 -87 36t-36 87z" />
<glyph unicode="&#xd7;" horiz-adv-x="1071" d="M82 281l336 274l-221 281l147 122l221 -280l334 276l100 -127l-335 -274l221 -281l-148 -122l-221 280l-334 -276z" />
<glyph unicode="&#xd8;" horiz-adv-x="1347" d="M-102 -96l202 250q-78 127 -77 321q0 236 86 449t215 338q176 172 454 172q178 0 291 -91l178 218l103 -74q-129 -156 -197 -240q76 -121 76 -299q0 -260 -99.5 -498.5t-273.5 -363.5q-156 -111 -383 -111q-176 0 -287 86l-190 -233zM236 436q0 -45 12 -102l700 860 q-68 84 -205 84q-199 0 -313 -156q-86 -117 -140 -304t-54 -382zM303 205q68 -80 209 -80q160 0 272 119q96 100 162 320t66 409q0 55 -8 88l-177 -213l-348 -430z" />
<glyph unicode="&#xd9;" horiz-adv-x="1286" d="M141 279q0 94 19 176l202 954h199l-192 -907q-25 -119 -25 -205q0 -72 60.5 -113t166.5 -41q168 0 265 111q53 59 84 209l200 946h199l-207 -971q-33 -154 -67.5 -226.5t-110.5 -127.5q-150 -109 -387 -109q-186 0 -296 77t-110 227zM547 1688l100 172l418 -269l-66 -108 z" />
<glyph unicode="&#xda;" horiz-adv-x="1286" d="M141 279q0 94 19 176l202 954h199l-192 -907q-25 -119 -25 -205q0 -72 60.5 -113t166.5 -41q168 0 265 111q53 59 84 209l200 946h199l-207 -971q-33 -154 -67.5 -226.5t-110.5 -127.5q-150 -109 -387 -109q-186 0 -296 77t-110 227zM621 1591l438 269l90 -172l-469 -207 z" />
<glyph unicode="&#xdb;" horiz-adv-x="1286" d="M141 279q0 94 19 176l202 954h199l-192 -907q-25 -119 -25 -205q0 -72 60.5 -113t166.5 -41q168 0 265 111q53 59 84 209l200 946h199l-207 -971q-33 -154 -67.5 -226.5t-110.5 -127.5q-150 -109 -387 -109q-186 0 -296 77t-110 227zM500 1579l411 276l299 -276l-82 -104 l-247 170l-314 -170z" />
<glyph unicode="&#xdc;" horiz-adv-x="1286" d="M141 279q0 94 19 176l202 954h199l-192 -907q-25 -119 -25 -205q0 -72 60.5 -113t166.5 -41q168 0 265 111q53 59 84 209l200 946h199l-207 -971q-33 -154 -67.5 -226.5t-110.5 -127.5q-150 -109 -387 -109q-186 0 -296 77t-110 227zM541 1610q0 49 34.5 84t83.5 35 q51 0 86 -35t35 -84q0 -51 -34.5 -87t-83.5 -36q-51 0 -86 36t-35 87zM965 1610q0 49 34.5 84t85.5 35q49 0 85 -35t36 -84q0 -51 -34.5 -87t-84.5 -36q-51 0 -86.5 36t-35.5 87z" />
<glyph unicode="&#xdd;" horiz-adv-x="1091" d="M186 1409h234l137 -498q31 -113 37 -163q86 127 111 161l356 500h237l-636 -852l-119 -557h-207l121 565zM500 1591l438 269l90 -172l-469 -207z" />
<glyph unicode="&#xde;" horiz-adv-x="1124" d="M72 0l299 1409h196l-47 -225h172q225 0 330 -78q119 -90 119 -248q0 -283 -230 -444q-125 -88 -352 -88h-221l-70 -326h-196zM373 487h211q150 0 229 74q113 106 113 254q0 104 -60.5 154.5t-201.5 50.5h-179z" />
<glyph unicode="&#xdf;" horiz-adv-x="1171" d="M-61 -342q96 125 141 344l178 887h-154l29 139h152l6 33q39 209 159.5 303t319.5 94q147 0 235.5 -74.5t88.5 -193.5q0 -86 -38 -149.5t-92.5 -97.5t-108.5 -56.5t-92 -41t-38 -34.5q0 -20 34 -40.5t82 -45.5t97 -58.5t83 -96t34 -144.5q0 -182 -140.5 -316.5 t-361.5 -134.5q-104 0 -172 31l63 133q53 -27 113 -26q127 0 213 74.5t86 197.5q0 70 -31.5 119t-75.5 75.5t-89.5 51t-77 61.5t-31.5 90q0 66 53 110t115.5 67.5t116 79t53.5 141.5q0 61 -42 98t-114 37q-104 0 -166.5 -70.5t-95.5 -228.5l-207 -1036q-53 -264 -186 -414z " />
<glyph unicode="&#xe0;" horiz-adv-x="1064" d="M74 305q0 162 57 320.5t158 259.5q170 170 409 170q182 0 303 -82q-35 -115 -57 -225l-88 -414q-23 -117 -13.5 -164t50.5 -90l-154 -117q-82 78 -75 199q-117 -182 -336 -182q-113 0 -183.5 82.5t-70.5 242.5zM268 307q0 -172 131 -172q76 0 154 64.5t125 160.5l110 519 q-45 25 -110 24q-84 0 -146.5 -29.5t-123.5 -103.5q-70 -82 -105 -211t-35 -252zM393 1358l101 172l417 -268l-65 -109z" />
<glyph unicode="&#xe1;" horiz-adv-x="1064" d="M74 305q0 162 57 320.5t158 259.5q170 170 409 170q182 0 303 -82q-35 -115 -57 -225l-88 -414q-23 -117 -13.5 -164t50.5 -90l-154 -117q-82 78 -75 199q-117 -182 -336 -182q-113 0 -183.5 82.5t-70.5 242.5zM268 307q0 -172 131 -172q76 0 154 64.5t125 160.5l110 519 q-45 25 -110 24q-84 0 -146.5 -29.5t-123.5 -103.5q-70 -82 -105 -211t-35 -252zM516 1262l438 268l90 -172l-469 -207z" />
<glyph unicode="&#xe2;" horiz-adv-x="1064" d="M74 305q0 162 57 320.5t158 259.5q170 170 409 170q182 0 303 -82q-35 -115 -57 -225l-88 -414q-23 -117 -13.5 -164t50.5 -90l-154 -117q-82 78 -75 199q-117 -182 -336 -182q-113 0 -183.5 82.5t-70.5 242.5zM268 307q0 -172 131 -172q76 0 154 64.5t125 160.5l110 519 q-45 25 -110 24q-84 0 -146.5 -29.5t-123.5 -103.5q-70 -82 -105 -211t-35 -252zM346 1249l412 277l299 -277l-82 -104l-248 170l-313 -170z" />
<glyph unicode="&#xe3;" horiz-adv-x="1064" d="M74 305q0 162 57 320.5t158 259.5q170 170 409 170q182 0 303 -82q-35 -115 -57 -225l-88 -414q-23 -117 -13.5 -164t50.5 -90l-154 -117q-82 78 -75 199q-117 -182 -336 -182q-113 0 -183.5 82.5t-70.5 242.5zM268 307q0 -172 131 -172q76 0 154 64.5t125 160.5l110 519 q-45 25 -110 24q-84 0 -146.5 -29.5t-123.5 -103.5q-70 -82 -105 -211t-35 -252zM332 1313q70 70 130 100.5t142 30.5q61 0 126 -39t124 -39q70 0 158 78l47 -107q-70 -68 -131.5 -99.5t-147.5 -31.5q-61 0 -124.5 39t-120.5 39q-31 0 -61 -13.5t-44 -23.5t-51 -43z" />
<glyph unicode="&#xe4;" horiz-adv-x="1064" d="M74 305q0 162 57 320.5t158 259.5q170 170 409 170q182 0 303 -82q-35 -115 -57 -225l-88 -414q-23 -117 -13.5 -164t50.5 -90l-154 -117q-82 78 -75 199q-117 -182 -336 -182q-113 0 -183.5 82.5t-70.5 242.5zM268 307q0 -172 131 -172q76 0 154 64.5t125 160.5l110 519 q-45 25 -110 24q-84 0 -146.5 -29.5t-123.5 -103.5q-70 -82 -105 -211t-35 -252zM383 1280q0 49 35 84t84 35q51 0 86 -35t35 -84q0 -51 -35 -87t-84 -36q-51 0 -86 36t-35 87zM807 1280q0 49 35 84t86 35q49 0 85 -35t36 -84q0 -51 -35 -87t-84 -36q-51 0 -87 36t-36 87z " />
<glyph unicode="&#xe5;" horiz-adv-x="1064" d="M74 305q0 162 57 320.5t158 259.5q170 170 409 170q182 0 303 -82q-35 -115 -57 -225l-88 -414q-23 -117 -13.5 -164t50.5 -90l-154 -117q-82 78 -75 199q-117 -182 -336 -182q-113 0 -183.5 82.5t-70.5 242.5zM268 307q0 -172 131 -172q76 0 154 64.5t125 160.5l110 519 q-45 25 -110 24q-84 0 -146.5 -29.5t-123.5 -103.5q-70 -82 -105 -211t-35 -252zM514 1350q0 90 63.5 153.5t153.5 63.5t153.5 -63.5t63.5 -153.5t-63.5 -153.5t-153.5 -63.5t-153.5 63.5t-63.5 153.5zM618 1350q0 -47 33 -81t80 -34t80 34t33 81t-33 80.5t-80 33.5 t-80 -33.5t-33 -80.5z" />
<glyph unicode="&#xe6;" horiz-adv-x="1583" d="M74 229q0 186 173 296t486 81l23 92q12 49 12 101q0 98 -131 98q-164 0 -342 -119l-62 135q240 139 465 140q170 0 228 -131q137 133 313 133q141 0 220 -68.5t79 -200.5q0 -121 -102 -219q-127 -121 -432 -121q-29 0 -127 7q-14 -61 -15 -119q0 -98 55.5 -152.5 t141.5 -54.5q166 0 301 113l63 -117q-160 -147 -415 -148q-188 0 -291 160q-139 -166 -350 -166q-145 0 -219 73.5t-74 186.5zM274 260q0 -70 39 -109.5t103 -39.5q119 0 194 96q39 49 95 266q-203 16 -317 -40t-114 -173zM907 590q23 -2 99 -2q217 0 290 74q49 49 50 114 q0 133 -146 133q-94 0 -175 -84.5t-118 -234.5z" />
<glyph unicode="&#xe7;" horiz-adv-x="899" d="M96 326q0 176 77 346t187 264q139 119 316 119q156 0 254 -97l-96 -137q-82 74 -195 74q-121 0 -195 -100q-55 -74 -99 -212.5t-44 -254.5q0 -205 176 -205q119 0 240 108l71 -118q-162 -131 -335 -138l-27 -55q129 -18 113 -137q-10 -70 -82 -125t-170 -55 q-92 0 -160 41l57 96q68 -31 117 -31q76 0 90 66q4 23 -14.5 38t-57.5 15q-59 0 -71 -6l78 166q-230 55 -230 338z" />
<glyph unicode="&#xe8;" horiz-adv-x="1024" d="M100 348q0 154 60.5 307.5t167.5 255.5q150 143 342 144q147 0 228 -71t81 -200q0 -127 -94 -215q-129 -123 -439 -123q-25 0 -68.5 3.5t-58.5 3.5q-14 -61 -14 -119q0 -98 55.5 -152.5t141.5 -54.5q162 0 297 115l67 -117q-86 -78 -181 -114t-234 -36 q-158 0 -254.5 99.5t-96.5 273.5zM350 592q45 -4 99 -4q217 0 290 74q49 49 49 114q0 133 -145 133q-94 0 -175 -83.5t-118 -233.5zM352 1358l101 172l417 -268l-65 -109z" />
<glyph unicode="&#xe9;" horiz-adv-x="1024" d="M100 348q0 154 60.5 307.5t167.5 255.5q150 143 342 144q147 0 228 -71t81 -200q0 -127 -94 -215q-129 -123 -439 -123q-25 0 -68.5 3.5t-58.5 3.5q-14 -61 -14 -119q0 -98 55.5 -152.5t141.5 -54.5q162 0 297 115l67 -117q-86 -78 -181 -114t-234 -36 q-158 0 -254.5 99.5t-96.5 273.5zM350 592q45 -4 99 -4q217 0 290 74q49 49 49 114q0 133 -145 133q-94 0 -175 -83.5t-118 -233.5zM520 1262l438 268l91 -172l-469 -207z" />
<glyph unicode="&#xea;" horiz-adv-x="1024" d="M100 348q0 154 60.5 307.5t167.5 255.5q150 143 342 144q147 0 228 -71t81 -200q0 -127 -94 -215q-129 -123 -439 -123q-25 0 -68.5 3.5t-58.5 3.5q-14 -61 -14 -119q0 -98 55.5 -152.5t141.5 -54.5q162 0 297 115l67 -117q-86 -78 -181 -114t-234 -36 q-158 0 -254.5 99.5t-96.5 273.5zM315 1249l412 277l299 -277l-82 -104l-248 170l-313 -170zM350 592q45 -4 99 -4q217 0 290 74q49 49 49 114q0 133 -145 133q-94 0 -175 -83.5t-118 -233.5z" />
<glyph unicode="&#xeb;" horiz-adv-x="1024" d="M100 348q0 154 60.5 307.5t167.5 255.5q150 143 342 144q147 0 228 -71t81 -200q0 -127 -94 -215q-129 -123 -439 -123q-25 0 -68.5 3.5t-58.5 3.5q-14 -61 -14 -119q0 -98 55.5 -152.5t141.5 -54.5q162 0 297 115l67 -117q-86 -78 -181 -114t-234 -36 q-158 0 -254.5 99.5t-96.5 273.5zM350 592q45 -4 99 -4q217 0 290 74q49 49 49 114q0 133 -145 133q-94 0 -175 -83.5t-118 -233.5zM356 1280q0 49 35 84t84 35q51 0 86 -35t35 -84q0 -51 -35 -87t-84 -36q-51 0 -86 36t-35 87zM780 1280q0 49 35 84t86 35q49 0 85 -35 t36 -84q0 -51 -35 -87t-84 -36q-51 0 -87 36t-36 87z" />
<glyph unicode="&#xec;" horiz-adv-x="542" d="M72 1358l100 172l418 -268l-66 -109zM82 0l217 1020l205 31l-223 -1051h-199z" />
<glyph unicode="&#xed;" horiz-adv-x="542" d="M72 0l217 1020l205 31l-224 -1051h-198zM252 1262l438 268l90 -172l-469 -207z" />
<glyph unicode="&#xee;" horiz-adv-x="542" d="M72 1249l411 277l299 -277l-82 -104l-247 170l-314 -170zM84 0l217 1020l205 31l-223 -1051h-199z" />
<glyph unicode="&#xef;" horiz-adv-x="542" d="M72 0l217 1020l205 31l-224 -1051h-198zM109 1280q0 49 34.5 84t83.5 35q51 0 86 -35t35 -84q0 -51 -34.5 -87t-84.5 -36q-51 0 -85.5 36t-34.5 87zM532 1280q0 49 35 84t86 35q49 0 85 -35t36 -84q0 -51 -34.5 -87t-84.5 -36q-51 0 -87 36t-36 87z" />
<glyph unicode="&#xf0;" horiz-adv-x="1073" d="M43 346q0 225 153.5 382t383.5 157q117 0 198 -39q-33 168 -190 307l-109 -100l-108 73l114 105q-143 92 -295 106l142 138q145 -16 301 -107l84 78l108 -74l-86 -80q129 -106 200 -273t71 -343q0 -295 -150.5 -502t-427.5 -207q-172 0 -280.5 99.5t-108.5 279.5z M264 352q0 -100 49 -155.5t148 -55.5q90 0 156.5 53.5t101.5 138.5t51 168t18 167q-76 53 -223 53q-139 0 -220 -113t-81 -256z" />
<glyph unicode="&#xf1;" horiz-adv-x="1118" d="M72 0l155 723q33 158 6 258l177 78q39 -106 14 -211q160 203 385 203q94 0 149.5 -55.5t55.5 -149.5q0 -39 -10 -86l-162 -760h-189l146 688q16 78 16 107q0 92 -92 92q-66 0 -151 -53.5t-173 -163.5l-141 -670h-186zM336 1313q70 70 130 100.5t142 30.5q61 0 126 -39 t124 -39q70 0 158 78l47 -107q-70 -68 -131.5 -99.5t-147.5 -31.5q-61 0 -124.5 39t-120.5 39q-31 0 -60.5 -13.5t-44 -23.5t-51.5 -43z" />
<glyph unicode="&#xf2;" horiz-adv-x="1085" d="M84 344q0 303 164 507t414 204q174 0 264 -97.5t90 -269.5q0 -301 -160 -507t-420 -206q-168 0 -260 96.5t-92 272.5zM289 330q0 -205 182 -205q106 0 185 86t116 215t37 276q0 203 -180 203q-104 0 -183 -85t-118 -214t-39 -276zM344 1358l100 172l418 -268l-65 -109z " />
<glyph unicode="&#xf3;" horiz-adv-x="1085" d="M84 344q0 303 164 507t414 204q174 0 264 -97.5t90 -269.5q0 -301 -160 -507t-420 -206q-168 0 -260 96.5t-92 272.5zM289 330q0 -205 182 -205q106 0 185 86t116 215t37 276q0 203 -180 203q-104 0 -183 -85t-118 -214t-39 -276zM496 1262l438 268l90 -172l-469 -207z " />
<glyph unicode="&#xf4;" horiz-adv-x="1085" d="M84 344q0 303 164 507t414 204q174 0 264 -97.5t90 -269.5q0 -301 -160 -507t-420 -206q-168 0 -260 96.5t-92 272.5zM289 330q0 -205 182 -205q106 0 185 86t116 215t37 276q0 203 -180 203q-104 0 -183 -85t-118 -214t-39 -276zM322 1249l411 277l299 -277l-82 -104 l-248 170l-313 -170z" />
<glyph unicode="&#xf5;" horiz-adv-x="1085" d="M84 344q0 303 164 507t414 204q174 0 264 -97.5t90 -269.5q0 -301 -160 -507t-420 -206q-168 0 -260 96.5t-92 272.5zM289 330q0 -205 182 -205q106 0 185 86t116 215t37 276q0 203 -180 203q-104 0 -183 -85t-118 -214t-39 -276zM342 1313q70 70 130 100.5t142 30.5 q61 0 126 -39t124 -39q70 0 158 78l47 -107q-70 -68 -131 -99.5t-147 -31.5q-61 0 -125 39t-121 39q-31 0 -60.5 -13.5t-44 -23.5t-51.5 -43z" />
<glyph unicode="&#xf6;" horiz-adv-x="1085" d="M84 344q0 303 164 507t414 204q174 0 264 -97.5t90 -269.5q0 -301 -160 -507t-420 -206q-168 0 -260 96.5t-92 272.5zM289 330q0 -205 182 -205q106 0 185 86t116 215t37 276q0 203 -180 203q-104 0 -183 -85t-118 -214t-39 -276zM367 1280q0 49 34.5 84t83.5 35 q51 0 86 -35t35 -84q0 -51 -34.5 -87t-84.5 -36q-51 0 -85.5 36t-34.5 87zM791 1280q0 49 34.5 84t85.5 35q49 0 85 -35t36 -84q0 -51 -34.5 -87t-84.5 -36q-51 0 -86.5 36t-35.5 87z" />
<glyph unicode="&#xf7;" horiz-adv-x="1224" d="M92 461l35 170h1034l-35 -170h-1034zM389 121q0 63 42 107t104 44q59 0 101 -44t42 -107q0 -61 -43 -103.5t-105 -42.5q-59 0 -100 42.5t-41 103.5zM569 968.5q0 61.5 42 105.5t104 44q59 0 101 -43t42 -102q0 -63 -43 -106.5t-102.5 -43.5t-101.5 42t-42 103.5z" />
<glyph unicode="&#xf8;" horiz-adv-x="1091" d="M-2 -78l149 182q-61 92 -61 236q0 303 164 506t412 203q127 0 210 -54l146 179l92 -66q-133 -164 -156 -190q63 -94 64 -236q0 -301 -160 -507t-420 -206q-127 0 -211 56l-141 -170zM291 348q0 -45 4 -65l463 571q-45 47 -127 47q-150 0 -242 -161t-98 -392zM340 164 q41 -47 133 -47q154 0 244 167t94 396q0 35 -4 55z" />
<glyph unicode="&#xf9;" horiz-adv-x="1116" d="M113 174q0 76 16 154l147 688l193 35l-143 -682q-18 -82 -19 -136q0 -59 21.5 -84.5t70.5 -25.5q76 0 169.5 62.5t160.5 170.5l139 656l193 35l-158 -744q-18 -88 -13 -142.5t38 -101.5l-154 -100q-78 82 -69 203q-170 -195 -367 -195q-225 0 -225 207zM391 1358l101 172 l417 -268l-65 -109z" />
<glyph unicode="&#xfa;" horiz-adv-x="1116" d="M113 174q0 76 16 154l147 688l193 35l-143 -682q-18 -82 -19 -136q0 -59 21.5 -84.5t70.5 -25.5q76 0 169.5 62.5t160.5 170.5l139 656l193 35l-158 -744q-18 -88 -13 -142.5t38 -101.5l-154 -100q-78 82 -69 203q-170 -195 -367 -195q-225 0 -225 207zM477 1262l438 268 l91 -172l-469 -207z" />
<glyph unicode="&#xfb;" horiz-adv-x="1116" d="M113 174q0 76 16 154l147 688l193 35l-143 -682q-18 -82 -19 -136q0 -59 21.5 -84.5t70.5 -25.5q76 0 169.5 62.5t160.5 170.5l139 656l193 35l-158 -744q-18 -88 -13 -142.5t38 -101.5l-154 -100q-78 82 -69 203q-170 -195 -367 -195q-225 0 -225 207zM340 1249l412 277 l299 -277l-82 -104l-248 170l-313 -170z" />
<glyph unicode="&#xfc;" horiz-adv-x="1116" d="M113 174q0 76 16 154l147 688l193 35l-143 -682q-18 -82 -19 -136q0 -59 21.5 -84.5t70.5 -25.5q76 0 169.5 62.5t160.5 170.5l139 656l193 35l-158 -744q-18 -88 -13 -142.5t38 -101.5l-154 -100q-78 82 -69 203q-170 -195 -367 -195q-225 0 -225 207zM381 1280 q0 49 35 84t84 35q51 0 86 -35t35 -84q0 -51 -35 -87t-84 -36q-51 0 -86 36t-35 87zM805 1280q0 49 34.5 84t86.5 35q49 0 85 -35t36 -84q0 -51 -35 -87t-84 -36q-51 0 -87 36t-36 87z" />
<glyph unicode="&#xfd;" horiz-adv-x="950" d="M-14 -301q80 10 180 86q76 59 143 215l-67 -6q0 152 -25 348l-86 672l197 35l65 -643q10 -96 6 -248h2q2 10 119 243l322 627h213l-506 -915q-16 -31 -49 -89.5t-47.5 -85t-40 -70.5t-42 -67.5t-39 -53.5t-44 -50.5t-43.5 -36.5q-96 -68 -217 -90zM379 1262l438 268 l90 -172l-469 -207z" />
<glyph unicode="&#xfe;" horiz-adv-x="1146" d="M-20 -432l333 1569q41 197 13 305l198 71q31 -109 -14 -333l-29 -146q-6 -39 -47 -176q61 84 157.5 138.5t194.5 54.5q276 0 277 -342q0 -184 -68.5 -346t-185.5 -265q-137 -123 -324 -123q-121 0 -227 33l-84 -399zM299 184q66 -57 197 -57q53 0 113.5 33t95.5 76 q68 84 109.5 222t41.5 249q0 178 -145 178q-152 0 -308 -211z" />
<glyph unicode="&#xff;" horiz-adv-x="950" d="M-14 -301q80 10 180 86q76 59 143 215l-67 -6q0 152 -25 348l-86 672l197 35l65 -643q10 -96 6 -248h2q2 10 119 243l322 627h213l-506 -915q-16 -31 -49 -89.5t-47.5 -85t-40 -70.5t-42 -67.5t-39 -53.5t-44 -50.5t-43.5 -36.5q-96 -68 -217 -90zM268 1280q0 49 35 84 t84 35q51 0 86 -35t35 -84q0 -51 -35 -87t-84 -36q-51 0 -86 36t-35 87zM692 1280q0 49 35 84t86 35q49 0 85 -35t36 -84q0 -51 -35 -87t-84 -36q-51 0 -87 36t-36 87z" />
<glyph unicode="&#x152;" horiz-adv-x="1751" d="M137 467q0 201 79 412t214 340q147 141 313 172q100 18 211 18h928l-59 -164h-553l-92 -426h462l-34 -168h-463l-101 -481h600l-38 -170h-883q-207 0 -283 20q-98 27 -172 97q-129 123 -129 350zM360 475q0 -129 66 -219q74 -98 209 -98q119 0 211 14l223 1051 q-125 16 -174 16q-250 0 -385 -219q-63 -104 -106.5 -261t-43.5 -284z" />
<glyph unicode="&#x153;" horiz-adv-x="1683" d="M84 340q0 303 164 506t411 203q221 0 306 -162q168 168 364 168q147 0 228 -70t81 -203q0 -123 -100 -219q-125 -117 -434 -117q-25 0 -68 3.5t-57 3.5q-14 -61 -14 -119q0 -98 55 -152.5t141 -54.5q162 0 297 115l68 -117q-49 -45 -82 -68.5t-125 -52.5t-209 -29 q-203 0 -295 158q-154 -164 -379 -164q-184 0 -268 104.5t-84 266.5zM289 324q0 -205 182 -205q106 0 185 86t116 215t37 276q0 203 -180 203q-156 0 -248 -172t-92 -403zM1010 592q41 -4 98 -4q340 0 340 188q0 59 -36 96t-109 37q-94 0 -175 -85t-118 -232z" />
<glyph unicode="&#x178;" horiz-adv-x="1091" d="M186 1409h234l137 -498q31 -113 37 -163q86 127 111 161l356 500h237l-636 -852l-119 -557h-207l121 565zM414 1610q0 49 34.5 84t83.5 35q51 0 86 -35t35 -84q0 -51 -34.5 -87t-83.5 -36q-51 0 -86 36t-35 87zM838 1610q0 49 34.5 84t85.5 35q49 0 85 -35t36 -84 q0 -51 -34.5 -87t-83.5 -36q-51 0 -87 36t-36 87z" />
<glyph unicode="&#x2c6;" horiz-adv-x="772" d="M193 1249l411 277l299 -277l-82 -104l-248 170l-313 -170z" />
<glyph unicode="&#x2dc;" horiz-adv-x="780" d="M207 1313q70 70 130 100.5t142 30.5q61 0 126 -39t124 -39q70 0 158 78l47 -107q-70 -68 -131.5 -99.5t-147.5 -31.5q-61 0 -124.5 39t-120.5 39q-31 0 -61 -13.5t-44 -23.5t-51 -43z" />
<glyph unicode="&#x3bc;" horiz-adv-x="1134" d="M-14 -432l305 1448l198 37l-153 -721q-16 -74 -13 -112t27 -60q41 -37 110.5 -37t146.5 46t126 116l154 727l192 35l-157 -744q-23 -106 -19 -150t37 -83l-149 -109q-70 66 -72 148q-145 -141 -340 -142q-80 0 -115 35l-12 -61q-4 -23 -14.5 -67t-19.5 -88t-18.5 -85 t-15.5 -66l-4 -26z" />
<glyph unicode="&#x2000;" horiz-adv-x="946" />
<glyph unicode="&#x2001;" horiz-adv-x="1894" />
<glyph unicode="&#x2002;" horiz-adv-x="946" />
<glyph unicode="&#x2003;" horiz-adv-x="1894" />
<glyph unicode="&#x2004;" horiz-adv-x="630" />
<glyph unicode="&#x2005;" horiz-adv-x="473" />
<glyph unicode="&#x2006;" horiz-adv-x="315" />
<glyph unicode="&#x2007;" horiz-adv-x="315" />
<glyph unicode="&#x2008;" horiz-adv-x="235" />
<glyph unicode="&#x2009;" horiz-adv-x="378" />
<glyph unicode="&#x200a;" horiz-adv-x="104" />
<glyph unicode="&#x2010;" horiz-adv-x="688" d="M131 463l39 174h416l-37 -174h-418z" />
<glyph unicode="&#x2011;" horiz-adv-x="688" d="M131 463l39 174h416l-37 -174h-418z" />
<glyph unicode="&#x2012;" horiz-adv-x="688" d="M131 463l39 174h416l-37 -174h-418z" />
<glyph unicode="&#x2013;" horiz-adv-x="1183" d="M98 498l33 143h993l-30 -143h-996z" />
<glyph unicode="&#x2014;" horiz-adv-x="1648" d="M98 498l33 143h1458l-30 -143h-1461z" />
<glyph unicode="&#x2018;" horiz-adv-x="532" d="M242 1065q0 154 168 301q53 47 161 96l58 -94q-61 -27 -110.5 -77t-55.5 -103q41 -4 69.5 -45t28.5 -92q0 -70 -46 -114t-114 -44q-70 0 -114.5 47t-44.5 125z" />
<glyph unicode="&#x2019;" horiz-adv-x="532" d="M195 961q61 27 110 76.5t55 103.5q-41 4 -69.5 45t-28.5 92q0 70 46 114t114 44q70 0 115 -47.5t45 -124.5q0 -154 -168 -301q-53 -47 -162 -97z" />
<glyph unicode="&#x201a;" horiz-adv-x="530" d="M-57 -203q61 27 110 77t56 103q-41 4 -70 45t-29 93q0 70 46 113.5t114 43.5q70 0 115 -47t45 -125q0 -154 -168 -301q-53 -47 -162 -96z" />
<glyph unicode="&#x201c;" horiz-adv-x="956" d="M242 1065q0 154 168 301q53 47 161 96l58 -94q-61 -27 -110.5 -77t-55.5 -103q41 -4 69.5 -45t28.5 -92q0 -70 -46 -114t-114 -44q-70 0 -114.5 47t-44.5 125zM668 1065q0 154 168 301q53 47 161 96l58 -94q-61 -27 -110.5 -77t-55.5 -103q41 -4 69.5 -45t28.5 -92 q0 -70 -46 -114t-114 -44q-70 0 -114.5 47t-44.5 125z" />
<glyph unicode="&#x201d;" horiz-adv-x="950" d="M197 961q61 27 110 76.5t55 103.5q-41 4 -69.5 45t-28.5 92q0 70 46 114t114 44q70 0 115 -47.5t45 -124.5q0 -154 -168 -301q-53 -47 -162 -97zM614 961q61 27 110.5 76.5t55.5 103.5q-41 4 -69.5 45t-28.5 92q0 70 46 114t114 44q70 0 114.5 -47.5t44.5 -124.5 q0 -154 -167 -301q-53 -47 -162 -97z" />
<glyph unicode="&#x201e;" horiz-adv-x="952" d="M-55 -203q61 27 110 77t56 103q-41 4 -70 45t-29 93q0 70 46 113.5t114 43.5q70 0 115 -47t45 -125q0 -154 -168 -301q-53 -47 -162 -96zM367 -203q61 27 110 77t55 103q-41 4 -69.5 45t-28.5 93q0 70 46 113.5t114 43.5q70 0 115 -47t45 -125q0 -154 -168 -301 q-53 -47 -162 -96z" />
<glyph unicode="&#x2022;" horiz-adv-x="1046" d="M211 725q0 152 105.5 257t257 105t257 -105t105.5 -257t-105.5 -257.5t-257 -105.5t-257 105.5t-105.5 257.5z" />
<glyph unicode="&#x2026;" horiz-adv-x="1593" d="M78 122.5q0 61.5 42 104.5t103 43q63 0 106.5 -43t43.5 -104.5t-44 -106.5t-104 -45q-61 0 -104 45t-43 106.5zM559 122.5q0 61.5 42 104.5t104 43q63 0 106 -43t43 -104.5t-44 -106.5t-103 -45q-61 0 -104.5 45t-43.5 106.5zM1040 122.5q0 61.5 42 104.5t104 43 q63 0 107 -43t44 -104.5t-45 -106.5t-104 -45q-61 0 -104.5 45t-43.5 106.5z" />
<glyph unicode="&#x202f;" horiz-adv-x="378" />
<glyph unicode="&#x2039;" horiz-adv-x="665" d="M119 502l411 442l123 -94l-344 -367l174 -354l-143 -82z" />
<glyph unicode="&#x203a;" horiz-adv-x="665" d="M16 141l346 369l-174 354l144 80l223 -455l-414 -442z" />
<glyph unicode="&#x205f;" horiz-adv-x="473" />
<glyph unicode="&#x20ac;" horiz-adv-x="1286" d="M92 473l33 154h211q12 82 37 161h-213l33 154h237q92 229 258 362.5t393 133.5q166 0 289 -76l-70 -166q-88 84 -231 84q-145 0 -262 -96.5t-168 -241.5h498l-33 -154h-522q-16 -57 -35 -161h522l-33 -154h-501q0 -174 74.5 -255t232.5 -81q147 0 278 88v-168 q-168 -78 -327 -77q-219 0 -343 133t-124 360h-234z" />
<glyph unicode="&#x2122;" horiz-adv-x="1923" d="M223 1276l27 133h641l-45 -133h-232l-153 -748h-160l154 748h-232zM844 528l266 881h203l43 -535q2 -25 2 -63q4 6 14 28.5t17 34.5l268 535h205l-103 -881h-157l75 596l2 17l-8 -17l-305 -596h-135l-47 576q0 8 -1 23.5t-3 23.5q-2 -18 -13 -49l-163 -574h-160z" />
<glyph unicode="&#xe000;" horiz-adv-x="1035" d="M0 1035h1035v-1035h-1035v1035z" />
<glyph unicode="&#xfb01;" horiz-adv-x="1136" d="M-55 -342q98 125 139 332l178 899h-104l26 139h105l24 137q35 195 166 277q78 49 199 49q133 0 207 -51l-74 -131q-61 39 -139 39q-66 0 -110 -43t-58 -121l-29 -156h606l-219 -1028h-196l190 889h-405l-181 -909q-51 -260 -184 -414zM913 1335.5q0 57.5 40 97.5t97.5 40 t96.5 -40t39 -97.5t-40 -96.5t-97 -39q-55 0 -95.5 39t-40.5 96.5z" />
<glyph unicode="&#xfb02;" horiz-adv-x="1142" d="M-55 -342q100 131 139 332l176 899h-104l28 139h103l26 137q39 199 164 277q82 49 201 49q129 0 205 -51l-74 -133q-63 41 -139 41q-63 0 -107.5 -43t-58.5 -121l-31 -156h277l-82 -139h-219l-181 -909q-51 -264 -184 -414zM702 117q0 43 17 114l190 906q43 203 21 309 l200 65q29 -109 -24 -358l-188 -877q-16 -72 -17 -106q0 -51 47 -51q27 0 37 4l10 -121q-59 -25 -137 -25q-76 0 -116 37t-40 103z" />
<glyph unicode="&#xfb03;" horiz-adv-x="1689" d="M1219 0l217 1020l203 31l-224 -1051h-196zM1466 1335.5q0 57.5 40 97.5t97.5 40t96.5 -40t39 -97.5t-39 -96.5t-96.5 -39t-97.5 39t-40 96.5zM518 -342q100 131 139 332l176 899h-104l26 139h103q23 113 26 137q39 195 166 277q78 49 199 49q131 0 209 -53l-74 -133 q-66 43 -141 43q-63 0 -108.5 -43t-59.5 -121l-29 -156h279l-82 -139h-221l-181 -909q-51 -264 -184 -414zM-55 -342q100 131 139 332l176 899h-104l26 139h103q23 113 26 137q39 195 166 277q78 49 199 49q131 0 209 -53l-74 -133q-66 43 -141 43q-63 0 -108.5 -43 t-59.5 -121l-29 -156h279l-82 -139h-221l-181 -909q-51 -264 -184 -414z" />
<glyph unicode="&#xfb04;" horiz-adv-x="1685" d="M1249 117q0 43 17 114l190 906q25 121 25 204q0 60 -12 101l200 71q14 -47 14 -115q0 -100 -30 -245l-189 -877q-16 -72 -16 -106q0 -51 47 -51q27 0 37 4l10 -121q-59 -25 -137 -25q-76 0 -116 37t-40 103zM518 -342q100 131 139 332l176 899h-104l26 139h103 q23 113 26 137q39 195 166 277q78 49 199 49q131 0 209 -53l-74 -133q-66 43 -141 43q-63 0 -108.5 -43t-59.5 -121l-29 -156h279l-82 -139h-221l-181 -909q-51 -264 -184 -414zM-55 -342q100 131 139 332l176 899h-104l26 139h103q23 113 26 137q39 195 166 277 q78 49 199 49q131 0 209 -53l-74 -133q-66 43 -141 43q-63 0 -108.5 -43t-59.5 -121l-29 -156h279l-82 -139h-221l-181 -909q-51 -264 -184 -414z" />
</font>
</defs>
</svg>
